M48
; DRILL file {KiCad 7.0.7} date Sat Apr 13 12:28:54 2024
; FORMAT={-:-/ absolute / metric / decimal}
; #@! TF.CreationDate,2024-04-13T12:28:54-04:00
; #@! TF.GenerationSoftware,Kicad,Pcbnew,7.0.7
; #@! TF.FileFunction,Plated,1,2,PTH
FMAT,2
METRIC
; #@! TA.AperFunction,Plated,PTH,ViaDrill
T1C0.400
; #@! TA.AperFunction,Plated,PTH,ComponentDrill
T2C0.500
; #@! TA.AperFunction,Plated,PTH,ComponentDrill
T3C0.600
; #@! TA.AperFunction,Plated,PTH,ComponentDrill
T4C0.950
; #@! TA.AperFunction,Plated,PTH,ComponentDrill
T5C2.300
%
G90
G05
T1
X142.773Y-92.405
X143.154Y-100.203
X143.332Y-96.215
X143.662Y-102.032
X144.336Y-92.405
X144.577Y-103.454
X145.136Y-100.203
X145.364Y-107.239
X146.7Y-119.0
X147.9Y-119.1
X148.285Y-108.458
X149.606Y-96.52
X149.606Y-98.806
X149.86Y-100.203
X151.587Y-80.823
T4
X151.866Y-64.064
X151.866Y-66.564
X151.866Y-68.564
X151.866Y-71.064
X151.866Y-127.022
X151.866Y-129.522
X151.866Y-131.522
X151.866Y-134.022
X151.892Y-85.0
X151.892Y-87.5
X151.892Y-89.5
X151.892Y-92.0
X151.976Y-105.974
X151.976Y-108.474
X151.976Y-110.474
X151.976Y-112.974
T5
X154.576Y-60.994
X154.576Y-74.134
X154.576Y-123.952
X154.576Y-137.092
X154.602Y-81.93
X154.602Y-95.07
X154.686Y-102.904
X154.686Y-116.044
T2
G00X141.15Y-117.1
M15
G01X141.85Y-117.1
M16
G05
G00X141.15Y-123.7
M15
G01X141.85Y-123.7
M16
G05
T3
G00X142.962Y-73.38
M15
G01X142.362Y-73.38
M16
G05
G00X142.962Y-82.02
M15
G01X142.362Y-82.02
M16
G05
G00X147.392Y-73.38
M15
G01X146.292Y-73.38
M16
G05
G00X147.392Y-82.02
M15
G01X146.292Y-82.02
M16
G05
T0
M30
