%TF.GenerationSoftware,KiCad,Pcbnew,7.0.7*%
%TF.CreationDate,2024-03-19T09:59:50-04:00*%
%TF.ProjectId,HS8836A_USBC_hub,48533838-3336-4415-9f55-5342435f6875,rev?*%
%TF.SameCoordinates,Original*%
%TF.FileFunction,Copper,L1,Top*%
%TF.FilePolarity,Positive*%
%FSLAX46Y46*%
G04 Gerber Fmt 4.6, Leading zero omitted, Abs format (unit mm)*
G04 Created by KiCad (PCBNEW 7.0.7) date 2024-03-19 09:59:50*
%MOMM*%
%LPD*%
G01*
G04 APERTURE LIST*
G04 Aperture macros list*
%AMRoundRect*
0 Rectangle with rounded corners*
0 $1 Rounding radius*
0 $2 $3 $4 $5 $6 $7 $8 $9 X,Y pos of 4 corners*
0 Add a 4 corners polygon primitive as box body*
4,1,4,$2,$3,$4,$5,$6,$7,$8,$9,$2,$3,0*
0 Add four circle primitives for the rounded corners*
1,1,$1+$1,$2,$3*
1,1,$1+$1,$4,$5*
1,1,$1+$1,$6,$7*
1,1,$1+$1,$8,$9*
0 Add four rect primitives between the rounded corners*
20,1,$1+$1,$2,$3,$4,$5,0*
20,1,$1+$1,$4,$5,$6,$7,0*
20,1,$1+$1,$6,$7,$8,$9,0*
20,1,$1+$1,$8,$9,$2,$3,0*%
G04 Aperture macros list end*
%TA.AperFunction,SMDPad,CuDef*%
%ADD10RoundRect,0.250000X-0.375000X-0.625000X0.375000X-0.625000X0.375000X0.625000X-0.375000X0.625000X0*%
%TD*%
%TA.AperFunction,SMDPad,CuDef*%
%ADD11RoundRect,0.237500X0.250000X0.237500X-0.250000X0.237500X-0.250000X-0.237500X0.250000X-0.237500X0*%
%TD*%
%TA.AperFunction,SMDPad,CuDef*%
%ADD12RoundRect,0.237500X0.300000X0.237500X-0.300000X0.237500X-0.300000X-0.237500X0.300000X-0.237500X0*%
%TD*%
%TA.AperFunction,SMDPad,CuDef*%
%ADD13RoundRect,0.100000X-0.575000X0.100000X-0.575000X-0.100000X0.575000X-0.100000X0.575000X0.100000X0*%
%TD*%
%TA.AperFunction,ComponentPad*%
%ADD14O,1.600000X0.900000*%
%TD*%
%TA.AperFunction,SMDPad,CuDef*%
%ADD15RoundRect,0.250000X-0.450000X0.550000X-0.450000X-0.550000X0.450000X-0.550000X0.450000X0.550000X0*%
%TD*%
%TA.AperFunction,SMDPad,CuDef*%
%ADD16RoundRect,0.250000X-0.700000X0.700000X-0.700000X-0.700000X0.700000X-0.700000X0.700000X0.700000X0*%
%TD*%
%TA.AperFunction,SMDPad,CuDef*%
%ADD17RoundRect,0.162500X-0.750000X-0.162500X0.750000X-0.162500X0.750000X0.162500X-0.750000X0.162500X0*%
%TD*%
%TA.AperFunction,SMDPad,CuDef*%
%ADD18RoundRect,0.237500X-0.300000X-0.237500X0.300000X-0.237500X0.300000X0.237500X-0.300000X0.237500X0*%
%TD*%
%TA.AperFunction,SMDPad,CuDef*%
%ADD19RoundRect,0.237500X-0.250000X-0.237500X0.250000X-0.237500X0.250000X0.237500X-0.250000X0.237500X0*%
%TD*%
%TA.AperFunction,ComponentPad*%
%ADD20O,1.600000X1.000000*%
%TD*%
%TA.AperFunction,ComponentPad*%
%ADD21O,2.100000X1.000000*%
%TD*%
%TA.AperFunction,SMDPad,CuDef*%
%ADD22R,1.450000X0.600000*%
%TD*%
%TA.AperFunction,SMDPad,CuDef*%
%ADD23R,1.450000X0.300000*%
%TD*%
%TA.AperFunction,ComponentPad*%
%ADD24R,1.500000X1.600000*%
%TD*%
%TA.AperFunction,ComponentPad*%
%ADD25C,1.600000*%
%TD*%
%TA.AperFunction,ComponentPad*%
%ADD26C,3.000000*%
%TD*%
%TA.AperFunction,ViaPad*%
%ADD27C,0.800000*%
%TD*%
%TA.AperFunction,Conductor*%
%ADD28C,0.600000*%
%TD*%
%TA.AperFunction,Conductor*%
%ADD29C,0.250000*%
%TD*%
%TA.AperFunction,Conductor*%
%ADD30C,0.200000*%
%TD*%
G04 APERTURE END LIST*
D10*
%TO.P,D1,1,K*%
%TO.N,Net-(D1-K)*%
X141200000Y-126900000D03*
%TO.P,D1,2,A*%
%TO.N,VCC*%
X144000000Y-126900000D03*
%TD*%
D11*
%TO.P,R2,1*%
%TO.N,GND*%
X159385000Y-100965000D03*
%TO.P,R2,2*%
%TO.N,Net-(U1-REF)*%
X157560000Y-100965000D03*
%TD*%
D12*
%TO.P,C2,1*%
%TO.N,Net-(U1-VCC)*%
X154125000Y-97790000D03*
%TO.P,C2,2*%
%TO.N,GND*%
X152400000Y-97790000D03*
%TD*%
D13*
%TO.P,J6,1,VBUS*%
%TO.N,VCC*%
X144175000Y-119100000D03*
%TO.P,J6,2,D-*%
%TO.N,D-*%
X144175000Y-119750000D03*
%TO.P,J6,3,D+*%
%TO.N,D+*%
X144175000Y-120400000D03*
%TO.P,J6,4,ID*%
%TO.N,unconnected-(J6-ID-Pad4)*%
X144175000Y-121050000D03*
%TO.P,J6,5,GND*%
%TO.N,GND*%
X144175000Y-121700000D03*
D14*
%TO.P,J6,6,Shield*%
X141500000Y-117100000D03*
D15*
X143950000Y-117200000D03*
D16*
X141500000Y-119200000D03*
X141500000Y-121600000D03*
D15*
X143950000Y-123600000D03*
D14*
X141500000Y-123700000D03*
%TD*%
D17*
%TO.P,U1,1,DM1*%
%TO.N,Net-(J5-D-)*%
X141653000Y-93890000D03*
%TO.P,U1,2,DP1*%
%TO.N,Net-(J5-D+)*%
X141653000Y-95160000D03*
%TO.P,U1,3,DM2*%
%TO.N,Net-(J4-D-)*%
X141653000Y-96430000D03*
%TO.P,U1,4,DP2*%
%TO.N,Net-(J4-D+)*%
X141653000Y-97700000D03*
%TO.P,U1,5,DM3*%
%TO.N,Net-(J3-D-)*%
X141653000Y-98970000D03*
%TO.P,U1,6,DP3*%
%TO.N,Net-(J3-D+)*%
X141653000Y-100240000D03*
%TO.P,U1,7,DM4*%
%TO.N,Net-(J2-D-)*%
X141653000Y-101510000D03*
%TO.P,U1,8,DP4*%
%TO.N,Net-(J2-D+)*%
X141653000Y-102780000D03*
%TO.P,U1,9,REF*%
%TO.N,Net-(U1-REF)*%
X147828000Y-102780000D03*
%TO.P,U1,10,UM*%
%TO.N,D+*%
X147828000Y-101510000D03*
%TO.P,U1,11,UP*%
%TO.N,D-*%
X147828000Y-100240000D03*
%TO.P,U1,12,DCP*%
%TO.N,Net-(U1-DCP)*%
X147828000Y-98970000D03*
%TO.P,U1,13,VCC*%
%TO.N,Net-(U1-VCC)*%
X147828000Y-97700000D03*
%TO.P,U1,14,V33*%
%TO.N,Net-(U1-DCP)*%
X147828000Y-96430000D03*
%TO.P,U1,15,NC*%
%TO.N,unconnected-(U1-NC-Pad15)*%
X147828000Y-95160000D03*
%TO.P,U1,16,GND*%
%TO.N,GND*%
X147828000Y-93890000D03*
%TD*%
D18*
%TO.P,C3,1*%
%TO.N,Net-(U1-DCP)*%
X161470000Y-97790000D03*
%TO.P,C3,2*%
%TO.N,GND*%
X163195000Y-97790000D03*
%TD*%
D11*
%TO.P,R3,1*%
%TO.N,GND*%
X143500000Y-129100000D03*
%TO.P,R3,2*%
%TO.N,Net-(D1-K)*%
X141675000Y-129100000D03*
%TD*%
%TO.P,R1,1*%
%TO.N,VCC*%
X159385000Y-97790000D03*
%TO.P,R1,2*%
%TO.N,Net-(U1-VCC)*%
X157560000Y-97790000D03*
%TD*%
D19*
%TO.P,R4,1*%
%TO.N,Net-(J1-CC1)*%
X156975000Y-76700000D03*
%TO.P,R4,2*%
%TO.N,GND*%
X158800000Y-76700000D03*
%TD*%
D20*
%TO.P,J1,S1,SHIELD*%
%TO.N,GND*%
X142662000Y-82020000D03*
D21*
X146842000Y-82020000D03*
D20*
X142662000Y-73380000D03*
D21*
X146842000Y-73380000D03*
D22*
%TO.P,J1,B12,GND*%
X147757000Y-74450000D03*
%TO.P,J1,B9,VBUS*%
%TO.N,VCC*%
X147757000Y-75250000D03*
D23*
%TO.P,J1,B8,SBU2*%
%TO.N,unconnected-(J1-SBU2-PadB8)*%
X147757000Y-75950000D03*
%TO.P,J1,B7,D-*%
%TO.N,D-*%
X147757000Y-76950000D03*
%TO.P,J1,B6,D+*%
%TO.N,D+*%
X147757000Y-78450000D03*
%TO.P,J1,B5,CC2*%
%TO.N,Net-(J1-CC2)*%
X147757000Y-79450000D03*
D22*
%TO.P,J1,B4,VBUS*%
%TO.N,VCC*%
X147757000Y-80150000D03*
%TO.P,J1,B1,GND*%
%TO.N,GND*%
X147757000Y-80950000D03*
%TO.P,J1,A12,GND*%
X147757000Y-80950000D03*
%TO.P,J1,A9,VBUS*%
%TO.N,VCC*%
X147757000Y-80150000D03*
D23*
%TO.P,J1,A8,SBU1*%
%TO.N,unconnected-(J1-SBU1-PadA8)*%
X147757000Y-78950000D03*
%TO.P,J1,A7,D-*%
%TO.N,D-*%
X147757000Y-77950000D03*
%TO.P,J1,A6,D+*%
%TO.N,D+*%
X147757000Y-77450000D03*
%TO.P,J1,A5,CC1*%
%TO.N,Net-(J1-CC1)*%
X147757000Y-76450000D03*
D22*
%TO.P,J1,A4,VBUS*%
%TO.N,VCC*%
X147757000Y-75250000D03*
%TO.P,J1,A1,GND*%
%TO.N,GND*%
X147757000Y-74450000D03*
%TD*%
D19*
%TO.P,R5,1*%
%TO.N,Net-(J1-CC2)*%
X156975000Y-79200000D03*
%TO.P,R5,2*%
%TO.N,GND*%
X158800000Y-79200000D03*
%TD*%
D18*
%TO.P,C1,1*%
%TO.N,Net-(U1-DCP)*%
X161470000Y-100965000D03*
%TO.P,C1,2*%
%TO.N,GND*%
X163195000Y-100965000D03*
%TD*%
D24*
%TO.P,J2,1,VBUS*%
%TO.N,VCC*%
X151866000Y-134022000D03*
D25*
%TO.P,J2,2,D-*%
%TO.N,Net-(J2-D-)*%
X151866000Y-131522000D03*
%TO.P,J2,3,D+*%
%TO.N,Net-(J2-D+)*%
X151866000Y-129522000D03*
%TO.P,J2,4,GND*%
%TO.N,GND*%
X151866000Y-127022000D03*
D26*
%TO.P,J2,5,Shield*%
X154576000Y-137092000D03*
X154576000Y-123952000D03*
%TD*%
D24*
%TO.P,J5,1,VBUS*%
%TO.N,VCC*%
X151866000Y-71064000D03*
D25*
%TO.P,J5,2,D-*%
%TO.N,Net-(J5-D-)*%
X151866000Y-68564000D03*
%TO.P,J5,3,D+*%
%TO.N,Net-(J5-D+)*%
X151866000Y-66564000D03*
%TO.P,J5,4,GND*%
%TO.N,GND*%
X151866000Y-64064000D03*
D26*
%TO.P,J5,5,Shield*%
X154576000Y-74134000D03*
X154576000Y-60994000D03*
%TD*%
D24*
%TO.P,J3,1,VBUS*%
%TO.N,VCC*%
X151976000Y-112974000D03*
D25*
%TO.P,J3,2,D-*%
%TO.N,Net-(J3-D-)*%
X151976000Y-110474000D03*
%TO.P,J3,3,D+*%
%TO.N,Net-(J3-D+)*%
X151976000Y-108474000D03*
%TO.P,J3,4,GND*%
%TO.N,GND*%
X151976000Y-105974000D03*
D26*
%TO.P,J3,5,Shield*%
X154686000Y-116044000D03*
X154686000Y-102904000D03*
%TD*%
D24*
%TO.P,J4,1,VBUS*%
%TO.N,VCC*%
X151892000Y-92000000D03*
D25*
%TO.P,J4,2,D-*%
%TO.N,Net-(J4-D-)*%
X151892000Y-89500000D03*
%TO.P,J4,3,D+*%
%TO.N,Net-(J4-D+)*%
X151892000Y-87500000D03*
%TO.P,J4,4,GND*%
%TO.N,GND*%
X151892000Y-85000000D03*
D26*
%TO.P,J4,5,Shield*%
X154602000Y-95070000D03*
X154602000Y-81930000D03*
%TD*%
D27*
%TO.N,VCC*%
X151587200Y-80822800D03*
%TO.N,Net-(J3-D+)*%
X145364200Y-107238800D03*
X148285200Y-108458000D03*
X143154400Y-100203000D03*
%TO.N,Net-(J2-D+)*%
X144576800Y-103454200D03*
%TO.N,Net-(J2-D-)*%
X143662400Y-102031800D03*
%TO.N,D-*%
X145135600Y-100203000D03*
%TO.N,Net-(J4-D-)*%
X143332200Y-96215200D03*
%TO.N,Net-(J4-D+)*%
X144336100Y-92405200D03*
%TO.N,Net-(J5-D-)*%
X142773400Y-92405200D03*
%TO.N,D-*%
X149834600Y-100228400D03*
%TO.N,D+*%
X149809200Y-101777800D03*
%TO.N,Net-(U1-DCP)*%
X149606000Y-98806000D03*
X149606000Y-96520000D03*
%TO.N,D+*%
X147900000Y-119100000D03*
%TO.N,D-*%
X146700000Y-119000000D03*
%TD*%
D28*
%TO.N,VCC*%
X158878200Y-92000000D02*
X151892000Y-92000000D01*
X159385000Y-92506800D02*
X158878200Y-92000000D01*
X159385000Y-97790000D02*
X159385000Y-92506800D01*
X150914400Y-80150000D02*
X151587200Y-80822800D01*
X147757000Y-80150000D02*
X150914400Y-80150000D01*
X150479800Y-75250000D02*
X151866000Y-73863800D01*
X147757000Y-75250000D02*
X150479800Y-75250000D01*
X151866000Y-73863800D02*
X151866000Y-71064000D01*
X144983000Y-119050000D02*
X144322600Y-119050000D01*
X145567400Y-118364000D02*
X145618200Y-118414800D01*
X145567400Y-116332000D02*
X145567400Y-118364000D01*
X151976000Y-112974000D02*
X148925400Y-112974000D01*
X148925400Y-112974000D02*
X145567400Y-116332000D01*
X145618200Y-118414800D02*
X144983000Y-119050000D01*
X148488400Y-132638800D02*
X149871600Y-134022000D01*
X149871600Y-134022000D02*
X151866000Y-134022000D01*
X148488400Y-128066800D02*
X148488400Y-132638800D01*
X147321600Y-126900000D02*
X148488400Y-128066800D01*
X144000000Y-126900000D02*
X147321600Y-126900000D01*
D29*
%TO.N,Net-(J3-D+)*%
X146583400Y-108458000D02*
X145364200Y-107238800D01*
X148285200Y-108458000D02*
X146583400Y-108458000D01*
%TO.N,Net-(J3-D-)*%
X146380200Y-104063800D02*
X145415000Y-103098600D01*
X147294600Y-104063800D02*
X146380200Y-104063800D01*
X149555200Y-106324400D02*
X147294600Y-104063800D01*
X149555200Y-109296200D02*
X149555200Y-106324400D01*
X150733000Y-110474000D02*
X149555200Y-109296200D01*
X151976000Y-110474000D02*
X150733000Y-110474000D01*
X145415000Y-101507705D02*
X145415000Y-103098600D01*
X144018000Y-100110705D02*
X145415000Y-101507705D01*
X144018000Y-99415600D02*
X144018000Y-100110705D01*
X143572400Y-98970000D02*
X144018000Y-99415600D01*
X141653000Y-98970000D02*
X143572400Y-98970000D01*
%TO.N,Net-(J3-D+)*%
X143117400Y-100240000D02*
X143154400Y-100203000D01*
X141653000Y-100240000D02*
X143117400Y-100240000D01*
%TO.N,Net-(J2-D+)*%
X142327200Y-103454200D02*
X144576800Y-103454200D01*
X141653000Y-102780000D02*
X142327200Y-103454200D01*
%TO.N,Net-(J2-D-)*%
X141653000Y-101510000D02*
X143140600Y-101510000D01*
X143140600Y-101510000D02*
X143662400Y-102031800D01*
D30*
%TO.N,D+*%
X145908200Y-78450000D02*
X147757000Y-78450000D01*
X145036100Y-79322100D02*
X145908200Y-78450000D01*
X145036100Y-87743714D02*
X145036100Y-79322100D01*
X145535600Y-88243214D02*
X145036100Y-87743714D01*
X145535600Y-98952000D02*
X145535600Y-88243214D01*
X145948400Y-99364800D02*
X145535600Y-98952000D01*
X145948400Y-100558600D02*
X145948400Y-99364800D01*
X146899800Y-101510000D02*
X145948400Y-100558600D01*
X147828000Y-101510000D02*
X146899800Y-101510000D01*
%TO.N,D-*%
X145135600Y-88408900D02*
X144636100Y-87909400D01*
X145135600Y-100203000D02*
X145135600Y-88408900D01*
X146220914Y-77571600D02*
X144636100Y-79156415D01*
X144636100Y-79156415D02*
X144636100Y-87909400D01*
X146456400Y-77571600D02*
X146220914Y-77571600D01*
D29*
%TO.N,Net-(J4-D-)*%
X143117400Y-96430000D02*
X143332200Y-96215200D01*
X141653000Y-96430000D02*
X143117400Y-96430000D01*
%TO.N,Net-(J4-D+)*%
X143092000Y-97700000D02*
X141653000Y-97700000D01*
X144336100Y-96455900D02*
X143092000Y-97700000D01*
X144336100Y-92405200D02*
X144336100Y-96455900D01*
%TO.N,Net-(J5-D+)*%
X142965000Y-95160000D02*
X141653000Y-95160000D01*
X141046200Y-88569800D02*
X143611600Y-91135200D01*
X143611600Y-91135200D02*
X143611600Y-94513400D01*
X144129000Y-66564000D02*
X141046200Y-69646800D01*
X141046200Y-69646800D02*
X141046200Y-88569800D01*
X143611600Y-94513400D02*
X142965000Y-95160000D01*
X151866000Y-66564000D02*
X144129000Y-66564000D01*
%TO.N,Net-(J5-D-)*%
X142798800Y-93395800D02*
X142798800Y-92430600D01*
X142798800Y-92430600D02*
X142773400Y-92405200D01*
X142304600Y-93890000D02*
X142798800Y-93395800D01*
X141653000Y-93890000D02*
X142304600Y-93890000D01*
D30*
%TO.N,D-*%
X149823000Y-100240000D02*
X149834600Y-100228400D01*
X147828000Y-100240000D02*
X149823000Y-100240000D01*
%TO.N,D+*%
X149541400Y-101510000D02*
X149809200Y-101777800D01*
X147828000Y-101510000D02*
X149541400Y-101510000D01*
%TO.N,D-*%
X146456400Y-77571600D02*
X146456400Y-77698600D01*
X146456400Y-77139800D02*
X146456400Y-77571600D01*
%TO.N,D+*%
X149352000Y-78257400D02*
X149159400Y-78450000D01*
X149352000Y-77673200D02*
X149352000Y-78257400D01*
X149159400Y-78450000D02*
X147757000Y-78450000D01*
X149128800Y-77450000D02*
X149352000Y-77673200D01*
X147757000Y-77450000D02*
X149128800Y-77450000D01*
%TO.N,D-*%
X146646200Y-76950000D02*
X146456400Y-77139800D01*
X147757000Y-76950000D02*
X146646200Y-76950000D01*
X147757000Y-77950000D02*
X146707800Y-77950000D01*
X146707800Y-77950000D02*
X146456400Y-77698600D01*
D29*
%TO.N,Net-(U1-DCP)*%
X150056000Y-99256000D02*
X161412000Y-99256000D01*
X149606000Y-98806000D02*
X150056000Y-99256000D01*
X149442000Y-98970000D02*
X149606000Y-98806000D01*
X147828000Y-98970000D02*
X149442000Y-98970000D01*
X149516000Y-96430000D02*
X149606000Y-96520000D01*
X147828000Y-96430000D02*
X149516000Y-96430000D01*
X161470000Y-99314000D02*
X161470000Y-97790000D01*
X161470000Y-100965000D02*
X161470000Y-99314000D01*
X161412000Y-99256000D02*
X161470000Y-99314000D01*
%TO.N,Net-(U1-REF)*%
X150907347Y-102838653D02*
X147886652Y-102838653D01*
X153416000Y-100330000D02*
X150907347Y-102838653D01*
X156925000Y-100330000D02*
X153416000Y-100330000D01*
X157560000Y-100965000D02*
X156925000Y-100330000D01*
%TO.N,Net-(U1-VCC)*%
X154125000Y-97790000D02*
X157560000Y-97790000D01*
X150024000Y-97700000D02*
X147828000Y-97700000D01*
X151130000Y-98806000D02*
X150024000Y-97700000D01*
X154125000Y-97790000D02*
X154125000Y-98351000D01*
X154125000Y-98351000D02*
X153670000Y-98806000D01*
X153670000Y-98806000D02*
X151130000Y-98806000D01*
%TO.N,Net-(D1-K)*%
X141200000Y-128625000D02*
X141675000Y-129100000D01*
X141475000Y-127175000D02*
X141200000Y-126900000D01*
X141200000Y-126900000D02*
X141200000Y-128625000D01*
%TO.N,Net-(J1-CC1)*%
X147800000Y-76450000D02*
X156725000Y-76450000D01*
X156725000Y-76450000D02*
X156975000Y-76700000D01*
D30*
%TO.N,D+*%
X144175000Y-120400000D02*
X146600000Y-120400000D01*
X147410000Y-101510000D02*
X147010000Y-101510000D01*
X147400000Y-101520000D02*
X147410000Y-101510000D01*
X146600000Y-120400000D02*
X147900000Y-119100000D01*
%TO.N,D-*%
X145950000Y-119750000D02*
X146700000Y-119000000D01*
X144175000Y-119750000D02*
X145950000Y-119750000D01*
D29*
%TO.N,Net-(J1-CC2)*%
X147800000Y-79450000D02*
X156725000Y-79450000D01*
X156725000Y-79450000D02*
X156975000Y-79200000D01*
%TD*%
%TA.AperFunction,Conductor*%
%TO.N,GND*%
G36*
X162000942Y-57500557D02*
G01*
X162299408Y-57518610D01*
X162303123Y-57519061D01*
X162596316Y-57572791D01*
X162599974Y-57573693D01*
X162884525Y-57662363D01*
X162888056Y-57663701D01*
X163159860Y-57786030D01*
X163163197Y-57787783D01*
X163418265Y-57941977D01*
X163421357Y-57944111D01*
X163655988Y-58127932D01*
X163658806Y-58130428D01*
X163869570Y-58341192D01*
X163872067Y-58344011D01*
X164055886Y-58578638D01*
X164058027Y-58581741D01*
X164212216Y-58836802D01*
X164213972Y-58840146D01*
X164336297Y-59111942D01*
X164337636Y-59115474D01*
X164426306Y-59400025D01*
X164427210Y-59403692D01*
X164480935Y-59696856D01*
X164481390Y-59700605D01*
X164499443Y-59999057D01*
X164499500Y-60000944D01*
X164499500Y-137999054D01*
X164499443Y-138000941D01*
X164481390Y-138299394D01*
X164480935Y-138303143D01*
X164427210Y-138596307D01*
X164426306Y-138599974D01*
X164337636Y-138884525D01*
X164336297Y-138888057D01*
X164213972Y-139159853D01*
X164212216Y-139163197D01*
X164058027Y-139418258D01*
X164055882Y-139421366D01*
X163872067Y-139655988D01*
X163869563Y-139658815D01*
X163658815Y-139869563D01*
X163655988Y-139872067D01*
X163421366Y-140055882D01*
X163418258Y-140058027D01*
X163163197Y-140212216D01*
X163159853Y-140213972D01*
X162888057Y-140336297D01*
X162884525Y-140337636D01*
X162599974Y-140426306D01*
X162596307Y-140427210D01*
X162407253Y-140461855D01*
X162303139Y-140480935D01*
X162299394Y-140481390D01*
X162000942Y-140499443D01*
X161999055Y-140499500D01*
X143000945Y-140499500D01*
X142999058Y-140499443D01*
X142700605Y-140481390D01*
X142696862Y-140480935D01*
X142507802Y-140446289D01*
X142403692Y-140427210D01*
X142400025Y-140426306D01*
X142115474Y-140337636D01*
X142111942Y-140336297D01*
X141840146Y-140213972D01*
X141836802Y-140212216D01*
X141581741Y-140058027D01*
X141578638Y-140055886D01*
X141344011Y-139872067D01*
X141341192Y-139869570D01*
X141130428Y-139658806D01*
X141127932Y-139655988D01*
X140944111Y-139421357D01*
X140941977Y-139418265D01*
X140787783Y-139163197D01*
X140786030Y-139159860D01*
X140663701Y-138888056D01*
X140662363Y-138884525D01*
X140636929Y-138802906D01*
X140573692Y-138599971D01*
X140572791Y-138596316D01*
X140519061Y-138303123D01*
X140518610Y-138299408D01*
X140500557Y-138000941D01*
X140500500Y-137999054D01*
X140500500Y-137092003D01*
X152821093Y-137092003D01*
X152840694Y-137353554D01*
X152840694Y-137353556D01*
X152899057Y-137609261D01*
X152899058Y-137609264D01*
X152994886Y-137853433D01*
X153126027Y-138080574D01*
X153126034Y-138080583D01*
X153252303Y-138238918D01*
X153252304Y-138238919D01*
X153631371Y-137859851D01*
X153675565Y-137841545D01*
X153719759Y-137859851D01*
X153721753Y-137861939D01*
X153797925Y-137945495D01*
X153797926Y-137945496D01*
X153797931Y-137945501D01*
X153798346Y-137945814D01*
X153798428Y-137945954D01*
X153800064Y-137947445D01*
X153799602Y-137947951D01*
X153822589Y-137987049D01*
X153810574Y-138033351D01*
X153804884Y-138039890D01*
X153429392Y-138415382D01*
X153429392Y-138415383D01*
X153481834Y-138464043D01*
X153698546Y-138611793D01*
X153934864Y-138725598D01*
X153934868Y-138725599D01*
X154185488Y-138802906D01*
X154185487Y-138802906D01*
X154444856Y-138841999D01*
X154444862Y-138842000D01*
X154707138Y-138842000D01*
X154707143Y-138841999D01*
X154966512Y-138802906D01*
X155217131Y-138725599D01*
X155217135Y-138725598D01*
X155453454Y-138611793D01*
X155670166Y-138464042D01*
X155722606Y-138415382D01*
X155347115Y-138039891D01*
X155328809Y-137995697D01*
X155347115Y-137951503D01*
X155353645Y-137945821D01*
X155354069Y-137945501D01*
X155430247Y-137861937D01*
X155473546Y-137841612D01*
X155518539Y-137857857D01*
X155520627Y-137859851D01*
X155899694Y-138238919D01*
X155899695Y-138238918D01*
X156025967Y-138080579D01*
X156025975Y-138080567D01*
X156157113Y-137853433D01*
X156252941Y-137609264D01*
X156252942Y-137609261D01*
X156311305Y-137353556D01*
X156311305Y-137353554D01*
X156330907Y-137092003D01*
X156330907Y-137091996D01*
X156311305Y-136830445D01*
X156311305Y-136830443D01*
X156252942Y-136574738D01*
X156252941Y-136574735D01*
X156157113Y-136330566D01*
X156025975Y-136103432D01*
X156025967Y-136103419D01*
X155899695Y-135945080D01*
X155899694Y-135945079D01*
X155520627Y-136324147D01*
X155476433Y-136342453D01*
X155432239Y-136324147D01*
X155430245Y-136322059D01*
X155354066Y-136238496D01*
X155354062Y-136238492D01*
X155353637Y-136238171D01*
X155353552Y-136238027D01*
X155351932Y-136236550D01*
X155352389Y-136236047D01*
X155329407Y-136196926D01*
X155341439Y-136150629D01*
X155347115Y-136144107D01*
X155722606Y-135768615D01*
X155670165Y-135719956D01*
X155453454Y-135572206D01*
X155217135Y-135458401D01*
X155217131Y-135458400D01*
X154966511Y-135381093D01*
X154966512Y-135381093D01*
X154707143Y-135342000D01*
X154444856Y-135342000D01*
X154185487Y-135381093D01*
X153934868Y-135458400D01*
X153934864Y-135458401D01*
X153698546Y-135572206D01*
X153481841Y-135719951D01*
X153481834Y-135719956D01*
X153429392Y-135768615D01*
X153429392Y-135768616D01*
X153804884Y-136144108D01*
X153823190Y-136188302D01*
X153804884Y-136232496D01*
X153798359Y-136238175D01*
X153797931Y-136238497D01*
X153721752Y-136322060D01*
X153678450Y-136342386D01*
X153633458Y-136326140D01*
X153631371Y-136324147D01*
X153252304Y-135945079D01*
X153252303Y-135945080D01*
X153126034Y-136103416D01*
X153126027Y-136103425D01*
X152994886Y-136330566D01*
X152899058Y-136574735D01*
X152899057Y-136574738D01*
X152840694Y-136830443D01*
X152840694Y-136830445D01*
X152821093Y-137091996D01*
X152821093Y-137092003D01*
X140500500Y-137092003D01*
X140500500Y-134000002D01*
X143644341Y-134000002D01*
X143664936Y-134235404D01*
X143664939Y-134235420D01*
X143726095Y-134463659D01*
X143726096Y-134463661D01*
X143825964Y-134677828D01*
X143961505Y-134871402D01*
X144128597Y-135038494D01*
X144177162Y-135072499D01*
X144322171Y-135174035D01*
X144322170Y-135174035D01*
X144429253Y-135223968D01*
X144536337Y-135273903D01*
X144536339Y-135273903D01*
X144536340Y-135273904D01*
X144764579Y-135335060D01*
X144764585Y-135335061D01*
X144764592Y-135335063D01*
X144941034Y-135350500D01*
X145058966Y-135350500D01*
X145235408Y-135335063D01*
X145235417Y-135335060D01*
X145235420Y-135335060D01*
X145463659Y-135273904D01*
X145463658Y-135273904D01*
X145463663Y-135273903D01*
X145677829Y-135174035D01*
X145871401Y-135038495D01*
X146038495Y-134871401D01*
X146174035Y-134677830D01*
X146273903Y-134463663D01*
X146335063Y-134235408D01*
X146355659Y-134000000D01*
X146335063Y-133764592D01*
X146273903Y-133536337D01*
X146174035Y-133322171D01*
X146086618Y-133197326D01*
X146038494Y-133128597D01*
X145871402Y-132961505D01*
X145701666Y-132842656D01*
X145677829Y-132825965D01*
X145677827Y-132825964D01*
X145677829Y-132825964D01*
X145463661Y-132726096D01*
X145463659Y-132726095D01*
X145235420Y-132664939D01*
X145235404Y-132664936D01*
X145058966Y-132649500D01*
X144941034Y-132649500D01*
X144764595Y-132664936D01*
X144764579Y-132664939D01*
X144536340Y-132726095D01*
X144536338Y-132726096D01*
X144322171Y-132825964D01*
X144128597Y-132961505D01*
X143961505Y-133128597D01*
X143825964Y-133322170D01*
X143726096Y-133536338D01*
X143726095Y-133536340D01*
X143664939Y-133764579D01*
X143664936Y-133764595D01*
X143644341Y-133999997D01*
X143644341Y-134000002D01*
X140500500Y-134000002D01*
X140500500Y-128028165D01*
X140518806Y-127983971D01*
X140563000Y-127965665D01*
X140584839Y-127969605D01*
X140717517Y-128019091D01*
X140768681Y-128024592D01*
X140810665Y-128047516D01*
X140824500Y-128086733D01*
X140824500Y-128579572D01*
X140823170Y-128592398D01*
X140819633Y-128609266D01*
X140819632Y-128609269D01*
X140824260Y-128646385D01*
X140824500Y-128650255D01*
X140824500Y-128656112D01*
X140828342Y-128679140D01*
X140835134Y-128733625D01*
X140836613Y-128738594D01*
X140836557Y-128738610D01*
X140838199Y-128743736D01*
X140838255Y-128743717D01*
X140839935Y-128748613D01*
X140866054Y-128796876D01*
X140866055Y-128796877D01*
X140890174Y-128846211D01*
X140890176Y-128846213D01*
X140893184Y-128850426D01*
X140893135Y-128850460D01*
X140896353Y-128854776D01*
X140896401Y-128854740D01*
X140899581Y-128858826D01*
X140916829Y-128874704D01*
X140936947Y-128918102D01*
X140937000Y-128920687D01*
X140937000Y-129384181D01*
X140943249Y-129442300D01*
X140992288Y-129573780D01*
X140992290Y-129573783D01*
X141076381Y-129686113D01*
X141076386Y-129686118D01*
X141188716Y-129770209D01*
X141188719Y-129770211D01*
X141188722Y-129770212D01*
X141320201Y-129819251D01*
X141378326Y-129825500D01*
X141378332Y-129825500D01*
X141971668Y-129825500D01*
X141971674Y-129825500D01*
X142029799Y-129819251D01*
X142161278Y-129770212D01*
X142161278Y-129770211D01*
X142161280Y-129770211D01*
X142161283Y-129770209D01*
X142273613Y-129686118D01*
X142273612Y-129686118D01*
X142273616Y-129686116D01*
X142294521Y-129658189D01*
X142357709Y-129573783D01*
X142357711Y-129573780D01*
X142357802Y-129573537D01*
X142406751Y-129442299D01*
X142413000Y-129384174D01*
X142413000Y-129225000D01*
X142762500Y-129225000D01*
X142762500Y-129384137D01*
X142768742Y-129442192D01*
X142817730Y-129573532D01*
X142817733Y-129573537D01*
X142901741Y-129685758D01*
X143013962Y-129769766D01*
X143013967Y-129769769D01*
X143145307Y-129818757D01*
X143203362Y-129824999D01*
X143203376Y-129825000D01*
X143375000Y-129825000D01*
X143375000Y-129225000D01*
X143625000Y-129225000D01*
X143625000Y-129825000D01*
X143796624Y-129825000D01*
X143796637Y-129824999D01*
X143854692Y-129818757D01*
X143986032Y-129769769D01*
X143986037Y-129769766D01*
X144098258Y-129685758D01*
X144182266Y-129573537D01*
X144182269Y-129573532D01*
X144231257Y-129442192D01*
X144237499Y-129384137D01*
X144237500Y-129384124D01*
X144237500Y-129225000D01*
X143625000Y-129225000D01*
X143375000Y-129225000D01*
X142762500Y-129225000D01*
X142413000Y-129225000D01*
X142413000Y-128975000D01*
X142762500Y-128975000D01*
X143375000Y-128975000D01*
X143375000Y-128375000D01*
X143625000Y-128375000D01*
X143625000Y-128975000D01*
X144237500Y-128975000D01*
X144237500Y-128815875D01*
X144237499Y-128815862D01*
X144231257Y-128757807D01*
X144182269Y-128626467D01*
X144182266Y-128626462D01*
X144098258Y-128514241D01*
X143986037Y-128430233D01*
X143986032Y-128430230D01*
X143854692Y-128381242D01*
X143796637Y-128375000D01*
X143625000Y-128375000D01*
X143375000Y-128375000D01*
X143203362Y-128375000D01*
X143145307Y-128381242D01*
X143013967Y-128430230D01*
X143013962Y-128430233D01*
X142901741Y-128514241D01*
X142817733Y-128626462D01*
X142817730Y-128626467D01*
X142768742Y-128757807D01*
X142762500Y-128815862D01*
X142762500Y-128975000D01*
X142413000Y-128975000D01*
X142413000Y-128815826D01*
X142406751Y-128757701D01*
X142366676Y-128650255D01*
X142357711Y-128626219D01*
X142357709Y-128626216D01*
X142273618Y-128513886D01*
X142273613Y-128513881D01*
X142161283Y-128429790D01*
X142161280Y-128429788D01*
X142029800Y-128380749D01*
X141971681Y-128374500D01*
X141971674Y-128374500D01*
X141638000Y-128374500D01*
X141593806Y-128356194D01*
X141575500Y-128312000D01*
X141575500Y-128086732D01*
X141593806Y-128042538D01*
X141631318Y-128024590D01*
X141682483Y-128019091D01*
X141817331Y-127968796D01*
X141817336Y-127968793D01*
X141932543Y-127882548D01*
X141932542Y-127882548D01*
X141932546Y-127882546D01*
X141978173Y-127821596D01*
X142018793Y-127767336D01*
X142018796Y-127767331D01*
X142069090Y-127632486D01*
X142069090Y-127632485D01*
X142069091Y-127632483D01*
X142075500Y-127572873D01*
X142075500Y-127572864D01*
X143124500Y-127572864D01*
X143124501Y-127572881D01*
X143130909Y-127632486D01*
X143181203Y-127767331D01*
X143181206Y-127767336D01*
X143267451Y-127882543D01*
X143267456Y-127882548D01*
X143382663Y-127968793D01*
X143382668Y-127968796D01*
X143517514Y-128019090D01*
X143517515Y-128019090D01*
X143517517Y-128019091D01*
X143577127Y-128025500D01*
X144422872Y-128025499D01*
X144482483Y-128019091D01*
X144542340Y-127996766D01*
X144617331Y-127968796D01*
X144617336Y-127968793D01*
X144732543Y-127882548D01*
X144732542Y-127882548D01*
X144732546Y-127882546D01*
X144778173Y-127821596D01*
X144818793Y-127767336D01*
X144818796Y-127767331D01*
X144869090Y-127632486D01*
X144869090Y-127632485D01*
X144869091Y-127632483D01*
X144875500Y-127572873D01*
X144875500Y-127513000D01*
X144893806Y-127468806D01*
X144938000Y-127450500D01*
X147067687Y-127450500D01*
X147111881Y-127468806D01*
X147919594Y-128276518D01*
X147937900Y-128320712D01*
X147937900Y-132629402D01*
X147935637Y-132695625D01*
X147946489Y-132740155D01*
X147947087Y-132743301D01*
X147953329Y-132788719D01*
X147953330Y-132788721D01*
X147962576Y-132810008D01*
X147965973Y-132820108D01*
X147971466Y-132842648D01*
X147971469Y-132842656D01*
X147993933Y-132882608D01*
X147995357Y-132885475D01*
X148013619Y-132927518D01*
X148013623Y-132927525D01*
X148028261Y-132945518D01*
X148034257Y-132954327D01*
X148045632Y-132974557D01*
X148078047Y-133006972D01*
X148080192Y-133009349D01*
X148094663Y-133027135D01*
X148109122Y-133044908D01*
X148128083Y-133058292D01*
X148136233Y-133065158D01*
X149475679Y-134404603D01*
X149520920Y-134453044D01*
X149560096Y-134476867D01*
X149562729Y-134478660D01*
X149582129Y-134493371D01*
X149599258Y-134506361D01*
X149620847Y-134514874D01*
X149630389Y-134519614D01*
X149650215Y-134531671D01*
X149650217Y-134531671D01*
X149650218Y-134531672D01*
X149694382Y-134544046D01*
X149697364Y-134545048D01*
X149740036Y-134561876D01*
X149761502Y-134564082D01*
X149763118Y-134564249D01*
X149773585Y-134566237D01*
X149795935Y-134572500D01*
X149841775Y-134572500D01*
X149844968Y-134572663D01*
X149861159Y-134574328D01*
X149890567Y-134577352D01*
X149890568Y-134577351D01*
X149890572Y-134577352D01*
X149913442Y-134573408D01*
X149924060Y-134572500D01*
X150803000Y-134572500D01*
X150847194Y-134590806D01*
X150865500Y-134635000D01*
X150865500Y-134846674D01*
X150880033Y-134919739D01*
X150880034Y-134919741D01*
X150907716Y-134961170D01*
X150935399Y-135002601D01*
X150989118Y-135038494D01*
X151018258Y-135057965D01*
X151018260Y-135057966D01*
X151091326Y-135072500D01*
X152640674Y-135072500D01*
X152713740Y-135057966D01*
X152796601Y-135002601D01*
X152851966Y-134919740D01*
X152866500Y-134846674D01*
X152866500Y-133197326D01*
X152851966Y-133124260D01*
X152796601Y-133041399D01*
X152746777Y-133008108D01*
X152713741Y-132986034D01*
X152713739Y-132986033D01*
X152640674Y-132971500D01*
X151091326Y-132971500D01*
X151018260Y-132986033D01*
X151018258Y-132986034D01*
X150935399Y-133041399D01*
X150880034Y-133124258D01*
X150880033Y-133124260D01*
X150865500Y-133197325D01*
X150865500Y-133409000D01*
X150847194Y-133453194D01*
X150803000Y-133471500D01*
X150125512Y-133471500D01*
X150081318Y-133453194D01*
X149057206Y-132429081D01*
X149038900Y-132384887D01*
X149038900Y-131522000D01*
X150810417Y-131522000D01*
X150830699Y-131727930D01*
X150830700Y-131727935D01*
X150890766Y-131925949D01*
X150890768Y-131925954D01*
X150988311Y-132108444D01*
X150988313Y-132108448D01*
X150988315Y-132108450D01*
X151119590Y-132268410D01*
X151279550Y-132399685D01*
X151279553Y-132399686D01*
X151279555Y-132399688D01*
X151354912Y-132439967D01*
X151462046Y-132497232D01*
X151660066Y-132557300D01*
X151866000Y-132577583D01*
X152071934Y-132557300D01*
X152269954Y-132497232D01*
X152452450Y-132399685D01*
X152612410Y-132268410D01*
X152743685Y-132108450D01*
X152841232Y-131925954D01*
X152901300Y-131727934D01*
X152921583Y-131522000D01*
X152901300Y-131316066D01*
X152841232Y-131118046D01*
X152743685Y-130935550D01*
X152612410Y-130775590D01*
X152452450Y-130644315D01*
X152452448Y-130644313D01*
X152452444Y-130644311D01*
X152380259Y-130605727D01*
X152326736Y-130577118D01*
X152296390Y-130540143D01*
X152301079Y-130492538D01*
X152326735Y-130466881D01*
X152452450Y-130399685D01*
X152612410Y-130268410D01*
X152743685Y-130108450D01*
X152841232Y-129925954D01*
X152901300Y-129727934D01*
X152921583Y-129522000D01*
X152901300Y-129316066D01*
X152841232Y-129118046D01*
X152743685Y-128935550D01*
X152677366Y-128854740D01*
X152612411Y-128775591D01*
X152612408Y-128775588D01*
X152452455Y-128644319D01*
X152452453Y-128644318D01*
X152452450Y-128644315D01*
X152452448Y-128644313D01*
X152452444Y-128644311D01*
X152269954Y-128546768D01*
X152269949Y-128546766D01*
X152071935Y-128486700D01*
X152071930Y-128486699D01*
X151866000Y-128466417D01*
X151660069Y-128486699D01*
X151660064Y-128486700D01*
X151462050Y-128546766D01*
X151462045Y-128546768D01*
X151279555Y-128644311D01*
X151279544Y-128644319D01*
X151119591Y-128775588D01*
X151119588Y-128775591D01*
X150988319Y-128935544D01*
X150988311Y-128935555D01*
X150890768Y-129118045D01*
X150890766Y-129118050D01*
X150830700Y-129316064D01*
X150830699Y-129316069D01*
X150810417Y-129521999D01*
X150810417Y-129522000D01*
X150830699Y-129727930D01*
X150830700Y-129727935D01*
X150890766Y-129925949D01*
X150890768Y-129925954D01*
X150988311Y-130108444D01*
X150988313Y-130108448D01*
X150988315Y-130108450D01*
X151119590Y-130268410D01*
X151279550Y-130399685D01*
X151279552Y-130399686D01*
X151405262Y-130466880D01*
X151435608Y-130503857D01*
X151430919Y-130551463D01*
X151405262Y-130577120D01*
X151279552Y-130644313D01*
X151279544Y-130644319D01*
X151119591Y-130775588D01*
X151119588Y-130775591D01*
X150988319Y-130935544D01*
X150988311Y-130935555D01*
X150890768Y-131118045D01*
X150890766Y-131118050D01*
X150830700Y-131316064D01*
X150830699Y-131316069D01*
X150810417Y-131521999D01*
X150810417Y-131522000D01*
X149038900Y-131522000D01*
X149038900Y-128076196D01*
X149041162Y-128009974D01*
X149030309Y-127965439D01*
X149029711Y-127962293D01*
X149023470Y-127916879D01*
X149014223Y-127895593D01*
X149010825Y-127885487D01*
X149005334Y-127862953D01*
X149005333Y-127862948D01*
X148982867Y-127822992D01*
X148981443Y-127820125D01*
X148963181Y-127778083D01*
X148963180Y-127778080D01*
X148948535Y-127760080D01*
X148942538Y-127751269D01*
X148931164Y-127731040D01*
X148898755Y-127698631D01*
X148896614Y-127696260D01*
X148867678Y-127660692D01*
X148848716Y-127647307D01*
X148840565Y-127640441D01*
X148222125Y-127022000D01*
X150810919Y-127022000D01*
X150831191Y-127227834D01*
X150891233Y-127425763D01*
X150988728Y-127608166D01*
X150988736Y-127608177D01*
X151040260Y-127670960D01*
X151040261Y-127670960D01*
X151398265Y-127312956D01*
X151442459Y-127294650D01*
X151486653Y-127312956D01*
X151495036Y-127323358D01*
X151503326Y-127336257D01*
X151503327Y-127336258D01*
X151573242Y-127396840D01*
X151594654Y-127439615D01*
X151579547Y-127485003D01*
X151576507Y-127488268D01*
X151217038Y-127847737D01*
X151217038Y-127847738D01*
X151279822Y-127899263D01*
X151279833Y-127899271D01*
X151462236Y-127996766D01*
X151660165Y-128056808D01*
X151866000Y-128077081D01*
X152071834Y-128056808D01*
X152269763Y-127996766D01*
X152452166Y-127899271D01*
X152452172Y-127899267D01*
X152514960Y-127847738D01*
X152514960Y-127847737D01*
X152155491Y-127488268D01*
X152137185Y-127444074D01*
X152155491Y-127399880D01*
X152158738Y-127396855D01*
X152228673Y-127336258D01*
X152236960Y-127323361D01*
X152276250Y-127296079D01*
X152323326Y-127304570D01*
X152333733Y-127312956D01*
X152691737Y-127670960D01*
X152691738Y-127670960D01*
X152743267Y-127608172D01*
X152743271Y-127608166D01*
X152840766Y-127425763D01*
X152900808Y-127227834D01*
X152921081Y-127022000D01*
X152921081Y-127021999D01*
X152900808Y-126816165D01*
X152840766Y-126618236D01*
X152743271Y-126435833D01*
X152743263Y-126435822D01*
X152691738Y-126373038D01*
X152691737Y-126373038D01*
X152333733Y-126731042D01*
X152289539Y-126749348D01*
X152245345Y-126731042D01*
X152236960Y-126720636D01*
X152228675Y-126707744D01*
X152228670Y-126707740D01*
X152213478Y-126694576D01*
X152158756Y-126647158D01*
X152137344Y-126604382D01*
X152152451Y-126558995D01*
X152155491Y-126555730D01*
X152514960Y-126196261D01*
X152514960Y-126196260D01*
X152452177Y-126144736D01*
X152452166Y-126144728D01*
X152269763Y-126047233D01*
X152071834Y-125987191D01*
X151866000Y-125966919D01*
X151660165Y-125987191D01*
X151462236Y-126047233D01*
X151279833Y-126144728D01*
X151279828Y-126144731D01*
X151217038Y-126196261D01*
X151576508Y-126555731D01*
X151594814Y-126599925D01*
X151576508Y-126644119D01*
X151573243Y-126647159D01*
X151503328Y-126707740D01*
X151495038Y-126720640D01*
X151455744Y-126747921D01*
X151408669Y-126739427D01*
X151398266Y-126731043D01*
X151040261Y-126373038D01*
X150988731Y-126435828D01*
X150988728Y-126435833D01*
X150891233Y-126618236D01*
X150831191Y-126816165D01*
X150810919Y-127021999D01*
X150810919Y-127022000D01*
X148222125Y-127022000D01*
X147717507Y-126517382D01*
X147672278Y-126468954D01*
X147633118Y-126445140D01*
X147630471Y-126443339D01*
X147593943Y-126415639D01*
X147593939Y-126415637D01*
X147572354Y-126407125D01*
X147562810Y-126402385D01*
X147542982Y-126390328D01*
X147498841Y-126377959D01*
X147495808Y-126376939D01*
X147453166Y-126360124D01*
X147453160Y-126360123D01*
X147430081Y-126357750D01*
X147419614Y-126355761D01*
X147397266Y-126349500D01*
X147397265Y-126349500D01*
X147351425Y-126349500D01*
X147348231Y-126349336D01*
X147340612Y-126348552D01*
X147302632Y-126344647D01*
X147302626Y-126344648D01*
X147290937Y-126346663D01*
X147279757Y-126348591D01*
X147269140Y-126349500D01*
X144937999Y-126349500D01*
X144893805Y-126331194D01*
X144875499Y-126287000D01*
X144875499Y-126227135D01*
X144875498Y-126227118D01*
X144872181Y-126196260D01*
X144869091Y-126167517D01*
X144860594Y-126144736D01*
X144818796Y-126032668D01*
X144818793Y-126032663D01*
X144732548Y-125917456D01*
X144732543Y-125917451D01*
X144617336Y-125831206D01*
X144617331Y-125831203D01*
X144482485Y-125780909D01*
X144482487Y-125780909D01*
X144422873Y-125774500D01*
X143577135Y-125774500D01*
X143577118Y-125774501D01*
X143517513Y-125780909D01*
X143382668Y-125831203D01*
X143382663Y-125831206D01*
X143267456Y-125917451D01*
X143267451Y-125917456D01*
X143181206Y-126032663D01*
X143181203Y-126032668D01*
X143130909Y-126167513D01*
X143124500Y-126227119D01*
X143124500Y-127572864D01*
X142075500Y-127572864D01*
X142075499Y-126227128D01*
X142069091Y-126167517D01*
X142060594Y-126144736D01*
X142018796Y-126032668D01*
X142018793Y-126032663D01*
X141932548Y-125917456D01*
X141932543Y-125917451D01*
X141817336Y-125831206D01*
X141817331Y-125831203D01*
X141682485Y-125780909D01*
X141682487Y-125780909D01*
X141622873Y-125774500D01*
X140777135Y-125774500D01*
X140777118Y-125774501D01*
X140717513Y-125780909D01*
X140584841Y-125830393D01*
X140537036Y-125828686D01*
X140504441Y-125793675D01*
X140500500Y-125771834D01*
X140500500Y-124187276D01*
X140518806Y-124143082D01*
X140563000Y-124124776D01*
X140607194Y-124143082D01*
X140609782Y-124145831D01*
X140682403Y-124227804D01*
X140822308Y-124324372D01*
X140981245Y-124384650D01*
X140981256Y-124384652D01*
X141107653Y-124399999D01*
X141107659Y-124400000D01*
X141375000Y-124400000D01*
X141375000Y-124012500D01*
X141393306Y-123968306D01*
X141437500Y-123950000D01*
X141562500Y-123950000D01*
X141606694Y-123968306D01*
X141625000Y-124012500D01*
X141625000Y-124400000D01*
X141892341Y-124400000D01*
X141892346Y-124399999D01*
X142018743Y-124384652D01*
X142018754Y-124384650D01*
X142177691Y-124324372D01*
X142317596Y-124227804D01*
X142430320Y-124100565D01*
X142509316Y-123950048D01*
X142540140Y-123825000D01*
X142156190Y-123825000D01*
X142111996Y-123806694D01*
X142093690Y-123762500D01*
X142094891Y-123750306D01*
X142099925Y-123725000D01*
X143000000Y-123725000D01*
X143000000Y-124197835D01*
X143006402Y-124257377D01*
X143056647Y-124392091D01*
X143056649Y-124392094D01*
X143142808Y-124507186D01*
X143142813Y-124507191D01*
X143257905Y-124593350D01*
X143257908Y-124593352D01*
X143392622Y-124643597D01*
X143452164Y-124649999D01*
X143452178Y-124650000D01*
X143825000Y-124650000D01*
X143825000Y-123725000D01*
X144075000Y-123725000D01*
X144075000Y-124650000D01*
X144447822Y-124650000D01*
X144447835Y-124649999D01*
X144507377Y-124643597D01*
X144642091Y-124593352D01*
X144642094Y-124593350D01*
X144757186Y-124507191D01*
X144757191Y-124507186D01*
X144843350Y-124392094D01*
X144843352Y-124392091D01*
X144893597Y-124257377D01*
X144899999Y-124197835D01*
X144900000Y-124197822D01*
X144900000Y-123952003D01*
X152821093Y-123952003D01*
X152840694Y-124213554D01*
X152840694Y-124213556D01*
X152899057Y-124469261D01*
X152899058Y-124469264D01*
X152994886Y-124713433D01*
X153126027Y-124940574D01*
X153126034Y-124940583D01*
X153252303Y-125098918D01*
X153252304Y-125098919D01*
X153631371Y-124719851D01*
X153675565Y-124701545D01*
X153719759Y-124719851D01*
X153721753Y-124721939D01*
X153797925Y-124805495D01*
X153797926Y-124805496D01*
X153797931Y-124805501D01*
X153798346Y-124805814D01*
X153798428Y-124805954D01*
X153800064Y-124807445D01*
X153799602Y-124807951D01*
X153822589Y-124847049D01*
X153810574Y-124893351D01*
X153804884Y-124899890D01*
X153429392Y-125275382D01*
X153429392Y-125275383D01*
X153481834Y-125324043D01*
X153698546Y-125471793D01*
X153934864Y-125585598D01*
X153934868Y-125585599D01*
X154185488Y-125662906D01*
X154185487Y-125662906D01*
X154444856Y-125701999D01*
X154444862Y-125702000D01*
X154707138Y-125702000D01*
X154707143Y-125701999D01*
X154966512Y-125662906D01*
X155217131Y-125585599D01*
X155217135Y-125585598D01*
X155453454Y-125471793D01*
X155670166Y-125324042D01*
X155722606Y-125275382D01*
X155347115Y-124899891D01*
X155328809Y-124855697D01*
X155347115Y-124811503D01*
X155353645Y-124805821D01*
X155354069Y-124805501D01*
X155430247Y-124721937D01*
X155473546Y-124701612D01*
X155518539Y-124717857D01*
X155520627Y-124719851D01*
X155899694Y-125098919D01*
X155899695Y-125098918D01*
X156025967Y-124940579D01*
X156025975Y-124940567D01*
X156157113Y-124713433D01*
X156252941Y-124469264D01*
X156252942Y-124469261D01*
X156311305Y-124213556D01*
X156311305Y-124213554D01*
X156330907Y-123952003D01*
X156330907Y-123951996D01*
X156311305Y-123690445D01*
X156311305Y-123690443D01*
X156252942Y-123434738D01*
X156252941Y-123434735D01*
X156157113Y-123190566D01*
X156025975Y-122963432D01*
X156025967Y-122963419D01*
X155899695Y-122805080D01*
X155899694Y-122805079D01*
X155520627Y-123184147D01*
X155476433Y-123202453D01*
X155432239Y-123184147D01*
X155430245Y-123182059D01*
X155354066Y-123098496D01*
X155354062Y-123098492D01*
X155353637Y-123098171D01*
X155353552Y-123098027D01*
X155351932Y-123096550D01*
X155352389Y-123096047D01*
X155329407Y-123056926D01*
X155341439Y-123010629D01*
X155347115Y-123004107D01*
X155722606Y-122628615D01*
X155670165Y-122579956D01*
X155453454Y-122432206D01*
X155217135Y-122318401D01*
X155217131Y-122318400D01*
X154966511Y-122241093D01*
X154966512Y-122241093D01*
X154707143Y-122202000D01*
X154444856Y-122202000D01*
X154185487Y-122241093D01*
X153934868Y-122318400D01*
X153934864Y-122318401D01*
X153698546Y-122432206D01*
X153481841Y-122579951D01*
X153481834Y-122579956D01*
X153429392Y-122628615D01*
X153429392Y-122628616D01*
X153804884Y-123004108D01*
X153823190Y-123048302D01*
X153804884Y-123092496D01*
X153798359Y-123098175D01*
X153797931Y-123098497D01*
X153721752Y-123182060D01*
X153678450Y-123202386D01*
X153633458Y-123186140D01*
X153631371Y-123184147D01*
X153252304Y-122805079D01*
X153252303Y-122805080D01*
X153126034Y-122963416D01*
X153126027Y-122963425D01*
X152994886Y-123190566D01*
X152899058Y-123434735D01*
X152899057Y-123434738D01*
X152840694Y-123690443D01*
X152840694Y-123690445D01*
X152821093Y-123951996D01*
X152821093Y-123952003D01*
X144900000Y-123952003D01*
X144900000Y-123725000D01*
X144075000Y-123725000D01*
X143825000Y-123725000D01*
X143000000Y-123725000D01*
X142099925Y-123725000D01*
X142104898Y-123700000D01*
X142094891Y-123649692D01*
X142104223Y-123602777D01*
X142143996Y-123576201D01*
X142156190Y-123575000D01*
X142540140Y-123575000D01*
X142515490Y-123475000D01*
X143000000Y-123475000D01*
X143825000Y-123475000D01*
X143825000Y-122550000D01*
X144075000Y-122550000D01*
X144075000Y-123475000D01*
X144900000Y-123475000D01*
X144900000Y-123002177D01*
X144899999Y-123002164D01*
X144893597Y-122942622D01*
X144843352Y-122807908D01*
X144843350Y-122807905D01*
X144757191Y-122692813D01*
X144757186Y-122692808D01*
X144642094Y-122606649D01*
X144642091Y-122606647D01*
X144507377Y-122556402D01*
X144447835Y-122550000D01*
X144075000Y-122550000D01*
X143825000Y-122550000D01*
X143452164Y-122550000D01*
X143392622Y-122556402D01*
X143257908Y-122606647D01*
X143257905Y-122606649D01*
X143142813Y-122692808D01*
X143142808Y-122692813D01*
X143056649Y-122807905D01*
X143056647Y-122807908D01*
X143006402Y-122942622D01*
X143000000Y-123002164D01*
X143000000Y-123475000D01*
X142515490Y-123475000D01*
X142509316Y-123449951D01*
X142430320Y-123299434D01*
X142317596Y-123172195D01*
X142177691Y-123075627D01*
X142018754Y-123015349D01*
X142018743Y-123015347D01*
X141892346Y-123000000D01*
X141625000Y-123000000D01*
X141625000Y-123387500D01*
X141606694Y-123431694D01*
X141562500Y-123450000D01*
X141437500Y-123450000D01*
X141393306Y-123431694D01*
X141375000Y-123387500D01*
X141375000Y-123000000D01*
X141107653Y-123000000D01*
X140981256Y-123015347D01*
X140981245Y-123015349D01*
X140822308Y-123075627D01*
X140682403Y-123172195D01*
X140609782Y-123254168D01*
X140566774Y-123275109D01*
X140521555Y-123259505D01*
X140500614Y-123216497D01*
X140500500Y-123212723D01*
X140500500Y-122811956D01*
X140518806Y-122767762D01*
X140563000Y-122749456D01*
X140584842Y-122753397D01*
X140692622Y-122793597D01*
X140752164Y-122799999D01*
X140752178Y-122800000D01*
X141375000Y-122800000D01*
X141375000Y-121725000D01*
X141625000Y-121725000D01*
X141625000Y-122800000D01*
X142247822Y-122800000D01*
X142247835Y-122799999D01*
X142307377Y-122793597D01*
X142442091Y-122743352D01*
X142442094Y-122743350D01*
X142557186Y-122657191D01*
X142557191Y-122657186D01*
X142643350Y-122542094D01*
X142643352Y-122542091D01*
X142693597Y-122407377D01*
X142699999Y-122347835D01*
X142700000Y-122347822D01*
X142700000Y-121825000D01*
X143250001Y-121825000D01*
X143250001Y-121833217D01*
X143259911Y-121901246D01*
X143259913Y-121901253D01*
X143311212Y-122006187D01*
X143393812Y-122088787D01*
X143498750Y-122140087D01*
X143566781Y-122149999D01*
X144049999Y-122149999D01*
X144050000Y-122149998D01*
X144050000Y-121825000D01*
X144300000Y-121825000D01*
X144300000Y-122149999D01*
X144783218Y-122149999D01*
X144851246Y-122140088D01*
X144851253Y-122140086D01*
X144956187Y-122088787D01*
X145038787Y-122006187D01*
X145090087Y-121901250D01*
X145090087Y-121901249D01*
X145100000Y-121833218D01*
X145100000Y-121825000D01*
X144300000Y-121825000D01*
X144050000Y-121825000D01*
X143250001Y-121825000D01*
X142700000Y-121825000D01*
X142700000Y-121725000D01*
X141625000Y-121725000D01*
X141375000Y-121725000D01*
X141375000Y-119325000D01*
X141625000Y-119325000D01*
X141625000Y-121475000D01*
X142700000Y-121475000D01*
X142700000Y-120852177D01*
X142699999Y-120852164D01*
X142693597Y-120792622D01*
X142643352Y-120657908D01*
X142643350Y-120657905D01*
X142557191Y-120542813D01*
X142557186Y-120542808D01*
X142442094Y-120456649D01*
X142438811Y-120454857D01*
X142408793Y-120417613D01*
X142413903Y-120370051D01*
X142438811Y-120345143D01*
X142442094Y-120343350D01*
X142557186Y-120257191D01*
X142557191Y-120257186D01*
X142643350Y-120142094D01*
X142643352Y-120142091D01*
X142693597Y-120007377D01*
X142699999Y-119947835D01*
X142700000Y-119947822D01*
X142700000Y-119325000D01*
X141625000Y-119325000D01*
X141375000Y-119325000D01*
X141375000Y-118000000D01*
X141625000Y-118000000D01*
X141625000Y-119075000D01*
X142700000Y-119075000D01*
X142700000Y-118966740D01*
X143249499Y-118966740D01*
X143249500Y-118966740D01*
X143249500Y-119233260D01*
X143252933Y-119256818D01*
X143259427Y-119301392D01*
X143306435Y-119397550D01*
X143309398Y-119445293D01*
X143306435Y-119452448D01*
X143259427Y-119548607D01*
X143249500Y-119616740D01*
X143249500Y-119883259D01*
X143259427Y-119951392D01*
X143306435Y-120047551D01*
X143309398Y-120095294D01*
X143306435Y-120102449D01*
X143259427Y-120198607D01*
X143249500Y-120266740D01*
X143249500Y-120533259D01*
X143259427Y-120601392D01*
X143306435Y-120697551D01*
X143309398Y-120745294D01*
X143306435Y-120752449D01*
X143259427Y-120848607D01*
X143249500Y-120916740D01*
X143249500Y-121183260D01*
X143259427Y-121251393D01*
X143297453Y-121329177D01*
X143306713Y-121348119D01*
X143309676Y-121395862D01*
X143306713Y-121403017D01*
X143259912Y-121498751D01*
X143250000Y-121566781D01*
X143250000Y-121575000D01*
X145099999Y-121575000D01*
X145099999Y-121566782D01*
X145090088Y-121498753D01*
X145090086Y-121498746D01*
X145043287Y-121403018D01*
X145040322Y-121355274D01*
X145043287Y-121348118D01*
X145090573Y-121251393D01*
X145100500Y-121183260D01*
X145100500Y-120916740D01*
X145090573Y-120848607D01*
X145086584Y-120840447D01*
X145083622Y-120792704D01*
X145115288Y-120756849D01*
X145142735Y-120750500D01*
X146557166Y-120750500D01*
X146569990Y-120751829D01*
X146585315Y-120755043D01*
X146585316Y-120755043D01*
X146598019Y-120753459D01*
X146619835Y-120750739D01*
X146623701Y-120750500D01*
X146629034Y-120750500D01*
X146629040Y-120750500D01*
X146650540Y-120746912D01*
X146701393Y-120740573D01*
X146701395Y-120740571D01*
X146706362Y-120739094D01*
X146706401Y-120739226D01*
X146710525Y-120737905D01*
X146710481Y-120737774D01*
X146715377Y-120736092D01*
X146715381Y-120736092D01*
X146760444Y-120711704D01*
X146806484Y-120689198D01*
X146806490Y-120689191D01*
X146810699Y-120686188D01*
X146810778Y-120686299D01*
X146814257Y-120683705D01*
X146814173Y-120683597D01*
X146818254Y-120680419D01*
X146818258Y-120680418D01*
X146852957Y-120642724D01*
X147735251Y-119760429D01*
X147779444Y-119742124D01*
X147794396Y-119743939D01*
X147821015Y-119750500D01*
X147821016Y-119750500D01*
X147978984Y-119750500D01*
X147978985Y-119750500D01*
X148132365Y-119712696D01*
X148272240Y-119639283D01*
X148390483Y-119534530D01*
X148480220Y-119404523D01*
X148536237Y-119256818D01*
X148536238Y-119256812D01*
X148555278Y-119100003D01*
X148555278Y-119099996D01*
X148536238Y-118943187D01*
X148536237Y-118943185D01*
X148536237Y-118943182D01*
X148480220Y-118795477D01*
X148390483Y-118665470D01*
X148376918Y-118653453D01*
X148272240Y-118560717D01*
X148174114Y-118509216D01*
X148132365Y-118487304D01*
X148081238Y-118474702D01*
X147978987Y-118449500D01*
X147978985Y-118449500D01*
X147821015Y-118449500D01*
X147821012Y-118449500D01*
X147667635Y-118487304D01*
X147527759Y-118560717D01*
X147409518Y-118665468D01*
X147409514Y-118665472D01*
X147385852Y-118699754D01*
X147345682Y-118725726D01*
X147298912Y-118715686D01*
X147283233Y-118697989D01*
X147282367Y-118698588D01*
X147280220Y-118695477D01*
X147190483Y-118565470D01*
X147133433Y-118514929D01*
X147072240Y-118460717D01*
X147056361Y-118452383D01*
X146932365Y-118387304D01*
X146864613Y-118370605D01*
X146778987Y-118349500D01*
X146778985Y-118349500D01*
X146621015Y-118349500D01*
X146621012Y-118349500D01*
X146467635Y-118387304D01*
X146327759Y-118460717D01*
X146271324Y-118510714D01*
X146226105Y-118526318D01*
X146183097Y-118505377D01*
X146167415Y-118461799D01*
X146167701Y-118453440D01*
X146167847Y-118451309D01*
X146173550Y-118395834D01*
X146173551Y-118395829D01*
X146171400Y-118383355D01*
X146170529Y-118370614D01*
X146170962Y-118357974D01*
X146157749Y-118303755D01*
X146157318Y-118301678D01*
X146147841Y-118246703D01*
X146146364Y-118243597D01*
X146142403Y-118235268D01*
X146138127Y-118223236D01*
X146135133Y-118210948D01*
X146125920Y-118194562D01*
X146117900Y-118163932D01*
X146117900Y-116585911D01*
X146136205Y-116541718D01*
X146633920Y-116044003D01*
X152931093Y-116044003D01*
X152950694Y-116305554D01*
X152950694Y-116305556D01*
X153009057Y-116561261D01*
X153009058Y-116561264D01*
X153104886Y-116805433D01*
X153236027Y-117032574D01*
X153236034Y-117032583D01*
X153362303Y-117190918D01*
X153362304Y-117190919D01*
X153741371Y-116811851D01*
X153785565Y-116793545D01*
X153829759Y-116811851D01*
X153831753Y-116813939D01*
X153907925Y-116897495D01*
X153907926Y-116897496D01*
X153907931Y-116897501D01*
X153908346Y-116897814D01*
X153908428Y-116897954D01*
X153910064Y-116899445D01*
X153909602Y-116899951D01*
X153932589Y-116939049D01*
X153920574Y-116985351D01*
X153914884Y-116991890D01*
X153539392Y-117367382D01*
X153539392Y-117367383D01*
X153591834Y-117416043D01*
X153808546Y-117563793D01*
X154044864Y-117677598D01*
X154044868Y-117677599D01*
X154295488Y-117754906D01*
X154295487Y-117754906D01*
X154554856Y-117793999D01*
X154554862Y-117794000D01*
X154817138Y-117794000D01*
X154817143Y-117793999D01*
X155076512Y-117754906D01*
X155327131Y-117677599D01*
X155327135Y-117677598D01*
X155563454Y-117563793D01*
X155780166Y-117416042D01*
X155832606Y-117367382D01*
X155457115Y-116991891D01*
X155438809Y-116947697D01*
X155457115Y-116903503D01*
X155463645Y-116897821D01*
X155464069Y-116897501D01*
X155540247Y-116813937D01*
X155583546Y-116793612D01*
X155628539Y-116809857D01*
X155630627Y-116811851D01*
X156009694Y-117190919D01*
X156009695Y-117190918D01*
X156135967Y-117032579D01*
X156135975Y-117032567D01*
X156267113Y-116805433D01*
X156362941Y-116561264D01*
X156362942Y-116561261D01*
X156421305Y-116305556D01*
X156421305Y-116305554D01*
X156440907Y-116044003D01*
X156440907Y-116043996D01*
X156421305Y-115782445D01*
X156421305Y-115782443D01*
X156362942Y-115526738D01*
X156362941Y-115526735D01*
X156267113Y-115282566D01*
X156135975Y-115055432D01*
X156135967Y-115055419D01*
X156009695Y-114897080D01*
X156009694Y-114897079D01*
X155630627Y-115276147D01*
X155586433Y-115294453D01*
X155542239Y-115276147D01*
X155540245Y-115274059D01*
X155464066Y-115190496D01*
X155464062Y-115190492D01*
X155463637Y-115190171D01*
X155463552Y-115190027D01*
X155461932Y-115188550D01*
X155462389Y-115188047D01*
X155439407Y-115148926D01*
X155451439Y-115102629D01*
X155457115Y-115096107D01*
X155832606Y-114720615D01*
X155780165Y-114671956D01*
X155563454Y-114524206D01*
X155327135Y-114410401D01*
X155327131Y-114410400D01*
X155076511Y-114333093D01*
X155076512Y-114333093D01*
X154817143Y-114294000D01*
X154554856Y-114294000D01*
X154295487Y-114333093D01*
X154044868Y-114410400D01*
X154044864Y-114410401D01*
X153808546Y-114524206D01*
X153591841Y-114671951D01*
X153591834Y-114671956D01*
X153539392Y-114720615D01*
X153914884Y-115096108D01*
X153933190Y-115140302D01*
X153914884Y-115184496D01*
X153908359Y-115190175D01*
X153907931Y-115190497D01*
X153831752Y-115274060D01*
X153788450Y-115294386D01*
X153743458Y-115278140D01*
X153741371Y-115276147D01*
X153362304Y-114897079D01*
X153362303Y-114897080D01*
X153236034Y-115055416D01*
X153236027Y-115055425D01*
X153104886Y-115282566D01*
X153009058Y-115526735D01*
X153009057Y-115526738D01*
X152950694Y-115782443D01*
X152950694Y-115782445D01*
X152931093Y-116043996D01*
X152931093Y-116044003D01*
X146633920Y-116044003D01*
X149135118Y-113542805D01*
X149179312Y-113524500D01*
X150913000Y-113524500D01*
X150957194Y-113542806D01*
X150975500Y-113587000D01*
X150975500Y-113798674D01*
X150990033Y-113871739D01*
X150990034Y-113871741D01*
X151017716Y-113913170D01*
X151045399Y-113954601D01*
X151107403Y-113996030D01*
X151128258Y-114009965D01*
X151128260Y-114009966D01*
X151201326Y-114024500D01*
X152750674Y-114024500D01*
X152823740Y-114009966D01*
X152906601Y-113954601D01*
X152961966Y-113871740D01*
X152976500Y-113798674D01*
X152976500Y-112149326D01*
X152961966Y-112076260D01*
X152906601Y-111993399D01*
X152865170Y-111965716D01*
X152823741Y-111938034D01*
X152823739Y-111938033D01*
X152750674Y-111923500D01*
X151201326Y-111923500D01*
X151128260Y-111938033D01*
X151128258Y-111938034D01*
X151045399Y-111993399D01*
X150990034Y-112076258D01*
X150990033Y-112076260D01*
X150975500Y-112149325D01*
X150975500Y-112361000D01*
X150957194Y-112405194D01*
X150913000Y-112423500D01*
X148934797Y-112423500D01*
X148868574Y-112421237D01*
X148868572Y-112421238D01*
X148824045Y-112432088D01*
X148820901Y-112432686D01*
X148775479Y-112438929D01*
X148775477Y-112438930D01*
X148754191Y-112448176D01*
X148744091Y-112451573D01*
X148721551Y-112457066D01*
X148721546Y-112457068D01*
X148681596Y-112479530D01*
X148678730Y-112480953D01*
X148636679Y-112499220D01*
X148636674Y-112499223D01*
X148618677Y-112513865D01*
X148609869Y-112519860D01*
X148589639Y-112531235D01*
X148589637Y-112531236D01*
X148557225Y-112563648D01*
X148554850Y-112565792D01*
X148519291Y-112594722D01*
X148519290Y-112594723D01*
X148505904Y-112613686D01*
X148499039Y-112621835D01*
X145184782Y-115936091D01*
X145136353Y-115981322D01*
X145112538Y-116020485D01*
X145110737Y-116023131D01*
X145083039Y-116059656D01*
X145083036Y-116059662D01*
X145074522Y-116081251D01*
X145069784Y-116090792D01*
X145057727Y-116110620D01*
X145045359Y-116154757D01*
X145044339Y-116157790D01*
X145027525Y-116200431D01*
X145027523Y-116200438D01*
X145025149Y-116223522D01*
X145023161Y-116233984D01*
X145016900Y-116256336D01*
X145016900Y-116302175D01*
X145016736Y-116305374D01*
X145012047Y-116350967D01*
X145012048Y-116350973D01*
X145015991Y-116373839D01*
X145016900Y-116384460D01*
X145016900Y-116528153D01*
X144998594Y-116572347D01*
X144954400Y-116590653D01*
X144910206Y-116572347D01*
X144895551Y-116546069D01*
X144894965Y-116546288D01*
X144843352Y-116407908D01*
X144843350Y-116407905D01*
X144757191Y-116292813D01*
X144757186Y-116292808D01*
X144642094Y-116206649D01*
X144642091Y-116206647D01*
X144507377Y-116156402D01*
X144447835Y-116150000D01*
X144075000Y-116150000D01*
X144075000Y-118250000D01*
X144447822Y-118250000D01*
X144447835Y-118249999D01*
X144507377Y-118243597D01*
X144642091Y-118193352D01*
X144642094Y-118193350D01*
X144757186Y-118107191D01*
X144757191Y-118107186D01*
X144843350Y-117992094D01*
X144843352Y-117992091D01*
X144894965Y-117853712D01*
X144896007Y-117854100D01*
X144921551Y-117818675D01*
X144968770Y-117811020D01*
X145007571Y-117838997D01*
X145016900Y-117871846D01*
X145016900Y-118211686D01*
X144998594Y-118255880D01*
X144773281Y-118481194D01*
X144729087Y-118499500D01*
X144284936Y-118499500D01*
X144172682Y-118514929D01*
X144172679Y-118514930D01*
X144172680Y-118514930D01*
X144033880Y-118575220D01*
X144033877Y-118575221D01*
X144033875Y-118575223D01*
X143959807Y-118635482D01*
X143920364Y-118649500D01*
X143566740Y-118649500D01*
X143555121Y-118651192D01*
X143498609Y-118659426D01*
X143393515Y-118710803D01*
X143310803Y-118793515D01*
X143259426Y-118898609D01*
X143249499Y-118966740D01*
X142700000Y-118966740D01*
X142700000Y-118452177D01*
X142699999Y-118452164D01*
X142693597Y-118392622D01*
X142643352Y-118257908D01*
X142643350Y-118257905D01*
X142557191Y-118142813D01*
X142557186Y-118142808D01*
X142442094Y-118056649D01*
X142442091Y-118056647D01*
X142307377Y-118006402D01*
X142247835Y-118000000D01*
X141625000Y-118000000D01*
X141375000Y-118000000D01*
X140752164Y-118000000D01*
X140692620Y-118006402D01*
X140584841Y-118046602D01*
X140537036Y-118044895D01*
X140504441Y-118009884D01*
X140500500Y-117988043D01*
X140500500Y-117587276D01*
X140518806Y-117543082D01*
X140563000Y-117524776D01*
X140607194Y-117543082D01*
X140609782Y-117545831D01*
X140682403Y-117627804D01*
X140822308Y-117724372D01*
X140981245Y-117784650D01*
X140981256Y-117784652D01*
X141107653Y-117799999D01*
X141107659Y-117800000D01*
X141375000Y-117800000D01*
X141375000Y-117412500D01*
X141393306Y-117368306D01*
X141437500Y-117350000D01*
X141562500Y-117350000D01*
X141606694Y-117368306D01*
X141625000Y-117412500D01*
X141625000Y-117800000D01*
X141892341Y-117800000D01*
X141892346Y-117799999D01*
X142018743Y-117784652D01*
X142018754Y-117784650D01*
X142177691Y-117724372D01*
X142317596Y-117627804D01*
X142430320Y-117500565D01*
X142509316Y-117350048D01*
X142515490Y-117325000D01*
X143000000Y-117325000D01*
X143000000Y-117797835D01*
X143006402Y-117857377D01*
X143056647Y-117992091D01*
X143056649Y-117992094D01*
X143142808Y-118107186D01*
X143142813Y-118107191D01*
X143257905Y-118193350D01*
X143257908Y-118193352D01*
X143392622Y-118243597D01*
X143452164Y-118249999D01*
X143452178Y-118250000D01*
X143825000Y-118250000D01*
X143825000Y-117325000D01*
X143000000Y-117325000D01*
X142515490Y-117325000D01*
X142540140Y-117225000D01*
X142156190Y-117225000D01*
X142111996Y-117206694D01*
X142093690Y-117162500D01*
X142094891Y-117150306D01*
X142100733Y-117120937D01*
X142104898Y-117100000D01*
X142099925Y-117075000D01*
X143000000Y-117075000D01*
X143825000Y-117075000D01*
X143825000Y-116150000D01*
X143452164Y-116150000D01*
X143392622Y-116156402D01*
X143257908Y-116206647D01*
X143257905Y-116206649D01*
X143142813Y-116292808D01*
X143142808Y-116292813D01*
X143056649Y-116407905D01*
X143056647Y-116407908D01*
X143006402Y-116542622D01*
X143000000Y-116602164D01*
X143000000Y-117075000D01*
X142099925Y-117075000D01*
X142094891Y-117049692D01*
X142104223Y-117002777D01*
X142143996Y-116976201D01*
X142156190Y-116975000D01*
X142540140Y-116975000D01*
X142509316Y-116849951D01*
X142430320Y-116699434D01*
X142317596Y-116572195D01*
X142177691Y-116475627D01*
X142018754Y-116415349D01*
X142018743Y-116415347D01*
X141892346Y-116400000D01*
X141625000Y-116400000D01*
X141625000Y-116787500D01*
X141606694Y-116831694D01*
X141562500Y-116850000D01*
X141437500Y-116850000D01*
X141393306Y-116831694D01*
X141375000Y-116787500D01*
X141375000Y-116400000D01*
X141107653Y-116400000D01*
X140981256Y-116415347D01*
X140981245Y-116415349D01*
X140822308Y-116475627D01*
X140682403Y-116572195D01*
X140609782Y-116654168D01*
X140566774Y-116675109D01*
X140521555Y-116659505D01*
X140500614Y-116616497D01*
X140500500Y-116612723D01*
X140500500Y-107238803D01*
X144708922Y-107238803D01*
X144727961Y-107395612D01*
X144727962Y-107395616D01*
X144727963Y-107395618D01*
X144783980Y-107543323D01*
X144873717Y-107673330D01*
X144991960Y-107778083D01*
X145131835Y-107851496D01*
X145285215Y-107889300D01*
X145285216Y-107889300D01*
X145443184Y-107889300D01*
X145443185Y-107889300D01*
X145443185Y-107889299D01*
X145446941Y-107888844D01*
X145447155Y-107890611D01*
X145488697Y-107896913D01*
X145500584Y-107906221D01*
X146285760Y-108691397D01*
X146293885Y-108701401D01*
X146303316Y-108715836D01*
X146332842Y-108738816D01*
X146335729Y-108741366D01*
X146339882Y-108745519D01*
X146339886Y-108745522D01*
X146339885Y-108745522D01*
X146358882Y-108759085D01*
X146402210Y-108792809D01*
X146406763Y-108795272D01*
X146406734Y-108795325D01*
X146411519Y-108797788D01*
X146411546Y-108797735D01*
X146416197Y-108800009D01*
X146468802Y-108815670D01*
X146481787Y-108820127D01*
X146520740Y-108833500D01*
X146520743Y-108833500D01*
X146525850Y-108834353D01*
X146525840Y-108834410D01*
X146531170Y-108835187D01*
X146531178Y-108835128D01*
X146536309Y-108835768D01*
X146536311Y-108835767D01*
X146536312Y-108835768D01*
X146591156Y-108833500D01*
X147721169Y-108833500D01*
X147765363Y-108851806D01*
X147772605Y-108860496D01*
X147794714Y-108892527D01*
X147794717Y-108892530D01*
X147912960Y-108997283D01*
X148052835Y-109070696D01*
X148206215Y-109108500D01*
X148206216Y-109108500D01*
X148364184Y-109108500D01*
X148364185Y-109108500D01*
X148517565Y-109070696D01*
X148657440Y-108997283D01*
X148775683Y-108892530D01*
X148865420Y-108762523D01*
X148921437Y-108614818D01*
X148921438Y-108614812D01*
X148940478Y-108458003D01*
X148940478Y-108457996D01*
X148921438Y-108301187D01*
X148921437Y-108301185D01*
X148921437Y-108301182D01*
X148865420Y-108153477D01*
X148775683Y-108023470D01*
X148657440Y-107918717D01*
X148517565Y-107845304D01*
X148466438Y-107832702D01*
X148364187Y-107807500D01*
X148364185Y-107807500D01*
X148206215Y-107807500D01*
X148206212Y-107807500D01*
X148052835Y-107845304D01*
X147912959Y-107918717D01*
X147794718Y-108023468D01*
X147794714Y-108023472D01*
X147772605Y-108055504D01*
X147732435Y-108081476D01*
X147721169Y-108082500D01*
X146764825Y-108082500D01*
X146720631Y-108064194D01*
X146027543Y-107371106D01*
X146009237Y-107326912D01*
X146009692Y-107319385D01*
X146019478Y-107238800D01*
X146000437Y-107081982D01*
X145944420Y-106934277D01*
X145854683Y-106804270D01*
X145849567Y-106799738D01*
X145736440Y-106699517D01*
X145596565Y-106626104D01*
X145545438Y-106613502D01*
X145443187Y-106588300D01*
X145443185Y-106588300D01*
X145285215Y-106588300D01*
X145285212Y-106588300D01*
X145131835Y-106626104D01*
X144991959Y-106699517D01*
X144873718Y-106804268D01*
X144783980Y-106934277D01*
X144727961Y-107081987D01*
X144708922Y-107238796D01*
X144708922Y-107238803D01*
X140500500Y-107238803D01*
X140500500Y-103274958D01*
X140518806Y-103230764D01*
X140563000Y-103212458D01*
X140607194Y-103230764D01*
X140657219Y-103280789D01*
X140773785Y-103340182D01*
X140870497Y-103355500D01*
X141671573Y-103355499D01*
X141715767Y-103373805D01*
X142029562Y-103687600D01*
X142037686Y-103697603D01*
X142047116Y-103712036D01*
X142047117Y-103712037D01*
X142047118Y-103712038D01*
X142047118Y-103712039D01*
X142076628Y-103735006D01*
X142079534Y-103737572D01*
X142083681Y-103741719D01*
X142102695Y-103755294D01*
X142146007Y-103789007D01*
X142150563Y-103791472D01*
X142150534Y-103791525D01*
X142155319Y-103793988D01*
X142155346Y-103793935D01*
X142159997Y-103796209D01*
X142212602Y-103811870D01*
X142225587Y-103816327D01*
X142264540Y-103829700D01*
X142264543Y-103829700D01*
X142269650Y-103830553D01*
X142269640Y-103830610D01*
X142274970Y-103831387D01*
X142274978Y-103831328D01*
X142280109Y-103831968D01*
X142280111Y-103831967D01*
X142280112Y-103831968D01*
X142334956Y-103829700D01*
X144012769Y-103829700D01*
X144056963Y-103848006D01*
X144064205Y-103856696D01*
X144086314Y-103888727D01*
X144086317Y-103888730D01*
X144204560Y-103993483D01*
X144344435Y-104066896D01*
X144497815Y-104104700D01*
X144497816Y-104104700D01*
X144655784Y-104104700D01*
X144655785Y-104104700D01*
X144809165Y-104066896D01*
X144949040Y-103993483D01*
X145067283Y-103888730D01*
X145157020Y-103758723D01*
X145213037Y-103611018D01*
X145217416Y-103574952D01*
X145240914Y-103533287D01*
X145286992Y-103520441D01*
X145323653Y-103538290D01*
X145766299Y-103980937D01*
X146082562Y-104297200D01*
X146090686Y-104307203D01*
X146100116Y-104321636D01*
X146100117Y-104321637D01*
X146100118Y-104321638D01*
X146100118Y-104321639D01*
X146129628Y-104344606D01*
X146132534Y-104347172D01*
X146136681Y-104351319D01*
X146155695Y-104364894D01*
X146199007Y-104398607D01*
X146203563Y-104401072D01*
X146203534Y-104401125D01*
X146208319Y-104403588D01*
X146208346Y-104403535D01*
X146212997Y-104405809D01*
X146265602Y-104421470D01*
X146278587Y-104425927D01*
X146317540Y-104439300D01*
X146317543Y-104439300D01*
X146322650Y-104440153D01*
X146322640Y-104440210D01*
X146327970Y-104440987D01*
X146327978Y-104440928D01*
X146333109Y-104441568D01*
X146333111Y-104441567D01*
X146333112Y-104441568D01*
X146387956Y-104439300D01*
X147113175Y-104439300D01*
X147157369Y-104457606D01*
X149161394Y-106461630D01*
X149179700Y-106505824D01*
X149179699Y-109250772D01*
X149178369Y-109263595D01*
X149174833Y-109280461D01*
X149174832Y-109280469D01*
X149179460Y-109317585D01*
X149179700Y-109321455D01*
X149179700Y-109327312D01*
X149183542Y-109350340D01*
X149190334Y-109404825D01*
X149191813Y-109409794D01*
X149191757Y-109409810D01*
X149193399Y-109414936D01*
X149193455Y-109414917D01*
X149195135Y-109419813D01*
X149214642Y-109455857D01*
X149221255Y-109468077D01*
X149245374Y-109517411D01*
X149245376Y-109517413D01*
X149248384Y-109521626D01*
X149248335Y-109521660D01*
X149251551Y-109525973D01*
X149251598Y-109525937D01*
X149254779Y-109530024D01*
X149295171Y-109567209D01*
X150435360Y-110707397D01*
X150443485Y-110717401D01*
X150452916Y-110731836D01*
X150482442Y-110754816D01*
X150485329Y-110757366D01*
X150489483Y-110761520D01*
X150508486Y-110775089D01*
X150543948Y-110802689D01*
X150551811Y-110808809D01*
X150551813Y-110808809D01*
X150556366Y-110811273D01*
X150556336Y-110811326D01*
X150561119Y-110813788D01*
X150561146Y-110813735D01*
X150565797Y-110816009D01*
X150618402Y-110831670D01*
X150631387Y-110836127D01*
X150670340Y-110849500D01*
X150670343Y-110849500D01*
X150675450Y-110850353D01*
X150675440Y-110850410D01*
X150680770Y-110851187D01*
X150680778Y-110851128D01*
X150685909Y-110851768D01*
X150685911Y-110851767D01*
X150685912Y-110851768D01*
X150740756Y-110849500D01*
X150948099Y-110849500D01*
X150992293Y-110867806D01*
X151003216Y-110882534D01*
X151050358Y-110970730D01*
X151098311Y-111060444D01*
X151098313Y-111060448D01*
X151098315Y-111060450D01*
X151229590Y-111220410D01*
X151389550Y-111351685D01*
X151389553Y-111351686D01*
X151389555Y-111351688D01*
X151464912Y-111391967D01*
X151572046Y-111449232D01*
X151770066Y-111509300D01*
X151976000Y-111529583D01*
X152181934Y-111509300D01*
X152379954Y-111449232D01*
X152562450Y-111351685D01*
X152722410Y-111220410D01*
X152853685Y-111060450D01*
X152951232Y-110877954D01*
X153011300Y-110679934D01*
X153031583Y-110474000D01*
X153011300Y-110268066D01*
X152951232Y-110070046D01*
X152853685Y-109887550D01*
X152722410Y-109727590D01*
X152562450Y-109596315D01*
X152562448Y-109596313D01*
X152562444Y-109596311D01*
X152490259Y-109557727D01*
X152436736Y-109529118D01*
X152406390Y-109492143D01*
X152411079Y-109444538D01*
X152436735Y-109418881D01*
X152562450Y-109351685D01*
X152722410Y-109220410D01*
X152853685Y-109060450D01*
X152951232Y-108877954D01*
X153011300Y-108679934D01*
X153031583Y-108474000D01*
X153011300Y-108268066D01*
X152951232Y-108070046D01*
X152855321Y-107890611D01*
X152853688Y-107887555D01*
X152853686Y-107887553D01*
X152853685Y-107887550D01*
X152763848Y-107778083D01*
X152722411Y-107727591D01*
X152722408Y-107727588D01*
X152562455Y-107596319D01*
X152562453Y-107596318D01*
X152562450Y-107596315D01*
X152562448Y-107596313D01*
X152562444Y-107596311D01*
X152379954Y-107498768D01*
X152379949Y-107498766D01*
X152181935Y-107438700D01*
X152181930Y-107438699D01*
X151976000Y-107418417D01*
X151770069Y-107438699D01*
X151770064Y-107438700D01*
X151572050Y-107498766D01*
X151572045Y-107498768D01*
X151389555Y-107596311D01*
X151389544Y-107596319D01*
X151229591Y-107727588D01*
X151229588Y-107727591D01*
X151098319Y-107887544D01*
X151098311Y-107887555D01*
X151000768Y-108070045D01*
X151000766Y-108070050D01*
X150940700Y-108268064D01*
X150940699Y-108268069D01*
X150920417Y-108473999D01*
X150920417Y-108474000D01*
X150940699Y-108679930D01*
X150940700Y-108679935D01*
X151000766Y-108877949D01*
X151000768Y-108877954D01*
X151098311Y-109060444D01*
X151098319Y-109060455D01*
X151229588Y-109220408D01*
X151229591Y-109220411D01*
X151341951Y-109312622D01*
X151389550Y-109351685D01*
X151389552Y-109351686D01*
X151515262Y-109418880D01*
X151545608Y-109455857D01*
X151540919Y-109503463D01*
X151515262Y-109529120D01*
X151389552Y-109596313D01*
X151389544Y-109596319D01*
X151229591Y-109727588D01*
X151229588Y-109727591D01*
X151098319Y-109887544D01*
X151098311Y-109887555D01*
X151038399Y-109999643D01*
X151003217Y-110065463D01*
X150966242Y-110095809D01*
X150948099Y-110098500D01*
X150914425Y-110098500D01*
X150870231Y-110080194D01*
X149949006Y-109158968D01*
X149930700Y-109114774D01*
X149930700Y-106369826D01*
X149932030Y-106356999D01*
X149933104Y-106351880D01*
X149935567Y-106340132D01*
X149930939Y-106303009D01*
X149930700Y-106299143D01*
X149930700Y-106293291D01*
X149930700Y-106293286D01*
X149926857Y-106270259D01*
X149925151Y-106256570D01*
X149920067Y-106215778D01*
X149918589Y-106210814D01*
X149918646Y-106210796D01*
X149917003Y-106205667D01*
X149916946Y-106205687D01*
X149915264Y-106200787D01*
X149889144Y-106152521D01*
X149865028Y-106103192D01*
X149862019Y-106098978D01*
X149862067Y-106098943D01*
X149858845Y-106094622D01*
X149858798Y-106094659D01*
X149855615Y-106090569D01*
X149815229Y-106053392D01*
X149735837Y-105974000D01*
X150920919Y-105974000D01*
X150941191Y-106179834D01*
X151001233Y-106377763D01*
X151098728Y-106560166D01*
X151098736Y-106560177D01*
X151150260Y-106622960D01*
X151150261Y-106622960D01*
X151508265Y-106264956D01*
X151552459Y-106246650D01*
X151596653Y-106264956D01*
X151605036Y-106275358D01*
X151613326Y-106288257D01*
X151613327Y-106288258D01*
X151683242Y-106348840D01*
X151704654Y-106391615D01*
X151689547Y-106437003D01*
X151686507Y-106440268D01*
X151327038Y-106799737D01*
X151327038Y-106799738D01*
X151389822Y-106851263D01*
X151389833Y-106851271D01*
X151572236Y-106948766D01*
X151770165Y-107008808D01*
X151976000Y-107029081D01*
X152181834Y-107008808D01*
X152379763Y-106948766D01*
X152562166Y-106851271D01*
X152562172Y-106851267D01*
X152624960Y-106799738D01*
X152624960Y-106799737D01*
X152265491Y-106440268D01*
X152247185Y-106396074D01*
X152265491Y-106351880D01*
X152268738Y-106348855D01*
X152338673Y-106288258D01*
X152346960Y-106275361D01*
X152386250Y-106248079D01*
X152433326Y-106256570D01*
X152443733Y-106264956D01*
X152801737Y-106622960D01*
X152801738Y-106622960D01*
X152853267Y-106560172D01*
X152853271Y-106560166D01*
X152950766Y-106377763D01*
X153010808Y-106179834D01*
X153031081Y-105974000D01*
X153031081Y-105973999D01*
X153010808Y-105768165D01*
X152950766Y-105570236D01*
X152853271Y-105387833D01*
X152853263Y-105387822D01*
X152801738Y-105325038D01*
X152801737Y-105325038D01*
X152443733Y-105683042D01*
X152399539Y-105701348D01*
X152355345Y-105683042D01*
X152346960Y-105672636D01*
X152338675Y-105659744D01*
X152338670Y-105659740D01*
X152323478Y-105646576D01*
X152268756Y-105599158D01*
X152247344Y-105556382D01*
X152262451Y-105510995D01*
X152265491Y-105507730D01*
X152624960Y-105148261D01*
X152624960Y-105148260D01*
X152562177Y-105096736D01*
X152562166Y-105096728D01*
X152379763Y-104999233D01*
X152181834Y-104939191D01*
X151976000Y-104918919D01*
X151770165Y-104939191D01*
X151572236Y-104999233D01*
X151389833Y-105096728D01*
X151389828Y-105096731D01*
X151327038Y-105148261D01*
X151686508Y-105507731D01*
X151704814Y-105551925D01*
X151686508Y-105596119D01*
X151683243Y-105599159D01*
X151613328Y-105659740D01*
X151605038Y-105672640D01*
X151565744Y-105699921D01*
X151518669Y-105691427D01*
X151508266Y-105683043D01*
X151150261Y-105325038D01*
X151098731Y-105387828D01*
X151098728Y-105387833D01*
X151001233Y-105570236D01*
X150941191Y-105768165D01*
X150920919Y-105973999D01*
X150920919Y-105974000D01*
X149735837Y-105974000D01*
X147592237Y-103830399D01*
X147584108Y-103820389D01*
X147578542Y-103811870D01*
X147574684Y-103805964D01*
X147545162Y-103782986D01*
X147542272Y-103780434D01*
X147538118Y-103776280D01*
X147519104Y-103762705D01*
X147475789Y-103728991D01*
X147475788Y-103728990D01*
X147475786Y-103728989D01*
X147471235Y-103726526D01*
X147471263Y-103726474D01*
X147466473Y-103724009D01*
X147466447Y-103724063D01*
X147461798Y-103721789D01*
X147409197Y-103706129D01*
X147357257Y-103688299D01*
X147352150Y-103687447D01*
X147352159Y-103687389D01*
X147346829Y-103686612D01*
X147346822Y-103686672D01*
X147341690Y-103686031D01*
X147286844Y-103688300D01*
X146561625Y-103688300D01*
X146517431Y-103669994D01*
X145808806Y-102961368D01*
X145790500Y-102917174D01*
X145790500Y-101553130D01*
X145791830Y-101540303D01*
X145793582Y-101531951D01*
X145795367Y-101523436D01*
X145790739Y-101486315D01*
X145790500Y-101482449D01*
X145790500Y-101476596D01*
X145790500Y-101476591D01*
X145786655Y-101453552D01*
X145779865Y-101399079D01*
X145779861Y-101399072D01*
X145778386Y-101394113D01*
X145778444Y-101394095D01*
X145776802Y-101388971D01*
X145776746Y-101388991D01*
X145775066Y-101384096D01*
X145763079Y-101361947D01*
X145748942Y-101335824D01*
X145724826Y-101286493D01*
X145724825Y-101286492D01*
X145721817Y-101282279D01*
X145721865Y-101282244D01*
X145718646Y-101277926D01*
X145718598Y-101277964D01*
X145715415Y-101273874D01*
X145675041Y-101236708D01*
X145353306Y-100914973D01*
X145335000Y-100870779D01*
X145353306Y-100826585D01*
X145368451Y-100815440D01*
X145507840Y-100742283D01*
X145544175Y-100710092D01*
X145589392Y-100694488D01*
X145632401Y-100715428D01*
X145641770Y-100729425D01*
X145659202Y-100765084D01*
X145662211Y-100769298D01*
X145662100Y-100769376D01*
X145664694Y-100772854D01*
X145664801Y-100772771D01*
X145667981Y-100776857D01*
X145705675Y-100811558D01*
X146621668Y-101727549D01*
X146629796Y-101737557D01*
X146638363Y-101750669D01*
X146638367Y-101750673D01*
X146657514Y-101765576D01*
X146676530Y-101797773D01*
X146678798Y-101797037D01*
X146680318Y-101801716D01*
X146739710Y-101918280D01*
X146832219Y-102010789D01*
X146948783Y-102070181D01*
X146948785Y-102070182D01*
X147031416Y-102083269D01*
X147072202Y-102108263D01*
X147083369Y-102154777D01*
X147058375Y-102195564D01*
X147031415Y-102206730D01*
X146948789Y-102219816D01*
X146948784Y-102219818D01*
X146832219Y-102279210D01*
X146739710Y-102371719D01*
X146680318Y-102488283D01*
X146680317Y-102488287D01*
X146665001Y-102584985D01*
X146665000Y-102584999D01*
X146665000Y-102974998D01*
X146665001Y-102975002D01*
X146680318Y-103071716D01*
X146739710Y-103188280D01*
X146739711Y-103188281D01*
X146832219Y-103280789D01*
X146948785Y-103340182D01*
X147045497Y-103355500D01*
X148610502Y-103355499D01*
X148707215Y-103340182D01*
X148823781Y-103280789D01*
X148872111Y-103232459D01*
X148916305Y-103214153D01*
X150861921Y-103214153D01*
X150874745Y-103215482D01*
X150891615Y-103219020D01*
X150928738Y-103214392D01*
X150932603Y-103214153D01*
X150938457Y-103214153D01*
X150938461Y-103214153D01*
X150961487Y-103210310D01*
X151015973Y-103203519D01*
X151015977Y-103203516D01*
X151020938Y-103202040D01*
X151020955Y-103202098D01*
X151026074Y-103200458D01*
X151026055Y-103200401D01*
X151030955Y-103198718D01*
X151030957Y-103198718D01*
X151079224Y-103172597D01*
X151128558Y-103148479D01*
X151128561Y-103148475D01*
X151132774Y-103145469D01*
X151132809Y-103145518D01*
X151137118Y-103142305D01*
X151137081Y-103142257D01*
X151141167Y-103139075D01*
X151141173Y-103139072D01*
X151178355Y-103098681D01*
X151373033Y-102904003D01*
X152931093Y-102904003D01*
X152950694Y-103165554D01*
X152950694Y-103165556D01*
X153009057Y-103421261D01*
X153009058Y-103421264D01*
X153104886Y-103665433D01*
X153236027Y-103892574D01*
X153236034Y-103892583D01*
X153362303Y-104050918D01*
X153362304Y-104050919D01*
X153741371Y-103671851D01*
X153785565Y-103653545D01*
X153829759Y-103671851D01*
X153831753Y-103673939D01*
X153907925Y-103757495D01*
X153907926Y-103757496D01*
X153907931Y-103757501D01*
X153908346Y-103757814D01*
X153908428Y-103757954D01*
X153910064Y-103759445D01*
X153909602Y-103759951D01*
X153932589Y-103799049D01*
X153920574Y-103845351D01*
X153914884Y-103851890D01*
X153539392Y-104227382D01*
X153539392Y-104227383D01*
X153591834Y-104276043D01*
X153808546Y-104423793D01*
X154044864Y-104537598D01*
X154044868Y-104537599D01*
X154295488Y-104614906D01*
X154295487Y-104614906D01*
X154554856Y-104653999D01*
X154554862Y-104654000D01*
X154817138Y-104654000D01*
X154817143Y-104653999D01*
X155076512Y-104614906D01*
X155327131Y-104537599D01*
X155327135Y-104537598D01*
X155563454Y-104423793D01*
X155780166Y-104276042D01*
X155832606Y-104227382D01*
X155457115Y-103851891D01*
X155438809Y-103807697D01*
X155457115Y-103763503D01*
X155463645Y-103757821D01*
X155464069Y-103757501D01*
X155540247Y-103673937D01*
X155583546Y-103653612D01*
X155628539Y-103669857D01*
X155630627Y-103671851D01*
X156009694Y-104050919D01*
X156009695Y-104050918D01*
X156135967Y-103892579D01*
X156135975Y-103892567D01*
X156267113Y-103665433D01*
X156362941Y-103421264D01*
X156362942Y-103421261D01*
X156421305Y-103165556D01*
X156421305Y-103165554D01*
X156440907Y-102904003D01*
X156440907Y-102903996D01*
X156421305Y-102642445D01*
X156421305Y-102642443D01*
X156362942Y-102386738D01*
X156362941Y-102386735D01*
X156267113Y-102142566D01*
X156135975Y-101915432D01*
X156135967Y-101915419D01*
X156009695Y-101757080D01*
X156009694Y-101757079D01*
X155630627Y-102136147D01*
X155586433Y-102154453D01*
X155542239Y-102136147D01*
X155540245Y-102134059D01*
X155490880Y-102079909D01*
X155464069Y-102050499D01*
X155464068Y-102050498D01*
X155464066Y-102050496D01*
X155464062Y-102050492D01*
X155463637Y-102050171D01*
X155463552Y-102050027D01*
X155461932Y-102048550D01*
X155462389Y-102048047D01*
X155439407Y-102008926D01*
X155451439Y-101962629D01*
X155457115Y-101956107D01*
X155832606Y-101580615D01*
X155780165Y-101531956D01*
X155563454Y-101384206D01*
X155327135Y-101270401D01*
X155327131Y-101270400D01*
X155076511Y-101193093D01*
X155076512Y-101193093D01*
X154817143Y-101154000D01*
X154554856Y-101154000D01*
X154295487Y-101193093D01*
X154044868Y-101270400D01*
X154044864Y-101270401D01*
X153808546Y-101384206D01*
X153591841Y-101531951D01*
X153591834Y-101531956D01*
X153539392Y-101580615D01*
X153914884Y-101956108D01*
X153933190Y-102000302D01*
X153914884Y-102044496D01*
X153908359Y-102050175D01*
X153907931Y-102050497D01*
X153831752Y-102134060D01*
X153788450Y-102154386D01*
X153743458Y-102138140D01*
X153741371Y-102136147D01*
X153362304Y-101757079D01*
X153362303Y-101757080D01*
X153236034Y-101915416D01*
X153236027Y-101915425D01*
X153104886Y-102142566D01*
X153009058Y-102386735D01*
X153009057Y-102386738D01*
X152950694Y-102642443D01*
X152950694Y-102642445D01*
X152931093Y-102903996D01*
X152931093Y-102904003D01*
X151373033Y-102904003D01*
X153553230Y-100723806D01*
X153597425Y-100705500D01*
X156743575Y-100705500D01*
X156787766Y-100723803D01*
X156803694Y-100739731D01*
X156822000Y-100783922D01*
X156822000Y-101249181D01*
X156828249Y-101307300D01*
X156877288Y-101438780D01*
X156877290Y-101438783D01*
X156961381Y-101551113D01*
X156961386Y-101551118D01*
X157073716Y-101635209D01*
X157073719Y-101635211D01*
X157073722Y-101635212D01*
X157205201Y-101684251D01*
X157263326Y-101690500D01*
X157263332Y-101690500D01*
X157856668Y-101690500D01*
X157856674Y-101690500D01*
X157914799Y-101684251D01*
X158046278Y-101635212D01*
X158046278Y-101635211D01*
X158046280Y-101635211D01*
X158046283Y-101635209D01*
X158130689Y-101572021D01*
X158158616Y-101551116D01*
X158207123Y-101486319D01*
X158242709Y-101438783D01*
X158242711Y-101438780D01*
X158242802Y-101438537D01*
X158291751Y-101307299D01*
X158298000Y-101249174D01*
X158298000Y-101090000D01*
X158647500Y-101090000D01*
X158647500Y-101249137D01*
X158653742Y-101307192D01*
X158702730Y-101438532D01*
X158702733Y-101438537D01*
X158786741Y-101550758D01*
X158898962Y-101634766D01*
X158898967Y-101634769D01*
X159030307Y-101683757D01*
X159088362Y-101689999D01*
X159088376Y-101690000D01*
X159260000Y-101690000D01*
X159260000Y-101090000D01*
X159510000Y-101090000D01*
X159510000Y-101690000D01*
X159681624Y-101690000D01*
X159681637Y-101689999D01*
X159739692Y-101683757D01*
X159871032Y-101634769D01*
X159871037Y-101634766D01*
X159983258Y-101550758D01*
X160067266Y-101438537D01*
X160067269Y-101438532D01*
X160116257Y-101307192D01*
X160122499Y-101249137D01*
X160122500Y-101249124D01*
X160122500Y-101090000D01*
X159510000Y-101090000D01*
X159260000Y-101090000D01*
X158647500Y-101090000D01*
X158298000Y-101090000D01*
X158298000Y-100840000D01*
X158647500Y-100840000D01*
X159260000Y-100840000D01*
X159260000Y-100240000D01*
X159510000Y-100240000D01*
X159510000Y-100840000D01*
X160122500Y-100840000D01*
X160122500Y-100680875D01*
X160122499Y-100680862D01*
X160116257Y-100622807D01*
X160067269Y-100491467D01*
X160067266Y-100491462D01*
X159983258Y-100379241D01*
X159871037Y-100295233D01*
X159871032Y-100295230D01*
X159739692Y-100246242D01*
X159681637Y-100240000D01*
X159510000Y-100240000D01*
X159260000Y-100240000D01*
X159088362Y-100240000D01*
X159030307Y-100246242D01*
X158898967Y-100295230D01*
X158898962Y-100295233D01*
X158786741Y-100379241D01*
X158702733Y-100491462D01*
X158702730Y-100491467D01*
X158653742Y-100622807D01*
X158647500Y-100680862D01*
X158647500Y-100840000D01*
X158298000Y-100840000D01*
X158298000Y-100680826D01*
X158291751Y-100622701D01*
X158242712Y-100491222D01*
X158242711Y-100491219D01*
X158242709Y-100491216D01*
X158158618Y-100378886D01*
X158158613Y-100378881D01*
X158046283Y-100294790D01*
X158046280Y-100294788D01*
X157914800Y-100245749D01*
X157856681Y-100239500D01*
X157856674Y-100239500D01*
X157391426Y-100239500D01*
X157347232Y-100221194D01*
X157222637Y-100096599D01*
X157214508Y-100086589D01*
X157205084Y-100072164D01*
X157175562Y-100049186D01*
X157172672Y-100046634D01*
X157168518Y-100042480D01*
X157149504Y-100028905D01*
X157106189Y-99995191D01*
X157106188Y-99995190D01*
X157106186Y-99995189D01*
X157101635Y-99992726D01*
X157101663Y-99992674D01*
X157096873Y-99990209D01*
X157096847Y-99990263D01*
X157092198Y-99987989D01*
X157039597Y-99972329D01*
X156987657Y-99954499D01*
X156982550Y-99953647D01*
X156982559Y-99953589D01*
X156977229Y-99952812D01*
X156977222Y-99952872D01*
X156972090Y-99952231D01*
X156917244Y-99954500D01*
X153461426Y-99954500D01*
X153448601Y-99953170D01*
X153444122Y-99952231D01*
X153431731Y-99949632D01*
X153403356Y-99953170D01*
X153394608Y-99954260D01*
X153390744Y-99954500D01*
X153384886Y-99954500D01*
X153361858Y-99958342D01*
X153361859Y-99958342D01*
X153307374Y-99965133D01*
X153302414Y-99966610D01*
X153302397Y-99966554D01*
X153297265Y-99968198D01*
X153297284Y-99968254D01*
X153292393Y-99969932D01*
X153244122Y-99996055D01*
X153194788Y-100020174D01*
X153190574Y-100023183D01*
X153190541Y-100023136D01*
X153186223Y-100026356D01*
X153186259Y-100026402D01*
X153182173Y-100029582D01*
X153144992Y-100069970D01*
X150770115Y-102444847D01*
X150725921Y-102463153D01*
X150156700Y-102463153D01*
X150112506Y-102444847D01*
X150094200Y-102400653D01*
X150112506Y-102356459D01*
X150127655Y-102345312D01*
X150144782Y-102336323D01*
X150181440Y-102317083D01*
X150299683Y-102212330D01*
X150389420Y-102082323D01*
X150445437Y-101934618D01*
X150447421Y-101918279D01*
X150464478Y-101777803D01*
X150464478Y-101777796D01*
X150445438Y-101620987D01*
X150445437Y-101620985D01*
X150445437Y-101620982D01*
X150389420Y-101473277D01*
X150299683Y-101343270D01*
X150181440Y-101238517D01*
X150041565Y-101165104D01*
X149989734Y-101152329D01*
X149888187Y-101127300D01*
X149888185Y-101127300D01*
X149730215Y-101127300D01*
X149730212Y-101127300D01*
X149611720Y-101156505D01*
X149589032Y-101157841D01*
X149585356Y-101157382D01*
X149534169Y-101159500D01*
X148984030Y-101159500D01*
X148939836Y-101141194D01*
X148928342Y-101125374D01*
X148916289Y-101101719D01*
X148823780Y-101009210D01*
X148707216Y-100949818D01*
X148707212Y-100949817D01*
X148624583Y-100936729D01*
X148583797Y-100911735D01*
X148572631Y-100865221D01*
X148597625Y-100824435D01*
X148624581Y-100813269D01*
X148707215Y-100800182D01*
X148823781Y-100740789D01*
X148916289Y-100648281D01*
X148928341Y-100624626D01*
X148964716Y-100593559D01*
X148984030Y-100590500D01*
X149261320Y-100590500D01*
X149305514Y-100608806D01*
X149312755Y-100617495D01*
X149316349Y-100622701D01*
X149344113Y-100662925D01*
X149344116Y-100662928D01*
X149344117Y-100662930D01*
X149462360Y-100767683D01*
X149602235Y-100841096D01*
X149755615Y-100878900D01*
X149755616Y-100878900D01*
X149913584Y-100878900D01*
X149913585Y-100878900D01*
X150066965Y-100841096D01*
X150206840Y-100767683D01*
X150325083Y-100662930D01*
X150414820Y-100532923D01*
X150470837Y-100385218D01*
X150471606Y-100378884D01*
X150489878Y-100228403D01*
X150489878Y-100228396D01*
X150470838Y-100071587D01*
X150470837Y-100071585D01*
X150470837Y-100071582D01*
X150414820Y-99923877D01*
X150325083Y-99793870D01*
X150265157Y-99740781D01*
X150244217Y-99697774D01*
X150259821Y-99652555D01*
X150302829Y-99631614D01*
X150306603Y-99631500D01*
X161032000Y-99631500D01*
X161076194Y-99649806D01*
X161094500Y-99694000D01*
X161094500Y-100191426D01*
X161076194Y-100235620D01*
X161053842Y-100249985D01*
X160933719Y-100294788D01*
X160933716Y-100294790D01*
X160821386Y-100378881D01*
X160821381Y-100378886D01*
X160737290Y-100491216D01*
X160737288Y-100491219D01*
X160688249Y-100622699D01*
X160682000Y-100680818D01*
X160682000Y-101249181D01*
X160688249Y-101307300D01*
X160737288Y-101438780D01*
X160737290Y-101438783D01*
X160821381Y-101551113D01*
X160821386Y-101551118D01*
X160933716Y-101635209D01*
X160933719Y-101635211D01*
X160933722Y-101635212D01*
X161065201Y-101684251D01*
X161123326Y-101690500D01*
X161123332Y-101690500D01*
X161816668Y-101690500D01*
X161816674Y-101690500D01*
X161874799Y-101684251D01*
X162006278Y-101635212D01*
X162006278Y-101635211D01*
X162006280Y-101635211D01*
X162006283Y-101635209D01*
X162090689Y-101572021D01*
X162118616Y-101551116D01*
X162167123Y-101486319D01*
X162202709Y-101438783D01*
X162202711Y-101438780D01*
X162202802Y-101438537D01*
X162251751Y-101307299D01*
X162258000Y-101249174D01*
X162258000Y-101090000D01*
X162407500Y-101090000D01*
X162407500Y-101249137D01*
X162413742Y-101307192D01*
X162462730Y-101438532D01*
X162462733Y-101438537D01*
X162546741Y-101550758D01*
X162658962Y-101634766D01*
X162658967Y-101634769D01*
X162790307Y-101683757D01*
X162848362Y-101689999D01*
X162848376Y-101690000D01*
X163070000Y-101690000D01*
X163070000Y-101090000D01*
X163320000Y-101090000D01*
X163320000Y-101690000D01*
X163541624Y-101690000D01*
X163541637Y-101689999D01*
X163599692Y-101683757D01*
X163731032Y-101634769D01*
X163731037Y-101634766D01*
X163843258Y-101550758D01*
X163927266Y-101438537D01*
X163927269Y-101438532D01*
X163976257Y-101307192D01*
X163982499Y-101249137D01*
X163982500Y-101249124D01*
X163982500Y-101090000D01*
X163320000Y-101090000D01*
X163070000Y-101090000D01*
X162407500Y-101090000D01*
X162258000Y-101090000D01*
X162258000Y-100840000D01*
X162407500Y-100840000D01*
X163070000Y-100840000D01*
X163070000Y-100240000D01*
X163320000Y-100240000D01*
X163320000Y-100840000D01*
X163982500Y-100840000D01*
X163982500Y-100680875D01*
X163982499Y-100680862D01*
X163976257Y-100622807D01*
X163927269Y-100491467D01*
X163927266Y-100491462D01*
X163843258Y-100379241D01*
X163731037Y-100295233D01*
X163731032Y-100295230D01*
X163599692Y-100246242D01*
X163541637Y-100240000D01*
X163320000Y-100240000D01*
X163070000Y-100240000D01*
X162848362Y-100240000D01*
X162790307Y-100246242D01*
X162658967Y-100295230D01*
X162658962Y-100295233D01*
X162546741Y-100379241D01*
X162462733Y-100491462D01*
X162462730Y-100491467D01*
X162413742Y-100622807D01*
X162407500Y-100680862D01*
X162407500Y-100840000D01*
X162258000Y-100840000D01*
X162258000Y-100680826D01*
X162251751Y-100622701D01*
X162202712Y-100491222D01*
X162202711Y-100491219D01*
X162202709Y-100491216D01*
X162118618Y-100378886D01*
X162118613Y-100378881D01*
X162006283Y-100294790D01*
X162006280Y-100294788D01*
X161886158Y-100249985D01*
X161851148Y-100217389D01*
X161845500Y-100191426D01*
X161845500Y-99359425D01*
X161846830Y-99346598D01*
X161849105Y-99335751D01*
X161850367Y-99329731D01*
X161845739Y-99292610D01*
X161845500Y-99288744D01*
X161845500Y-98563573D01*
X161863806Y-98519379D01*
X161886159Y-98505014D01*
X162006278Y-98460212D01*
X162006283Y-98460209D01*
X162105995Y-98385564D01*
X162118616Y-98376116D01*
X162142076Y-98344777D01*
X162202709Y-98263783D01*
X162202711Y-98263780D01*
X162202802Y-98263537D01*
X162251751Y-98132299D01*
X162258000Y-98074174D01*
X162258000Y-97915000D01*
X162407500Y-97915000D01*
X162407500Y-98074137D01*
X162413742Y-98132192D01*
X162462730Y-98263532D01*
X162462733Y-98263537D01*
X162546741Y-98375758D01*
X162658962Y-98459766D01*
X162658967Y-98459769D01*
X162790307Y-98508757D01*
X162848362Y-98514999D01*
X162848376Y-98515000D01*
X163070000Y-98515000D01*
X163070000Y-97915000D01*
X163320000Y-97915000D01*
X163320000Y-98515000D01*
X163541624Y-98515000D01*
X163541637Y-98514999D01*
X163599692Y-98508757D01*
X163731032Y-98459769D01*
X163731037Y-98459766D01*
X163843258Y-98375758D01*
X163927266Y-98263537D01*
X163927269Y-98263532D01*
X163976257Y-98132192D01*
X163982499Y-98074137D01*
X163982500Y-98074124D01*
X163982500Y-97915000D01*
X163320000Y-97915000D01*
X163070000Y-97915000D01*
X162407500Y-97915000D01*
X162258000Y-97915000D01*
X162258000Y-97665000D01*
X162407500Y-97665000D01*
X163070000Y-97665000D01*
X163070000Y-97065000D01*
X163320000Y-97065000D01*
X163320000Y-97665000D01*
X163982500Y-97665000D01*
X163982500Y-97505875D01*
X163982499Y-97505862D01*
X163976257Y-97447807D01*
X163927269Y-97316467D01*
X163927266Y-97316462D01*
X163843258Y-97204241D01*
X163731037Y-97120233D01*
X163731032Y-97120230D01*
X163599692Y-97071242D01*
X163541637Y-97065000D01*
X163320000Y-97065000D01*
X163070000Y-97065000D01*
X162848362Y-97065000D01*
X162790307Y-97071242D01*
X162658967Y-97120230D01*
X162658962Y-97120233D01*
X162546741Y-97204241D01*
X162462733Y-97316462D01*
X162462730Y-97316467D01*
X162413742Y-97447807D01*
X162407500Y-97505862D01*
X162407500Y-97665000D01*
X162258000Y-97665000D01*
X162258000Y-97505826D01*
X162251751Y-97447701D01*
X162202712Y-97316222D01*
X162202711Y-97316219D01*
X162202709Y-97316216D01*
X162118618Y-97203886D01*
X162118613Y-97203881D01*
X162006283Y-97119790D01*
X162006280Y-97119788D01*
X161874800Y-97070749D01*
X161816681Y-97064500D01*
X161816674Y-97064500D01*
X161123326Y-97064500D01*
X161123318Y-97064500D01*
X161065199Y-97070749D01*
X160933719Y-97119788D01*
X160933716Y-97119790D01*
X160821386Y-97203881D01*
X160821381Y-97203886D01*
X160737290Y-97316216D01*
X160737288Y-97316219D01*
X160688249Y-97447699D01*
X160682000Y-97505818D01*
X160682000Y-98074181D01*
X160688249Y-98132300D01*
X160737288Y-98263780D01*
X160737290Y-98263783D01*
X160821381Y-98376113D01*
X160821386Y-98376118D01*
X160933716Y-98460209D01*
X160933721Y-98460212D01*
X161053841Y-98505014D01*
X161088852Y-98537609D01*
X161094500Y-98563573D01*
X161094500Y-98818000D01*
X161076194Y-98862194D01*
X161032000Y-98880500D01*
X154277425Y-98880500D01*
X154233231Y-98862194D01*
X154214925Y-98818000D01*
X154233229Y-98773806D01*
X154358404Y-98648631D01*
X154368404Y-98640512D01*
X154382836Y-98631084D01*
X154405830Y-98601539D01*
X154408365Y-98598670D01*
X154412519Y-98594518D01*
X154426085Y-98575516D01*
X154456620Y-98536285D01*
X154498209Y-98512656D01*
X154499219Y-98512538D01*
X154529799Y-98509251D01*
X154661278Y-98460212D01*
X154661278Y-98460211D01*
X154661280Y-98460211D01*
X154661283Y-98460209D01*
X154760995Y-98385564D01*
X154773616Y-98376116D01*
X154797076Y-98344777D01*
X154857709Y-98263783D01*
X154857712Y-98263778D01*
X154879203Y-98206159D01*
X154911798Y-98171148D01*
X154937762Y-98165500D01*
X156797238Y-98165500D01*
X156841432Y-98183806D01*
X156855797Y-98206159D01*
X156877287Y-98263778D01*
X156877290Y-98263783D01*
X156961381Y-98376113D01*
X156961386Y-98376118D01*
X157073716Y-98460209D01*
X157073719Y-98460211D01*
X157073722Y-98460212D01*
X157205201Y-98509251D01*
X157263326Y-98515500D01*
X157263332Y-98515500D01*
X157856668Y-98515500D01*
X157856674Y-98515500D01*
X157914799Y-98509251D01*
X158046278Y-98460212D01*
X158046278Y-98460211D01*
X158046280Y-98460211D01*
X158046283Y-98460209D01*
X158145995Y-98385564D01*
X158158616Y-98376116D01*
X158182076Y-98344777D01*
X158242709Y-98263783D01*
X158242711Y-98263780D01*
X158242802Y-98263537D01*
X158291751Y-98132299D01*
X158298000Y-98074174D01*
X158298000Y-97505826D01*
X158291751Y-97447701D01*
X158242712Y-97316222D01*
X158242711Y-97316219D01*
X158242709Y-97316216D01*
X158158618Y-97203886D01*
X158158613Y-97203881D01*
X158046283Y-97119790D01*
X158046280Y-97119788D01*
X157914800Y-97070749D01*
X157856681Y-97064500D01*
X157856674Y-97064500D01*
X157263326Y-97064500D01*
X157263318Y-97064500D01*
X157205199Y-97070749D01*
X157073719Y-97119788D01*
X157073716Y-97119790D01*
X156961386Y-97203881D01*
X156961381Y-97203886D01*
X156877290Y-97316216D01*
X156877287Y-97316221D01*
X156855797Y-97373841D01*
X156823202Y-97408852D01*
X156797238Y-97414500D01*
X154937762Y-97414500D01*
X154893568Y-97396194D01*
X154879203Y-97373841D01*
X154857712Y-97316221D01*
X154857709Y-97316216D01*
X154773618Y-97203886D01*
X154773613Y-97203881D01*
X154661283Y-97119790D01*
X154661280Y-97119788D01*
X154529800Y-97070749D01*
X154471681Y-97064500D01*
X154471674Y-97064500D01*
X153778326Y-97064500D01*
X153778318Y-97064500D01*
X153720199Y-97070749D01*
X153588719Y-97119788D01*
X153588716Y-97119790D01*
X153476386Y-97203881D01*
X153476381Y-97203886D01*
X153392290Y-97316216D01*
X153392288Y-97316219D01*
X153343249Y-97447699D01*
X153337000Y-97505818D01*
X153337000Y-98074181D01*
X153343249Y-98132300D01*
X153392288Y-98263780D01*
X153392290Y-98263783D01*
X153442269Y-98330545D01*
X153454100Y-98376894D01*
X153429691Y-98418033D01*
X153392236Y-98430500D01*
X153132139Y-98430500D01*
X153087945Y-98412194D01*
X153069639Y-98368000D01*
X153082105Y-98330545D01*
X153132266Y-98263537D01*
X153132269Y-98263532D01*
X153181257Y-98132192D01*
X153187499Y-98074137D01*
X153187500Y-98074124D01*
X153187500Y-97915000D01*
X151612500Y-97915000D01*
X151612500Y-98074137D01*
X151618742Y-98132192D01*
X151667730Y-98263532D01*
X151667733Y-98263537D01*
X151717895Y-98330545D01*
X151729725Y-98376894D01*
X151705316Y-98418034D01*
X151667861Y-98430500D01*
X151311425Y-98430500D01*
X151267231Y-98412194D01*
X150520038Y-97665000D01*
X151612500Y-97665000D01*
X152275000Y-97665000D01*
X152275000Y-97065000D01*
X152525000Y-97065000D01*
X152525000Y-97665000D01*
X153187500Y-97665000D01*
X153187500Y-97505875D01*
X153187499Y-97505862D01*
X153181257Y-97447807D01*
X153132269Y-97316467D01*
X153132266Y-97316462D01*
X153048258Y-97204241D01*
X152936037Y-97120233D01*
X152936032Y-97120230D01*
X152804692Y-97071242D01*
X152746637Y-97065000D01*
X152525000Y-97065000D01*
X152275000Y-97065000D01*
X152053362Y-97065000D01*
X151995307Y-97071242D01*
X151863967Y-97120230D01*
X151863962Y-97120233D01*
X151751741Y-97204241D01*
X151667733Y-97316462D01*
X151667730Y-97316467D01*
X151618742Y-97447807D01*
X151612500Y-97505862D01*
X151612500Y-97665000D01*
X150520038Y-97665000D01*
X150321637Y-97466599D01*
X150313508Y-97456589D01*
X150307701Y-97447701D01*
X150304084Y-97442164D01*
X150274562Y-97419186D01*
X150271672Y-97416634D01*
X150267518Y-97412480D01*
X150248504Y-97398905D01*
X150205189Y-97365191D01*
X150205188Y-97365190D01*
X150205186Y-97365189D01*
X150200635Y-97362726D01*
X150200663Y-97362674D01*
X150195873Y-97360209D01*
X150195847Y-97360263D01*
X150191198Y-97357989D01*
X150138597Y-97342329D01*
X150086657Y-97324499D01*
X150081550Y-97323647D01*
X150081559Y-97323589D01*
X150076229Y-97322812D01*
X150076222Y-97322872D01*
X150071090Y-97322231D01*
X150016244Y-97324500D01*
X148971292Y-97324500D01*
X148927098Y-97306194D01*
X148919372Y-97295561D01*
X148919182Y-97295700D01*
X148916290Y-97291720D01*
X148823780Y-97199210D01*
X148707216Y-97139818D01*
X148707212Y-97139817D01*
X148624583Y-97126729D01*
X148583797Y-97101735D01*
X148572631Y-97055221D01*
X148597625Y-97014435D01*
X148624581Y-97003269D01*
X148707215Y-96990182D01*
X148823781Y-96930789D01*
X148916289Y-96838281D01*
X148916290Y-96838278D01*
X148919182Y-96834300D01*
X148920618Y-96835343D01*
X148951979Y-96808559D01*
X148971292Y-96805500D01*
X148979847Y-96805500D01*
X149024041Y-96823806D01*
X149031280Y-96832491D01*
X149115517Y-96954530D01*
X149233760Y-97059283D01*
X149373635Y-97132696D01*
X149527015Y-97170500D01*
X149527016Y-97170500D01*
X149684984Y-97170500D01*
X149684985Y-97170500D01*
X149838365Y-97132696D01*
X149978240Y-97059283D01*
X150096483Y-96954530D01*
X150186220Y-96824523D01*
X150242237Y-96676818D01*
X150242238Y-96676812D01*
X150261278Y-96520003D01*
X150261278Y-96519996D01*
X150242238Y-96363187D01*
X150242237Y-96363185D01*
X150242237Y-96363182D01*
X150186220Y-96215477D01*
X150096483Y-96085470D01*
X150066123Y-96058574D01*
X149978240Y-95980717D01*
X149964865Y-95973697D01*
X149838365Y-95907304D01*
X149787238Y-95894702D01*
X149684987Y-95869500D01*
X149684985Y-95869500D01*
X149527015Y-95869500D01*
X149527012Y-95869500D01*
X149373635Y-95907304D01*
X149233759Y-95980717D01*
X149168217Y-96038782D01*
X149126772Y-96054500D01*
X148971292Y-96054500D01*
X148927098Y-96036194D01*
X148919372Y-96025561D01*
X148919182Y-96025700D01*
X148916290Y-96021720D01*
X148823780Y-95929210D01*
X148707216Y-95869818D01*
X148707212Y-95869817D01*
X148624583Y-95856729D01*
X148583797Y-95831735D01*
X148572631Y-95785221D01*
X148597625Y-95744435D01*
X148624581Y-95733269D01*
X148707215Y-95720182D01*
X148823781Y-95660789D01*
X148916289Y-95568281D01*
X148975682Y-95451715D01*
X148991000Y-95355003D01*
X148990999Y-95070003D01*
X152847093Y-95070003D01*
X152866694Y-95331554D01*
X152866694Y-95331556D01*
X152925057Y-95587261D01*
X152925058Y-95587264D01*
X153020886Y-95831433D01*
X153152027Y-96058574D01*
X153152034Y-96058583D01*
X153278303Y-96216918D01*
X153278304Y-96216919D01*
X153657371Y-95837851D01*
X153701565Y-95819545D01*
X153745759Y-95837851D01*
X153747753Y-95839939D01*
X153823925Y-95923495D01*
X153823926Y-95923496D01*
X153823931Y-95923501D01*
X153824346Y-95923814D01*
X153824428Y-95923954D01*
X153826064Y-95925445D01*
X153825602Y-95925951D01*
X153848589Y-95965049D01*
X153836574Y-96011351D01*
X153830884Y-96017890D01*
X153455392Y-96393382D01*
X153455392Y-96393383D01*
X153507834Y-96442043D01*
X153724546Y-96589793D01*
X153960864Y-96703598D01*
X153960868Y-96703599D01*
X154211488Y-96780906D01*
X154211487Y-96780906D01*
X154470856Y-96819999D01*
X154470862Y-96820000D01*
X154733138Y-96820000D01*
X154733143Y-96819999D01*
X154992512Y-96780906D01*
X155243131Y-96703599D01*
X155243135Y-96703598D01*
X155479454Y-96589793D01*
X155696166Y-96442042D01*
X155748606Y-96393382D01*
X155373115Y-96017891D01*
X155354809Y-95973697D01*
X155373115Y-95929503D01*
X155379645Y-95923821D01*
X155380069Y-95923501D01*
X155456247Y-95839937D01*
X155499546Y-95819612D01*
X155544539Y-95835857D01*
X155546627Y-95837851D01*
X155925694Y-96216919D01*
X155925695Y-96216918D01*
X156051967Y-96058579D01*
X156051975Y-96058567D01*
X156183113Y-95831433D01*
X156278941Y-95587264D01*
X156278942Y-95587261D01*
X156337305Y-95331556D01*
X156337305Y-95331554D01*
X156356907Y-95070003D01*
X156356907Y-95069996D01*
X156337305Y-94808445D01*
X156337305Y-94808443D01*
X156278942Y-94552738D01*
X156278941Y-94552735D01*
X156183113Y-94308566D01*
X156051975Y-94081432D01*
X156051967Y-94081419D01*
X155925695Y-93923080D01*
X155925694Y-93923079D01*
X155546627Y-94302147D01*
X155502433Y-94320453D01*
X155458239Y-94302147D01*
X155456245Y-94300059D01*
X155380066Y-94216496D01*
X155380062Y-94216492D01*
X155379637Y-94216171D01*
X155379552Y-94216027D01*
X155377932Y-94214550D01*
X155378389Y-94214047D01*
X155355407Y-94174926D01*
X155367439Y-94128629D01*
X155373115Y-94122107D01*
X155748606Y-93746615D01*
X155696165Y-93697956D01*
X155479454Y-93550206D01*
X155243135Y-93436401D01*
X155243131Y-93436400D01*
X154992511Y-93359093D01*
X154992512Y-93359093D01*
X154733143Y-93320000D01*
X154470856Y-93320000D01*
X154211487Y-93359093D01*
X153960868Y-93436400D01*
X153960864Y-93436401D01*
X153724546Y-93550206D01*
X153507841Y-93697951D01*
X153507834Y-93697956D01*
X153455392Y-93746615D01*
X153455392Y-93746616D01*
X153830884Y-94122108D01*
X153849190Y-94166302D01*
X153830884Y-94210496D01*
X153824359Y-94216175D01*
X153823931Y-94216497D01*
X153747752Y-94300060D01*
X153704450Y-94320386D01*
X153659458Y-94304140D01*
X153657371Y-94302147D01*
X153278304Y-93923079D01*
X153278303Y-93923080D01*
X153152034Y-94081416D01*
X153152027Y-94081425D01*
X153020886Y-94308566D01*
X152925058Y-94552735D01*
X152925057Y-94552738D01*
X152866694Y-94808443D01*
X152866694Y-94808445D01*
X152847093Y-95069996D01*
X152847093Y-95070003D01*
X148990999Y-95070003D01*
X148990999Y-94964998D01*
X148975682Y-94868285D01*
X148916289Y-94751719D01*
X148823781Y-94659211D01*
X148823780Y-94659210D01*
X148707216Y-94599818D01*
X148707212Y-94599817D01*
X148622985Y-94586476D01*
X148582199Y-94561482D01*
X148571033Y-94514968D01*
X148596027Y-94474182D01*
X148622987Y-94463015D01*
X148707057Y-94449700D01*
X148707062Y-94449699D01*
X148823483Y-94390379D01*
X148915879Y-94297983D01*
X148975200Y-94181559D01*
X148975202Y-94181554D01*
X148990498Y-94084978D01*
X148990500Y-94084962D01*
X148990500Y-94015000D01*
X146665501Y-94015000D01*
X146665501Y-94084964D01*
X146680799Y-94181558D01*
X146680800Y-94181562D01*
X146740120Y-94297983D01*
X146832516Y-94390379D01*
X146948940Y-94449700D01*
X146948939Y-94449700D01*
X147033013Y-94463016D01*
X147073800Y-94488010D01*
X147084967Y-94534524D01*
X147059973Y-94575311D01*
X147033013Y-94586478D01*
X146948784Y-94599818D01*
X146832219Y-94659210D01*
X146739710Y-94751719D01*
X146680318Y-94868283D01*
X146680317Y-94868287D01*
X146665001Y-94964985D01*
X146665000Y-94964999D01*
X146665000Y-95354998D01*
X146665001Y-95355002D01*
X146680318Y-95451716D01*
X146739710Y-95568280D01*
X146832219Y-95660789D01*
X146948783Y-95720181D01*
X146948785Y-95720182D01*
X147031416Y-95733269D01*
X147072202Y-95758263D01*
X147083369Y-95804777D01*
X147058375Y-95845564D01*
X147031415Y-95856730D01*
X146948789Y-95869816D01*
X146948784Y-95869818D01*
X146832219Y-95929210D01*
X146739710Y-96021719D01*
X146680318Y-96138283D01*
X146680317Y-96138287D01*
X146665001Y-96234985D01*
X146665000Y-96234999D01*
X146665000Y-96624998D01*
X146665001Y-96625002D01*
X146680318Y-96721716D01*
X146739710Y-96838280D01*
X146832219Y-96930789D01*
X146948783Y-96990181D01*
X146948785Y-96990182D01*
X147031416Y-97003269D01*
X147072202Y-97028263D01*
X147083369Y-97074777D01*
X147058375Y-97115564D01*
X147031415Y-97126730D01*
X146948789Y-97139816D01*
X146948784Y-97139818D01*
X146832219Y-97199210D01*
X146739710Y-97291719D01*
X146680318Y-97408283D01*
X146680317Y-97408287D01*
X146665001Y-97504985D01*
X146665000Y-97504999D01*
X146665000Y-97894998D01*
X146665001Y-97895002D01*
X146680318Y-97991716D01*
X146739710Y-98108280D01*
X146832219Y-98200789D01*
X146948783Y-98260181D01*
X146948785Y-98260182D01*
X147031416Y-98273269D01*
X147072202Y-98298263D01*
X147083369Y-98344777D01*
X147058375Y-98385564D01*
X147031415Y-98396730D01*
X146948789Y-98409816D01*
X146948784Y-98409818D01*
X146832219Y-98469210D01*
X146739710Y-98561719D01*
X146680318Y-98678283D01*
X146680317Y-98678287D01*
X146665001Y-98774985D01*
X146665000Y-98774999D01*
X146665000Y-99164998D01*
X146665001Y-99165002D01*
X146680318Y-99261716D01*
X146739710Y-99378280D01*
X146832219Y-99470789D01*
X146948783Y-99530181D01*
X146948785Y-99530182D01*
X147031416Y-99543269D01*
X147072202Y-99568263D01*
X147083369Y-99614777D01*
X147058375Y-99655564D01*
X147031415Y-99666730D01*
X146948789Y-99679816D01*
X146948784Y-99679818D01*
X146832219Y-99739210D01*
X146739710Y-99831719D01*
X146680318Y-99948283D01*
X146680317Y-99948287D01*
X146665001Y-100044985D01*
X146665000Y-100044999D01*
X146665000Y-100434998D01*
X146665001Y-100435002D01*
X146680318Y-100531716D01*
X146739710Y-100648280D01*
X146832219Y-100740789D01*
X146948783Y-100800181D01*
X146948785Y-100800182D01*
X147031416Y-100813269D01*
X147072202Y-100838263D01*
X147083369Y-100884777D01*
X147058375Y-100925564D01*
X147031415Y-100936730D01*
X146948789Y-100949816D01*
X146948786Y-100949817D01*
X146914063Y-100967509D01*
X146866375Y-100971260D01*
X146841496Y-100956014D01*
X146317206Y-100431724D01*
X146298900Y-100387530D01*
X146298900Y-99407629D01*
X146300231Y-99394802D01*
X146303441Y-99379490D01*
X146303442Y-99379483D01*
X146299140Y-99344972D01*
X146298900Y-99341103D01*
X146298900Y-99335765D01*
X146298900Y-99335760D01*
X146295310Y-99314249D01*
X146288973Y-99263407D01*
X146288971Y-99263403D01*
X146287494Y-99258439D01*
X146287625Y-99258399D01*
X146286304Y-99254275D01*
X146286174Y-99254320D01*
X146284492Y-99249424D01*
X146284492Y-99249419D01*
X146260104Y-99204355D01*
X146237598Y-99158316D01*
X146237597Y-99158315D01*
X146234589Y-99154102D01*
X146234699Y-99154022D01*
X146232106Y-99150545D01*
X146231999Y-99150629D01*
X146228817Y-99146541D01*
X146191124Y-99111842D01*
X145904406Y-98825122D01*
X145886100Y-98780928D01*
X145886100Y-93765000D01*
X146665500Y-93765000D01*
X147703000Y-93765000D01*
X147703000Y-93315000D01*
X147953000Y-93315000D01*
X147953000Y-93765000D01*
X148990499Y-93765000D01*
X148990499Y-93695039D01*
X148990498Y-93695035D01*
X148975200Y-93598441D01*
X148975199Y-93598437D01*
X148915879Y-93482016D01*
X148823483Y-93389620D01*
X148707059Y-93330299D01*
X148707054Y-93330297D01*
X148610478Y-93315001D01*
X148610463Y-93315000D01*
X147953000Y-93315000D01*
X147703000Y-93315000D01*
X147045539Y-93315000D01*
X147045535Y-93315001D01*
X146948941Y-93330299D01*
X146948937Y-93330300D01*
X146832516Y-93389620D01*
X146740120Y-93482016D01*
X146680799Y-93598440D01*
X146680797Y-93598445D01*
X146665501Y-93695021D01*
X146665500Y-93695037D01*
X146665500Y-93765000D01*
X145886100Y-93765000D01*
X145886100Y-92824674D01*
X150891500Y-92824674D01*
X150906033Y-92897739D01*
X150906034Y-92897741D01*
X150933716Y-92939170D01*
X150961399Y-92980601D01*
X151023403Y-93022030D01*
X151044258Y-93035965D01*
X151044260Y-93035966D01*
X151117326Y-93050500D01*
X152666674Y-93050500D01*
X152739740Y-93035966D01*
X152822601Y-92980601D01*
X152877966Y-92897740D01*
X152892500Y-92824674D01*
X152892500Y-92613000D01*
X152910806Y-92568806D01*
X152955000Y-92550500D01*
X158624287Y-92550500D01*
X158668481Y-92568806D01*
X158816194Y-92716518D01*
X158834500Y-92760712D01*
X158834500Y-97136579D01*
X158816194Y-97180773D01*
X158809455Y-97186613D01*
X158786386Y-97203881D01*
X158786380Y-97203888D01*
X158702290Y-97316216D01*
X158702288Y-97316219D01*
X158653249Y-97447699D01*
X158647000Y-97505818D01*
X158647000Y-98074181D01*
X158653249Y-98132300D01*
X158702288Y-98263780D01*
X158702290Y-98263783D01*
X158786381Y-98376113D01*
X158786386Y-98376118D01*
X158898716Y-98460209D01*
X158898719Y-98460211D01*
X158898722Y-98460212D01*
X159030201Y-98509251D01*
X159088326Y-98515500D01*
X159088332Y-98515500D01*
X159681668Y-98515500D01*
X159681674Y-98515500D01*
X159739799Y-98509251D01*
X159871278Y-98460212D01*
X159871278Y-98460211D01*
X159871280Y-98460211D01*
X159871283Y-98460209D01*
X159970995Y-98385564D01*
X159983616Y-98376116D01*
X160007076Y-98344777D01*
X160067709Y-98263783D01*
X160067711Y-98263780D01*
X160067802Y-98263537D01*
X160116751Y-98132299D01*
X160123000Y-98074174D01*
X160123000Y-97505826D01*
X160116751Y-97447701D01*
X160067712Y-97316222D01*
X160067711Y-97316219D01*
X160067709Y-97316216D01*
X159983619Y-97203888D01*
X159983613Y-97203881D01*
X159960545Y-97186613D01*
X159936136Y-97145474D01*
X159935500Y-97136579D01*
X159935500Y-92516196D01*
X159937762Y-92449974D01*
X159926909Y-92405439D01*
X159926311Y-92402293D01*
X159920070Y-92356879D01*
X159910823Y-92335593D01*
X159907425Y-92325487D01*
X159901934Y-92302953D01*
X159901933Y-92302948D01*
X159879467Y-92262992D01*
X159878043Y-92260125D01*
X159859781Y-92218083D01*
X159859780Y-92218080D01*
X159845135Y-92200080D01*
X159839138Y-92191269D01*
X159827764Y-92171040D01*
X159795355Y-92138631D01*
X159793214Y-92136260D01*
X159764278Y-92100692D01*
X159745316Y-92087307D01*
X159737165Y-92080441D01*
X159274107Y-91617382D01*
X159228878Y-91568954D01*
X159189718Y-91545140D01*
X159187071Y-91543339D01*
X159150543Y-91515639D01*
X159150539Y-91515637D01*
X159128954Y-91507125D01*
X159119410Y-91502385D01*
X159099582Y-91490328D01*
X159055441Y-91477959D01*
X159052408Y-91476939D01*
X159009766Y-91460124D01*
X159009760Y-91460123D01*
X158986681Y-91457750D01*
X158976214Y-91455761D01*
X158953866Y-91449500D01*
X158953865Y-91449500D01*
X158908025Y-91449500D01*
X158904831Y-91449336D01*
X158897212Y-91448552D01*
X158859232Y-91444647D01*
X158859226Y-91444648D01*
X158847537Y-91446663D01*
X158836357Y-91448591D01*
X158825740Y-91449500D01*
X152955000Y-91449500D01*
X152910806Y-91431194D01*
X152892500Y-91387000D01*
X152892500Y-91175326D01*
X152877966Y-91102260D01*
X152822601Y-91019399D01*
X152781170Y-90991716D01*
X152739741Y-90964034D01*
X152739739Y-90964033D01*
X152666674Y-90949500D01*
X151117326Y-90949500D01*
X151044260Y-90964033D01*
X151044258Y-90964034D01*
X150961399Y-91019399D01*
X150906034Y-91102258D01*
X150906033Y-91102260D01*
X150891500Y-91175325D01*
X150891500Y-92824674D01*
X145886100Y-92824674D01*
X145886100Y-89500000D01*
X150836417Y-89500000D01*
X150856699Y-89705930D01*
X150856700Y-89705935D01*
X150916766Y-89903949D01*
X150916768Y-89903954D01*
X151014311Y-90086444D01*
X151014313Y-90086448D01*
X151014315Y-90086450D01*
X151145590Y-90246410D01*
X151305550Y-90377685D01*
X151305553Y-90377686D01*
X151305555Y-90377688D01*
X151380912Y-90417967D01*
X151488046Y-90475232D01*
X151686066Y-90535300D01*
X151892000Y-90555583D01*
X152097934Y-90535300D01*
X152295954Y-90475232D01*
X152478450Y-90377685D01*
X152638410Y-90246410D01*
X152769685Y-90086450D01*
X152867232Y-89903954D01*
X152927300Y-89705934D01*
X152947583Y-89500000D01*
X152927300Y-89294066D01*
X152867232Y-89096046D01*
X152769685Y-88913550D01*
X152673735Y-88796634D01*
X152638411Y-88753591D01*
X152638408Y-88753588D01*
X152478455Y-88622319D01*
X152478453Y-88622318D01*
X152478450Y-88622315D01*
X152478448Y-88622313D01*
X152478444Y-88622311D01*
X152399229Y-88579970D01*
X152352736Y-88555118D01*
X152322390Y-88518143D01*
X152327079Y-88470538D01*
X152352735Y-88444881D01*
X152478450Y-88377685D01*
X152638410Y-88246410D01*
X152769685Y-88086450D01*
X152867232Y-87903954D01*
X152927300Y-87705934D01*
X152947583Y-87500000D01*
X152927300Y-87294066D01*
X152867232Y-87096046D01*
X152769685Y-86913550D01*
X152638410Y-86753590D01*
X152478450Y-86622315D01*
X152478448Y-86622313D01*
X152478444Y-86622311D01*
X152295954Y-86524768D01*
X152295949Y-86524766D01*
X152097935Y-86464700D01*
X152097930Y-86464699D01*
X151892000Y-86444417D01*
X151686069Y-86464699D01*
X151686064Y-86464700D01*
X151488050Y-86524766D01*
X151488045Y-86524768D01*
X151305555Y-86622311D01*
X151305544Y-86622319D01*
X151145591Y-86753588D01*
X151145588Y-86753591D01*
X151014319Y-86913544D01*
X151014311Y-86913555D01*
X150916768Y-87096045D01*
X150916766Y-87096050D01*
X150856700Y-87294064D01*
X150856699Y-87294069D01*
X150836417Y-87499999D01*
X150836417Y-87500000D01*
X150856699Y-87705930D01*
X150856700Y-87705935D01*
X150916766Y-87903949D01*
X150916768Y-87903954D01*
X151014311Y-88086444D01*
X151014319Y-88086455D01*
X151145588Y-88246408D01*
X151145591Y-88246411D01*
X151193889Y-88286048D01*
X151305550Y-88377685D01*
X151305552Y-88377686D01*
X151431262Y-88444880D01*
X151461608Y-88481857D01*
X151456919Y-88529463D01*
X151431262Y-88555120D01*
X151305552Y-88622313D01*
X151305544Y-88622319D01*
X151145591Y-88753588D01*
X151145588Y-88753591D01*
X151014319Y-88913544D01*
X151014311Y-88913555D01*
X150916768Y-89096045D01*
X150916766Y-89096050D01*
X150856700Y-89294064D01*
X150856699Y-89294069D01*
X150836417Y-89499999D01*
X150836417Y-89500000D01*
X145886100Y-89500000D01*
X145886100Y-88286048D01*
X145887430Y-88273221D01*
X145890643Y-88257898D01*
X145886340Y-88223382D01*
X145886100Y-88219513D01*
X145886100Y-88214179D01*
X145886100Y-88214174D01*
X145882512Y-88192673D01*
X145876173Y-88141821D01*
X145876172Y-88141819D01*
X145876172Y-88141816D01*
X145874695Y-88136854D01*
X145874824Y-88136815D01*
X145873501Y-88132684D01*
X145873373Y-88132729D01*
X145871693Y-88127834D01*
X145849299Y-88086455D01*
X145847302Y-88082764D01*
X145824798Y-88036731D01*
X145824796Y-88036729D01*
X145824796Y-88036728D01*
X145821789Y-88032517D01*
X145821899Y-88032437D01*
X145819304Y-88028957D01*
X145819197Y-88029041D01*
X145816017Y-88024954D01*
X145778313Y-87990246D01*
X145404906Y-87616838D01*
X145386600Y-87572644D01*
X145386600Y-85000000D01*
X150836919Y-85000000D01*
X150857191Y-85205834D01*
X150917233Y-85403763D01*
X151014728Y-85586166D01*
X151014736Y-85586177D01*
X151066260Y-85648960D01*
X151066261Y-85648960D01*
X151424265Y-85290956D01*
X151468459Y-85272650D01*
X151512653Y-85290956D01*
X151521036Y-85301358D01*
X151529326Y-85314257D01*
X151529327Y-85314258D01*
X151599242Y-85374840D01*
X151620654Y-85417615D01*
X151605547Y-85463003D01*
X151602507Y-85466268D01*
X151243038Y-85825737D01*
X151243038Y-85825738D01*
X151305822Y-85877263D01*
X151305833Y-85877271D01*
X151488236Y-85974766D01*
X151686165Y-86034808D01*
X151892000Y-86055081D01*
X152097834Y-86034808D01*
X152295763Y-85974766D01*
X152478166Y-85877271D01*
X152478172Y-85877267D01*
X152540960Y-85825738D01*
X152540960Y-85825737D01*
X152181491Y-85466268D01*
X152163185Y-85422074D01*
X152181491Y-85377880D01*
X152184738Y-85374855D01*
X152254673Y-85314258D01*
X152262960Y-85301361D01*
X152302250Y-85274079D01*
X152349326Y-85282570D01*
X152359733Y-85290956D01*
X152717737Y-85648960D01*
X152717738Y-85648960D01*
X152769267Y-85586172D01*
X152769271Y-85586166D01*
X152866766Y-85403763D01*
X152926808Y-85205834D01*
X152947081Y-85000000D01*
X152947081Y-84999999D01*
X152926808Y-84794165D01*
X152866766Y-84596236D01*
X152769271Y-84413833D01*
X152769263Y-84413822D01*
X152717738Y-84351038D01*
X152717737Y-84351038D01*
X152359733Y-84709042D01*
X152315539Y-84727348D01*
X152271345Y-84709042D01*
X152262960Y-84698636D01*
X152254675Y-84685744D01*
X152254670Y-84685740D01*
X152239478Y-84672576D01*
X152184756Y-84625158D01*
X152163344Y-84582382D01*
X152178451Y-84536995D01*
X152181491Y-84533730D01*
X152540960Y-84174261D01*
X152540960Y-84174260D01*
X152478177Y-84122736D01*
X152478166Y-84122728D01*
X152295763Y-84025233D01*
X152097834Y-83965191D01*
X151892000Y-83944919D01*
X151686165Y-83965191D01*
X151488236Y-84025233D01*
X151305833Y-84122728D01*
X151305828Y-84122731D01*
X151243038Y-84174261D01*
X151602508Y-84533731D01*
X151620814Y-84577925D01*
X151602508Y-84622119D01*
X151599243Y-84625159D01*
X151529328Y-84685740D01*
X151521038Y-84698640D01*
X151481744Y-84725921D01*
X151434669Y-84717427D01*
X151424266Y-84709043D01*
X151066261Y-84351038D01*
X151014731Y-84413828D01*
X151014728Y-84413833D01*
X150917233Y-84596236D01*
X150857191Y-84794165D01*
X150836919Y-84999999D01*
X150836919Y-85000000D01*
X145386600Y-85000000D01*
X145386600Y-79493169D01*
X145404905Y-79448976D01*
X146035076Y-78818806D01*
X146079270Y-78800500D01*
X146719000Y-78800500D01*
X146763194Y-78818806D01*
X146781500Y-78863000D01*
X146781500Y-79124674D01*
X146794058Y-79187807D01*
X146794058Y-79212193D01*
X146781500Y-79275325D01*
X146781500Y-79624674D01*
X146796034Y-79697741D01*
X146797418Y-79701082D01*
X146797419Y-79748917D01*
X146797418Y-79748918D01*
X146796034Y-79752258D01*
X146781500Y-79825325D01*
X146781500Y-80098120D01*
X146763194Y-80142314D01*
X146719000Y-80160620D01*
X146680953Y-80147705D01*
X146602233Y-80087302D01*
X146602230Y-80087300D01*
X146462239Y-80029314D01*
X146462237Y-80029313D01*
X146462236Y-80029313D01*
X146462234Y-80029312D01*
X146462228Y-80029311D01*
X146349726Y-80014500D01*
X146349720Y-80014500D01*
X146274280Y-80014500D01*
X146274273Y-80014500D01*
X146161771Y-80029311D01*
X146161760Y-80029314D01*
X146021770Y-80087300D01*
X146021767Y-80087301D01*
X146021767Y-80087302D01*
X145943049Y-80147705D01*
X145901549Y-80179549D01*
X145809300Y-80299770D01*
X145751314Y-80439760D01*
X145751311Y-80439770D01*
X145731534Y-80589998D01*
X145731534Y-80590001D01*
X145751311Y-80740229D01*
X145751314Y-80740239D01*
X145798047Y-80853063D01*
X145809302Y-80880233D01*
X145901549Y-81000451D01*
X146021767Y-81092698D01*
X146161764Y-81150687D01*
X146161772Y-81150688D01*
X146183858Y-81153596D01*
X146225286Y-81177512D01*
X146237667Y-81223717D01*
X146213751Y-81265145D01*
X146182958Y-81277638D01*
X146117866Y-81285246D01*
X146117858Y-81285248D01*
X145953110Y-81345212D01*
X145953109Y-81345212D01*
X145806628Y-81441553D01*
X145686313Y-81569080D01*
X145686311Y-81569083D01*
X145598649Y-81720920D01*
X145548366Y-81888874D01*
X145548009Y-81894999D01*
X145548010Y-81895000D01*
X145932895Y-81895000D01*
X145977089Y-81913306D01*
X145995395Y-81957500D01*
X145993009Y-81974604D01*
X145988105Y-81991840D01*
X145988104Y-81991841D01*
X145995971Y-82076733D01*
X145981821Y-82122428D01*
X145939505Y-82144733D01*
X145933738Y-82145000D01*
X145552472Y-82145000D01*
X145568616Y-82236566D01*
X145638058Y-82397552D01*
X145742756Y-82538185D01*
X145742757Y-82538186D01*
X145877059Y-82650880D01*
X146033735Y-82729566D01*
X146033744Y-82729569D01*
X146204330Y-82769998D01*
X146204341Y-82770000D01*
X146717000Y-82770000D01*
X146717000Y-82382500D01*
X146735306Y-82338306D01*
X146779500Y-82320000D01*
X146904500Y-82320000D01*
X146948694Y-82338306D01*
X146967000Y-82382500D01*
X146967000Y-82770000D01*
X147435684Y-82770000D01*
X147435699Y-82769999D01*
X147566133Y-82754753D01*
X147566141Y-82754751D01*
X147730889Y-82694787D01*
X147730890Y-82694787D01*
X147877371Y-82598446D01*
X147997686Y-82470919D01*
X147997688Y-82470916D01*
X148085350Y-82319079D01*
X148135633Y-82151125D01*
X148135990Y-82145000D01*
X147751105Y-82145000D01*
X147706911Y-82126694D01*
X147688605Y-82082500D01*
X147690991Y-82065396D01*
X147691560Y-82063392D01*
X147695895Y-82048160D01*
X147695895Y-82048158D01*
X147688029Y-81963267D01*
X147698330Y-81930003D01*
X152847093Y-81930003D01*
X152866694Y-82191554D01*
X152866694Y-82191556D01*
X152925057Y-82447261D01*
X152925058Y-82447264D01*
X153020886Y-82691433D01*
X153152027Y-82918574D01*
X153152034Y-82918583D01*
X153278303Y-83076918D01*
X153278304Y-83076919D01*
X153657371Y-82697851D01*
X153701565Y-82679545D01*
X153745759Y-82697851D01*
X153747753Y-82699939D01*
X153823925Y-82783495D01*
X153823926Y-82783496D01*
X153823931Y-82783501D01*
X153824346Y-82783814D01*
X153824428Y-82783954D01*
X153826064Y-82785445D01*
X153825602Y-82785951D01*
X153848589Y-82825049D01*
X153836574Y-82871351D01*
X153830884Y-82877890D01*
X153455392Y-83253382D01*
X153455392Y-83253383D01*
X153507834Y-83302043D01*
X153724546Y-83449793D01*
X153960864Y-83563598D01*
X153960868Y-83563599D01*
X154211488Y-83640906D01*
X154211487Y-83640906D01*
X154470856Y-83679999D01*
X154470862Y-83680000D01*
X154733138Y-83680000D01*
X154733143Y-83679999D01*
X154992512Y-83640906D01*
X155243131Y-83563599D01*
X155243135Y-83563598D01*
X155479454Y-83449793D01*
X155696166Y-83302042D01*
X155748606Y-83253382D01*
X155373115Y-82877891D01*
X155354809Y-82833697D01*
X155373115Y-82789503D01*
X155379645Y-82783821D01*
X155380069Y-82783501D01*
X155456247Y-82699937D01*
X155499546Y-82679612D01*
X155544539Y-82695857D01*
X155546627Y-82697851D01*
X155925694Y-83076919D01*
X155925695Y-83076918D01*
X156051967Y-82918579D01*
X156051975Y-82918567D01*
X156183113Y-82691433D01*
X156278941Y-82447264D01*
X156278942Y-82447261D01*
X156337305Y-82191556D01*
X156337305Y-82191554D01*
X156356907Y-81930003D01*
X156356907Y-81929996D01*
X156337305Y-81668445D01*
X156337305Y-81668443D01*
X156278942Y-81412738D01*
X156278941Y-81412735D01*
X156183113Y-81168566D01*
X156051975Y-80941432D01*
X156051967Y-80941419D01*
X155925695Y-80783080D01*
X155925694Y-80783079D01*
X155546627Y-81162147D01*
X155502433Y-81180453D01*
X155458239Y-81162147D01*
X155456245Y-81160059D01*
X155394836Y-81092698D01*
X155380069Y-81076499D01*
X155380068Y-81076498D01*
X155380066Y-81076496D01*
X155380062Y-81076492D01*
X155379637Y-81076171D01*
X155379552Y-81076027D01*
X155377932Y-81074550D01*
X155378389Y-81074047D01*
X155355407Y-81034926D01*
X155367439Y-80988629D01*
X155373115Y-80982107D01*
X155748606Y-80606615D01*
X155696165Y-80557956D01*
X155479454Y-80410206D01*
X155243135Y-80296401D01*
X155243131Y-80296400D01*
X154992511Y-80219093D01*
X154992512Y-80219093D01*
X154733143Y-80180000D01*
X154470856Y-80180000D01*
X154211487Y-80219093D01*
X153960868Y-80296400D01*
X153960864Y-80296401D01*
X153724546Y-80410206D01*
X153507841Y-80557951D01*
X153507834Y-80557956D01*
X153455392Y-80606615D01*
X153455392Y-80606616D01*
X153830884Y-80982108D01*
X153849190Y-81026302D01*
X153830884Y-81070496D01*
X153824359Y-81076175D01*
X153823931Y-81076497D01*
X153747752Y-81160060D01*
X153704450Y-81180386D01*
X153659458Y-81164140D01*
X153657371Y-81162147D01*
X153278304Y-80783079D01*
X153278303Y-80783080D01*
X153152034Y-80941416D01*
X153152027Y-80941425D01*
X153020886Y-81168566D01*
X152925058Y-81412735D01*
X152925057Y-81412738D01*
X152866694Y-81668443D01*
X152866694Y-81668445D01*
X152847093Y-81929996D01*
X152847093Y-81930003D01*
X147698330Y-81930003D01*
X147702179Y-81917572D01*
X147744495Y-81895267D01*
X147750262Y-81895000D01*
X148131528Y-81895000D01*
X148115383Y-81803433D01*
X148045941Y-81642447D01*
X148014208Y-81599822D01*
X148002501Y-81553442D01*
X148027019Y-81512367D01*
X148064341Y-81500000D01*
X148506624Y-81500000D01*
X148506624Y-81499999D01*
X148579544Y-81485495D01*
X148579546Y-81485494D01*
X148662239Y-81430239D01*
X148717494Y-81347546D01*
X148717495Y-81347544D01*
X148731999Y-81274624D01*
X148732000Y-81274624D01*
X148732000Y-81075000D01*
X146791986Y-81075000D01*
X146777800Y-81069124D01*
X146782000Y-81081495D01*
X146782000Y-81207500D01*
X146763694Y-81251694D01*
X146719500Y-81270000D01*
X146488397Y-81270000D01*
X146444203Y-81251694D01*
X146425897Y-81207500D01*
X146444203Y-81163306D01*
X146464479Y-81149758D01*
X146518644Y-81127322D01*
X146602233Y-81092698D01*
X146681451Y-81031911D01*
X146727658Y-81019530D01*
X146733887Y-81023126D01*
X146729486Y-81012500D01*
X146742401Y-80974453D01*
X146777204Y-80929095D01*
X146814698Y-80880233D01*
X146821595Y-80863581D01*
X146855418Y-80829758D01*
X146879337Y-80825000D01*
X147632000Y-80825000D01*
X147632000Y-80763000D01*
X147650306Y-80718806D01*
X147694500Y-80700500D01*
X147819500Y-80700500D01*
X147863694Y-80718806D01*
X147882000Y-80763000D01*
X147882000Y-80825000D01*
X148732000Y-80825000D01*
X148732000Y-80763000D01*
X148750306Y-80718806D01*
X148794500Y-80700500D01*
X150660487Y-80700500D01*
X150704681Y-80718806D01*
X150933889Y-80948014D01*
X150950378Y-80977246D01*
X150950962Y-80979614D01*
X150950962Y-80979615D01*
X150950963Y-80979618D01*
X151006980Y-81127323D01*
X151096717Y-81257330D01*
X151214960Y-81362083D01*
X151354835Y-81435496D01*
X151508215Y-81473300D01*
X151508216Y-81473300D01*
X151666184Y-81473300D01*
X151666185Y-81473300D01*
X151819565Y-81435496D01*
X151959440Y-81362083D01*
X152077683Y-81257330D01*
X152167420Y-81127323D01*
X152223437Y-80979618D01*
X152227269Y-80948061D01*
X152242478Y-80822803D01*
X152242478Y-80822796D01*
X152223438Y-80665987D01*
X152223437Y-80665985D01*
X152223437Y-80665982D01*
X152167420Y-80518277D01*
X152077683Y-80388270D01*
X151959440Y-80283517D01*
X151819565Y-80210104D01*
X151748180Y-80192509D01*
X151718944Y-80176019D01*
X151475119Y-79932194D01*
X151456813Y-79888000D01*
X151475119Y-79843806D01*
X151519313Y-79825500D01*
X156408192Y-79825500D01*
X156445646Y-79837965D01*
X156488722Y-79870212D01*
X156488723Y-79870212D01*
X156488724Y-79870213D01*
X156554461Y-79894731D01*
X156620201Y-79919251D01*
X156678326Y-79925500D01*
X156678332Y-79925500D01*
X157271668Y-79925500D01*
X157271674Y-79925500D01*
X157329799Y-79919251D01*
X157461278Y-79870212D01*
X157461278Y-79870211D01*
X157461280Y-79870211D01*
X157461283Y-79870209D01*
X157573613Y-79786118D01*
X157573612Y-79786118D01*
X157573616Y-79786116D01*
X157601463Y-79748917D01*
X157657709Y-79673783D01*
X157657711Y-79673780D01*
X157657802Y-79673537D01*
X157706751Y-79542299D01*
X157713000Y-79484174D01*
X157713000Y-79325000D01*
X158062500Y-79325000D01*
X158062500Y-79484137D01*
X158068742Y-79542192D01*
X158117730Y-79673532D01*
X158117733Y-79673537D01*
X158201741Y-79785758D01*
X158313962Y-79869766D01*
X158313967Y-79869769D01*
X158445307Y-79918757D01*
X158503362Y-79924999D01*
X158503376Y-79925000D01*
X158675000Y-79925000D01*
X158675000Y-79325000D01*
X158925000Y-79325000D01*
X158925000Y-79925000D01*
X159096624Y-79925000D01*
X159096637Y-79924999D01*
X159154692Y-79918757D01*
X159286032Y-79869769D01*
X159286037Y-79869766D01*
X159398258Y-79785758D01*
X159482266Y-79673537D01*
X159482269Y-79673532D01*
X159531257Y-79542192D01*
X159537499Y-79484137D01*
X159537500Y-79484124D01*
X159537500Y-79325000D01*
X158925000Y-79325000D01*
X158675000Y-79325000D01*
X158062500Y-79325000D01*
X157713000Y-79325000D01*
X157713000Y-79075000D01*
X158062500Y-79075000D01*
X158675000Y-79075000D01*
X158675000Y-78475000D01*
X158925000Y-78475000D01*
X158925000Y-79075000D01*
X159537500Y-79075000D01*
X159537500Y-78915875D01*
X159537499Y-78915862D01*
X159531257Y-78857807D01*
X159482269Y-78726467D01*
X159482266Y-78726462D01*
X159398258Y-78614241D01*
X159286037Y-78530233D01*
X159286032Y-78530230D01*
X159154692Y-78481242D01*
X159096637Y-78475000D01*
X158925000Y-78475000D01*
X158675000Y-78475000D01*
X158503362Y-78475000D01*
X158445307Y-78481242D01*
X158313967Y-78530230D01*
X158313962Y-78530233D01*
X158201741Y-78614241D01*
X158117733Y-78726462D01*
X158117730Y-78726467D01*
X158068742Y-78857807D01*
X158062500Y-78915862D01*
X158062500Y-79075000D01*
X157713000Y-79075000D01*
X157713000Y-78915826D01*
X157706751Y-78857701D01*
X157657712Y-78726222D01*
X157657711Y-78726219D01*
X157657709Y-78726216D01*
X157573618Y-78613886D01*
X157573613Y-78613881D01*
X157461283Y-78529790D01*
X157461280Y-78529788D01*
X157329800Y-78480749D01*
X157271681Y-78474500D01*
X157271674Y-78474500D01*
X156678326Y-78474500D01*
X156678318Y-78474500D01*
X156620199Y-78480749D01*
X156488719Y-78529788D01*
X156488716Y-78529790D01*
X156376386Y-78613881D01*
X156376381Y-78613886D01*
X156292290Y-78726216D01*
X156292288Y-78726219D01*
X156243249Y-78857699D01*
X156237000Y-78915818D01*
X156237000Y-79012000D01*
X156218694Y-79056194D01*
X156174500Y-79074500D01*
X148795000Y-79074500D01*
X148750806Y-79056194D01*
X148732500Y-79012000D01*
X148732500Y-78863000D01*
X148750806Y-78818806D01*
X148795000Y-78800500D01*
X149116566Y-78800500D01*
X149129390Y-78801829D01*
X149144715Y-78805043D01*
X149144716Y-78805043D01*
X149157419Y-78803459D01*
X149179235Y-78800739D01*
X149183101Y-78800500D01*
X149188434Y-78800500D01*
X149188440Y-78800500D01*
X149209940Y-78796912D01*
X149260793Y-78790573D01*
X149260795Y-78790571D01*
X149265762Y-78789094D01*
X149265801Y-78789226D01*
X149269925Y-78787905D01*
X149269881Y-78787774D01*
X149274777Y-78786092D01*
X149274781Y-78786092D01*
X149319844Y-78761704D01*
X149365884Y-78739198D01*
X149365890Y-78739191D01*
X149370099Y-78736188D01*
X149370178Y-78736299D01*
X149373657Y-78733705D01*
X149373573Y-78733597D01*
X149377654Y-78730419D01*
X149377658Y-78730418D01*
X149412357Y-78692724D01*
X149569558Y-78535522D01*
X149579559Y-78527400D01*
X149592669Y-78518837D01*
X149614037Y-78491381D01*
X149616600Y-78488481D01*
X149620376Y-78484706D01*
X149633047Y-78466958D01*
X149664517Y-78426526D01*
X149664518Y-78426520D01*
X149666983Y-78421969D01*
X149667103Y-78422034D01*
X149669088Y-78418179D01*
X149668965Y-78418119D01*
X149671240Y-78413465D01*
X149685863Y-78364347D01*
X149685862Y-78364347D01*
X149702500Y-78315888D01*
X149702500Y-78315885D01*
X149703353Y-78310779D01*
X149703486Y-78310801D01*
X149704112Y-78306503D01*
X149703978Y-78306487D01*
X149704618Y-78301355D01*
X149702500Y-78250144D01*
X149702500Y-77716029D01*
X149703831Y-77703202D01*
X149707041Y-77687890D01*
X149707042Y-77687883D01*
X149702740Y-77653372D01*
X149702500Y-77649503D01*
X149702500Y-77644165D01*
X149702500Y-77644160D01*
X149698910Y-77622649D01*
X149692573Y-77571807D01*
X149692571Y-77571803D01*
X149691094Y-77566839D01*
X149691225Y-77566799D01*
X149689904Y-77562675D01*
X149689774Y-77562720D01*
X149688092Y-77557824D01*
X149688092Y-77557819D01*
X149663704Y-77512755D01*
X149641198Y-77466716D01*
X149641197Y-77466715D01*
X149638189Y-77462502D01*
X149638299Y-77462422D01*
X149635706Y-77458945D01*
X149635599Y-77459029D01*
X149632417Y-77454941D01*
X149594724Y-77420242D01*
X149406927Y-77232445D01*
X149398797Y-77222433D01*
X149390239Y-77209333D01*
X149390238Y-77209332D01*
X149390237Y-77209331D01*
X149362782Y-77187962D01*
X149359892Y-77185410D01*
X149356107Y-77181625D01*
X149338361Y-77168955D01*
X149297926Y-77137483D01*
X149297925Y-77137482D01*
X149293373Y-77135019D01*
X149293437Y-77134900D01*
X149289577Y-77132913D01*
X149289518Y-77133034D01*
X149284864Y-77130758D01*
X149235754Y-77116138D01*
X149187288Y-77099500D01*
X149187287Y-77099500D01*
X149187284Y-77099499D01*
X149182178Y-77098647D01*
X149182200Y-77098513D01*
X149177904Y-77097887D01*
X149177888Y-77098023D01*
X149172756Y-77097382D01*
X149121569Y-77099500D01*
X148795000Y-77099500D01*
X148750806Y-77081194D01*
X148732500Y-77037000D01*
X148732500Y-76888000D01*
X148750806Y-76843806D01*
X148795000Y-76825500D01*
X156174500Y-76825500D01*
X156218694Y-76843806D01*
X156237000Y-76888000D01*
X156237000Y-76984181D01*
X156243249Y-77042300D01*
X156292288Y-77173780D01*
X156292290Y-77173783D01*
X156376381Y-77286113D01*
X156376386Y-77286118D01*
X156488716Y-77370209D01*
X156488719Y-77370211D01*
X156488722Y-77370212D01*
X156620201Y-77419251D01*
X156678326Y-77425500D01*
X156678332Y-77425500D01*
X157271668Y-77425500D01*
X157271674Y-77425500D01*
X157329799Y-77419251D01*
X157461278Y-77370212D01*
X157461278Y-77370211D01*
X157461280Y-77370211D01*
X157461283Y-77370209D01*
X157545689Y-77307021D01*
X157573616Y-77286116D01*
X157611501Y-77235508D01*
X157657709Y-77173783D01*
X157657711Y-77173780D01*
X157657802Y-77173537D01*
X157706751Y-77042299D01*
X157713000Y-76984174D01*
X157713000Y-76825000D01*
X158062500Y-76825000D01*
X158062500Y-76984137D01*
X158068742Y-77042192D01*
X158117730Y-77173532D01*
X158117733Y-77173537D01*
X158201741Y-77285758D01*
X158313962Y-77369766D01*
X158313967Y-77369769D01*
X158445307Y-77418757D01*
X158503362Y-77424999D01*
X158503376Y-77425000D01*
X158675000Y-77425000D01*
X158675000Y-76825000D01*
X158925000Y-76825000D01*
X158925000Y-77425000D01*
X159096624Y-77425000D01*
X159096637Y-77424999D01*
X159154692Y-77418757D01*
X159286032Y-77369769D01*
X159286037Y-77369766D01*
X159398258Y-77285758D01*
X159482266Y-77173537D01*
X159482269Y-77173532D01*
X159531257Y-77042192D01*
X159537499Y-76984137D01*
X159537500Y-76984124D01*
X159537500Y-76825000D01*
X158925000Y-76825000D01*
X158675000Y-76825000D01*
X158062500Y-76825000D01*
X157713000Y-76825000D01*
X157713000Y-76575000D01*
X158062500Y-76575000D01*
X158675000Y-76575000D01*
X158675000Y-75975000D01*
X158925000Y-75975000D01*
X158925000Y-76575000D01*
X159537500Y-76575000D01*
X159537500Y-76415875D01*
X159537499Y-76415862D01*
X159531257Y-76357807D01*
X159482269Y-76226467D01*
X159482266Y-76226462D01*
X159398258Y-76114241D01*
X159286037Y-76030233D01*
X159286032Y-76030230D01*
X159154692Y-75981242D01*
X159096637Y-75975000D01*
X158925000Y-75975000D01*
X158675000Y-75975000D01*
X158503362Y-75975000D01*
X158445307Y-75981242D01*
X158313967Y-76030230D01*
X158313962Y-76030233D01*
X158201741Y-76114241D01*
X158117733Y-76226462D01*
X158117730Y-76226467D01*
X158068742Y-76357807D01*
X158062500Y-76415862D01*
X158062500Y-76575000D01*
X157713000Y-76575000D01*
X157713000Y-76415826D01*
X157706751Y-76357701D01*
X157657712Y-76226222D01*
X157657711Y-76226219D01*
X157657709Y-76226216D01*
X157573618Y-76113886D01*
X157573613Y-76113881D01*
X157461283Y-76029790D01*
X157461280Y-76029788D01*
X157329800Y-75980749D01*
X157271681Y-75974500D01*
X157271674Y-75974500D01*
X156678326Y-75974500D01*
X156678318Y-75974500D01*
X156620199Y-75980749D01*
X156488724Y-76029786D01*
X156488720Y-76029789D01*
X156445647Y-76062034D01*
X156408192Y-76074500D01*
X148795000Y-76074500D01*
X148750806Y-76056194D01*
X148732500Y-76012000D01*
X148732500Y-75863000D01*
X148750806Y-75818806D01*
X148795000Y-75800500D01*
X150470403Y-75800500D01*
X150536626Y-75802762D01*
X150581157Y-75791909D01*
X150584300Y-75791311D01*
X150629720Y-75785070D01*
X150651011Y-75775820D01*
X150661101Y-75772427D01*
X150683652Y-75766933D01*
X150723608Y-75744466D01*
X150726467Y-75743045D01*
X150768520Y-75724780D01*
X150786515Y-75710138D01*
X150795321Y-75704144D01*
X150815559Y-75692766D01*
X150847976Y-75660347D01*
X150850354Y-75658202D01*
X150885908Y-75629278D01*
X150899294Y-75610313D01*
X150906149Y-75602174D01*
X152248618Y-74259706D01*
X152297044Y-74214480D01*
X152320869Y-74175299D01*
X152322649Y-74172684D01*
X152350361Y-74136142D01*
X152351204Y-74134003D01*
X152821093Y-74134003D01*
X152840694Y-74395554D01*
X152840694Y-74395556D01*
X152899057Y-74651261D01*
X152899058Y-74651264D01*
X152994886Y-74895433D01*
X153126027Y-75122574D01*
X153126034Y-75122583D01*
X153252303Y-75280918D01*
X153252304Y-75280919D01*
X153631371Y-74901851D01*
X153675565Y-74883545D01*
X153719759Y-74901851D01*
X153721753Y-74903939D01*
X153797925Y-74987495D01*
X153797926Y-74987496D01*
X153797931Y-74987501D01*
X153798346Y-74987814D01*
X153798428Y-74987954D01*
X153800064Y-74989445D01*
X153799602Y-74989951D01*
X153822589Y-75029049D01*
X153810574Y-75075351D01*
X153804884Y-75081890D01*
X153429392Y-75457382D01*
X153429392Y-75457383D01*
X153481834Y-75506043D01*
X153698546Y-75653793D01*
X153934864Y-75767598D01*
X153934868Y-75767599D01*
X154185488Y-75844906D01*
X154185487Y-75844906D01*
X154444856Y-75883999D01*
X154444862Y-75884000D01*
X154707138Y-75884000D01*
X154707143Y-75883999D01*
X154966512Y-75844906D01*
X155217131Y-75767599D01*
X155217135Y-75767598D01*
X155453454Y-75653793D01*
X155670166Y-75506042D01*
X155722606Y-75457382D01*
X155347115Y-75081891D01*
X155328809Y-75037697D01*
X155347115Y-74993503D01*
X155353645Y-74987821D01*
X155354069Y-74987501D01*
X155430247Y-74903937D01*
X155473546Y-74883612D01*
X155518539Y-74899857D01*
X155520627Y-74901851D01*
X155899694Y-75280919D01*
X155899695Y-75280918D01*
X156025967Y-75122579D01*
X156025975Y-75122567D01*
X156157113Y-74895433D01*
X156252941Y-74651264D01*
X156252942Y-74651261D01*
X156311305Y-74395556D01*
X156311305Y-74395554D01*
X156330907Y-74134003D01*
X156330907Y-74133996D01*
X156311305Y-73872445D01*
X156311305Y-73872443D01*
X156252942Y-73616738D01*
X156252941Y-73616735D01*
X156157113Y-73372566D01*
X156025975Y-73145432D01*
X156025967Y-73145419D01*
X155899695Y-72987080D01*
X155899694Y-72987079D01*
X155520627Y-73366147D01*
X155476433Y-73384453D01*
X155432239Y-73366147D01*
X155430245Y-73364059D01*
X155354066Y-73280496D01*
X155354062Y-73280492D01*
X155353637Y-73280171D01*
X155353552Y-73280027D01*
X155351932Y-73278550D01*
X155352389Y-73278047D01*
X155329407Y-73238926D01*
X155341439Y-73192629D01*
X155347115Y-73186107D01*
X155722606Y-72810615D01*
X155670165Y-72761956D01*
X155453454Y-72614206D01*
X155217135Y-72500401D01*
X155217131Y-72500400D01*
X154966511Y-72423093D01*
X154966512Y-72423093D01*
X154707143Y-72384000D01*
X154444856Y-72384000D01*
X154185487Y-72423093D01*
X153934868Y-72500400D01*
X153934864Y-72500401D01*
X153698546Y-72614206D01*
X153481841Y-72761951D01*
X153481834Y-72761956D01*
X153429392Y-72810615D01*
X153429392Y-72810616D01*
X153804884Y-73186108D01*
X153823190Y-73230302D01*
X153804884Y-73274496D01*
X153798359Y-73280175D01*
X153797931Y-73280497D01*
X153721752Y-73364060D01*
X153678450Y-73384386D01*
X153633458Y-73368140D01*
X153631371Y-73366147D01*
X153252304Y-72987079D01*
X153252303Y-72987080D01*
X153126034Y-73145416D01*
X153126027Y-73145425D01*
X152994886Y-73372566D01*
X152899058Y-73616735D01*
X152899057Y-73616738D01*
X152840694Y-73872443D01*
X152840694Y-73872445D01*
X152821093Y-74133996D01*
X152821093Y-74134003D01*
X152351204Y-74134003D01*
X152358875Y-74114550D01*
X152363611Y-74105013D01*
X152375672Y-74085182D01*
X152388048Y-74041010D01*
X152389053Y-74038022D01*
X152405876Y-73995364D01*
X152408250Y-73972264D01*
X152410237Y-73961816D01*
X152416500Y-73939465D01*
X152416500Y-73893624D01*
X152416664Y-73890425D01*
X152421352Y-73844832D01*
X152421351Y-73844824D01*
X152420088Y-73837500D01*
X152417409Y-73821958D01*
X152416500Y-73811338D01*
X152416500Y-72177000D01*
X152434806Y-72132806D01*
X152479000Y-72114500D01*
X152640674Y-72114500D01*
X152713740Y-72099966D01*
X152796601Y-72044601D01*
X152851966Y-71961740D01*
X152866500Y-71888674D01*
X152866500Y-70239326D01*
X152851966Y-70166260D01*
X152796601Y-70083399D01*
X152755170Y-70055716D01*
X152713741Y-70028034D01*
X152713739Y-70028033D01*
X152640674Y-70013500D01*
X151091326Y-70013500D01*
X151018260Y-70028033D01*
X151018258Y-70028034D01*
X150935399Y-70083399D01*
X150880034Y-70166258D01*
X150880033Y-70166260D01*
X150865500Y-70239325D01*
X150865500Y-71888674D01*
X150880033Y-71961739D01*
X150880034Y-71961741D01*
X150907716Y-72003170D01*
X150935399Y-72044601D01*
X150997403Y-72086030D01*
X151018258Y-72099965D01*
X151018260Y-72099966D01*
X151091326Y-72114500D01*
X151253000Y-72114500D01*
X151297194Y-72132806D01*
X151315500Y-72177000D01*
X151315500Y-73609886D01*
X151297194Y-73654080D01*
X150270081Y-74681194D01*
X150225887Y-74699500D01*
X148794500Y-74699500D01*
X148750306Y-74681194D01*
X148732000Y-74637000D01*
X148732000Y-74575000D01*
X146879337Y-74575000D01*
X146835143Y-74556694D01*
X146821595Y-74536419D01*
X146814698Y-74519767D01*
X146800207Y-74500883D01*
X146742401Y-74425547D01*
X146730021Y-74379342D01*
X146732066Y-74375798D01*
X146719500Y-74381004D01*
X146681453Y-74368089D01*
X146602233Y-74307302D01*
X146602230Y-74307300D01*
X146464479Y-74250242D01*
X146430655Y-74216418D01*
X146430655Y-74168582D01*
X146464479Y-74134758D01*
X146488397Y-74130000D01*
X146719500Y-74130000D01*
X146763694Y-74148306D01*
X146782000Y-74192500D01*
X146782000Y-74318504D01*
X146777235Y-74330007D01*
X146791986Y-74325000D01*
X147632000Y-74325000D01*
X147632000Y-73922500D01*
X147650306Y-73878306D01*
X147694500Y-73860000D01*
X147819500Y-73860000D01*
X147863694Y-73878306D01*
X147882000Y-73922500D01*
X147881999Y-74324999D01*
X147882000Y-74325000D01*
X148732000Y-74325000D01*
X148732000Y-74125376D01*
X148731999Y-74125375D01*
X148717495Y-74052455D01*
X148717494Y-74052453D01*
X148662239Y-73969760D01*
X148579546Y-73914505D01*
X148579544Y-73914504D01*
X148506624Y-73900000D01*
X148066057Y-73900000D01*
X148021863Y-73881694D01*
X148003557Y-73837500D01*
X148011930Y-73806250D01*
X148085350Y-73679079D01*
X148135633Y-73511125D01*
X148135990Y-73505000D01*
X147751105Y-73505000D01*
X147706911Y-73486694D01*
X147688605Y-73442500D01*
X147690991Y-73425396D01*
X147691560Y-73423392D01*
X147695895Y-73408160D01*
X147692002Y-73366147D01*
X147688029Y-73323267D01*
X147702179Y-73277572D01*
X147744495Y-73255267D01*
X147750262Y-73255000D01*
X148131528Y-73255000D01*
X148115383Y-73163433D01*
X148045941Y-73002447D01*
X147941243Y-72861814D01*
X147941242Y-72861813D01*
X147806940Y-72749119D01*
X147650264Y-72670433D01*
X147650255Y-72670430D01*
X147479669Y-72630001D01*
X147479659Y-72630000D01*
X146967000Y-72630000D01*
X146967000Y-73017500D01*
X146948694Y-73061694D01*
X146904500Y-73080000D01*
X146779500Y-73080000D01*
X146735306Y-73061694D01*
X146717000Y-73017500D01*
X146717000Y-72630000D01*
X146248300Y-72630000D01*
X146117866Y-72645246D01*
X146117858Y-72645248D01*
X145953110Y-72705212D01*
X145953109Y-72705212D01*
X145806628Y-72801553D01*
X145686313Y-72929080D01*
X145686311Y-72929083D01*
X145598649Y-73080920D01*
X145548366Y-73248874D01*
X145548009Y-73254999D01*
X145548010Y-73255000D01*
X145932895Y-73255000D01*
X145977089Y-73273306D01*
X145995395Y-73317500D01*
X145993009Y-73334604D01*
X145988105Y-73351840D01*
X145988104Y-73351841D01*
X145995971Y-73436733D01*
X145981821Y-73482428D01*
X145939505Y-73504733D01*
X145933738Y-73505000D01*
X145552472Y-73505000D01*
X145568616Y-73596566D01*
X145638058Y-73757552D01*
X145742756Y-73898185D01*
X145742757Y-73898186D01*
X145877059Y-74010880D01*
X146033735Y-74089566D01*
X146033744Y-74089569D01*
X146181960Y-74124697D01*
X146220742Y-74152701D01*
X146228362Y-74199925D01*
X146200358Y-74238707D01*
X146175705Y-74247477D01*
X146161770Y-74249311D01*
X146161760Y-74249314D01*
X146021770Y-74307300D01*
X146021767Y-74307301D01*
X146021767Y-74307302D01*
X145942548Y-74368089D01*
X145901549Y-74399549D01*
X145809300Y-74519770D01*
X145751314Y-74659760D01*
X145751311Y-74659770D01*
X145731534Y-74809998D01*
X145731534Y-74810001D01*
X145751311Y-74960229D01*
X145751314Y-74960239D01*
X145783398Y-75037697D01*
X145809302Y-75100233D01*
X145901549Y-75220451D01*
X146021767Y-75312698D01*
X146161764Y-75370687D01*
X146161770Y-75370687D01*
X146161771Y-75370688D01*
X146218022Y-75378093D01*
X146274280Y-75385500D01*
X146274286Y-75385500D01*
X146349714Y-75385500D01*
X146349720Y-75385500D01*
X146462236Y-75370687D01*
X146602233Y-75312698D01*
X146680952Y-75252293D01*
X146727158Y-75239914D01*
X146768585Y-75263831D01*
X146781500Y-75301879D01*
X146781500Y-75574674D01*
X146796033Y-75647739D01*
X146797420Y-75651087D01*
X146797421Y-75698910D01*
X146796034Y-75702257D01*
X146781500Y-75775326D01*
X146781500Y-76124677D01*
X146794057Y-76187808D01*
X146794057Y-76212192D01*
X146781500Y-76275322D01*
X146781500Y-76537000D01*
X146763194Y-76581194D01*
X146719000Y-76599500D01*
X146689034Y-76599500D01*
X146676209Y-76598170D01*
X146672737Y-76597442D01*
X146660884Y-76594956D01*
X146660883Y-76594956D01*
X146631416Y-76598630D01*
X146626364Y-76599260D01*
X146622499Y-76599500D01*
X146617160Y-76599500D01*
X146595659Y-76603087D01*
X146578708Y-76605200D01*
X146544805Y-76609427D01*
X146539846Y-76610904D01*
X146539808Y-76610776D01*
X146535669Y-76612102D01*
X146535713Y-76612228D01*
X146530820Y-76613907D01*
X146485750Y-76638297D01*
X146439717Y-76660801D01*
X146435502Y-76663811D01*
X146435423Y-76663701D01*
X146431943Y-76666296D01*
X146432026Y-76666403D01*
X146427941Y-76669582D01*
X146410587Y-76688433D01*
X146393233Y-76707285D01*
X146317136Y-76783380D01*
X146238845Y-76861671D01*
X146228838Y-76869798D01*
X146215733Y-76878360D01*
X146215731Y-76878362D01*
X146194364Y-76905812D01*
X146191805Y-76908711D01*
X146188026Y-76912491D01*
X146188022Y-76912496D01*
X146175354Y-76930238D01*
X146143882Y-76970674D01*
X146141420Y-76975225D01*
X146141302Y-76975161D01*
X146139315Y-76979021D01*
X146139435Y-76979080D01*
X146137159Y-76983735D01*
X146122538Y-77032845D01*
X146105899Y-77081315D01*
X146105047Y-77086422D01*
X146104913Y-77086399D01*
X146104288Y-77090695D01*
X146104423Y-77090712D01*
X146103782Y-77095843D01*
X146105900Y-77147031D01*
X146105900Y-77198067D01*
X146087594Y-77242261D01*
X146073148Y-77253033D01*
X146066558Y-77256599D01*
X146060469Y-77259895D01*
X146045122Y-77267397D01*
X146014428Y-77282402D01*
X146010216Y-77285410D01*
X146010138Y-77285300D01*
X146006657Y-77287896D01*
X146006740Y-77288003D01*
X146002655Y-77291182D01*
X145985306Y-77310028D01*
X145967956Y-77328875D01*
X145496332Y-77800500D01*
X144418548Y-78878284D01*
X144408541Y-78886411D01*
X144395433Y-78894975D01*
X144395431Y-78894977D01*
X144374061Y-78922431D01*
X144371502Y-78925330D01*
X144367724Y-78929109D01*
X144367722Y-78929112D01*
X144355061Y-78946845D01*
X144323582Y-78987290D01*
X144321120Y-78991840D01*
X144321002Y-78991776D01*
X144319015Y-78995636D01*
X144319135Y-78995695D01*
X144316859Y-79000350D01*
X144313391Y-79012000D01*
X144302238Y-79049460D01*
X144293471Y-79075000D01*
X144285599Y-79097930D01*
X144284747Y-79103037D01*
X144284613Y-79103014D01*
X144283988Y-79107310D01*
X144284123Y-79107327D01*
X144283482Y-79112458D01*
X144285600Y-79163646D01*
X144285600Y-87866565D01*
X144284270Y-87879391D01*
X144281057Y-87894714D01*
X144281056Y-87894716D01*
X144285360Y-87929230D01*
X144285600Y-87933099D01*
X144285600Y-87938438D01*
X144289187Y-87959940D01*
X144295527Y-88010792D01*
X144297005Y-88015756D01*
X144296875Y-88015794D01*
X144298199Y-88019926D01*
X144298326Y-88019883D01*
X144300006Y-88024778D01*
X144306473Y-88036728D01*
X144324395Y-88069844D01*
X144346901Y-88115884D01*
X144346902Y-88115884D01*
X144349911Y-88120098D01*
X144349800Y-88120176D01*
X144352394Y-88123654D01*
X144352501Y-88123571D01*
X144355681Y-88127657D01*
X144393375Y-88162358D01*
X144766794Y-88535776D01*
X144785100Y-88579970D01*
X144785100Y-91802815D01*
X144766794Y-91847009D01*
X144722600Y-91865315D01*
X144693555Y-91858156D01*
X144568466Y-91792504D01*
X144415087Y-91754700D01*
X144415085Y-91754700D01*
X144257115Y-91754700D01*
X144257112Y-91754700D01*
X144103733Y-91792504D01*
X144078645Y-91805672D01*
X144031006Y-91810001D01*
X143994259Y-91779376D01*
X143987100Y-91750331D01*
X143987100Y-91180625D01*
X143988430Y-91167798D01*
X143991967Y-91150930D01*
X143991967Y-91150929D01*
X143987340Y-91113814D01*
X143987100Y-91109944D01*
X143987100Y-91104091D01*
X143987100Y-91104086D01*
X143983255Y-91081047D01*
X143976465Y-91026574D01*
X143976461Y-91026567D01*
X143974986Y-91021608D01*
X143975044Y-91021590D01*
X143973402Y-91016466D01*
X143973346Y-91016486D01*
X143971666Y-91011591D01*
X143959679Y-90989443D01*
X143945542Y-90963319D01*
X143921426Y-90913988D01*
X143921425Y-90913987D01*
X143918417Y-90909774D01*
X143918465Y-90909739D01*
X143915246Y-90905421D01*
X143915198Y-90905459D01*
X143912015Y-90901369D01*
X143871641Y-90864203D01*
X141440006Y-88432567D01*
X141421700Y-88388373D01*
X141421700Y-81894999D01*
X141618009Y-81894999D01*
X141618010Y-81895000D01*
X142002895Y-81895000D01*
X142047089Y-81913306D01*
X142065395Y-81957500D01*
X142063009Y-81974604D01*
X142058105Y-81991840D01*
X142058104Y-81991841D01*
X142065971Y-82076733D01*
X142051821Y-82122428D01*
X142009505Y-82144733D01*
X142003738Y-82145000D01*
X141622472Y-82145000D01*
X141638616Y-82236566D01*
X141708058Y-82397552D01*
X141812756Y-82538185D01*
X141812757Y-82538186D01*
X141947059Y-82650880D01*
X142103735Y-82729566D01*
X142103744Y-82729569D01*
X142274330Y-82769998D01*
X142274341Y-82770000D01*
X142537000Y-82770000D01*
X142537000Y-82382500D01*
X142555306Y-82338306D01*
X142599500Y-82320000D01*
X142724500Y-82320000D01*
X142768694Y-82338306D01*
X142787000Y-82382500D01*
X142787000Y-82770000D01*
X143005684Y-82770000D01*
X143005699Y-82769999D01*
X143136133Y-82754753D01*
X143136141Y-82754751D01*
X143300889Y-82694787D01*
X143300890Y-82694787D01*
X143447371Y-82598446D01*
X143567686Y-82470919D01*
X143567688Y-82470916D01*
X143655350Y-82319079D01*
X143705633Y-82151125D01*
X143705990Y-82145000D01*
X143321105Y-82145000D01*
X143276911Y-82126694D01*
X143258605Y-82082500D01*
X143260991Y-82065396D01*
X143261560Y-82063392D01*
X143265895Y-82048160D01*
X143265895Y-82048158D01*
X143258029Y-81963267D01*
X143272179Y-81917572D01*
X143314495Y-81895267D01*
X143320262Y-81895000D01*
X143701528Y-81895000D01*
X143685383Y-81803433D01*
X143615941Y-81642447D01*
X143511243Y-81501814D01*
X143511242Y-81501813D01*
X143376940Y-81389119D01*
X143220264Y-81310433D01*
X143220255Y-81310430D01*
X143049669Y-81270001D01*
X143049659Y-81270000D01*
X142787000Y-81270000D01*
X142787000Y-81657500D01*
X142768694Y-81701694D01*
X142724500Y-81720000D01*
X142599500Y-81720000D01*
X142555306Y-81701694D01*
X142537000Y-81657500D01*
X142537000Y-81270000D01*
X142318300Y-81270000D01*
X142187866Y-81285246D01*
X142187858Y-81285248D01*
X142023110Y-81345212D01*
X142023109Y-81345212D01*
X141876628Y-81441553D01*
X141756313Y-81569080D01*
X141756311Y-81569083D01*
X141668649Y-81720920D01*
X141618366Y-81888874D01*
X141618009Y-81894999D01*
X141421700Y-81894999D01*
X141421700Y-73254999D01*
X141618009Y-73254999D01*
X141618010Y-73255000D01*
X142002895Y-73255000D01*
X142047089Y-73273306D01*
X142065395Y-73317500D01*
X142063009Y-73334604D01*
X142058105Y-73351840D01*
X142058104Y-73351841D01*
X142065971Y-73436733D01*
X142051821Y-73482428D01*
X142009505Y-73504733D01*
X142003738Y-73505000D01*
X141622472Y-73505000D01*
X141638616Y-73596566D01*
X141708058Y-73757552D01*
X141812756Y-73898185D01*
X141812757Y-73898186D01*
X141947059Y-74010880D01*
X142103735Y-74089566D01*
X142103744Y-74089569D01*
X142274330Y-74129998D01*
X142274341Y-74130000D01*
X142537000Y-74130000D01*
X142537000Y-73742500D01*
X142555306Y-73698306D01*
X142599500Y-73680000D01*
X142724500Y-73680000D01*
X142768694Y-73698306D01*
X142787000Y-73742500D01*
X142787000Y-74130000D01*
X143005684Y-74130000D01*
X143005699Y-74129999D01*
X143136133Y-74114753D01*
X143136141Y-74114751D01*
X143300889Y-74054787D01*
X143300890Y-74054787D01*
X143447371Y-73958446D01*
X143567686Y-73830919D01*
X143567688Y-73830916D01*
X143655350Y-73679079D01*
X143705633Y-73511125D01*
X143705990Y-73505000D01*
X143321105Y-73505000D01*
X143276911Y-73486694D01*
X143258605Y-73442500D01*
X143260991Y-73425396D01*
X143261560Y-73423392D01*
X143265895Y-73408160D01*
X143262002Y-73366147D01*
X143258029Y-73323267D01*
X143272179Y-73277572D01*
X143314495Y-73255267D01*
X143320262Y-73255000D01*
X143701528Y-73255000D01*
X143685383Y-73163433D01*
X143615941Y-73002447D01*
X143511243Y-72861814D01*
X143511242Y-72861813D01*
X143376940Y-72749119D01*
X143220264Y-72670433D01*
X143220255Y-72670430D01*
X143049669Y-72630001D01*
X143049659Y-72630000D01*
X142787000Y-72630000D01*
X142787000Y-73017500D01*
X142768694Y-73061694D01*
X142724500Y-73080000D01*
X142599500Y-73080000D01*
X142555306Y-73061694D01*
X142537000Y-73017500D01*
X142537000Y-72630000D01*
X142318300Y-72630000D01*
X142187866Y-72645246D01*
X142187858Y-72645248D01*
X142023110Y-72705212D01*
X142023109Y-72705212D01*
X141876628Y-72801553D01*
X141756313Y-72929080D01*
X141756311Y-72929083D01*
X141668649Y-73080920D01*
X141618366Y-73248874D01*
X141618009Y-73254999D01*
X141421700Y-73254999D01*
X141421700Y-69828224D01*
X141440006Y-69784030D01*
X144266231Y-66957806D01*
X144310425Y-66939500D01*
X150838099Y-66939500D01*
X150882293Y-66957806D01*
X150893216Y-66972534D01*
X150940358Y-67060730D01*
X150988311Y-67150444D01*
X150988313Y-67150448D01*
X150988315Y-67150450D01*
X151119590Y-67310410D01*
X151279550Y-67441685D01*
X151279552Y-67441686D01*
X151405262Y-67508880D01*
X151435608Y-67545857D01*
X151430919Y-67593463D01*
X151405262Y-67619120D01*
X151279552Y-67686313D01*
X151279544Y-67686319D01*
X151119591Y-67817588D01*
X151119588Y-67817591D01*
X150988319Y-67977544D01*
X150988311Y-67977555D01*
X150890768Y-68160045D01*
X150890766Y-68160050D01*
X150830700Y-68358064D01*
X150830699Y-68358069D01*
X150810417Y-68563999D01*
X150810417Y-68564000D01*
X150830699Y-68769930D01*
X150830700Y-68769935D01*
X150890766Y-68967949D01*
X150890768Y-68967954D01*
X150988311Y-69150444D01*
X150988319Y-69150455D01*
X151119588Y-69310408D01*
X151119591Y-69310411D01*
X151172394Y-69353745D01*
X151279550Y-69441685D01*
X151279553Y-69441686D01*
X151279555Y-69441688D01*
X151341780Y-69474948D01*
X151462046Y-69539232D01*
X151660066Y-69599300D01*
X151866000Y-69619583D01*
X152071934Y-69599300D01*
X152269954Y-69539232D01*
X152452450Y-69441685D01*
X152612410Y-69310410D01*
X152743685Y-69150450D01*
X152841232Y-68967954D01*
X152901300Y-68769934D01*
X152921583Y-68564000D01*
X152901300Y-68358066D01*
X152841232Y-68160046D01*
X152743685Y-67977550D01*
X152612410Y-67817590D01*
X152452450Y-67686315D01*
X152452448Y-67686313D01*
X152452444Y-67686311D01*
X152380259Y-67647727D01*
X152326736Y-67619118D01*
X152296390Y-67582143D01*
X152301079Y-67534538D01*
X152326735Y-67508881D01*
X152452450Y-67441685D01*
X152612410Y-67310410D01*
X152743685Y-67150450D01*
X152841232Y-66967954D01*
X152901300Y-66769934D01*
X152921583Y-66564000D01*
X152901300Y-66358066D01*
X152841232Y-66160046D01*
X152743685Y-65977550D01*
X152612410Y-65817590D01*
X152452450Y-65686315D01*
X152452448Y-65686313D01*
X152452444Y-65686311D01*
X152269954Y-65588768D01*
X152269949Y-65588766D01*
X152071935Y-65528700D01*
X152071930Y-65528699D01*
X151866000Y-65508417D01*
X151660069Y-65528699D01*
X151660064Y-65528700D01*
X151462050Y-65588766D01*
X151462045Y-65588768D01*
X151279555Y-65686311D01*
X151279544Y-65686319D01*
X151119591Y-65817588D01*
X151119588Y-65817591D01*
X150988319Y-65977544D01*
X150988311Y-65977555D01*
X150928399Y-66089643D01*
X150893217Y-66155463D01*
X150856242Y-66185809D01*
X150838099Y-66188500D01*
X144174427Y-66188500D01*
X144161601Y-66187170D01*
X144144732Y-66183633D01*
X144144729Y-66183632D01*
X144114644Y-66187383D01*
X144107608Y-66188260D01*
X144103744Y-66188500D01*
X144097886Y-66188500D01*
X144074856Y-66192342D01*
X144074857Y-66192342D01*
X144020374Y-66199134D01*
X144015410Y-66200612D01*
X144015393Y-66200557D01*
X144010270Y-66202199D01*
X144010289Y-66202253D01*
X144005388Y-66203935D01*
X143957118Y-66230058D01*
X143907789Y-66254173D01*
X143903574Y-66257183D01*
X143903541Y-66257136D01*
X143899223Y-66260356D01*
X143899259Y-66260402D01*
X143895173Y-66263582D01*
X143857991Y-66303971D01*
X140812799Y-69349161D01*
X140802794Y-69357287D01*
X140788364Y-69366715D01*
X140788362Y-69366717D01*
X140765388Y-69396232D01*
X140762828Y-69399132D01*
X140758681Y-69403281D01*
X140758679Y-69403282D01*
X140745105Y-69422295D01*
X140711392Y-69465608D01*
X140708927Y-69470164D01*
X140708875Y-69470136D01*
X140706412Y-69474922D01*
X140706465Y-69474948D01*
X140704190Y-69479601D01*
X140688529Y-69532202D01*
X140670699Y-69584141D01*
X140669847Y-69589250D01*
X140669789Y-69589240D01*
X140669013Y-69594567D01*
X140669072Y-69594575D01*
X140668431Y-69599710D01*
X140670700Y-69654555D01*
X140670700Y-88524372D01*
X140669370Y-88537198D01*
X140665833Y-88554066D01*
X140665832Y-88554069D01*
X140670460Y-88591185D01*
X140670700Y-88595055D01*
X140670700Y-88600912D01*
X140674542Y-88623940D01*
X140681334Y-88678425D01*
X140682813Y-88683394D01*
X140682757Y-88683410D01*
X140684399Y-88688536D01*
X140684455Y-88688517D01*
X140686135Y-88693413D01*
X140712254Y-88741676D01*
X140712255Y-88741677D01*
X140736374Y-88791011D01*
X140736376Y-88791013D01*
X140739384Y-88795226D01*
X140739335Y-88795260D01*
X140742551Y-88799573D01*
X140742598Y-88799537D01*
X140745779Y-88803624D01*
X140786171Y-88840809D01*
X143217794Y-91272430D01*
X143236100Y-91316624D01*
X143236100Y-91810006D01*
X143217794Y-91854200D01*
X143173600Y-91872506D01*
X143144555Y-91865347D01*
X143005766Y-91792504D01*
X142852387Y-91754700D01*
X142852385Y-91754700D01*
X142694415Y-91754700D01*
X142694412Y-91754700D01*
X142541035Y-91792504D01*
X142401159Y-91865917D01*
X142282918Y-91970668D01*
X142193180Y-92100677D01*
X142137161Y-92248387D01*
X142118122Y-92405196D01*
X142118122Y-92405203D01*
X142137161Y-92562012D01*
X142137162Y-92562016D01*
X142137163Y-92562018D01*
X142193180Y-92709723D01*
X142282917Y-92839730D01*
X142348397Y-92897740D01*
X142402245Y-92945444D01*
X142423186Y-92988452D01*
X142423300Y-92992226D01*
X142423300Y-93214372D01*
X142404994Y-93258566D01*
X142367366Y-93296194D01*
X142323172Y-93314500D01*
X140870501Y-93314500D01*
X140870497Y-93314501D01*
X140773783Y-93329818D01*
X140657221Y-93389209D01*
X140607194Y-93439236D01*
X140562999Y-93457541D01*
X140518805Y-93439235D01*
X140500500Y-93395041D01*
X140500500Y-64000002D01*
X143644341Y-64000002D01*
X143664936Y-64235404D01*
X143664939Y-64235420D01*
X143726095Y-64463659D01*
X143726096Y-64463661D01*
X143825964Y-64677828D01*
X143961505Y-64871402D01*
X144128597Y-65038494D01*
X144199020Y-65087804D01*
X144322171Y-65174035D01*
X144322170Y-65174035D01*
X144429254Y-65223969D01*
X144536337Y-65273903D01*
X144536339Y-65273903D01*
X144536340Y-65273904D01*
X144764579Y-65335060D01*
X144764585Y-65335061D01*
X144764592Y-65335063D01*
X144941034Y-65350500D01*
X145058966Y-65350500D01*
X145235408Y-65335063D01*
X145235417Y-65335060D01*
X145235420Y-65335060D01*
X145463659Y-65273904D01*
X145463658Y-65273904D01*
X145463663Y-65273903D01*
X145677829Y-65174035D01*
X145871401Y-65038495D01*
X146038495Y-64871401D01*
X146174035Y-64677830D01*
X146273903Y-64463663D01*
X146335063Y-64235408D01*
X146350060Y-64064000D01*
X150810919Y-64064000D01*
X150831191Y-64269834D01*
X150891233Y-64467763D01*
X150988728Y-64650166D01*
X150988736Y-64650177D01*
X151040260Y-64712960D01*
X151040261Y-64712960D01*
X151398265Y-64354956D01*
X151442459Y-64336650D01*
X151486653Y-64354956D01*
X151495036Y-64365358D01*
X151503326Y-64378257D01*
X151503327Y-64378258D01*
X151573242Y-64438840D01*
X151594654Y-64481615D01*
X151579547Y-64527003D01*
X151576507Y-64530268D01*
X151217038Y-64889737D01*
X151217038Y-64889738D01*
X151279822Y-64941263D01*
X151279833Y-64941271D01*
X151462236Y-65038766D01*
X151660165Y-65098808D01*
X151866000Y-65119081D01*
X152071834Y-65098808D01*
X152269763Y-65038766D01*
X152452166Y-64941271D01*
X152452172Y-64941267D01*
X152514960Y-64889738D01*
X152514960Y-64889737D01*
X152155491Y-64530268D01*
X152137185Y-64486074D01*
X152155491Y-64441880D01*
X152158738Y-64438855D01*
X152228673Y-64378258D01*
X152236960Y-64365361D01*
X152276250Y-64338079D01*
X152323326Y-64346570D01*
X152333733Y-64354956D01*
X152691737Y-64712960D01*
X152691738Y-64712960D01*
X152743267Y-64650172D01*
X152743271Y-64650166D01*
X152840766Y-64467763D01*
X152900808Y-64269834D01*
X152921081Y-64064000D01*
X152921081Y-64063999D01*
X152900808Y-63858165D01*
X152840766Y-63660236D01*
X152743271Y-63477833D01*
X152743263Y-63477822D01*
X152691738Y-63415038D01*
X152691737Y-63415038D01*
X152333733Y-63773042D01*
X152289539Y-63791348D01*
X152245345Y-63773042D01*
X152236960Y-63762636D01*
X152228675Y-63749744D01*
X152228670Y-63749740D01*
X152213478Y-63736576D01*
X152158756Y-63689158D01*
X152137344Y-63646382D01*
X152152451Y-63600995D01*
X152155491Y-63597730D01*
X152514960Y-63238261D01*
X152514960Y-63238260D01*
X152452177Y-63186736D01*
X152452166Y-63186728D01*
X152269763Y-63089233D01*
X152071834Y-63029191D01*
X151866000Y-63008919D01*
X151660165Y-63029191D01*
X151462236Y-63089233D01*
X151279833Y-63186728D01*
X151279828Y-63186731D01*
X151217038Y-63238261D01*
X151576508Y-63597731D01*
X151594814Y-63641925D01*
X151576508Y-63686119D01*
X151573243Y-63689159D01*
X151503328Y-63749740D01*
X151495038Y-63762640D01*
X151455744Y-63789921D01*
X151408669Y-63781427D01*
X151398266Y-63773043D01*
X151040261Y-63415038D01*
X150988731Y-63477828D01*
X150988728Y-63477833D01*
X150891233Y-63660236D01*
X150831191Y-63858165D01*
X150810919Y-64063999D01*
X150810919Y-64064000D01*
X146350060Y-64064000D01*
X146355659Y-64000000D01*
X146335063Y-63764592D01*
X146331083Y-63749740D01*
X146273904Y-63536340D01*
X146273903Y-63536338D01*
X146246619Y-63477828D01*
X146174035Y-63322171D01*
X146079203Y-63186736D01*
X146038494Y-63128597D01*
X145871402Y-62961505D01*
X145748250Y-62875274D01*
X145677829Y-62825965D01*
X145677827Y-62825964D01*
X145677829Y-62825964D01*
X145463661Y-62726096D01*
X145463659Y-62726095D01*
X145235420Y-62664939D01*
X145235404Y-62664936D01*
X145058966Y-62649500D01*
X144941034Y-62649500D01*
X144764595Y-62664936D01*
X144764579Y-62664939D01*
X144536340Y-62726095D01*
X144536338Y-62726096D01*
X144322171Y-62825964D01*
X144128597Y-62961505D01*
X143961505Y-63128597D01*
X143825964Y-63322170D01*
X143726096Y-63536338D01*
X143726095Y-63536340D01*
X143664939Y-63764579D01*
X143664936Y-63764595D01*
X143644341Y-63999997D01*
X143644341Y-64000002D01*
X140500500Y-64000002D01*
X140500500Y-60994003D01*
X152821093Y-60994003D01*
X152840694Y-61255554D01*
X152840694Y-61255556D01*
X152899057Y-61511261D01*
X152899058Y-61511264D01*
X152994886Y-61755433D01*
X153126027Y-61982574D01*
X153126034Y-61982583D01*
X153252303Y-62140918D01*
X153252304Y-62140919D01*
X153631371Y-61761851D01*
X153675565Y-61743545D01*
X153719759Y-61761851D01*
X153721753Y-61763939D01*
X153797925Y-61847495D01*
X153797926Y-61847496D01*
X153797931Y-61847501D01*
X153798346Y-61847814D01*
X153798428Y-61847954D01*
X153800064Y-61849445D01*
X153799602Y-61849951D01*
X153822589Y-61889049D01*
X153810574Y-61935351D01*
X153804884Y-61941890D01*
X153429392Y-62317382D01*
X153429392Y-62317383D01*
X153481834Y-62366043D01*
X153698546Y-62513793D01*
X153934864Y-62627598D01*
X153934868Y-62627599D01*
X154185488Y-62704906D01*
X154185487Y-62704906D01*
X154444856Y-62743999D01*
X154444862Y-62744000D01*
X154707138Y-62744000D01*
X154707143Y-62743999D01*
X154966512Y-62704906D01*
X155217131Y-62627599D01*
X155217135Y-62627598D01*
X155453454Y-62513793D01*
X155670166Y-62366042D01*
X155722606Y-62317382D01*
X155347115Y-61941891D01*
X155328809Y-61897697D01*
X155347115Y-61853503D01*
X155353645Y-61847821D01*
X155354069Y-61847501D01*
X155430247Y-61763937D01*
X155473546Y-61743612D01*
X155518539Y-61759857D01*
X155520627Y-61761851D01*
X155899694Y-62140919D01*
X155899695Y-62140918D01*
X156025967Y-61982579D01*
X156025975Y-61982567D01*
X156157113Y-61755433D01*
X156252941Y-61511264D01*
X156252942Y-61511261D01*
X156311305Y-61255556D01*
X156311305Y-61255554D01*
X156330907Y-60994003D01*
X156330907Y-60993996D01*
X156311305Y-60732445D01*
X156311305Y-60732443D01*
X156252942Y-60476738D01*
X156252941Y-60476735D01*
X156157113Y-60232566D01*
X156025975Y-60005432D01*
X156025967Y-60005419D01*
X155899695Y-59847080D01*
X155899694Y-59847079D01*
X155520627Y-60226147D01*
X155476433Y-60244453D01*
X155432239Y-60226147D01*
X155430245Y-60224059D01*
X155354066Y-60140496D01*
X155354062Y-60140492D01*
X155353637Y-60140171D01*
X155353552Y-60140027D01*
X155351932Y-60138550D01*
X155352389Y-60138047D01*
X155329407Y-60098926D01*
X155341439Y-60052629D01*
X155347115Y-60046107D01*
X155722606Y-59670615D01*
X155670165Y-59621956D01*
X155453454Y-59474206D01*
X155217135Y-59360401D01*
X155217131Y-59360400D01*
X154966511Y-59283093D01*
X154966512Y-59283093D01*
X154707143Y-59244000D01*
X154444856Y-59244000D01*
X154185487Y-59283093D01*
X153934868Y-59360400D01*
X153934864Y-59360401D01*
X153698546Y-59474206D01*
X153481841Y-59621951D01*
X153481834Y-59621956D01*
X153429392Y-59670615D01*
X153804884Y-60046108D01*
X153823190Y-60090302D01*
X153804884Y-60134496D01*
X153798359Y-60140175D01*
X153797931Y-60140497D01*
X153721752Y-60224060D01*
X153678450Y-60244386D01*
X153633458Y-60228140D01*
X153631371Y-60226147D01*
X153252304Y-59847079D01*
X153252303Y-59847080D01*
X153126034Y-60005416D01*
X153126027Y-60005425D01*
X152994886Y-60232566D01*
X152899058Y-60476735D01*
X152899057Y-60476738D01*
X152840694Y-60732443D01*
X152840694Y-60732445D01*
X152821093Y-60993996D01*
X152821093Y-60994003D01*
X140500500Y-60994003D01*
X140500500Y-60000944D01*
X140500557Y-59999057D01*
X140502665Y-59964200D01*
X140518610Y-59700589D01*
X140519061Y-59696878D01*
X140572792Y-59403679D01*
X140573693Y-59400025D01*
X140586041Y-59360401D01*
X140662364Y-59115469D01*
X140663702Y-59111942D01*
X140786033Y-58840132D01*
X140787779Y-58836808D01*
X140941982Y-58581726D01*
X140944105Y-58578649D01*
X141127938Y-58344003D01*
X141130420Y-58341201D01*
X141341201Y-58130420D01*
X141344003Y-58127938D01*
X141578649Y-57944105D01*
X141581726Y-57941982D01*
X141836808Y-57787779D01*
X141840132Y-57786033D01*
X142111948Y-57663699D01*
X142115469Y-57662364D01*
X142400032Y-57573691D01*
X142403679Y-57572792D01*
X142696878Y-57519061D01*
X142700589Y-57518610D01*
X142999057Y-57500557D01*
X143000945Y-57500500D01*
X143065892Y-57500500D01*
X161934108Y-57500500D01*
X161999055Y-57500500D01*
X162000942Y-57500557D01*
G37*
%TD.AperFunction*%
%TD*%
M02*
