%TF.GenerationSoftware,KiCad,Pcbnew,7.0.7*%
%TF.CreationDate,2024-03-19T09:59:50-04:00*%
%TF.ProjectId,HS8836A_USBC_hub,48533838-3336-4415-9f55-5342435f6875,rev?*%
%TF.SameCoordinates,Original*%
%TF.FileFunction,Soldermask,Top*%
%TF.FilePolarity,Negative*%
%FSLAX46Y46*%
G04 Gerber Fmt 4.6, Leading zero omitted, Abs format (unit mm)*
G04 Created by KiCad (PCBNEW 7.0.7) date 2024-03-19 09:59:50*
%MOMM*%
%LPD*%
G01*
G04 APERTURE LIST*
G04 Aperture macros list*
%AMRoundRect*
0 Rectangle with rounded corners*
0 $1 Rounding radius*
0 $2 $3 $4 $5 $6 $7 $8 $9 X,Y pos of 4 corners*
0 Add a 4 corners polygon primitive as box body*
4,1,4,$2,$3,$4,$5,$6,$7,$8,$9,$2,$3,0*
0 Add four circle primitives for the rounded corners*
1,1,$1+$1,$2,$3*
1,1,$1+$1,$4,$5*
1,1,$1+$1,$6,$7*
1,1,$1+$1,$8,$9*
0 Add four rect primitives between the rounded corners*
20,1,$1+$1,$2,$3,$4,$5,0*
20,1,$1+$1,$4,$5,$6,$7,0*
20,1,$1+$1,$6,$7,$8,$9,0*
20,1,$1+$1,$8,$9,$2,$3,0*%
G04 Aperture macros list end*
%ADD10C,2.200000*%
%ADD11RoundRect,0.250000X-0.375000X-0.625000X0.375000X-0.625000X0.375000X0.625000X-0.375000X0.625000X0*%
%ADD12RoundRect,0.237500X0.250000X0.237500X-0.250000X0.237500X-0.250000X-0.237500X0.250000X-0.237500X0*%
%ADD13RoundRect,0.237500X0.300000X0.237500X-0.300000X0.237500X-0.300000X-0.237500X0.300000X-0.237500X0*%
%ADD14RoundRect,0.100000X-0.575000X0.100000X-0.575000X-0.100000X0.575000X-0.100000X0.575000X0.100000X0*%
%ADD15O,1.600000X0.900000*%
%ADD16RoundRect,0.250000X-0.450000X0.550000X-0.450000X-0.550000X0.450000X-0.550000X0.450000X0.550000X0*%
%ADD17RoundRect,0.250000X-0.700000X0.700000X-0.700000X-0.700000X0.700000X-0.700000X0.700000X0.700000X0*%
%ADD18RoundRect,0.162500X-0.750000X-0.162500X0.750000X-0.162500X0.750000X0.162500X-0.750000X0.162500X0*%
%ADD19RoundRect,0.237500X-0.300000X-0.237500X0.300000X-0.237500X0.300000X0.237500X-0.300000X0.237500X0*%
%ADD20RoundRect,0.237500X-0.250000X-0.237500X0.250000X-0.237500X0.250000X0.237500X-0.250000X0.237500X0*%
%ADD21O,1.600000X1.000000*%
%ADD22O,2.100000X1.000000*%
%ADD23R,1.450000X0.600000*%
%ADD24R,1.450000X0.300000*%
%ADD25C,0.650000*%
%ADD26R,1.500000X1.600000*%
%ADD27C,1.600000*%
%ADD28C,3.000000*%
G04 APERTURE END LIST*
D10*
%TO.C,H1*%
X145000000Y-64000000D03*
%TD*%
D11*
%TO.C,D1*%
X141200000Y-126900000D03*
X144000000Y-126900000D03*
%TD*%
D12*
%TO.C,R2*%
X159385000Y-100965000D03*
X157560000Y-100965000D03*
%TD*%
D13*
%TO.C,C2*%
X154125000Y-97790000D03*
X152400000Y-97790000D03*
%TD*%
D14*
%TO.C,J6*%
X144175000Y-119100000D03*
X144175000Y-119750000D03*
X144175000Y-120400000D03*
X144175000Y-121050000D03*
X144175000Y-121700000D03*
D15*
X141500000Y-117100000D03*
D16*
X143950000Y-117200000D03*
D17*
X141500000Y-119200000D03*
X141500000Y-121600000D03*
D16*
X143950000Y-123600000D03*
D15*
X141500000Y-123700000D03*
%TD*%
D18*
%TO.C,U1*%
X141653000Y-93890000D03*
X141653000Y-95160000D03*
X141653000Y-96430000D03*
X141653000Y-97700000D03*
X141653000Y-98970000D03*
X141653000Y-100240000D03*
X141653000Y-101510000D03*
X141653000Y-102780000D03*
X147828000Y-102780000D03*
X147828000Y-101510000D03*
X147828000Y-100240000D03*
X147828000Y-98970000D03*
X147828000Y-97700000D03*
X147828000Y-96430000D03*
X147828000Y-95160000D03*
X147828000Y-93890000D03*
%TD*%
D19*
%TO.C,C3*%
X161470000Y-97790000D03*
X163195000Y-97790000D03*
%TD*%
D12*
%TO.C,R3*%
X143500000Y-129100000D03*
X141675000Y-129100000D03*
%TD*%
D10*
%TO.C,H2*%
X145000000Y-134000000D03*
%TD*%
D12*
%TO.C,R1*%
X159385000Y-97790000D03*
X157560000Y-97790000D03*
%TD*%
D20*
%TO.C,R4*%
X156975000Y-76700000D03*
X158800000Y-76700000D03*
%TD*%
D21*
%TO.C,J1*%
X142662000Y-82020000D03*
D22*
X146842000Y-82020000D03*
D21*
X142662000Y-73380000D03*
D22*
X146842000Y-73380000D03*
D23*
X147757000Y-74450000D03*
X147757000Y-75250000D03*
D24*
X147757000Y-75950000D03*
X147757000Y-76950000D03*
X147757000Y-78450000D03*
X147757000Y-79450000D03*
D23*
X147757000Y-80150000D03*
X147757000Y-80950000D03*
X147757000Y-80950000D03*
X147757000Y-80150000D03*
D24*
X147757000Y-78950000D03*
X147757000Y-77950000D03*
X147757000Y-77450000D03*
X147757000Y-76450000D03*
D23*
X147757000Y-75250000D03*
X147757000Y-74450000D03*
D25*
X146312000Y-80590000D03*
X146312000Y-74810000D03*
%TD*%
D20*
%TO.C,R5*%
X156975000Y-79200000D03*
X158800000Y-79200000D03*
%TD*%
D19*
%TO.C,C1*%
X161470000Y-100965000D03*
X163195000Y-100965000D03*
%TD*%
D26*
%TO.C,J2*%
X151866000Y-134022000D03*
D27*
X151866000Y-131522000D03*
X151866000Y-129522000D03*
X151866000Y-127022000D03*
D28*
X154576000Y-137092000D03*
X154576000Y-123952000D03*
%TD*%
D26*
%TO.C,J5*%
X151866000Y-71064000D03*
D27*
X151866000Y-68564000D03*
X151866000Y-66564000D03*
X151866000Y-64064000D03*
D28*
X154576000Y-74134000D03*
X154576000Y-60994000D03*
%TD*%
D26*
%TO.C,J3*%
X151976000Y-112974000D03*
D27*
X151976000Y-110474000D03*
X151976000Y-108474000D03*
X151976000Y-105974000D03*
D28*
X154686000Y-116044000D03*
X154686000Y-102904000D03*
%TD*%
D26*
%TO.C,J4*%
X151892000Y-92000000D03*
D27*
X151892000Y-89500000D03*
X151892000Y-87500000D03*
X151892000Y-85000000D03*
D28*
X154602000Y-95070000D03*
X154602000Y-81930000D03*
%TD*%
M02*
