%TF.GenerationSoftware,KiCad,Pcbnew,7.0.7*%
%TF.CreationDate,2024-04-05T12:31:17-04:00*%
%TF.ProjectId,HS8836A_USBC_hub,48533838-3336-4415-9f55-5342435f6875,rev?*%
%TF.SameCoordinates,Original*%
%TF.FileFunction,Copper,L2,Bot*%
%TF.FilePolarity,Positive*%
%FSLAX46Y46*%
G04 Gerber Fmt 4.6, Leading zero omitted, Abs format (unit mm)*
G04 Created by KiCad (PCBNEW 7.0.7) date 2024-04-05 12:31:17*
%MOMM*%
%LPD*%
G01*
G04 APERTURE LIST*
%TA.AperFunction,ComponentPad*%
%ADD10O,1.600000X0.900000*%
%TD*%
%TA.AperFunction,ComponentPad*%
%ADD11R,1.500000X1.600000*%
%TD*%
%TA.AperFunction,ComponentPad*%
%ADD12C,1.600000*%
%TD*%
%TA.AperFunction,ComponentPad*%
%ADD13C,3.000000*%
%TD*%
%TA.AperFunction,ComponentPad*%
%ADD14O,2.100000X1.000000*%
%TD*%
%TA.AperFunction,ComponentPad*%
%ADD15O,1.600000X1.000000*%
%TD*%
%TA.AperFunction,ViaPad*%
%ADD16C,0.800000*%
%TD*%
%TA.AperFunction,Conductor*%
%ADD17C,0.200000*%
%TD*%
%TA.AperFunction,Conductor*%
%ADD18C,0.250000*%
%TD*%
%TA.AperFunction,Conductor*%
%ADD19C,0.600000*%
%TD*%
G04 APERTURE END LIST*
D10*
%TO.P,J6,6,Shield*%
%TO.N,GND*%
X141500000Y-117100000D03*
X141500000Y-123700000D03*
%TD*%
D11*
%TO.P,J2,1,VBUS*%
%TO.N,VCC*%
X151866000Y-134022000D03*
D12*
%TO.P,J2,2,D-*%
%TO.N,Net-(J2-D-)*%
X151866000Y-131522000D03*
%TO.P,J2,3,D+*%
%TO.N,Net-(J2-D+)*%
X151866000Y-129522000D03*
%TO.P,J2,4,GND*%
%TO.N,GND*%
X151866000Y-127022000D03*
D13*
%TO.P,J2,5,Shield*%
X154576000Y-137092000D03*
X154576000Y-123952000D03*
%TD*%
D11*
%TO.P,J5,1,VBUS*%
%TO.N,VCC*%
X151866000Y-71064000D03*
D12*
%TO.P,J5,2,D-*%
%TO.N,Net-(J5-D-)*%
X151866000Y-68564000D03*
%TO.P,J5,3,D+*%
%TO.N,Net-(J5-D+)*%
X151866000Y-66564000D03*
%TO.P,J5,4,GND*%
%TO.N,GND*%
X151866000Y-64064000D03*
D13*
%TO.P,J5,5,Shield*%
X154576000Y-74134000D03*
X154576000Y-60994000D03*
%TD*%
D11*
%TO.P,J3,1,VBUS*%
%TO.N,VCC*%
X151976000Y-112974000D03*
D12*
%TO.P,J3,2,D-*%
%TO.N,Net-(J3-D-)*%
X151976000Y-110474000D03*
%TO.P,J3,3,D+*%
%TO.N,Net-(J3-D+)*%
X151976000Y-108474000D03*
%TO.P,J3,4,GND*%
%TO.N,GND*%
X151976000Y-105974000D03*
D13*
%TO.P,J3,5,Shield*%
X154686000Y-116044000D03*
X154686000Y-102904000D03*
%TD*%
D11*
%TO.P,J4,1,VBUS*%
%TO.N,VCC*%
X151892000Y-92000000D03*
D12*
%TO.P,J4,2,D-*%
%TO.N,Net-(J4-D-)*%
X151892000Y-89500000D03*
%TO.P,J4,3,D+*%
%TO.N,Net-(J4-D+)*%
X151892000Y-87500000D03*
%TO.P,J4,4,GND*%
%TO.N,GND*%
X151892000Y-85000000D03*
D13*
%TO.P,J4,5,Shield*%
X154602000Y-95070000D03*
X154602000Y-81930000D03*
%TD*%
D14*
%TO.P,J1,S1,SHIELD*%
%TO.N,GND*%
X146842000Y-73380000D03*
D15*
X142662000Y-73380000D03*
D14*
X146842000Y-82020000D03*
D15*
X142662000Y-82020000D03*
%TD*%
D16*
%TO.N,D+*%
X149860000Y-100203000D03*
%TO.N,Net-(U1-DCP)*%
X149606000Y-98806000D03*
X149606000Y-96520000D03*
%TO.N,VCC*%
X151587200Y-80822800D03*
%TO.N,Net-(J2-D-)*%
X143662400Y-102031800D03*
%TO.N,Net-(J2-D+)*%
X144576800Y-103454200D03*
%TO.N,Net-(J3-D+)*%
X143154400Y-100203000D03*
X148285200Y-108458000D03*
X145364200Y-107238800D03*
%TO.N,Net-(J4-D-)*%
X143332200Y-96215200D03*
%TO.N,Net-(J4-D+)*%
X144336100Y-92405200D03*
%TO.N,Net-(J5-D-)*%
X142773400Y-92405200D03*
%TO.N,D+*%
X147900000Y-119100000D03*
%TO.N,D-*%
X146700000Y-119000000D03*
X145135600Y-100203000D03*
%TD*%
D17*
%TO.N,D-*%
X146700000Y-101742000D02*
X146700000Y-119000000D01*
X145161000Y-100203000D02*
X146700000Y-101742000D01*
X145135600Y-100203000D02*
X145161000Y-100203000D01*
%TO.N,D+*%
X147900000Y-118400000D02*
X147900000Y-119100000D01*
X149860000Y-100203000D02*
X148336000Y-100203000D01*
X148336000Y-100203000D02*
X147100000Y-101439000D01*
X147100000Y-117600000D02*
X147900000Y-118400000D01*
X147100000Y-101439000D02*
X147100000Y-117600000D01*
D18*
%TO.N,Net-(U1-DCP)*%
X149606000Y-96520000D02*
X149606000Y-98806000D01*
D19*
%TO.N,VCC*%
X158395600Y-92000000D02*
X158419800Y-92024200D01*
X158419800Y-112953800D02*
X158419800Y-132105400D01*
X151892000Y-92000000D02*
X158395600Y-92000000D01*
X158419800Y-92024200D02*
X158419800Y-112953800D01*
X151587200Y-80822800D02*
X151866000Y-80544000D01*
X151976000Y-112974000D02*
X158399600Y-112974000D01*
X151866000Y-80544000D02*
X151866000Y-71064000D01*
X158419800Y-72440800D02*
X158419800Y-92024200D01*
X158399600Y-112974000D02*
X158419800Y-112953800D01*
X158419800Y-132105400D02*
X156503200Y-134022000D01*
X157043000Y-71064000D02*
X158419800Y-72440800D01*
X156503200Y-134022000D02*
X151866000Y-134022000D01*
X151866000Y-71064000D02*
X157043000Y-71064000D01*
D18*
%TO.N,Net-(J2-D-)*%
X143662400Y-129616200D02*
X143662400Y-102031800D01*
X145568200Y-131522000D02*
X143662400Y-129616200D01*
X151866000Y-131522000D02*
X145568200Y-131522000D01*
%TO.N,Net-(J2-D+)*%
X144112400Y-103918600D02*
X144112400Y-127551600D01*
X146082800Y-129522000D02*
X151866000Y-129522000D01*
X144112400Y-127551600D02*
X146082800Y-129522000D01*
X144576800Y-103454200D02*
X144112400Y-103918600D01*
%TO.N,Net-(J3-D+)*%
X145364200Y-102412800D02*
X143154400Y-100203000D01*
X148301200Y-108474000D02*
X148285200Y-108458000D01*
X151976000Y-108474000D02*
X148301200Y-108474000D01*
X145364200Y-107238800D02*
X145364200Y-102412800D01*
%TO.N,Net-(J4-D-)*%
X143332200Y-96215200D02*
X145211800Y-94335600D01*
X145211800Y-90576400D02*
X146288200Y-89500000D01*
X145211800Y-94335600D02*
X145211800Y-90576400D01*
X146288200Y-89500000D02*
X151892000Y-89500000D01*
%TO.N,Net-(J4-D+)*%
X151892000Y-87500000D02*
X146815000Y-87500000D01*
X145796000Y-88519000D02*
X144336100Y-89978900D01*
X146815000Y-87500000D02*
X145796000Y-88519000D01*
X144336100Y-89978900D02*
X144336100Y-92405200D01*
%TO.N,Net-(J5-D-)*%
X143449800Y-68564000D02*
X151866000Y-68564000D01*
X142773400Y-90246200D02*
X141046200Y-88519000D01*
X141046200Y-70967600D02*
X143449800Y-68564000D01*
X141046200Y-88519000D02*
X141046200Y-70967600D01*
X142773400Y-92405200D02*
X142773400Y-90246200D01*
D17*
%TO.N,D-*%
X145161000Y-100228400D02*
X145135600Y-100203000D01*
%TD*%
%TA.AperFunction,Conductor*%
%TO.N,GND*%
G36*
X162001866Y-57500613D02*
G01*
X162081342Y-57505420D01*
X162297539Y-57518497D01*
X162304973Y-57519401D01*
X162594483Y-57572456D01*
X162601753Y-57574247D01*
X162882764Y-57661814D01*
X162889751Y-57664465D01*
X163043864Y-57733825D01*
X163158158Y-57785265D01*
X163164788Y-57788745D01*
X163416665Y-57941010D01*
X163422821Y-57945257D01*
X163654523Y-58126784D01*
X163660123Y-58131745D01*
X163868253Y-58339875D01*
X163873214Y-58345475D01*
X164054739Y-58577175D01*
X164058989Y-58583334D01*
X164211254Y-58835211D01*
X164214737Y-58841846D01*
X164335534Y-59110248D01*
X164338188Y-59117244D01*
X164396651Y-59304858D01*
X164425750Y-59398240D01*
X164427543Y-59405516D01*
X164480598Y-59695026D01*
X164481502Y-59702465D01*
X164499387Y-59998131D01*
X164499500Y-60001876D01*
X164499500Y-137998122D01*
X164499387Y-138001867D01*
X164481502Y-138297534D01*
X164480598Y-138304973D01*
X164427543Y-138594483D01*
X164425750Y-138601759D01*
X164338192Y-138882745D01*
X164335534Y-138889751D01*
X164214737Y-139158153D01*
X164211254Y-139164788D01*
X164058989Y-139416665D01*
X164054733Y-139422833D01*
X163873215Y-139654523D01*
X163868246Y-139660132D01*
X163660132Y-139868246D01*
X163654523Y-139873215D01*
X163422833Y-140054733D01*
X163416665Y-140058989D01*
X163164788Y-140211254D01*
X163158153Y-140214737D01*
X162889751Y-140335534D01*
X162882749Y-140338190D01*
X162789363Y-140367290D01*
X162601759Y-140425750D01*
X162594483Y-140427543D01*
X162304973Y-140480598D01*
X162297534Y-140481502D01*
X162001867Y-140499387D01*
X161998122Y-140499500D01*
X143001878Y-140499500D01*
X142998133Y-140499387D01*
X142702465Y-140481502D01*
X142695026Y-140480598D01*
X142405516Y-140427543D01*
X142398240Y-140425750D01*
X142304858Y-140396651D01*
X142117244Y-140338188D01*
X142110248Y-140335534D01*
X141841846Y-140214737D01*
X141835211Y-140211254D01*
X141583334Y-140058989D01*
X141577175Y-140054739D01*
X141345475Y-139873214D01*
X141339875Y-139868253D01*
X141131745Y-139660123D01*
X141126784Y-139654523D01*
X140945257Y-139422821D01*
X140941010Y-139416665D01*
X140788745Y-139164788D01*
X140785262Y-139158153D01*
X140664465Y-138889751D01*
X140661814Y-138882764D01*
X140574247Y-138601753D01*
X140572456Y-138594483D01*
X140519401Y-138304973D01*
X140518497Y-138297534D01*
X140514246Y-138227262D01*
X140500613Y-138001866D01*
X140500500Y-137998122D01*
X140500500Y-137092001D01*
X152570891Y-137092001D01*
X152591300Y-137377362D01*
X152652109Y-137656895D01*
X152752091Y-137924958D01*
X152889191Y-138176038D01*
X152889196Y-138176046D01*
X152995882Y-138318561D01*
X152995883Y-138318562D01*
X153501525Y-137812920D01*
X153562848Y-137779435D01*
X153632539Y-137784419D01*
X153680841Y-137817061D01*
X153787544Y-137934107D01*
X153797933Y-137945503D01*
X153842673Y-137979289D01*
X153884310Y-138035397D01*
X153889002Y-138105109D01*
X153855628Y-138165924D01*
X153349436Y-138672115D01*
X153491960Y-138778807D01*
X153491961Y-138778808D01*
X153743042Y-138915908D01*
X153743041Y-138915908D01*
X154011104Y-139015890D01*
X154290637Y-139076699D01*
X154575999Y-139097109D01*
X154576001Y-139097109D01*
X154861362Y-139076699D01*
X155140895Y-139015890D01*
X155408958Y-138915908D01*
X155660047Y-138778803D01*
X155802561Y-138672116D01*
X155802562Y-138672115D01*
X155296371Y-138165924D01*
X155262886Y-138104601D01*
X155267870Y-138034909D01*
X155309325Y-137979289D01*
X155354069Y-137945501D01*
X155471157Y-137817062D01*
X155530867Y-137780781D01*
X155600715Y-137782542D01*
X155650474Y-137812920D01*
X156156115Y-138318562D01*
X156156116Y-138318561D01*
X156262803Y-138176047D01*
X156399908Y-137924958D01*
X156499890Y-137656895D01*
X156560699Y-137377362D01*
X156581109Y-137092001D01*
X156581109Y-137091998D01*
X156560699Y-136806637D01*
X156499890Y-136527104D01*
X156399908Y-136259041D01*
X156262808Y-136007961D01*
X156262807Y-136007960D01*
X156156115Y-135865436D01*
X156156114Y-135865436D01*
X155650473Y-136371078D01*
X155589150Y-136404563D01*
X155519458Y-136399579D01*
X155471155Y-136366935D01*
X155354071Y-136238500D01*
X155309324Y-136204709D01*
X155267688Y-136148600D01*
X155262997Y-136078888D01*
X155296370Y-136018074D01*
X155802562Y-135511883D01*
X155802561Y-135511882D01*
X155660046Y-135405196D01*
X155660038Y-135405191D01*
X155408957Y-135268091D01*
X155408958Y-135268091D01*
X155140895Y-135168109D01*
X154861362Y-135107300D01*
X154576001Y-135086891D01*
X154575999Y-135086891D01*
X154290637Y-135107300D01*
X154011104Y-135168109D01*
X153743041Y-135268091D01*
X153491961Y-135405191D01*
X153491953Y-135405196D01*
X153349437Y-135511882D01*
X153349436Y-135511883D01*
X153855628Y-136018074D01*
X153889113Y-136079397D01*
X153884129Y-136149088D01*
X153842676Y-136204707D01*
X153797933Y-136238496D01*
X153680843Y-136366937D01*
X153621131Y-136403218D01*
X153551284Y-136401457D01*
X153501525Y-136371079D01*
X152995883Y-135865436D01*
X152995882Y-135865437D01*
X152889196Y-136007953D01*
X152889191Y-136007961D01*
X152752091Y-136259041D01*
X152652109Y-136527104D01*
X152591300Y-136806637D01*
X152570891Y-137091998D01*
X152570891Y-137092001D01*
X140500500Y-137092001D01*
X140500500Y-134000000D01*
X143644341Y-134000000D01*
X143664936Y-134235403D01*
X143664938Y-134235413D01*
X143726094Y-134463655D01*
X143726096Y-134463659D01*
X143726097Y-134463663D01*
X143754355Y-134524261D01*
X143825964Y-134677828D01*
X143825965Y-134677830D01*
X143961505Y-134871402D01*
X144128597Y-135038494D01*
X144322169Y-135174034D01*
X144322171Y-135174035D01*
X144536337Y-135273903D01*
X144764592Y-135335063D01*
X144941034Y-135350500D01*
X145058966Y-135350500D01*
X145235408Y-135335063D01*
X145463663Y-135273903D01*
X145677829Y-135174035D01*
X145871401Y-135038495D01*
X146038495Y-134871401D01*
X146174035Y-134677830D01*
X146273903Y-134463663D01*
X146335063Y-134235408D01*
X146355659Y-134000000D01*
X146335063Y-133764592D01*
X146273903Y-133536337D01*
X146174035Y-133322171D01*
X146174034Y-133322169D01*
X146038494Y-133128597D01*
X145871402Y-132961505D01*
X145677830Y-132825965D01*
X145677828Y-132825964D01*
X145570745Y-132776031D01*
X145463663Y-132726097D01*
X145463659Y-132726096D01*
X145463655Y-132726094D01*
X145235413Y-132664938D01*
X145235403Y-132664936D01*
X145058966Y-132649500D01*
X144941034Y-132649500D01*
X144764596Y-132664936D01*
X144764586Y-132664938D01*
X144536344Y-132726094D01*
X144536335Y-132726098D01*
X144322171Y-132825964D01*
X144322169Y-132825965D01*
X144128597Y-132961505D01*
X143961506Y-133128597D01*
X143961501Y-133128604D01*
X143825967Y-133322165D01*
X143825965Y-133322169D01*
X143726098Y-133536335D01*
X143726094Y-133536344D01*
X143664938Y-133764586D01*
X143664936Y-133764596D01*
X143644341Y-133999999D01*
X143644341Y-134000000D01*
X140500500Y-134000000D01*
X140500500Y-124642272D01*
X140520185Y-124575233D01*
X140572989Y-124529478D01*
X140642147Y-124519534D01*
X140680762Y-124532536D01*
X140680807Y-124532433D01*
X140682092Y-124532984D01*
X140684686Y-124533858D01*
X140686587Y-124534913D01*
X140864137Y-124611106D01*
X141053394Y-124650000D01*
X141250000Y-124650000D01*
X141250000Y-124074000D01*
X141269685Y-124006961D01*
X141322489Y-123961206D01*
X141374000Y-123950000D01*
X141626000Y-123950000D01*
X141693039Y-123969685D01*
X141738794Y-124022489D01*
X141750000Y-124074000D01*
X141750000Y-124650000D01*
X141898176Y-124650000D01*
X142042221Y-124635352D01*
X142226561Y-124577515D01*
X142226571Y-124577510D01*
X142395498Y-124483748D01*
X142395505Y-124483743D01*
X142542105Y-124357892D01*
X142660368Y-124205109D01*
X142660370Y-124205105D01*
X142745457Y-124031643D01*
X142792858Y-123848571D01*
X142828718Y-123788606D01*
X142891305Y-123757547D01*
X142960748Y-123765256D01*
X143015000Y-123809284D01*
X143036836Y-123875654D01*
X143036900Y-123879652D01*
X143036900Y-129533455D01*
X143035175Y-129549072D01*
X143035461Y-129549099D01*
X143034726Y-129556865D01*
X143036900Y-129626014D01*
X143036900Y-129655543D01*
X143036901Y-129655560D01*
X143037768Y-129662431D01*
X143038226Y-129668250D01*
X143039690Y-129714824D01*
X143039691Y-129714827D01*
X143045280Y-129734067D01*
X143049224Y-129753111D01*
X143051736Y-129772991D01*
X143068890Y-129816319D01*
X143070782Y-129821847D01*
X143083781Y-129866588D01*
X143093980Y-129883834D01*
X143102538Y-129901303D01*
X143109914Y-129919932D01*
X143137298Y-129957623D01*
X143140506Y-129962507D01*
X143164227Y-130002616D01*
X143164233Y-130002624D01*
X143178390Y-130016780D01*
X143191028Y-130031576D01*
X143202805Y-130047786D01*
X143202806Y-130047787D01*
X143238709Y-130077488D01*
X143243020Y-130081410D01*
X144683607Y-131521998D01*
X145067397Y-131905788D01*
X145077222Y-131918051D01*
X145077443Y-131917869D01*
X145082414Y-131923878D01*
X145108417Y-131948295D01*
X145132835Y-131971226D01*
X145153729Y-131992120D01*
X145159211Y-131996373D01*
X145163643Y-132000157D01*
X145197618Y-132032062D01*
X145215176Y-132041714D01*
X145231435Y-132052395D01*
X145247264Y-132064673D01*
X145290038Y-132083182D01*
X145295256Y-132085738D01*
X145336108Y-132108197D01*
X145355516Y-132113180D01*
X145373917Y-132119480D01*
X145392304Y-132127437D01*
X145435688Y-132134308D01*
X145438319Y-132134725D01*
X145444039Y-132135909D01*
X145489181Y-132147500D01*
X145509216Y-132147500D01*
X145528614Y-132149026D01*
X145548394Y-132152159D01*
X145548395Y-132152160D01*
X145548395Y-132152159D01*
X145548396Y-132152160D01*
X145594783Y-132147775D01*
X145600622Y-132147500D01*
X150651812Y-132147500D01*
X150718851Y-132167185D01*
X150753387Y-132200377D01*
X150865954Y-132361141D01*
X151026856Y-132522043D01*
X151028017Y-132523017D01*
X151028389Y-132523576D01*
X151030689Y-132525876D01*
X151030227Y-132526337D01*
X151066726Y-132581184D01*
X151067842Y-132651045D01*
X151031011Y-132710419D01*
X150991656Y-132734197D01*
X150873669Y-132778203D01*
X150873664Y-132778206D01*
X150758455Y-132864452D01*
X150758452Y-132864455D01*
X150672206Y-132979664D01*
X150672202Y-132979671D01*
X150621908Y-133114517D01*
X150615501Y-133174116D01*
X150615500Y-133174135D01*
X150615500Y-134869870D01*
X150615501Y-134869876D01*
X150621908Y-134929483D01*
X150672202Y-135064328D01*
X150672206Y-135064335D01*
X150758452Y-135179544D01*
X150758455Y-135179547D01*
X150873664Y-135265793D01*
X150873671Y-135265797D01*
X151008517Y-135316091D01*
X151008516Y-135316091D01*
X151015444Y-135316835D01*
X151068127Y-135322500D01*
X152663872Y-135322499D01*
X152723483Y-135316091D01*
X152858331Y-135265796D01*
X152973546Y-135179546D01*
X153059796Y-135064331D01*
X153110091Y-134929483D01*
X153110091Y-134929481D01*
X153111874Y-134921938D01*
X153114146Y-134922474D01*
X153136429Y-134868688D01*
X153193823Y-134828843D01*
X153232976Y-134822500D01*
X156593394Y-134822500D01*
X156634103Y-134813208D01*
X156640960Y-134812043D01*
X156682455Y-134807368D01*
X156721880Y-134793571D01*
X156728521Y-134791658D01*
X156769261Y-134782360D01*
X156806893Y-134764236D01*
X156813305Y-134761580D01*
X156852722Y-134747789D01*
X156888089Y-134725565D01*
X156894161Y-134722209D01*
X156931787Y-134704091D01*
X156964436Y-134678052D01*
X156970095Y-134674037D01*
X157005462Y-134651816D01*
X157133016Y-134524262D01*
X157133016Y-134524261D01*
X158922059Y-132735217D01*
X158922062Y-132735216D01*
X159049616Y-132607662D01*
X159071842Y-132572287D01*
X159075845Y-132566645D01*
X159101892Y-132533986D01*
X159120013Y-132496355D01*
X159123370Y-132490281D01*
X159145589Y-132454922D01*
X159159381Y-132415507D01*
X159162044Y-132409079D01*
X159180160Y-132371461D01*
X159189458Y-132330721D01*
X159191371Y-132324080D01*
X159205168Y-132284655D01*
X159209843Y-132243160D01*
X159211008Y-132236305D01*
X159219208Y-132200377D01*
X159220300Y-132195594D01*
X159220300Y-132015205D01*
X159220300Y-132015204D01*
X159220300Y-112908846D01*
X159220300Y-112863606D01*
X159220300Y-91979246D01*
X159220300Y-91934006D01*
X159220300Y-72395846D01*
X159220300Y-72350606D01*
X159211007Y-72309893D01*
X159209842Y-72303033D01*
X159205168Y-72261545D01*
X159205167Y-72261542D01*
X159191376Y-72222128D01*
X159189450Y-72215441D01*
X159180161Y-72174741D01*
X159162044Y-72137120D01*
X159159381Y-72130691D01*
X159145589Y-72091277D01*
X159134377Y-72073435D01*
X159123367Y-72055912D01*
X159120006Y-72049830D01*
X159101891Y-72012212D01*
X159101890Y-72012211D01*
X159075855Y-71979565D01*
X159071828Y-71973889D01*
X159065912Y-71964474D01*
X159049616Y-71938538D01*
X158922062Y-71810984D01*
X157594693Y-70483615D01*
X157594691Y-70483612D01*
X157577252Y-70466173D01*
X157545262Y-70434184D01*
X157545259Y-70434182D01*
X157545258Y-70434181D01*
X157509904Y-70411966D01*
X157504229Y-70407940D01*
X157471589Y-70381910D01*
X157433959Y-70363787D01*
X157427872Y-70360422D01*
X157392525Y-70338212D01*
X157353114Y-70324421D01*
X157346688Y-70321759D01*
X157309061Y-70303639D01*
X157268345Y-70294345D01*
X157261662Y-70292420D01*
X157222259Y-70278632D01*
X157180763Y-70273955D01*
X157173908Y-70272791D01*
X157133200Y-70263501D01*
X157133196Y-70263500D01*
X157133194Y-70263500D01*
X157133191Y-70263500D01*
X153232977Y-70263500D01*
X153165938Y-70243815D01*
X153120183Y-70191011D01*
X153112733Y-70163865D01*
X153111876Y-70164068D01*
X153110092Y-70156520D01*
X153059797Y-70021671D01*
X153059793Y-70021664D01*
X152973547Y-69906455D01*
X152973544Y-69906452D01*
X152858335Y-69820206D01*
X152858328Y-69820202D01*
X152740344Y-69776197D01*
X152684410Y-69734326D01*
X152659993Y-69668861D01*
X152674845Y-69600588D01*
X152701493Y-69568058D01*
X152701311Y-69567876D01*
X152703142Y-69566044D01*
X152703990Y-69565010D01*
X152705127Y-69564055D01*
X152705139Y-69564047D01*
X152866047Y-69403139D01*
X152996568Y-69216734D01*
X153092739Y-69010496D01*
X153151635Y-68790692D01*
X153171468Y-68564000D01*
X153151635Y-68337308D01*
X153092739Y-68117504D01*
X152996568Y-67911266D01*
X152866047Y-67724861D01*
X152792865Y-67651679D01*
X152759382Y-67590359D01*
X152764366Y-67520667D01*
X152792865Y-67476320D01*
X152866047Y-67403139D01*
X152996568Y-67216734D01*
X153092739Y-67010496D01*
X153151635Y-66790692D01*
X153171468Y-66564000D01*
X153151635Y-66337308D01*
X153092739Y-66117504D01*
X152996568Y-65911266D01*
X152866047Y-65724861D01*
X152866045Y-65724858D01*
X152705141Y-65563954D01*
X152518734Y-65433432D01*
X152518730Y-65433430D01*
X152503022Y-65426105D01*
X152450583Y-65379931D01*
X152431433Y-65312737D01*
X152451650Y-65245857D01*
X152503028Y-65201340D01*
X152518481Y-65194134D01*
X152591472Y-65143025D01*
X152106839Y-64658393D01*
X152073354Y-64597070D01*
X152078338Y-64527379D01*
X152120209Y-64471445D01*
X152124834Y-64468233D01*
X152125441Y-64467706D01*
X152125445Y-64467705D01*
X152228673Y-64378258D01*
X152264862Y-64321945D01*
X152317665Y-64276192D01*
X152386823Y-64266248D01*
X152450379Y-64295272D01*
X152456858Y-64301305D01*
X152945025Y-64789472D01*
X152996136Y-64716478D01*
X153092264Y-64510331D01*
X153092269Y-64510317D01*
X153151139Y-64290610D01*
X153151141Y-64290599D01*
X153170966Y-64064002D01*
X153170966Y-64063997D01*
X153151141Y-63837400D01*
X153151139Y-63837389D01*
X153092269Y-63617682D01*
X153092265Y-63617673D01*
X152996133Y-63411516D01*
X152996131Y-63411512D01*
X152945026Y-63338526D01*
X152945025Y-63338526D01*
X152456857Y-63826694D01*
X152395534Y-63860179D01*
X152325842Y-63855195D01*
X152269909Y-63813323D01*
X152264866Y-63806060D01*
X152228673Y-63749742D01*
X152125445Y-63660295D01*
X152125444Y-63660294D01*
X152118742Y-63654487D01*
X152120028Y-63653002D01*
X152081725Y-63608800D01*
X152071781Y-63539641D01*
X152100805Y-63476085D01*
X152106838Y-63469606D01*
X152591472Y-62984973D01*
X152518483Y-62933866D01*
X152518481Y-62933865D01*
X152312326Y-62837734D01*
X152312317Y-62837730D01*
X152092610Y-62778860D01*
X152092599Y-62778858D01*
X151866002Y-62759034D01*
X151865998Y-62759034D01*
X151639400Y-62778858D01*
X151639389Y-62778860D01*
X151419682Y-62837730D01*
X151419673Y-62837734D01*
X151213513Y-62933868D01*
X151140527Y-62984972D01*
X151140526Y-62984973D01*
X151625160Y-63469606D01*
X151658645Y-63530929D01*
X151653661Y-63600620D01*
X151611790Y-63656554D01*
X151607170Y-63659761D01*
X151503325Y-63749744D01*
X151467137Y-63806053D01*
X151414332Y-63851808D01*
X151345174Y-63861751D01*
X151281618Y-63832725D01*
X151275141Y-63826694D01*
X150786973Y-63338526D01*
X150735868Y-63411513D01*
X150639734Y-63617673D01*
X150639730Y-63617682D01*
X150580860Y-63837389D01*
X150580858Y-63837400D01*
X150561034Y-64063997D01*
X150561034Y-64064002D01*
X150580858Y-64290599D01*
X150580860Y-64290610D01*
X150639730Y-64510317D01*
X150639734Y-64510326D01*
X150735865Y-64716481D01*
X150735866Y-64716483D01*
X150786973Y-64789471D01*
X150786973Y-64789472D01*
X151275141Y-64301304D01*
X151336464Y-64267819D01*
X151406155Y-64272803D01*
X151462089Y-64314674D01*
X151467132Y-64321938D01*
X151503327Y-64378258D01*
X151606555Y-64467705D01*
X151613258Y-64473513D01*
X151611970Y-64474999D01*
X151650268Y-64519188D01*
X151660219Y-64588345D01*
X151631200Y-64651904D01*
X151625160Y-64658392D01*
X151140526Y-65143025D01*
X151140526Y-65143026D01*
X151213512Y-65194131D01*
X151213515Y-65194132D01*
X151228974Y-65201341D01*
X151281414Y-65247513D01*
X151300567Y-65314706D01*
X151280352Y-65381587D01*
X151228978Y-65426105D01*
X151213269Y-65433430D01*
X151213265Y-65433432D01*
X151026858Y-65563954D01*
X150865954Y-65724858D01*
X150735432Y-65911265D01*
X150735431Y-65911267D01*
X150639261Y-66117502D01*
X150639258Y-66117511D01*
X150580366Y-66337302D01*
X150580364Y-66337313D01*
X150560532Y-66563998D01*
X150560532Y-66564001D01*
X150580364Y-66790686D01*
X150580366Y-66790697D01*
X150639258Y-67010488D01*
X150639261Y-67010497D01*
X150735431Y-67216732D01*
X150735432Y-67216734D01*
X150865954Y-67403141D01*
X150939132Y-67476319D01*
X150972617Y-67537642D01*
X150967633Y-67607334D01*
X150939132Y-67651681D01*
X150865954Y-67724858D01*
X150753387Y-67885623D01*
X150698811Y-67929248D01*
X150651812Y-67938500D01*
X143532543Y-67938500D01*
X143516922Y-67936775D01*
X143516895Y-67937061D01*
X143509133Y-67936326D01*
X143439972Y-67938500D01*
X143410449Y-67938500D01*
X143403578Y-67939367D01*
X143397759Y-67939825D01*
X143351174Y-67941289D01*
X143351168Y-67941290D01*
X143331926Y-67946880D01*
X143312887Y-67950823D01*
X143293017Y-67953334D01*
X143293003Y-67953337D01*
X143249683Y-67970488D01*
X143244158Y-67972380D01*
X143199413Y-67985380D01*
X143199410Y-67985381D01*
X143182166Y-67995579D01*
X143164705Y-68004133D01*
X143146074Y-68011510D01*
X143146062Y-68011517D01*
X143108370Y-68038902D01*
X143103487Y-68042109D01*
X143063380Y-68065829D01*
X143049214Y-68079995D01*
X143034424Y-68092627D01*
X143018214Y-68104404D01*
X143018211Y-68104407D01*
X142988510Y-68140309D01*
X142984577Y-68144631D01*
X140712181Y-70417027D01*
X140650858Y-70450512D01*
X140581166Y-70445528D01*
X140525233Y-70403656D01*
X140500816Y-70338192D01*
X140500500Y-70329346D01*
X140500500Y-64000000D01*
X143644341Y-64000000D01*
X143664936Y-64235403D01*
X143664938Y-64235413D01*
X143726094Y-64463655D01*
X143726096Y-64463659D01*
X143726097Y-64463663D01*
X143776030Y-64570745D01*
X143825964Y-64677828D01*
X143825965Y-64677830D01*
X143961505Y-64871402D01*
X144128597Y-65038494D01*
X144322169Y-65174034D01*
X144322171Y-65174035D01*
X144536337Y-65273903D01*
X144536343Y-65273904D01*
X144536344Y-65273905D01*
X144591285Y-65288626D01*
X144764592Y-65335063D01*
X144941034Y-65350500D01*
X145058966Y-65350500D01*
X145235408Y-65335063D01*
X145463663Y-65273903D01*
X145677829Y-65174035D01*
X145871401Y-65038495D01*
X146038495Y-64871401D01*
X146174035Y-64677830D01*
X146273903Y-64463663D01*
X146335063Y-64235408D01*
X146355659Y-64000000D01*
X146335063Y-63764592D01*
X146273903Y-63536337D01*
X146174035Y-63322171D01*
X146174034Y-63322169D01*
X146038494Y-63128597D01*
X145871402Y-62961505D01*
X145677830Y-62825965D01*
X145677828Y-62825964D01*
X145534296Y-62759034D01*
X145463663Y-62726097D01*
X145463659Y-62726096D01*
X145463655Y-62726094D01*
X145235413Y-62664938D01*
X145235403Y-62664936D01*
X145058966Y-62649500D01*
X144941034Y-62649500D01*
X144764596Y-62664936D01*
X144764586Y-62664938D01*
X144536344Y-62726094D01*
X144536335Y-62726098D01*
X144322171Y-62825964D01*
X144322169Y-62825965D01*
X144128597Y-62961505D01*
X143961506Y-63128597D01*
X143961501Y-63128604D01*
X143825967Y-63322165D01*
X143825965Y-63322169D01*
X143726098Y-63536335D01*
X143726094Y-63536344D01*
X143664938Y-63764586D01*
X143664936Y-63764596D01*
X143644341Y-63999999D01*
X143644341Y-64000000D01*
X140500500Y-64000000D01*
X140500500Y-60994001D01*
X152570891Y-60994001D01*
X152591300Y-61279362D01*
X152652109Y-61558895D01*
X152752091Y-61826958D01*
X152889191Y-62078038D01*
X152889196Y-62078046D01*
X152995882Y-62220561D01*
X152995883Y-62220562D01*
X153501525Y-61714920D01*
X153562848Y-61681435D01*
X153632539Y-61686419D01*
X153680841Y-61719061D01*
X153797930Y-61847500D01*
X153797933Y-61847503D01*
X153842673Y-61881289D01*
X153884310Y-61937397D01*
X153889002Y-62007109D01*
X153855628Y-62067924D01*
X153349436Y-62574115D01*
X153491960Y-62680807D01*
X153491961Y-62680808D01*
X153743042Y-62817908D01*
X153743041Y-62817908D01*
X154011104Y-62917890D01*
X154290637Y-62978699D01*
X154575999Y-62999109D01*
X154576001Y-62999109D01*
X154861362Y-62978699D01*
X155140895Y-62917890D01*
X155408958Y-62817908D01*
X155660047Y-62680803D01*
X155802561Y-62574116D01*
X155802562Y-62574115D01*
X155296371Y-62067924D01*
X155262886Y-62006601D01*
X155267870Y-61936909D01*
X155309325Y-61881289D01*
X155354069Y-61847501D01*
X155471157Y-61719062D01*
X155530867Y-61682781D01*
X155600715Y-61684542D01*
X155650474Y-61714920D01*
X156156115Y-62220562D01*
X156156116Y-62220561D01*
X156262803Y-62078047D01*
X156399908Y-61826958D01*
X156499890Y-61558895D01*
X156560699Y-61279362D01*
X156581109Y-60994001D01*
X156581109Y-60993998D01*
X156560699Y-60708637D01*
X156499890Y-60429104D01*
X156399908Y-60161041D01*
X156262808Y-59909961D01*
X156262807Y-59909960D01*
X156156115Y-59767436D01*
X156156114Y-59767436D01*
X155650473Y-60273078D01*
X155589150Y-60306563D01*
X155519458Y-60301579D01*
X155471155Y-60268935D01*
X155354071Y-60140500D01*
X155309324Y-60106709D01*
X155267688Y-60050600D01*
X155262997Y-59980888D01*
X155296370Y-59920074D01*
X155802562Y-59413883D01*
X155802561Y-59413882D01*
X155660046Y-59307196D01*
X155660038Y-59307191D01*
X155408957Y-59170091D01*
X155408958Y-59170091D01*
X155140895Y-59070109D01*
X154861362Y-59009300D01*
X154576001Y-58988891D01*
X154575999Y-58988891D01*
X154290637Y-59009300D01*
X154011104Y-59070109D01*
X153743041Y-59170091D01*
X153491961Y-59307191D01*
X153491953Y-59307196D01*
X153349437Y-59413882D01*
X153349436Y-59413883D01*
X153855628Y-59920074D01*
X153889113Y-59981397D01*
X153884129Y-60051088D01*
X153842676Y-60106707D01*
X153797933Y-60140496D01*
X153680843Y-60268937D01*
X153621131Y-60305218D01*
X153551284Y-60303457D01*
X153501525Y-60273079D01*
X152995883Y-59767436D01*
X152995882Y-59767437D01*
X152889196Y-59909953D01*
X152889191Y-59909961D01*
X152752091Y-60161041D01*
X152652109Y-60429104D01*
X152591300Y-60708637D01*
X152570891Y-60993998D01*
X152570891Y-60994001D01*
X140500500Y-60994001D01*
X140500500Y-60001876D01*
X140500613Y-59998132D01*
X140503152Y-59956147D01*
X140518497Y-59702458D01*
X140519401Y-59695026D01*
X140572456Y-59405516D01*
X140574246Y-59398250D01*
X140661816Y-59117230D01*
X140664465Y-59110248D01*
X140719083Y-58988891D01*
X140785268Y-58841834D01*
X140788745Y-58835211D01*
X140941010Y-58583334D01*
X140945252Y-58577186D01*
X141126793Y-58345465D01*
X141131737Y-58339884D01*
X141339884Y-58131737D01*
X141345465Y-58126793D01*
X141577186Y-57945252D01*
X141583334Y-57941010D01*
X141835215Y-57788742D01*
X141841834Y-57785268D01*
X142110246Y-57664465D01*
X142117230Y-57661816D01*
X142398250Y-57574246D01*
X142405516Y-57572456D01*
X142695026Y-57519401D01*
X142702458Y-57518497D01*
X142927572Y-57504880D01*
X142998134Y-57500613D01*
X143001878Y-57500500D01*
X143065892Y-57500500D01*
X161934108Y-57500500D01*
X161998122Y-57500500D01*
X162001866Y-57500613D01*
G37*
%TD.AperFunction*%
%TA.AperFunction,Conductor*%
G36*
X146036474Y-107953042D02*
G01*
X146085169Y-108003148D01*
X146099500Y-108061015D01*
X146099500Y-118273547D01*
X146079815Y-118340586D01*
X146067650Y-118356519D01*
X145967466Y-118467785D01*
X145872821Y-118631715D01*
X145872818Y-118631722D01*
X145814327Y-118811740D01*
X145814326Y-118811744D01*
X145794540Y-119000000D01*
X145814326Y-119188256D01*
X145814327Y-119188259D01*
X145872818Y-119368277D01*
X145872821Y-119368284D01*
X145967467Y-119532216D01*
X146057506Y-119632214D01*
X146094129Y-119672888D01*
X146247265Y-119784148D01*
X146247270Y-119784151D01*
X146420192Y-119861142D01*
X146420197Y-119861144D01*
X146605354Y-119900500D01*
X146605355Y-119900500D01*
X146794644Y-119900500D01*
X146794646Y-119900500D01*
X146979803Y-119861144D01*
X147152730Y-119784151D01*
X147158294Y-119780108D01*
X147224098Y-119756628D01*
X147292153Y-119772452D01*
X147304065Y-119780108D01*
X147447265Y-119884148D01*
X147447270Y-119884151D01*
X147620192Y-119961142D01*
X147620197Y-119961144D01*
X147805354Y-120000500D01*
X147805355Y-120000500D01*
X147994644Y-120000500D01*
X147994646Y-120000500D01*
X148179803Y-119961144D01*
X148352730Y-119884151D01*
X148505871Y-119772888D01*
X148632533Y-119632216D01*
X148727179Y-119468284D01*
X148785674Y-119288256D01*
X148805460Y-119100000D01*
X148785674Y-118911744D01*
X148727179Y-118731716D01*
X148632533Y-118567784D01*
X148535592Y-118460120D01*
X148505363Y-118397131D01*
X148504809Y-118393369D01*
X148485044Y-118243238D01*
X148424538Y-118097163D01*
X148424538Y-118097162D01*
X148424536Y-118097159D01*
X148352450Y-118003215D01*
X148340365Y-117987466D01*
X148328283Y-117971718D01*
X148300009Y-117950023D01*
X148293912Y-117944677D01*
X147736819Y-117387583D01*
X147703334Y-117326260D01*
X147700500Y-117299902D01*
X147700500Y-116044001D01*
X152680891Y-116044001D01*
X152701300Y-116329362D01*
X152762109Y-116608895D01*
X152862091Y-116876958D01*
X152999191Y-117128038D01*
X152999196Y-117128046D01*
X153105882Y-117270561D01*
X153105883Y-117270562D01*
X153611525Y-116764920D01*
X153672848Y-116731435D01*
X153742539Y-116736419D01*
X153790841Y-116769061D01*
X153907930Y-116897500D01*
X153907933Y-116897503D01*
X153952673Y-116931289D01*
X153994310Y-116987397D01*
X153999002Y-117057109D01*
X153965628Y-117117924D01*
X153459436Y-117624115D01*
X153601960Y-117730807D01*
X153601961Y-117730808D01*
X153853042Y-117867908D01*
X153853041Y-117867908D01*
X154121104Y-117967890D01*
X154400637Y-118028699D01*
X154685999Y-118049109D01*
X154686001Y-118049109D01*
X154971362Y-118028699D01*
X155250895Y-117967890D01*
X155518958Y-117867908D01*
X155770047Y-117730803D01*
X155912561Y-117624116D01*
X155912562Y-117624115D01*
X155406371Y-117117924D01*
X155372886Y-117056601D01*
X155377870Y-116986909D01*
X155419325Y-116931289D01*
X155464069Y-116897501D01*
X155581157Y-116769062D01*
X155640867Y-116732781D01*
X155710715Y-116734542D01*
X155760474Y-116764920D01*
X156266115Y-117270562D01*
X156266116Y-117270561D01*
X156372803Y-117128047D01*
X156509908Y-116876958D01*
X156609890Y-116608895D01*
X156670699Y-116329362D01*
X156691109Y-116044001D01*
X156691109Y-116043998D01*
X156670699Y-115758637D01*
X156609890Y-115479104D01*
X156509908Y-115211041D01*
X156372808Y-114959961D01*
X156372807Y-114959960D01*
X156266115Y-114817436D01*
X156266114Y-114817436D01*
X155760473Y-115323078D01*
X155699150Y-115356563D01*
X155629458Y-115351579D01*
X155581155Y-115318935D01*
X155464071Y-115190500D01*
X155419324Y-115156709D01*
X155377688Y-115100600D01*
X155372997Y-115030888D01*
X155406370Y-114970074D01*
X155912562Y-114463883D01*
X155912561Y-114463882D01*
X155770046Y-114357196D01*
X155770038Y-114357191D01*
X155518957Y-114220091D01*
X155518958Y-114220091D01*
X155250895Y-114120109D01*
X154971362Y-114059300D01*
X154686001Y-114038891D01*
X154685999Y-114038891D01*
X154400637Y-114059300D01*
X154121104Y-114120109D01*
X153853041Y-114220091D01*
X153601961Y-114357191D01*
X153601953Y-114357196D01*
X153459437Y-114463882D01*
X153459436Y-114463883D01*
X153965628Y-114970074D01*
X153999113Y-115031397D01*
X153994129Y-115101088D01*
X153952676Y-115156707D01*
X153907933Y-115190496D01*
X153790843Y-115318937D01*
X153731131Y-115355218D01*
X153661284Y-115353457D01*
X153611525Y-115323079D01*
X153105883Y-114817436D01*
X153105882Y-114817437D01*
X152999196Y-114959953D01*
X152999191Y-114959961D01*
X152862091Y-115211041D01*
X152762109Y-115479104D01*
X152701300Y-115758637D01*
X152680891Y-116043998D01*
X152680891Y-116044001D01*
X147700500Y-116044001D01*
X147700500Y-109374337D01*
X147720185Y-109307298D01*
X147772989Y-109261543D01*
X147842147Y-109251599D01*
X147874932Y-109261056D01*
X148005397Y-109319144D01*
X148190554Y-109358500D01*
X148190555Y-109358500D01*
X148379844Y-109358500D01*
X148379846Y-109358500D01*
X148565003Y-109319144D01*
X148737930Y-109242151D01*
X148891071Y-109130888D01*
X148891070Y-109130888D01*
X148896329Y-109127068D01*
X148897143Y-109128189D01*
X148953552Y-109101120D01*
X148973530Y-109099500D01*
X150761812Y-109099500D01*
X150828851Y-109119185D01*
X150863387Y-109152377D01*
X150975954Y-109313141D01*
X151049132Y-109386319D01*
X151082617Y-109447642D01*
X151077633Y-109517334D01*
X151049132Y-109561681D01*
X150975954Y-109634858D01*
X150845432Y-109821265D01*
X150845431Y-109821267D01*
X150749261Y-110027502D01*
X150749258Y-110027511D01*
X150690366Y-110247302D01*
X150690364Y-110247313D01*
X150670532Y-110473998D01*
X150670532Y-110474001D01*
X150690364Y-110700686D01*
X150690366Y-110700697D01*
X150749258Y-110920488D01*
X150749261Y-110920497D01*
X150845431Y-111126732D01*
X150845432Y-111126734D01*
X150975954Y-111313141D01*
X151136856Y-111474043D01*
X151138017Y-111475017D01*
X151138389Y-111475576D01*
X151140689Y-111477876D01*
X151140227Y-111478337D01*
X151176726Y-111533184D01*
X151177842Y-111603045D01*
X151141011Y-111662419D01*
X151101656Y-111686197D01*
X150983669Y-111730203D01*
X150983664Y-111730206D01*
X150868455Y-111816452D01*
X150868452Y-111816455D01*
X150782206Y-111931664D01*
X150782202Y-111931671D01*
X150731908Y-112066517D01*
X150725501Y-112126116D01*
X150725500Y-112126135D01*
X150725500Y-113821870D01*
X150725501Y-113821876D01*
X150731908Y-113881483D01*
X150782202Y-114016328D01*
X150782206Y-114016335D01*
X150868452Y-114131544D01*
X150868455Y-114131547D01*
X150983664Y-114217793D01*
X150983671Y-114217797D01*
X151118517Y-114268091D01*
X151118516Y-114268091D01*
X151125444Y-114268835D01*
X151178127Y-114274500D01*
X152773872Y-114274499D01*
X152833483Y-114268091D01*
X152968331Y-114217796D01*
X153083546Y-114131546D01*
X153169796Y-114016331D01*
X153220091Y-113881483D01*
X153220091Y-113881481D01*
X153221874Y-113873938D01*
X153224146Y-113874474D01*
X153246429Y-113820688D01*
X153303823Y-113780843D01*
X153342976Y-113774500D01*
X157495300Y-113774500D01*
X157562339Y-113794185D01*
X157608094Y-113846989D01*
X157619300Y-113898500D01*
X157619300Y-131722460D01*
X157599615Y-131789499D01*
X157582981Y-131810141D01*
X156207941Y-133185181D01*
X156146618Y-133218666D01*
X156120260Y-133221500D01*
X153232977Y-133221500D01*
X153165938Y-133201815D01*
X153120183Y-133149011D01*
X153112733Y-133121865D01*
X153111876Y-133122068D01*
X153110092Y-133114520D01*
X153059797Y-132979671D01*
X153059793Y-132979664D01*
X152973547Y-132864455D01*
X152973544Y-132864452D01*
X152858335Y-132778206D01*
X152858328Y-132778202D01*
X152740344Y-132734197D01*
X152684410Y-132692326D01*
X152659993Y-132626861D01*
X152674845Y-132558588D01*
X152701493Y-132526058D01*
X152701311Y-132525876D01*
X152703142Y-132524044D01*
X152703990Y-132523010D01*
X152705127Y-132522055D01*
X152705139Y-132522047D01*
X152866047Y-132361139D01*
X152996568Y-132174734D01*
X153092739Y-131968496D01*
X153151635Y-131748692D01*
X153171468Y-131522000D01*
X153151635Y-131295308D01*
X153092739Y-131075504D01*
X152996568Y-130869266D01*
X152866047Y-130682861D01*
X152866045Y-130682858D01*
X152792867Y-130609680D01*
X152759382Y-130548357D01*
X152764366Y-130478665D01*
X152792864Y-130434321D01*
X152866047Y-130361139D01*
X152996568Y-130174734D01*
X153092739Y-129968496D01*
X153151635Y-129748692D01*
X153171468Y-129522000D01*
X153151635Y-129295308D01*
X153092739Y-129075504D01*
X152996568Y-128869266D01*
X152866047Y-128682861D01*
X152866045Y-128682858D01*
X152705141Y-128521954D01*
X152518734Y-128391432D01*
X152518730Y-128391430D01*
X152503022Y-128384105D01*
X152450583Y-128337931D01*
X152431433Y-128270737D01*
X152451650Y-128203857D01*
X152503028Y-128159340D01*
X152518481Y-128152134D01*
X152591472Y-128101025D01*
X152106839Y-127616393D01*
X152073354Y-127555070D01*
X152078338Y-127485379D01*
X152120209Y-127429445D01*
X152124834Y-127426233D01*
X152125441Y-127425706D01*
X152125445Y-127425705D01*
X152228673Y-127336258D01*
X152264862Y-127279945D01*
X152317665Y-127234192D01*
X152386823Y-127224248D01*
X152450379Y-127253272D01*
X152456858Y-127259305D01*
X152945025Y-127747472D01*
X152996136Y-127674478D01*
X153092264Y-127468331D01*
X153092269Y-127468317D01*
X153151139Y-127248610D01*
X153151141Y-127248599D01*
X153170966Y-127022002D01*
X153170966Y-127021997D01*
X153151141Y-126795400D01*
X153151139Y-126795389D01*
X153092269Y-126575682D01*
X153092265Y-126575673D01*
X152996133Y-126369516D01*
X152996131Y-126369512D01*
X152945026Y-126296526D01*
X152945025Y-126296526D01*
X152456857Y-126784694D01*
X152395534Y-126818179D01*
X152325842Y-126813195D01*
X152269909Y-126771323D01*
X152264866Y-126764060D01*
X152228673Y-126707742D01*
X152125445Y-126618295D01*
X152125444Y-126618294D01*
X152118742Y-126612487D01*
X152120028Y-126611002D01*
X152081725Y-126566800D01*
X152071781Y-126497641D01*
X152100805Y-126434085D01*
X152106838Y-126427606D01*
X152591472Y-125942973D01*
X152518483Y-125891866D01*
X152518481Y-125891865D01*
X152312326Y-125795734D01*
X152312317Y-125795730D01*
X152092610Y-125736860D01*
X152092599Y-125736858D01*
X151866002Y-125717034D01*
X151865998Y-125717034D01*
X151639400Y-125736858D01*
X151639389Y-125736860D01*
X151419682Y-125795730D01*
X151419673Y-125795734D01*
X151213513Y-125891868D01*
X151140527Y-125942972D01*
X151140526Y-125942973D01*
X151625160Y-126427606D01*
X151658645Y-126488929D01*
X151653661Y-126558620D01*
X151611790Y-126614554D01*
X151607170Y-126617761D01*
X151503325Y-126707744D01*
X151467137Y-126764053D01*
X151414332Y-126809808D01*
X151345174Y-126819751D01*
X151281618Y-126790725D01*
X151275141Y-126784694D01*
X150786973Y-126296526D01*
X150735868Y-126369513D01*
X150639734Y-126575673D01*
X150639730Y-126575682D01*
X150580860Y-126795389D01*
X150580858Y-126795400D01*
X150561034Y-127021997D01*
X150561034Y-127022002D01*
X150580858Y-127248599D01*
X150580860Y-127248610D01*
X150639730Y-127468317D01*
X150639734Y-127468326D01*
X150735865Y-127674481D01*
X150735866Y-127674483D01*
X150786973Y-127747471D01*
X150786973Y-127747472D01*
X151275141Y-127259304D01*
X151336464Y-127225819D01*
X151406155Y-127230803D01*
X151462089Y-127272674D01*
X151467132Y-127279938D01*
X151503327Y-127336258D01*
X151606555Y-127425705D01*
X151613258Y-127431513D01*
X151611970Y-127432999D01*
X151650268Y-127477188D01*
X151660219Y-127546345D01*
X151631200Y-127609904D01*
X151625160Y-127616392D01*
X151140526Y-128101025D01*
X151140526Y-128101026D01*
X151213512Y-128152131D01*
X151213515Y-128152132D01*
X151228974Y-128159341D01*
X151281414Y-128205513D01*
X151300567Y-128272706D01*
X151280352Y-128339587D01*
X151228978Y-128384105D01*
X151213269Y-128391430D01*
X151213265Y-128391432D01*
X151026858Y-128521954D01*
X150865954Y-128682858D01*
X150753387Y-128843623D01*
X150698811Y-128887248D01*
X150651812Y-128896500D01*
X146393253Y-128896500D01*
X146326214Y-128876815D01*
X146305572Y-128860181D01*
X144774219Y-127328828D01*
X144740734Y-127267505D01*
X144737900Y-127241147D01*
X144737900Y-123952001D01*
X152570891Y-123952001D01*
X152591300Y-124237362D01*
X152652109Y-124516895D01*
X152752091Y-124784958D01*
X152889191Y-125036038D01*
X152889196Y-125036046D01*
X152995882Y-125178561D01*
X152995883Y-125178562D01*
X153501525Y-124672920D01*
X153562848Y-124639435D01*
X153632539Y-124644419D01*
X153680841Y-124677061D01*
X153797930Y-124805500D01*
X153797933Y-124805503D01*
X153842673Y-124839289D01*
X153884310Y-124895397D01*
X153889002Y-124965109D01*
X153855628Y-125025924D01*
X153349436Y-125532115D01*
X153491960Y-125638807D01*
X153491961Y-125638808D01*
X153743042Y-125775908D01*
X153743041Y-125775908D01*
X154011104Y-125875890D01*
X154290637Y-125936699D01*
X154575999Y-125957109D01*
X154576001Y-125957109D01*
X154861362Y-125936699D01*
X155140895Y-125875890D01*
X155408958Y-125775908D01*
X155660047Y-125638803D01*
X155802561Y-125532116D01*
X155802562Y-125532115D01*
X155296371Y-125025924D01*
X155262886Y-124964601D01*
X155267870Y-124894909D01*
X155309325Y-124839289D01*
X155354069Y-124805501D01*
X155471157Y-124677062D01*
X155530867Y-124640781D01*
X155600715Y-124642542D01*
X155650474Y-124672920D01*
X156156115Y-125178562D01*
X156156116Y-125178561D01*
X156262803Y-125036047D01*
X156399908Y-124784958D01*
X156499890Y-124516895D01*
X156560699Y-124237362D01*
X156581109Y-123952001D01*
X156581109Y-123951998D01*
X156560699Y-123666637D01*
X156499890Y-123387104D01*
X156399908Y-123119041D01*
X156262808Y-122867961D01*
X156262807Y-122867960D01*
X156156115Y-122725436D01*
X156156114Y-122725436D01*
X155650473Y-123231078D01*
X155589150Y-123264563D01*
X155519458Y-123259579D01*
X155471155Y-123226935D01*
X155354071Y-123098500D01*
X155309324Y-123064709D01*
X155267688Y-123008600D01*
X155262997Y-122938888D01*
X155296370Y-122878074D01*
X155802562Y-122371883D01*
X155802561Y-122371882D01*
X155660046Y-122265196D01*
X155660038Y-122265191D01*
X155408957Y-122128091D01*
X155408958Y-122128091D01*
X155140895Y-122028109D01*
X154861362Y-121967300D01*
X154576001Y-121946891D01*
X154575999Y-121946891D01*
X154290637Y-121967300D01*
X154011104Y-122028109D01*
X153743041Y-122128091D01*
X153491961Y-122265191D01*
X153491953Y-122265196D01*
X153349437Y-122371882D01*
X153349436Y-122371883D01*
X153855628Y-122878074D01*
X153889113Y-122939397D01*
X153884129Y-123009088D01*
X153842676Y-123064707D01*
X153797933Y-123098496D01*
X153680843Y-123226937D01*
X153621131Y-123263218D01*
X153551284Y-123261457D01*
X153501525Y-123231079D01*
X152995883Y-122725436D01*
X152995882Y-122725437D01*
X152889196Y-122867953D01*
X152889191Y-122867961D01*
X152752091Y-123119041D01*
X152652109Y-123387104D01*
X152591300Y-123666637D01*
X152570891Y-123951998D01*
X152570891Y-123952001D01*
X144737900Y-123952001D01*
X144737900Y-108136615D01*
X144757585Y-108069576D01*
X144810389Y-108023821D01*
X144879547Y-108013877D01*
X144912330Y-108023334D01*
X145084397Y-108099944D01*
X145269554Y-108139300D01*
X145269555Y-108139300D01*
X145458844Y-108139300D01*
X145458846Y-108139300D01*
X145644003Y-108099944D01*
X145816930Y-108022951D01*
X145902617Y-107960695D01*
X145968420Y-107937217D01*
X146036474Y-107953042D01*
G37*
%TD.AperFunction*%
%TA.AperFunction,Conductor*%
G36*
X142960748Y-117165256D02*
G01*
X143015000Y-117209284D01*
X143036836Y-117275654D01*
X143036900Y-117279652D01*
X143036900Y-123545758D01*
X143017215Y-123612797D01*
X142964411Y-123658552D01*
X142895253Y-123668496D01*
X142831697Y-123639471D01*
X142793923Y-123580693D01*
X142790330Y-123564534D01*
X142774417Y-123460660D01*
X142774414Y-123460647D01*
X142707314Y-123279472D01*
X142707312Y-123279468D01*
X142605107Y-123115496D01*
X142471997Y-122975465D01*
X142471996Y-122975464D01*
X142313413Y-122865086D01*
X142135862Y-122788893D01*
X141946606Y-122750000D01*
X141750000Y-122750000D01*
X141750000Y-123326000D01*
X141730315Y-123393039D01*
X141677511Y-123438794D01*
X141626000Y-123450000D01*
X141374000Y-123450000D01*
X141306961Y-123430315D01*
X141261206Y-123377511D01*
X141250000Y-123326000D01*
X141250000Y-122750000D01*
X141101824Y-122750000D01*
X140957778Y-122764647D01*
X140773438Y-122822484D01*
X140773423Y-122822491D01*
X140684677Y-122871749D01*
X140616508Y-122887072D01*
X140550877Y-122863108D01*
X140508620Y-122807465D01*
X140500500Y-122763330D01*
X140500500Y-118042272D01*
X140520185Y-117975233D01*
X140572989Y-117929478D01*
X140642147Y-117919534D01*
X140680762Y-117932536D01*
X140680807Y-117932433D01*
X140682092Y-117932984D01*
X140684686Y-117933858D01*
X140686587Y-117934913D01*
X140864137Y-118011106D01*
X141053394Y-118050000D01*
X141250000Y-118050000D01*
X141250000Y-117474000D01*
X141269685Y-117406961D01*
X141322489Y-117361206D01*
X141374000Y-117350000D01*
X141626000Y-117350000D01*
X141693039Y-117369685D01*
X141738794Y-117422489D01*
X141750000Y-117474000D01*
X141750000Y-118050000D01*
X141898176Y-118050000D01*
X142042221Y-118035352D01*
X142226561Y-117977515D01*
X142226571Y-117977510D01*
X142395498Y-117883748D01*
X142395505Y-117883743D01*
X142542105Y-117757892D01*
X142660368Y-117605109D01*
X142660370Y-117605105D01*
X142745457Y-117431643D01*
X142792858Y-117248571D01*
X142828718Y-117188606D01*
X142891305Y-117157547D01*
X142960748Y-117165256D01*
G37*
%TD.AperFunction*%
%TA.AperFunction,Conductor*%
G36*
X140705703Y-89063539D02*
G01*
X140712181Y-89069571D01*
X142111581Y-90468971D01*
X142145066Y-90530294D01*
X142147900Y-90556652D01*
X142147900Y-91706512D01*
X142128215Y-91773551D01*
X142116050Y-91789484D01*
X142040866Y-91872984D01*
X141946221Y-92036915D01*
X141946218Y-92036922D01*
X141887727Y-92216940D01*
X141887726Y-92216944D01*
X141867940Y-92405200D01*
X141887726Y-92593456D01*
X141887727Y-92593459D01*
X141946218Y-92773477D01*
X141946221Y-92773484D01*
X142040867Y-92937416D01*
X142135333Y-93042331D01*
X142167529Y-93078088D01*
X142320665Y-93189348D01*
X142320670Y-93189351D01*
X142493592Y-93266342D01*
X142493597Y-93266344D01*
X142678754Y-93305700D01*
X142678755Y-93305700D01*
X142868044Y-93305700D01*
X142868046Y-93305700D01*
X143053203Y-93266344D01*
X143226130Y-93189351D01*
X143379271Y-93078088D01*
X143462602Y-92985539D01*
X143522085Y-92948893D01*
X143591942Y-92950222D01*
X143646899Y-92985541D01*
X143730229Y-93078088D01*
X143883365Y-93189348D01*
X143883370Y-93189351D01*
X144056292Y-93266342D01*
X144056297Y-93266344D01*
X144241454Y-93305700D01*
X144241455Y-93305700D01*
X144430741Y-93305700D01*
X144430746Y-93305700D01*
X144436516Y-93304473D01*
X144506180Y-93309785D01*
X144561916Y-93351920D01*
X144586024Y-93417498D01*
X144586300Y-93425762D01*
X144586300Y-94025147D01*
X144566615Y-94092186D01*
X144549981Y-94112828D01*
X143384428Y-95278381D01*
X143323105Y-95311866D01*
X143296747Y-95314700D01*
X143237554Y-95314700D01*
X143205097Y-95321598D01*
X143052397Y-95354055D01*
X143052392Y-95354057D01*
X142879470Y-95431048D01*
X142879465Y-95431051D01*
X142726329Y-95542311D01*
X142599666Y-95682985D01*
X142505021Y-95846915D01*
X142505018Y-95846922D01*
X142446527Y-96026940D01*
X142446526Y-96026944D01*
X142426740Y-96215200D01*
X142446526Y-96403456D01*
X142446527Y-96403459D01*
X142505018Y-96583477D01*
X142505021Y-96583484D01*
X142599667Y-96747416D01*
X142608123Y-96756807D01*
X142726329Y-96888088D01*
X142879465Y-96999348D01*
X142879470Y-96999351D01*
X143052392Y-97076342D01*
X143052397Y-97076344D01*
X143237554Y-97115700D01*
X143237555Y-97115700D01*
X143426844Y-97115700D01*
X143426846Y-97115700D01*
X143612003Y-97076344D01*
X143784930Y-96999351D01*
X143938071Y-96888088D01*
X144064733Y-96747416D01*
X144159379Y-96583484D01*
X144217874Y-96403456D01*
X144235521Y-96235544D01*
X144262104Y-96170934D01*
X144271151Y-96160838D01*
X145361988Y-95070001D01*
X152596891Y-95070001D01*
X152617300Y-95355362D01*
X152678109Y-95634895D01*
X152778091Y-95902958D01*
X152915191Y-96154038D01*
X152915196Y-96154046D01*
X153021882Y-96296561D01*
X153021883Y-96296562D01*
X153527525Y-95790920D01*
X153588848Y-95757435D01*
X153658539Y-95762419D01*
X153706841Y-95795061D01*
X153823930Y-95923500D01*
X153823933Y-95923503D01*
X153868673Y-95957289D01*
X153910310Y-96013397D01*
X153915002Y-96083109D01*
X153881628Y-96143924D01*
X153375436Y-96650115D01*
X153517960Y-96756807D01*
X153517961Y-96756808D01*
X153769042Y-96893908D01*
X153769041Y-96893908D01*
X154037104Y-96993890D01*
X154316637Y-97054699D01*
X154601999Y-97075109D01*
X154602001Y-97075109D01*
X154887362Y-97054699D01*
X155166895Y-96993890D01*
X155434958Y-96893908D01*
X155686047Y-96756803D01*
X155828561Y-96650116D01*
X155828562Y-96650115D01*
X155322371Y-96143924D01*
X155288886Y-96082601D01*
X155293870Y-96012909D01*
X155335325Y-95957289D01*
X155380069Y-95923501D01*
X155497157Y-95795062D01*
X155556867Y-95758781D01*
X155626715Y-95760542D01*
X155676474Y-95790920D01*
X156182115Y-96296562D01*
X156182116Y-96296561D01*
X156288803Y-96154047D01*
X156425908Y-95902958D01*
X156525890Y-95634895D01*
X156586699Y-95355362D01*
X156607109Y-95070001D01*
X156607109Y-95069998D01*
X156586699Y-94784637D01*
X156525890Y-94505104D01*
X156425908Y-94237041D01*
X156288808Y-93985961D01*
X156288807Y-93985960D01*
X156182115Y-93843436D01*
X156182114Y-93843436D01*
X155676473Y-94349078D01*
X155615150Y-94382563D01*
X155545458Y-94377579D01*
X155497155Y-94344935D01*
X155380071Y-94216500D01*
X155335324Y-94182709D01*
X155293688Y-94126600D01*
X155288997Y-94056888D01*
X155322370Y-93996074D01*
X155828562Y-93489883D01*
X155828561Y-93489882D01*
X155686046Y-93383196D01*
X155686038Y-93383191D01*
X155434957Y-93246091D01*
X155434958Y-93246091D01*
X155166895Y-93146109D01*
X154887362Y-93085300D01*
X154602001Y-93064891D01*
X154601999Y-93064891D01*
X154316637Y-93085300D01*
X154037104Y-93146109D01*
X153769041Y-93246091D01*
X153517961Y-93383191D01*
X153517953Y-93383196D01*
X153375437Y-93489882D01*
X153375436Y-93489883D01*
X153881628Y-93996074D01*
X153915113Y-94057397D01*
X153910129Y-94127088D01*
X153868676Y-94182707D01*
X153823933Y-94216496D01*
X153706843Y-94344937D01*
X153647131Y-94381218D01*
X153577284Y-94379457D01*
X153527525Y-94349079D01*
X153021883Y-93843436D01*
X153021882Y-93843437D01*
X152915196Y-93985953D01*
X152915191Y-93985961D01*
X152778091Y-94237041D01*
X152678109Y-94505104D01*
X152617300Y-94784637D01*
X152596891Y-95069998D01*
X152596891Y-95070001D01*
X145361988Y-95070001D01*
X145595588Y-94836401D01*
X145607842Y-94826586D01*
X145607659Y-94826364D01*
X145613666Y-94821392D01*
X145613677Y-94821386D01*
X145644575Y-94788482D01*
X145661027Y-94770964D01*
X145671471Y-94760518D01*
X145681920Y-94750071D01*
X145686179Y-94744578D01*
X145689952Y-94740161D01*
X145721862Y-94706182D01*
X145731515Y-94688620D01*
X145742189Y-94672370D01*
X145754473Y-94656536D01*
X145772980Y-94613767D01*
X145775549Y-94608524D01*
X145797996Y-94567693D01*
X145797997Y-94567692D01*
X145802977Y-94548291D01*
X145809278Y-94529888D01*
X145817238Y-94511496D01*
X145824530Y-94465449D01*
X145825711Y-94459752D01*
X145837300Y-94414619D01*
X145837300Y-94394582D01*
X145838827Y-94375182D01*
X145841960Y-94355404D01*
X145837575Y-94309015D01*
X145837300Y-94303177D01*
X145837300Y-90886852D01*
X145856985Y-90819813D01*
X145873619Y-90799171D01*
X146510972Y-90161819D01*
X146572295Y-90128334D01*
X146598653Y-90125500D01*
X150677812Y-90125500D01*
X150744851Y-90145185D01*
X150779387Y-90178377D01*
X150891954Y-90339141D01*
X151052856Y-90500043D01*
X151054017Y-90501017D01*
X151054389Y-90501576D01*
X151056689Y-90503876D01*
X151056227Y-90504337D01*
X151092726Y-90559184D01*
X151093842Y-90629045D01*
X151057011Y-90688419D01*
X151017656Y-90712197D01*
X150899669Y-90756203D01*
X150899664Y-90756206D01*
X150784455Y-90842452D01*
X150784452Y-90842455D01*
X150698206Y-90957664D01*
X150698202Y-90957671D01*
X150647908Y-91092517D01*
X150641501Y-91152116D01*
X150641500Y-91152135D01*
X150641500Y-92847870D01*
X150641501Y-92847876D01*
X150647908Y-92907483D01*
X150698202Y-93042328D01*
X150698206Y-93042335D01*
X150784452Y-93157544D01*
X150784455Y-93157547D01*
X150899664Y-93243793D01*
X150899671Y-93243797D01*
X151034517Y-93294091D01*
X151034516Y-93294091D01*
X151041444Y-93294835D01*
X151094127Y-93300500D01*
X152689872Y-93300499D01*
X152749483Y-93294091D01*
X152884331Y-93243796D01*
X152999546Y-93157546D01*
X153085796Y-93042331D01*
X153136091Y-92907483D01*
X153136091Y-92907481D01*
X153137874Y-92899938D01*
X153140146Y-92900474D01*
X153162429Y-92846688D01*
X153219823Y-92806843D01*
X153258976Y-92800500D01*
X157495300Y-92800500D01*
X157562339Y-92820185D01*
X157608094Y-92872989D01*
X157619300Y-92924500D01*
X157619300Y-112049500D01*
X157599615Y-112116539D01*
X157546811Y-112162294D01*
X157495300Y-112173500D01*
X153342977Y-112173500D01*
X153275938Y-112153815D01*
X153230183Y-112101011D01*
X153222733Y-112073865D01*
X153221876Y-112074068D01*
X153220092Y-112066520D01*
X153169797Y-111931671D01*
X153169793Y-111931664D01*
X153083547Y-111816455D01*
X153083544Y-111816452D01*
X152968335Y-111730206D01*
X152968328Y-111730202D01*
X152850344Y-111686197D01*
X152794410Y-111644326D01*
X152769993Y-111578861D01*
X152784845Y-111510588D01*
X152811493Y-111478058D01*
X152811311Y-111477876D01*
X152813142Y-111476044D01*
X152813990Y-111475010D01*
X152815127Y-111474055D01*
X152815139Y-111474047D01*
X152976047Y-111313139D01*
X153106568Y-111126734D01*
X153202739Y-110920496D01*
X153261635Y-110700692D01*
X153281468Y-110474000D01*
X153261635Y-110247308D01*
X153202739Y-110027504D01*
X153106568Y-109821266D01*
X152976047Y-109634861D01*
X152902865Y-109561679D01*
X152869382Y-109500359D01*
X152874366Y-109430667D01*
X152902865Y-109386320D01*
X152976047Y-109313139D01*
X153106568Y-109126734D01*
X153202739Y-108920496D01*
X153261635Y-108700692D01*
X153281468Y-108474000D01*
X153261635Y-108247308D01*
X153202739Y-108027504D01*
X153106568Y-107821266D01*
X152976047Y-107634861D01*
X152976045Y-107634858D01*
X152815141Y-107473954D01*
X152628734Y-107343432D01*
X152628730Y-107343430D01*
X152613022Y-107336105D01*
X152560583Y-107289931D01*
X152541433Y-107222737D01*
X152561650Y-107155857D01*
X152613028Y-107111340D01*
X152628481Y-107104134D01*
X152701472Y-107053025D01*
X152216839Y-106568393D01*
X152183354Y-106507070D01*
X152188338Y-106437379D01*
X152230209Y-106381445D01*
X152234834Y-106378233D01*
X152235441Y-106377706D01*
X152235445Y-106377705D01*
X152338673Y-106288258D01*
X152374862Y-106231945D01*
X152427665Y-106186192D01*
X152496823Y-106176248D01*
X152560379Y-106205272D01*
X152566858Y-106211305D01*
X153055025Y-106699472D01*
X153106136Y-106626478D01*
X153202264Y-106420331D01*
X153202269Y-106420317D01*
X153261139Y-106200610D01*
X153261141Y-106200599D01*
X153280966Y-105974002D01*
X153280966Y-105973997D01*
X153261141Y-105747400D01*
X153261139Y-105747389D01*
X153202269Y-105527682D01*
X153202265Y-105527673D01*
X153106133Y-105321516D01*
X153106131Y-105321512D01*
X153055026Y-105248526D01*
X153055025Y-105248526D01*
X152566857Y-105736694D01*
X152505534Y-105770179D01*
X152435842Y-105765195D01*
X152379909Y-105723323D01*
X152374866Y-105716060D01*
X152338673Y-105659742D01*
X152235445Y-105570295D01*
X152235444Y-105570294D01*
X152228742Y-105564487D01*
X152230028Y-105563002D01*
X152191725Y-105518800D01*
X152181781Y-105449641D01*
X152210805Y-105386085D01*
X152216838Y-105379606D01*
X152701472Y-104894973D01*
X152628483Y-104843866D01*
X152628481Y-104843865D01*
X152422326Y-104747734D01*
X152422317Y-104747730D01*
X152202610Y-104688860D01*
X152202599Y-104688858D01*
X151976002Y-104669034D01*
X151975998Y-104669034D01*
X151749400Y-104688858D01*
X151749389Y-104688860D01*
X151529682Y-104747730D01*
X151529673Y-104747734D01*
X151323513Y-104843868D01*
X151250527Y-104894972D01*
X151250526Y-104894973D01*
X151735160Y-105379606D01*
X151768645Y-105440929D01*
X151763661Y-105510620D01*
X151721790Y-105566554D01*
X151717170Y-105569761D01*
X151613325Y-105659744D01*
X151577137Y-105716053D01*
X151524332Y-105761808D01*
X151455174Y-105771751D01*
X151391618Y-105742725D01*
X151385141Y-105736694D01*
X150896973Y-105248526D01*
X150845868Y-105321513D01*
X150749734Y-105527673D01*
X150749730Y-105527682D01*
X150690860Y-105747389D01*
X150690858Y-105747400D01*
X150671034Y-105973997D01*
X150671034Y-105974002D01*
X150690858Y-106200599D01*
X150690860Y-106200610D01*
X150749730Y-106420317D01*
X150749734Y-106420326D01*
X150845865Y-106626481D01*
X150845866Y-106626483D01*
X150896973Y-106699471D01*
X150896973Y-106699472D01*
X151385141Y-106211304D01*
X151446464Y-106177819D01*
X151516155Y-106182803D01*
X151572089Y-106224674D01*
X151577132Y-106231938D01*
X151613327Y-106288258D01*
X151716555Y-106377705D01*
X151723258Y-106383513D01*
X151721970Y-106384999D01*
X151760268Y-106429188D01*
X151770219Y-106498345D01*
X151741200Y-106561904D01*
X151735160Y-106568392D01*
X151250526Y-107053025D01*
X151250526Y-107053026D01*
X151323512Y-107104131D01*
X151323515Y-107104132D01*
X151338974Y-107111341D01*
X151391414Y-107157513D01*
X151410567Y-107224706D01*
X151390352Y-107291587D01*
X151338978Y-107336105D01*
X151323269Y-107343430D01*
X151323265Y-107343432D01*
X151136858Y-107473954D01*
X150975954Y-107634858D01*
X150863387Y-107795623D01*
X150808811Y-107839248D01*
X150761812Y-107848500D01*
X149003354Y-107848500D01*
X148936315Y-107828815D01*
X148911204Y-107807472D01*
X148891070Y-107785111D01*
X148737934Y-107673851D01*
X148737929Y-107673848D01*
X148565007Y-107596857D01*
X148565002Y-107596855D01*
X148419200Y-107565865D01*
X148379846Y-107557500D01*
X148190554Y-107557500D01*
X148158097Y-107564398D01*
X148005397Y-107596855D01*
X148005392Y-107596857D01*
X147874936Y-107654941D01*
X147805686Y-107664226D01*
X147742409Y-107634598D01*
X147705196Y-107575463D01*
X147700500Y-107541662D01*
X147700500Y-102904001D01*
X152680891Y-102904001D01*
X152701300Y-103189362D01*
X152762109Y-103468895D01*
X152862091Y-103736958D01*
X152999191Y-103988038D01*
X152999196Y-103988046D01*
X153105882Y-104130561D01*
X153105883Y-104130562D01*
X153611525Y-103624920D01*
X153672848Y-103591435D01*
X153742539Y-103596419D01*
X153790841Y-103629061D01*
X153907930Y-103757500D01*
X153907933Y-103757503D01*
X153952673Y-103791289D01*
X153994310Y-103847397D01*
X153999002Y-103917109D01*
X153965628Y-103977924D01*
X153459436Y-104484115D01*
X153601960Y-104590807D01*
X153601961Y-104590808D01*
X153853042Y-104727908D01*
X153853041Y-104727908D01*
X154121104Y-104827890D01*
X154400637Y-104888699D01*
X154685999Y-104909109D01*
X154686001Y-104909109D01*
X154971362Y-104888699D01*
X155250895Y-104827890D01*
X155518958Y-104727908D01*
X155770047Y-104590803D01*
X155912561Y-104484116D01*
X155912562Y-104484115D01*
X155406371Y-103977924D01*
X155372886Y-103916601D01*
X155377870Y-103846909D01*
X155419325Y-103791289D01*
X155464069Y-103757501D01*
X155581157Y-103629062D01*
X155640867Y-103592781D01*
X155710715Y-103594542D01*
X155760474Y-103624920D01*
X156266115Y-104130562D01*
X156266116Y-104130561D01*
X156372803Y-103988047D01*
X156509908Y-103736958D01*
X156609890Y-103468895D01*
X156670699Y-103189362D01*
X156691109Y-102904001D01*
X156691109Y-102903998D01*
X156670699Y-102618637D01*
X156609890Y-102339104D01*
X156509908Y-102071041D01*
X156372808Y-101819961D01*
X156372807Y-101819960D01*
X156266115Y-101677436D01*
X156266114Y-101677436D01*
X155760473Y-102183078D01*
X155699150Y-102216563D01*
X155629458Y-102211579D01*
X155581155Y-102178935D01*
X155464071Y-102050500D01*
X155419324Y-102016709D01*
X155377688Y-101960600D01*
X155372997Y-101890888D01*
X155406370Y-101830074D01*
X155912562Y-101323883D01*
X155912561Y-101323882D01*
X155770046Y-101217196D01*
X155770038Y-101217191D01*
X155518957Y-101080091D01*
X155518958Y-101080091D01*
X155250895Y-100980109D01*
X154971362Y-100919300D01*
X154686001Y-100898891D01*
X154685999Y-100898891D01*
X154400637Y-100919300D01*
X154121104Y-100980109D01*
X153853041Y-101080091D01*
X153601961Y-101217191D01*
X153601953Y-101217196D01*
X153459437Y-101323882D01*
X153459436Y-101323883D01*
X153965628Y-101830074D01*
X153999113Y-101891397D01*
X153994129Y-101961088D01*
X153952676Y-102016707D01*
X153907933Y-102050496D01*
X153790843Y-102178937D01*
X153731131Y-102215218D01*
X153661284Y-102213457D01*
X153611525Y-102183079D01*
X153105883Y-101677436D01*
X153105882Y-101677437D01*
X152999196Y-101819953D01*
X152999191Y-101819961D01*
X152862091Y-102071041D01*
X152762109Y-102339104D01*
X152701300Y-102618637D01*
X152680891Y-102903998D01*
X152680891Y-102904001D01*
X147700500Y-102904001D01*
X147700500Y-101739096D01*
X147720185Y-101672057D01*
X147736819Y-101651415D01*
X148548416Y-100839819D01*
X148609739Y-100806334D01*
X148636097Y-100803500D01*
X149133742Y-100803500D01*
X149200781Y-100823185D01*
X149225891Y-100844527D01*
X149254128Y-100875887D01*
X149254135Y-100875893D01*
X149407265Y-100987148D01*
X149407270Y-100987151D01*
X149580192Y-101064142D01*
X149580197Y-101064144D01*
X149765354Y-101103500D01*
X149765355Y-101103500D01*
X149954644Y-101103500D01*
X149954646Y-101103500D01*
X150139803Y-101064144D01*
X150312730Y-100987151D01*
X150465871Y-100875888D01*
X150592533Y-100735216D01*
X150687179Y-100571284D01*
X150745674Y-100391256D01*
X150765460Y-100203000D01*
X150745674Y-100014744D01*
X150687179Y-99834716D01*
X150592533Y-99670784D01*
X150465871Y-99530112D01*
X150462764Y-99527855D01*
X150388438Y-99473854D01*
X150345772Y-99418525D01*
X150339793Y-99348911D01*
X150353934Y-99311539D01*
X150433179Y-99174284D01*
X150491674Y-98994256D01*
X150511460Y-98806000D01*
X150491674Y-98617744D01*
X150433179Y-98437716D01*
X150338533Y-98273784D01*
X150263350Y-98190284D01*
X150233120Y-98127292D01*
X150231500Y-98107312D01*
X150231500Y-97218687D01*
X150251185Y-97151648D01*
X150263350Y-97135715D01*
X150281891Y-97115122D01*
X150338533Y-97052216D01*
X150433179Y-96888284D01*
X150491674Y-96708256D01*
X150511460Y-96520000D01*
X150491674Y-96331744D01*
X150433936Y-96154046D01*
X150433181Y-96151722D01*
X150433180Y-96151721D01*
X150433179Y-96151716D01*
X150338533Y-95987784D01*
X150211871Y-95847112D01*
X150211870Y-95847111D01*
X150058734Y-95735851D01*
X150058729Y-95735848D01*
X149885807Y-95658857D01*
X149885802Y-95658855D01*
X149740001Y-95627865D01*
X149700646Y-95619500D01*
X149511354Y-95619500D01*
X149478897Y-95626398D01*
X149326197Y-95658855D01*
X149326192Y-95658857D01*
X149153270Y-95735848D01*
X149153265Y-95735851D01*
X149000129Y-95847111D01*
X148873466Y-95987785D01*
X148778821Y-96151715D01*
X148778818Y-96151722D01*
X148731757Y-96296562D01*
X148720326Y-96331744D01*
X148700540Y-96520000D01*
X148720326Y-96708256D01*
X148720327Y-96708259D01*
X148778818Y-96888277D01*
X148778821Y-96888284D01*
X148873467Y-97052216D01*
X148916772Y-97100310D01*
X148948650Y-97135715D01*
X148978880Y-97198706D01*
X148980500Y-97218687D01*
X148980500Y-98107312D01*
X148960815Y-98174351D01*
X148948650Y-98190284D01*
X148873466Y-98273784D01*
X148778821Y-98437715D01*
X148778818Y-98437722D01*
X148720327Y-98617740D01*
X148720326Y-98617744D01*
X148700540Y-98806000D01*
X148720326Y-98994256D01*
X148720327Y-98994259D01*
X148778818Y-99174277D01*
X148778821Y-99174284D01*
X148873467Y-99338216D01*
X148883097Y-99348911D01*
X148925071Y-99395528D01*
X148955301Y-99458519D01*
X148946676Y-99527855D01*
X148901934Y-99581520D01*
X148835282Y-99602478D01*
X148832921Y-99602500D01*
X148379428Y-99602500D01*
X148371329Y-99601969D01*
X148336000Y-99597318D01*
X148296639Y-99602500D01*
X148179239Y-99617955D01*
X148179237Y-99617956D01*
X148033157Y-99678464D01*
X147907719Y-99774716D01*
X147886019Y-99802994D01*
X147880668Y-99809096D01*
X146836180Y-100853583D01*
X146774857Y-100887068D01*
X146705165Y-100882084D01*
X146660818Y-100853583D01*
X146075730Y-100268495D01*
X146042245Y-100207172D01*
X146040090Y-100193775D01*
X146021274Y-100014744D01*
X145962779Y-99834716D01*
X145868133Y-99670784D01*
X145741471Y-99530112D01*
X145741470Y-99530111D01*
X145588334Y-99418851D01*
X145588329Y-99418848D01*
X145415407Y-99341857D01*
X145415402Y-99341855D01*
X145269600Y-99310865D01*
X145230246Y-99302500D01*
X145040954Y-99302500D01*
X145008497Y-99309398D01*
X144855797Y-99341855D01*
X144855792Y-99341857D01*
X144682870Y-99418848D01*
X144682865Y-99418851D01*
X144529729Y-99530111D01*
X144403066Y-99670785D01*
X144308421Y-99834715D01*
X144308418Y-99834722D01*
X144262931Y-99974718D01*
X144223493Y-100032394D01*
X144159135Y-100059592D01*
X144090288Y-100047677D01*
X144038813Y-100000433D01*
X144027069Y-99974718D01*
X143981581Y-99834722D01*
X143981580Y-99834721D01*
X143981579Y-99834716D01*
X143886933Y-99670784D01*
X143760271Y-99530112D01*
X143760270Y-99530111D01*
X143607134Y-99418851D01*
X143607129Y-99418848D01*
X143434207Y-99341857D01*
X143434202Y-99341855D01*
X143288401Y-99310865D01*
X143249046Y-99302500D01*
X143059754Y-99302500D01*
X143027297Y-99309398D01*
X142874597Y-99341855D01*
X142874592Y-99341857D01*
X142701670Y-99418848D01*
X142701665Y-99418851D01*
X142548529Y-99530111D01*
X142421866Y-99670785D01*
X142327221Y-99834715D01*
X142327218Y-99834722D01*
X142281731Y-99974718D01*
X142268726Y-100014744D01*
X142251977Y-100174101D01*
X142249910Y-100193775D01*
X142248940Y-100203000D01*
X142268726Y-100391256D01*
X142268727Y-100391259D01*
X142327218Y-100571277D01*
X142327221Y-100571284D01*
X142421867Y-100735216D01*
X142548529Y-100875887D01*
X142548529Y-100875888D01*
X142701665Y-100987148D01*
X142701670Y-100987151D01*
X142874592Y-101064142D01*
X142874593Y-101064142D01*
X142874597Y-101064144D01*
X143056812Y-101102874D01*
X143118293Y-101136066D01*
X143152070Y-101197229D01*
X143147418Y-101266943D01*
X143105814Y-101323076D01*
X143103918Y-101324481D01*
X143056528Y-101358912D01*
X142929866Y-101499585D01*
X142835221Y-101663515D01*
X142835218Y-101663522D01*
X142776727Y-101843540D01*
X142776726Y-101843544D01*
X142756940Y-102031800D01*
X142776726Y-102220056D01*
X142776727Y-102220059D01*
X142835218Y-102400077D01*
X142835221Y-102400084D01*
X142929867Y-102564016D01*
X142951408Y-102587939D01*
X143005050Y-102647515D01*
X143035280Y-102710506D01*
X143036900Y-102730487D01*
X143036900Y-116945758D01*
X143017215Y-117012797D01*
X142964411Y-117058552D01*
X142895253Y-117068496D01*
X142831697Y-117039471D01*
X142793923Y-116980693D01*
X142790330Y-116964534D01*
X142774417Y-116860660D01*
X142774414Y-116860647D01*
X142707314Y-116679472D01*
X142707312Y-116679468D01*
X142605107Y-116515496D01*
X142471997Y-116375465D01*
X142471996Y-116375464D01*
X142313413Y-116265086D01*
X142135862Y-116188893D01*
X141946606Y-116150000D01*
X141750000Y-116150000D01*
X141750000Y-116726000D01*
X141730315Y-116793039D01*
X141677511Y-116838794D01*
X141626000Y-116850000D01*
X141374000Y-116850000D01*
X141306961Y-116830315D01*
X141261206Y-116777511D01*
X141250000Y-116726000D01*
X141250000Y-116150000D01*
X141101824Y-116150000D01*
X140957778Y-116164647D01*
X140773438Y-116222484D01*
X140773423Y-116222491D01*
X140684677Y-116271749D01*
X140616508Y-116287072D01*
X140550877Y-116263108D01*
X140508620Y-116207465D01*
X140500500Y-116163330D01*
X140500500Y-89157252D01*
X140520185Y-89090213D01*
X140572989Y-89044458D01*
X140642147Y-89034514D01*
X140705703Y-89063539D01*
G37*
%TD.AperFunction*%
%TA.AperFunction,Conductor*%
G36*
X150718851Y-69209185D02*
G01*
X150753387Y-69242377D01*
X150865954Y-69403141D01*
X151026856Y-69564043D01*
X151028017Y-69565017D01*
X151028389Y-69565576D01*
X151030689Y-69567876D01*
X151030227Y-69568337D01*
X151066726Y-69623184D01*
X151067842Y-69693045D01*
X151031011Y-69752419D01*
X150991656Y-69776197D01*
X150873669Y-69820203D01*
X150873664Y-69820206D01*
X150758455Y-69906452D01*
X150758452Y-69906455D01*
X150672206Y-70021664D01*
X150672202Y-70021671D01*
X150621908Y-70156517D01*
X150615501Y-70216116D01*
X150615500Y-70216135D01*
X150615500Y-71911870D01*
X150615501Y-71911876D01*
X150621908Y-71971483D01*
X150672202Y-72106328D01*
X150672206Y-72106335D01*
X150758452Y-72221544D01*
X150758455Y-72221547D01*
X150873664Y-72307793D01*
X150873673Y-72307798D01*
X150984832Y-72349257D01*
X151040766Y-72391127D01*
X151065184Y-72456592D01*
X151065500Y-72465439D01*
X151065500Y-80025576D01*
X151045815Y-80092615D01*
X151014387Y-80125893D01*
X150981329Y-80149912D01*
X150981328Y-80149913D01*
X150981324Y-80149916D01*
X150981323Y-80149916D01*
X150854666Y-80290585D01*
X150760021Y-80454515D01*
X150760018Y-80454522D01*
X150701639Y-80634196D01*
X150701526Y-80634544D01*
X150681740Y-80822800D01*
X150701526Y-81011056D01*
X150701527Y-81011059D01*
X150760018Y-81191077D01*
X150760021Y-81191084D01*
X150854667Y-81355016D01*
X150899432Y-81404732D01*
X150981329Y-81495688D01*
X151134465Y-81606948D01*
X151134470Y-81606951D01*
X151307392Y-81683942D01*
X151307397Y-81683944D01*
X151492554Y-81723300D01*
X151492555Y-81723300D01*
X151681844Y-81723300D01*
X151681846Y-81723300D01*
X151867003Y-81683944D01*
X152039930Y-81606951D01*
X152193071Y-81495688D01*
X152319733Y-81355016D01*
X152414379Y-81191084D01*
X152435687Y-81125502D01*
X152465939Y-81076138D01*
X152495809Y-81046270D01*
X152495812Y-81046265D01*
X152495816Y-81046262D01*
X152518038Y-81010895D01*
X152522051Y-81005239D01*
X152548092Y-80972586D01*
X152566213Y-80934955D01*
X152569570Y-80928881D01*
X152591789Y-80893522D01*
X152605581Y-80854107D01*
X152608244Y-80847679D01*
X152620225Y-80822800D01*
X152626360Y-80810061D01*
X152635658Y-80769321D01*
X152637571Y-80762680D01*
X152651368Y-80723255D01*
X152656043Y-80681760D01*
X152657208Y-80674905D01*
X152666420Y-80634544D01*
X152666500Y-80634194D01*
X152666500Y-80453806D01*
X152666500Y-75293118D01*
X152686185Y-75226079D01*
X152738989Y-75180324D01*
X152808147Y-75170380D01*
X152871703Y-75199405D01*
X152889767Y-75218808D01*
X152995882Y-75360561D01*
X152995883Y-75360562D01*
X153501525Y-74854920D01*
X153562848Y-74821435D01*
X153632539Y-74826419D01*
X153680841Y-74859061D01*
X153797930Y-74987500D01*
X153797933Y-74987503D01*
X153842673Y-75021289D01*
X153884310Y-75077397D01*
X153889002Y-75147109D01*
X153855628Y-75207924D01*
X153349436Y-75714115D01*
X153491960Y-75820807D01*
X153491961Y-75820808D01*
X153743042Y-75957908D01*
X153743041Y-75957908D01*
X154011104Y-76057890D01*
X154290637Y-76118699D01*
X154575999Y-76139109D01*
X154576001Y-76139109D01*
X154861362Y-76118699D01*
X155140895Y-76057890D01*
X155408958Y-75957908D01*
X155660047Y-75820803D01*
X155802561Y-75714116D01*
X155802562Y-75714115D01*
X155296371Y-75207924D01*
X155262886Y-75146601D01*
X155267870Y-75076909D01*
X155309325Y-75021289D01*
X155354069Y-74987501D01*
X155471157Y-74859062D01*
X155530867Y-74822781D01*
X155600715Y-74824542D01*
X155650474Y-74854920D01*
X156156115Y-75360562D01*
X156156116Y-75360561D01*
X156262803Y-75218047D01*
X156399908Y-74966958D01*
X156499890Y-74698895D01*
X156560699Y-74419362D01*
X156581109Y-74134001D01*
X156581109Y-74133998D01*
X156560699Y-73848637D01*
X156499890Y-73569104D01*
X156399908Y-73301041D01*
X156262808Y-73049961D01*
X156262807Y-73049960D01*
X156156115Y-72907436D01*
X156156114Y-72907436D01*
X155650473Y-73413078D01*
X155589150Y-73446563D01*
X155519458Y-73441579D01*
X155471155Y-73408935D01*
X155354071Y-73280500D01*
X155309324Y-73246709D01*
X155267688Y-73190600D01*
X155262997Y-73120888D01*
X155296370Y-73060074D01*
X155802562Y-72553883D01*
X155802561Y-72553882D01*
X155660046Y-72447196D01*
X155660038Y-72447191D01*
X155408957Y-72310091D01*
X155408958Y-72310091D01*
X155140895Y-72210109D01*
X154861362Y-72149300D01*
X154576001Y-72128891D01*
X154575999Y-72128891D01*
X154290637Y-72149300D01*
X154011104Y-72210109D01*
X153743041Y-72310091D01*
X153491961Y-72447191D01*
X153491953Y-72447196D01*
X153349437Y-72553882D01*
X153349436Y-72553883D01*
X153855628Y-73060074D01*
X153889113Y-73121397D01*
X153884129Y-73191088D01*
X153842676Y-73246707D01*
X153797933Y-73280496D01*
X153680843Y-73408937D01*
X153621131Y-73445218D01*
X153551284Y-73443457D01*
X153501525Y-73413079D01*
X152995883Y-72907436D01*
X152995882Y-72907437D01*
X152889767Y-73049191D01*
X152833834Y-73091063D01*
X152764142Y-73096047D01*
X152702819Y-73062562D01*
X152669334Y-73001239D01*
X152666500Y-72974881D01*
X152666500Y-72465439D01*
X152686185Y-72398400D01*
X152738989Y-72352645D01*
X152747168Y-72349257D01*
X152858326Y-72307798D01*
X152858326Y-72307797D01*
X152858331Y-72307796D01*
X152973546Y-72221546D01*
X153059796Y-72106331D01*
X153110091Y-71971483D01*
X153110091Y-71971481D01*
X153111874Y-71963938D01*
X153114146Y-71964474D01*
X153136429Y-71910688D01*
X153193823Y-71870843D01*
X153232976Y-71864500D01*
X156660060Y-71864500D01*
X156727099Y-71884185D01*
X156747741Y-71900819D01*
X157582981Y-72736059D01*
X157616466Y-72797382D01*
X157619300Y-72823740D01*
X157619300Y-91075500D01*
X157599615Y-91142539D01*
X157546811Y-91188294D01*
X157495300Y-91199500D01*
X153258977Y-91199500D01*
X153191938Y-91179815D01*
X153146183Y-91127011D01*
X153138733Y-91099865D01*
X153137876Y-91100068D01*
X153136092Y-91092520D01*
X153085797Y-90957671D01*
X153085793Y-90957664D01*
X152999547Y-90842455D01*
X152999544Y-90842452D01*
X152884335Y-90756206D01*
X152884328Y-90756202D01*
X152766344Y-90712197D01*
X152710410Y-90670326D01*
X152685993Y-90604861D01*
X152700845Y-90536588D01*
X152727493Y-90504058D01*
X152727311Y-90503876D01*
X152729142Y-90502044D01*
X152729990Y-90501010D01*
X152731127Y-90500055D01*
X152731139Y-90500047D01*
X152892047Y-90339139D01*
X153022568Y-90152734D01*
X153118739Y-89946496D01*
X153177635Y-89726692D01*
X153197468Y-89500000D01*
X153196865Y-89493113D01*
X153177635Y-89273313D01*
X153177635Y-89273308D01*
X153118739Y-89053504D01*
X153022568Y-88847266D01*
X152892047Y-88660861D01*
X152818865Y-88587679D01*
X152785382Y-88526359D01*
X152790366Y-88456667D01*
X152818865Y-88412320D01*
X152892047Y-88339139D01*
X153022568Y-88152734D01*
X153118739Y-87946496D01*
X153177635Y-87726692D01*
X153197468Y-87500000D01*
X153177635Y-87273308D01*
X153118739Y-87053504D01*
X153022568Y-86847266D01*
X152892047Y-86660861D01*
X152892045Y-86660858D01*
X152731141Y-86499954D01*
X152544734Y-86369432D01*
X152544730Y-86369430D01*
X152529022Y-86362105D01*
X152476583Y-86315931D01*
X152457433Y-86248737D01*
X152477650Y-86181857D01*
X152529028Y-86137340D01*
X152544481Y-86130134D01*
X152617472Y-86079025D01*
X152132839Y-85594393D01*
X152099354Y-85533070D01*
X152104338Y-85463379D01*
X152146209Y-85407445D01*
X152150834Y-85404233D01*
X152151441Y-85403706D01*
X152151445Y-85403705D01*
X152254673Y-85314258D01*
X152290862Y-85257945D01*
X152343665Y-85212192D01*
X152412823Y-85202248D01*
X152476379Y-85231272D01*
X152482858Y-85237305D01*
X152971025Y-85725472D01*
X153022136Y-85652478D01*
X153118264Y-85446331D01*
X153118269Y-85446317D01*
X153177139Y-85226610D01*
X153177141Y-85226599D01*
X153196966Y-85000002D01*
X153196966Y-84999997D01*
X153177141Y-84773400D01*
X153177139Y-84773389D01*
X153118269Y-84553682D01*
X153118265Y-84553673D01*
X153022133Y-84347516D01*
X153022131Y-84347512D01*
X152971026Y-84274526D01*
X152971025Y-84274526D01*
X152482857Y-84762694D01*
X152421534Y-84796179D01*
X152351842Y-84791195D01*
X152295909Y-84749323D01*
X152290866Y-84742060D01*
X152254673Y-84685742D01*
X152151445Y-84596295D01*
X152151444Y-84596294D01*
X152144742Y-84590487D01*
X152146028Y-84589002D01*
X152107725Y-84544800D01*
X152097781Y-84475641D01*
X152126805Y-84412085D01*
X152132838Y-84405606D01*
X152617472Y-83920973D01*
X152544483Y-83869866D01*
X152544481Y-83869865D01*
X152338326Y-83773734D01*
X152338317Y-83773730D01*
X152118610Y-83714860D01*
X152118599Y-83714858D01*
X151892002Y-83695034D01*
X151891998Y-83695034D01*
X151665400Y-83714858D01*
X151665389Y-83714860D01*
X151445682Y-83773730D01*
X151445673Y-83773734D01*
X151239513Y-83869868D01*
X151166527Y-83920972D01*
X151166526Y-83920973D01*
X151651160Y-84405606D01*
X151684645Y-84466929D01*
X151679661Y-84536620D01*
X151637790Y-84592554D01*
X151633170Y-84595761D01*
X151529325Y-84685744D01*
X151493137Y-84742053D01*
X151440332Y-84787808D01*
X151371174Y-84797751D01*
X151307618Y-84768725D01*
X151301141Y-84762694D01*
X150812973Y-84274526D01*
X150761868Y-84347513D01*
X150665734Y-84553673D01*
X150665730Y-84553682D01*
X150606860Y-84773389D01*
X150606858Y-84773400D01*
X150587034Y-84999997D01*
X150587034Y-85000002D01*
X150606858Y-85226599D01*
X150606860Y-85226610D01*
X150665730Y-85446317D01*
X150665734Y-85446326D01*
X150761865Y-85652481D01*
X150761866Y-85652483D01*
X150812973Y-85725471D01*
X150812973Y-85725472D01*
X151301141Y-85237304D01*
X151362464Y-85203819D01*
X151432155Y-85208803D01*
X151488089Y-85250674D01*
X151493132Y-85257938D01*
X151529327Y-85314258D01*
X151632555Y-85403705D01*
X151639258Y-85409513D01*
X151637970Y-85410999D01*
X151676268Y-85455188D01*
X151686219Y-85524345D01*
X151657200Y-85587904D01*
X151651160Y-85594392D01*
X151166526Y-86079025D01*
X151166526Y-86079026D01*
X151239512Y-86130131D01*
X151239515Y-86130132D01*
X151254974Y-86137341D01*
X151307414Y-86183513D01*
X151326567Y-86250706D01*
X151306352Y-86317587D01*
X151254978Y-86362105D01*
X151239269Y-86369430D01*
X151239265Y-86369432D01*
X151052858Y-86499954D01*
X150891954Y-86660858D01*
X150779387Y-86821623D01*
X150724811Y-86865248D01*
X150677812Y-86874500D01*
X146897743Y-86874500D01*
X146882122Y-86872775D01*
X146882095Y-86873061D01*
X146874333Y-86872326D01*
X146805172Y-86874500D01*
X146775649Y-86874500D01*
X146768778Y-86875367D01*
X146762959Y-86875825D01*
X146716374Y-86877289D01*
X146716368Y-86877290D01*
X146697126Y-86882880D01*
X146678087Y-86886823D01*
X146658217Y-86889334D01*
X146658203Y-86889337D01*
X146614883Y-86906488D01*
X146609358Y-86908380D01*
X146564613Y-86921380D01*
X146564610Y-86921381D01*
X146547366Y-86931579D01*
X146529905Y-86940133D01*
X146511274Y-86947510D01*
X146511262Y-86947517D01*
X146473570Y-86974902D01*
X146468687Y-86978109D01*
X146428580Y-87001829D01*
X146414414Y-87015995D01*
X146399624Y-87028627D01*
X146383414Y-87040404D01*
X146383411Y-87040407D01*
X146353710Y-87076309D01*
X146349777Y-87080631D01*
X145392137Y-88038271D01*
X143952308Y-89478099D01*
X143940051Y-89487920D01*
X143940234Y-89488141D01*
X143934223Y-89493113D01*
X143886872Y-89543536D01*
X143865989Y-89564419D01*
X143865977Y-89564432D01*
X143861721Y-89569917D01*
X143857937Y-89574347D01*
X143826037Y-89608318D01*
X143826036Y-89608320D01*
X143816384Y-89625876D01*
X143805710Y-89642126D01*
X143793429Y-89657961D01*
X143793424Y-89657968D01*
X143774915Y-89700738D01*
X143772345Y-89705984D01*
X143749903Y-89746806D01*
X143744922Y-89766207D01*
X143738621Y-89784610D01*
X143730662Y-89803002D01*
X143730661Y-89803005D01*
X143723371Y-89849027D01*
X143722187Y-89854746D01*
X143710601Y-89899872D01*
X143710600Y-89899882D01*
X143710600Y-89919916D01*
X143709073Y-89939315D01*
X143705940Y-89959094D01*
X143705940Y-89959095D01*
X143710325Y-90005483D01*
X143710600Y-90011321D01*
X143710600Y-91706512D01*
X143690915Y-91773551D01*
X143678750Y-91789484D01*
X143646900Y-91824857D01*
X143587413Y-91861506D01*
X143517556Y-91860175D01*
X143462600Y-91824857D01*
X143430750Y-91789484D01*
X143400520Y-91726493D01*
X143398900Y-91706512D01*
X143398900Y-90328942D01*
X143400624Y-90313322D01*
X143400339Y-90313295D01*
X143401073Y-90305533D01*
X143398900Y-90236372D01*
X143398900Y-90206856D01*
X143398900Y-90206850D01*
X143398031Y-90199979D01*
X143397573Y-90194152D01*
X143396110Y-90147573D01*
X143390519Y-90128330D01*
X143386573Y-90109278D01*
X143384064Y-90089408D01*
X143366904Y-90046067D01*
X143365024Y-90040579D01*
X143352018Y-89995810D01*
X143341822Y-89978570D01*
X143333261Y-89961094D01*
X143325887Y-89942470D01*
X143323595Y-89939315D01*
X143298479Y-89904745D01*
X143295288Y-89899886D01*
X143295285Y-89899881D01*
X143271570Y-89859780D01*
X143271568Y-89859778D01*
X143271565Y-89859774D01*
X143257406Y-89845615D01*
X143244768Y-89830819D01*
X143232994Y-89814613D01*
X143218962Y-89803005D01*
X143197088Y-89784909D01*
X143192776Y-89780986D01*
X141708019Y-88296228D01*
X141674534Y-88234905D01*
X141671700Y-88208547D01*
X141671700Y-82995300D01*
X141691385Y-82928261D01*
X141744189Y-82882506D01*
X141813347Y-82872562D01*
X141866541Y-82893528D01*
X141874195Y-82898856D01*
X142061092Y-82979059D01*
X142260310Y-83020000D01*
X142412000Y-83020000D01*
X142412000Y-82444000D01*
X142431685Y-82376961D01*
X142484489Y-82331206D01*
X142536000Y-82320000D01*
X142788000Y-82320000D01*
X142855039Y-82339685D01*
X142900794Y-82392489D01*
X142912000Y-82444000D01*
X142912000Y-83020000D01*
X143012713Y-83020000D01*
X143164338Y-83004581D01*
X143358381Y-82943700D01*
X143358391Y-82943695D01*
X143536215Y-82844994D01*
X143536216Y-82844994D01*
X143690530Y-82712521D01*
X143690531Y-82712520D01*
X143815018Y-82551695D01*
X143904588Y-82369093D01*
X143930246Y-82270000D01*
X145318634Y-82270000D01*
X145318931Y-82271946D01*
X145318933Y-82271952D01*
X145389562Y-82462657D01*
X145389565Y-82462664D01*
X145497149Y-82635267D01*
X145637264Y-82782668D01*
X145637266Y-82782669D01*
X145804195Y-82898856D01*
X145991092Y-82979059D01*
X146190310Y-83020000D01*
X146592000Y-83020000D01*
X146592000Y-82444000D01*
X146611685Y-82376961D01*
X146664489Y-82331206D01*
X146716000Y-82320000D01*
X146968000Y-82320000D01*
X147035039Y-82339685D01*
X147080794Y-82392489D01*
X147092000Y-82444000D01*
X147092000Y-83020000D01*
X147442713Y-83020000D01*
X147594338Y-83004581D01*
X147788381Y-82943700D01*
X147788391Y-82943695D01*
X147966215Y-82844994D01*
X147966216Y-82844994D01*
X148120530Y-82712521D01*
X148120531Y-82712520D01*
X148245018Y-82551695D01*
X148334588Y-82369093D01*
X148360246Y-82270000D01*
X147796979Y-82270000D01*
X147729940Y-82250315D01*
X147684185Y-82197511D01*
X147674241Y-82128353D01*
X147677713Y-82112066D01*
X147695894Y-82048162D01*
X147695895Y-82048160D01*
X147685546Y-81936482D01*
X147685546Y-81936479D01*
X147685544Y-81936475D01*
X147683702Y-81930001D01*
X152596891Y-81930001D01*
X152617300Y-82215362D01*
X152678109Y-82494895D01*
X152778091Y-82762958D01*
X152915191Y-83014038D01*
X152915196Y-83014046D01*
X153021882Y-83156561D01*
X153021883Y-83156562D01*
X153527525Y-82650920D01*
X153588848Y-82617435D01*
X153658539Y-82622419D01*
X153706841Y-82655061D01*
X153823172Y-82782668D01*
X153823933Y-82783503D01*
X153868673Y-82817289D01*
X153910310Y-82873397D01*
X153915002Y-82943109D01*
X153881628Y-83003924D01*
X153375436Y-83510115D01*
X153517960Y-83616807D01*
X153517961Y-83616808D01*
X153769042Y-83753908D01*
X153769041Y-83753908D01*
X154037104Y-83853890D01*
X154316637Y-83914699D01*
X154601999Y-83935109D01*
X154602001Y-83935109D01*
X154887362Y-83914699D01*
X155166895Y-83853890D01*
X155434958Y-83753908D01*
X155686047Y-83616803D01*
X155828561Y-83510116D01*
X155828562Y-83510115D01*
X155322371Y-83003924D01*
X155288886Y-82942601D01*
X155293870Y-82872909D01*
X155335325Y-82817289D01*
X155380069Y-82783501D01*
X155380828Y-82782669D01*
X155497156Y-82655063D01*
X155556867Y-82618781D01*
X155626715Y-82620542D01*
X155676474Y-82650920D01*
X156182115Y-83156562D01*
X156182116Y-83156561D01*
X156288803Y-83014047D01*
X156425908Y-82762958D01*
X156525890Y-82494895D01*
X156586699Y-82215362D01*
X156607109Y-81930001D01*
X156607109Y-81929998D01*
X156586699Y-81644637D01*
X156525890Y-81365104D01*
X156425908Y-81097041D01*
X156288808Y-80845961D01*
X156288807Y-80845960D01*
X156182115Y-80703436D01*
X156182114Y-80703436D01*
X155676473Y-81209078D01*
X155615150Y-81242563D01*
X155545458Y-81237579D01*
X155497155Y-81204935D01*
X155380071Y-81076500D01*
X155335324Y-81042709D01*
X155293688Y-80986600D01*
X155288997Y-80916888D01*
X155322370Y-80856074D01*
X155828562Y-80349883D01*
X155828561Y-80349882D01*
X155686046Y-80243196D01*
X155686038Y-80243191D01*
X155434957Y-80106091D01*
X155434958Y-80106091D01*
X155166895Y-80006109D01*
X154887362Y-79945300D01*
X154602001Y-79924891D01*
X154601999Y-79924891D01*
X154316637Y-79945300D01*
X154037104Y-80006109D01*
X153769041Y-80106091D01*
X153517961Y-80243191D01*
X153517953Y-80243196D01*
X153375437Y-80349882D01*
X153375436Y-80349883D01*
X153881628Y-80856074D01*
X153915113Y-80917397D01*
X153910129Y-80987088D01*
X153868676Y-81042707D01*
X153823933Y-81076496D01*
X153706843Y-81204937D01*
X153647131Y-81241218D01*
X153577284Y-81239457D01*
X153527525Y-81209079D01*
X153021883Y-80703436D01*
X153021882Y-80703437D01*
X152915196Y-80845953D01*
X152915191Y-80845961D01*
X152778091Y-81097041D01*
X152678109Y-81365104D01*
X152617300Y-81644637D01*
X152596891Y-81929998D01*
X152596891Y-81930001D01*
X147683702Y-81930001D01*
X147683115Y-81927937D01*
X147683701Y-81858070D01*
X147721966Y-81799610D01*
X147785763Y-81771119D01*
X147802381Y-81770000D01*
X148365366Y-81770000D01*
X148365068Y-81768053D01*
X148365066Y-81768047D01*
X148294437Y-81577342D01*
X148294434Y-81577335D01*
X148186850Y-81404732D01*
X148046735Y-81257331D01*
X148046733Y-81257330D01*
X147879804Y-81141143D01*
X147692907Y-81060940D01*
X147493690Y-81020000D01*
X146942384Y-81020000D01*
X146875345Y-81000315D01*
X146829590Y-80947511D01*
X146819646Y-80878353D01*
X146827823Y-80848547D01*
X146856216Y-80780000D01*
X146872687Y-80740236D01*
X146892466Y-80590000D01*
X146872687Y-80439764D01*
X146814698Y-80299767D01*
X146722451Y-80179549D01*
X146602233Y-80087302D01*
X146602229Y-80087300D01*
X146538801Y-80061027D01*
X146462236Y-80029313D01*
X146448171Y-80027461D01*
X146349727Y-80014500D01*
X146349720Y-80014500D01*
X146274280Y-80014500D01*
X146274272Y-80014500D01*
X146161764Y-80029313D01*
X146161763Y-80029313D01*
X146021770Y-80087300D01*
X146021767Y-80087301D01*
X146021767Y-80087302D01*
X145901549Y-80179549D01*
X145816349Y-80290584D01*
X145809300Y-80299770D01*
X145751313Y-80439763D01*
X145751312Y-80439765D01*
X145731534Y-80589999D01*
X145731534Y-80590000D01*
X145751312Y-80740234D01*
X145751313Y-80740236D01*
X145809300Y-80880230D01*
X145809302Y-80880234D01*
X145837819Y-80917397D01*
X145860926Y-80947511D01*
X145863799Y-80951254D01*
X145888994Y-81016423D01*
X145874956Y-81084868D01*
X145826143Y-81134858D01*
X145825603Y-81135159D01*
X145717788Y-81195002D01*
X145717783Y-81195005D01*
X145563469Y-81327478D01*
X145563468Y-81327479D01*
X145438981Y-81488304D01*
X145349411Y-81670906D01*
X145323754Y-81770000D01*
X145887021Y-81770000D01*
X145954060Y-81789685D01*
X145999815Y-81842489D01*
X146009759Y-81911647D01*
X146006287Y-81927934D01*
X145988105Y-81991837D01*
X145988104Y-81991837D01*
X145998453Y-82103517D01*
X146000885Y-82112063D01*
X146000299Y-82181930D01*
X145962034Y-82240390D01*
X145898237Y-82268881D01*
X145881619Y-82270000D01*
X145318634Y-82270000D01*
X143930246Y-82270000D01*
X143366979Y-82270000D01*
X143299940Y-82250315D01*
X143254185Y-82197511D01*
X143244241Y-82128353D01*
X143247713Y-82112066D01*
X143265894Y-82048162D01*
X143265895Y-82048160D01*
X143255546Y-81936482D01*
X143255546Y-81936479D01*
X143255544Y-81936475D01*
X143253115Y-81927937D01*
X143253701Y-81858070D01*
X143291966Y-81799610D01*
X143355763Y-81771119D01*
X143372381Y-81770000D01*
X143935366Y-81770000D01*
X143935068Y-81768053D01*
X143935066Y-81768047D01*
X143864437Y-81577342D01*
X143864434Y-81577335D01*
X143756850Y-81404732D01*
X143616735Y-81257331D01*
X143616733Y-81257330D01*
X143449804Y-81141143D01*
X143262907Y-81060940D01*
X143063690Y-81020000D01*
X142912000Y-81020000D01*
X142912000Y-81596000D01*
X142892315Y-81663039D01*
X142839511Y-81708794D01*
X142788000Y-81720000D01*
X142536000Y-81720000D01*
X142468961Y-81700315D01*
X142423206Y-81647511D01*
X142412000Y-81596000D01*
X142412000Y-81020000D01*
X142311287Y-81020000D01*
X142159661Y-81035418D01*
X141965618Y-81096299D01*
X141965603Y-81096306D01*
X141855877Y-81157209D01*
X141787708Y-81172532D01*
X141722077Y-81148568D01*
X141679820Y-81092925D01*
X141671700Y-81048790D01*
X141671700Y-74355300D01*
X141691385Y-74288261D01*
X141744189Y-74242506D01*
X141813347Y-74232562D01*
X141866541Y-74253528D01*
X141874195Y-74258856D01*
X142061092Y-74339059D01*
X142260310Y-74380000D01*
X142412000Y-74380000D01*
X142412000Y-73804000D01*
X142431685Y-73736961D01*
X142484489Y-73691206D01*
X142536000Y-73680000D01*
X142788000Y-73680000D01*
X142855039Y-73699685D01*
X142900794Y-73752489D01*
X142912000Y-73804000D01*
X142912000Y-74380000D01*
X143012713Y-74380000D01*
X143164338Y-74364581D01*
X143358381Y-74303700D01*
X143358391Y-74303695D01*
X143536215Y-74204994D01*
X143536216Y-74204994D01*
X143690530Y-74072521D01*
X143690531Y-74072520D01*
X143815018Y-73911695D01*
X143904588Y-73729093D01*
X143930246Y-73630000D01*
X145318634Y-73630000D01*
X145318931Y-73631946D01*
X145318933Y-73631952D01*
X145389562Y-73822657D01*
X145389565Y-73822664D01*
X145497149Y-73995267D01*
X145637264Y-74142668D01*
X145637266Y-74142669D01*
X145804197Y-74258857D01*
X145812071Y-74262236D01*
X145865917Y-74306760D01*
X145887142Y-74373328D01*
X145869009Y-74440804D01*
X145861551Y-74451674D01*
X145809302Y-74519766D01*
X145809300Y-74519769D01*
X145751313Y-74659763D01*
X145751312Y-74659765D01*
X145731534Y-74809999D01*
X145731534Y-74810000D01*
X145751312Y-74960234D01*
X145751313Y-74960236D01*
X145809302Y-75100233D01*
X145901549Y-75220451D01*
X146021767Y-75312698D01*
X146161764Y-75370687D01*
X146274280Y-75385500D01*
X146274287Y-75385500D01*
X146349713Y-75385500D01*
X146349720Y-75385500D01*
X146462236Y-75370687D01*
X146602233Y-75312698D01*
X146722451Y-75220451D01*
X146814698Y-75100233D01*
X146872687Y-74960236D01*
X146892466Y-74810000D01*
X146872687Y-74659764D01*
X146827823Y-74551453D01*
X146820354Y-74481983D01*
X146851629Y-74419504D01*
X146911718Y-74383852D01*
X146942384Y-74380000D01*
X147442713Y-74380000D01*
X147594338Y-74364581D01*
X147788381Y-74303700D01*
X147788391Y-74303695D01*
X147966215Y-74204994D01*
X147966216Y-74204994D01*
X148120530Y-74072521D01*
X148120531Y-74072520D01*
X148245018Y-73911695D01*
X148334588Y-73729093D01*
X148360246Y-73630000D01*
X147796979Y-73630000D01*
X147729940Y-73610315D01*
X147684185Y-73557511D01*
X147674241Y-73488353D01*
X147677713Y-73472066D01*
X147694495Y-73413079D01*
X147695895Y-73408160D01*
X147685546Y-73296479D01*
X147685544Y-73296475D01*
X147683115Y-73287937D01*
X147683701Y-73218070D01*
X147721966Y-73159610D01*
X147785763Y-73131119D01*
X147802381Y-73130000D01*
X148365366Y-73130000D01*
X148365068Y-73128053D01*
X148365066Y-73128047D01*
X148294437Y-72937342D01*
X148294434Y-72937335D01*
X148186850Y-72764732D01*
X148046735Y-72617331D01*
X148046733Y-72617330D01*
X147879804Y-72501143D01*
X147692907Y-72420940D01*
X147493690Y-72380000D01*
X147092000Y-72380000D01*
X147092000Y-72956000D01*
X147072315Y-73023039D01*
X147019511Y-73068794D01*
X146968000Y-73080000D01*
X146716000Y-73080000D01*
X146648961Y-73060315D01*
X146603206Y-73007511D01*
X146592000Y-72956000D01*
X146592000Y-72380000D01*
X146241287Y-72380000D01*
X146089661Y-72395418D01*
X145895618Y-72456299D01*
X145895608Y-72456304D01*
X145717784Y-72555005D01*
X145717783Y-72555005D01*
X145563469Y-72687478D01*
X145563468Y-72687479D01*
X145438981Y-72848304D01*
X145349411Y-73030906D01*
X145323754Y-73130000D01*
X145887021Y-73130000D01*
X145954060Y-73149685D01*
X145999815Y-73202489D01*
X146009759Y-73271647D01*
X146006287Y-73287934D01*
X145988105Y-73351837D01*
X145988104Y-73351837D01*
X145998453Y-73463517D01*
X146000885Y-73472063D01*
X146000299Y-73541930D01*
X145962034Y-73600390D01*
X145898237Y-73628881D01*
X145881619Y-73630000D01*
X145318634Y-73630000D01*
X143930246Y-73630000D01*
X143366979Y-73630000D01*
X143299940Y-73610315D01*
X143254185Y-73557511D01*
X143244241Y-73488353D01*
X143247713Y-73472066D01*
X143264495Y-73413079D01*
X143265895Y-73408160D01*
X143255546Y-73296479D01*
X143255544Y-73296475D01*
X143253115Y-73287937D01*
X143253701Y-73218070D01*
X143291966Y-73159610D01*
X143355763Y-73131119D01*
X143372381Y-73130000D01*
X143935366Y-73130000D01*
X143935068Y-73128053D01*
X143935066Y-73128047D01*
X143864437Y-72937342D01*
X143864434Y-72937335D01*
X143756850Y-72764732D01*
X143616735Y-72617331D01*
X143616733Y-72617330D01*
X143449804Y-72501143D01*
X143262907Y-72420940D01*
X143063690Y-72380000D01*
X142912000Y-72380000D01*
X142912000Y-72956000D01*
X142892315Y-73023039D01*
X142839511Y-73068794D01*
X142788000Y-73080000D01*
X142536000Y-73080000D01*
X142468961Y-73060315D01*
X142423206Y-73007511D01*
X142412000Y-72956000D01*
X142412000Y-72380000D01*
X142311287Y-72380000D01*
X142159661Y-72395418D01*
X141965618Y-72456299D01*
X141965603Y-72456306D01*
X141855877Y-72517209D01*
X141787708Y-72532532D01*
X141722077Y-72508568D01*
X141679820Y-72452925D01*
X141671700Y-72408790D01*
X141671700Y-71278052D01*
X141691385Y-71211013D01*
X141708019Y-71190371D01*
X143672571Y-69225819D01*
X143733894Y-69192334D01*
X143760252Y-69189500D01*
X150651812Y-69189500D01*
X150718851Y-69209185D01*
G37*
%TD.AperFunction*%
%TD*%
M02*
