%TF.GenerationSoftware,KiCad,Pcbnew,7.0.7*%
%TF.CreationDate,2024-02-11T16:58:00-05:00*%
%TF.ProjectId,HS8836A_USB_hub,48533838-3336-4415-9f55-53425f687562,rev?*%
%TF.SameCoordinates,Original*%
%TF.FileFunction,Soldermask,Top*%
%TF.FilePolarity,Negative*%
%FSLAX46Y46*%
G04 Gerber Fmt 4.6, Leading zero omitted, Abs format (unit mm)*
G04 Created by KiCad (PCBNEW 7.0.7) date 2024-02-11 16:58:00*
%MOMM*%
%LPD*%
G01*
G04 APERTURE LIST*
G04 Aperture macros list*
%AMRoundRect*
0 Rectangle with rounded corners*
0 $1 Rounding radius*
0 $2 $3 $4 $5 $6 $7 $8 $9 X,Y pos of 4 corners*
0 Add a 4 corners polygon primitive as box body*
4,1,4,$2,$3,$4,$5,$6,$7,$8,$9,$2,$3,0*
0 Add four circle primitives for the rounded corners*
1,1,$1+$1,$2,$3*
1,1,$1+$1,$4,$5*
1,1,$1+$1,$6,$7*
1,1,$1+$1,$8,$9*
0 Add four rect primitives between the rounded corners*
20,1,$1+$1,$2,$3,$4,$5,0*
20,1,$1+$1,$4,$5,$6,$7,0*
20,1,$1+$1,$6,$7,$8,$9,0*
20,1,$1+$1,$8,$9,$2,$3,0*%
G04 Aperture macros list end*
%ADD10R,1.500000X1.600000*%
%ADD11C,1.600000*%
%ADD12C,3.000000*%
%ADD13RoundRect,0.350000X-0.950000X0.350000X-0.950000X-0.350000X0.950000X-0.350000X0.950000X0.350000X0*%
%ADD14C,1.400000*%
%ADD15C,1.000000*%
%ADD16RoundRect,0.162500X0.750000X0.162500X-0.750000X0.162500X-0.750000X-0.162500X0.750000X-0.162500X0*%
%ADD17RoundRect,0.237500X0.250000X0.237500X-0.250000X0.237500X-0.250000X-0.237500X0.250000X-0.237500X0*%
%ADD18RoundRect,0.237500X-0.250000X-0.237500X0.250000X-0.237500X0.250000X0.237500X-0.250000X0.237500X0*%
%ADD19RoundRect,0.250000X0.375000X0.625000X-0.375000X0.625000X-0.375000X-0.625000X0.375000X-0.625000X0*%
%ADD20RoundRect,0.237500X0.300000X0.237500X-0.300000X0.237500X-0.300000X-0.237500X0.300000X-0.237500X0*%
G04 APERTURE END LIST*
D10*
%TO.C,J4*%
X145840000Y-76300000D03*
D11*
X145840000Y-78800000D03*
X145840000Y-80800000D03*
X145840000Y-83300000D03*
D12*
X148550000Y-86370000D03*
X148550000Y-73230000D03*
%TD*%
D13*
%TO.C,Jr1*%
X136800000Y-144850000D03*
X136800000Y-133150000D03*
D14*
X138800000Y-135500000D03*
X138800000Y-138000000D03*
X138800000Y-140000000D03*
X138800000Y-142500000D03*
D15*
X136800000Y-141250000D03*
X136800000Y-136750000D03*
%TD*%
D16*
%TO.C,U1*%
X155887500Y-142245000D03*
X155887500Y-140975000D03*
X155887500Y-139705000D03*
X155887500Y-138435000D03*
X155887500Y-137165000D03*
X155887500Y-135895000D03*
X155887500Y-134625000D03*
X155887500Y-133355000D03*
X149712500Y-133355000D03*
X149712500Y-134625000D03*
X149712500Y-135895000D03*
X149712500Y-137165000D03*
X149712500Y-138435000D03*
X149712500Y-139705000D03*
X149712500Y-140975000D03*
X149712500Y-142245000D03*
%TD*%
D17*
%TO.C,R3*%
X150000000Y-145700000D03*
X148175000Y-145700000D03*
%TD*%
D18*
%TO.C,R2*%
X144650000Y-133075000D03*
X146475000Y-133075000D03*
%TD*%
%TO.C,R1*%
X144650000Y-137825000D03*
X146475000Y-137825000D03*
%TD*%
D12*
%TO.C,J5*%
X148550000Y-52230000D03*
X148550000Y-65370000D03*
D11*
X145840000Y-62300000D03*
X145840000Y-59800000D03*
X145840000Y-57800000D03*
D10*
X145840000Y-55300000D03*
%TD*%
%TO.C,J3*%
X145840000Y-97300000D03*
D11*
X145840000Y-99800000D03*
X145840000Y-101800000D03*
X145840000Y-104300000D03*
D12*
X148550000Y-107370000D03*
X148550000Y-94230000D03*
%TD*%
%TO.C,J2*%
X148550000Y-115230000D03*
X148550000Y-128370000D03*
D11*
X145840000Y-125300000D03*
X145840000Y-122800000D03*
X145840000Y-120800000D03*
D10*
X145840000Y-118300000D03*
%TD*%
D19*
%TO.C,D1*%
X145900000Y-145700000D03*
X143100000Y-145700000D03*
%TD*%
D20*
%TO.C,C3*%
X146425000Y-135450000D03*
X144700000Y-135450000D03*
%TD*%
%TO.C,C2*%
X146425000Y-140200000D03*
X144700000Y-140200000D03*
%TD*%
%TO.C,C1*%
X146425000Y-142575000D03*
X144700000Y-142575000D03*
%TD*%
M02*
