%TF.GenerationSoftware,KiCad,Pcbnew,7.0.7*%
%TF.CreationDate,2024-02-11T16:58:00-05:00*%
%TF.ProjectId,HS8836A_USB_hub,48533838-3336-4415-9f55-53425f687562,rev?*%
%TF.SameCoordinates,Original*%
%TF.FileFunction,Copper,L1,Top*%
%TF.FilePolarity,Positive*%
%FSLAX46Y46*%
G04 Gerber Fmt 4.6, Leading zero omitted, Abs format (unit mm)*
G04 Created by KiCad (PCBNEW 7.0.7) date 2024-02-11 16:58:00*
%MOMM*%
%LPD*%
G01*
G04 APERTURE LIST*
G04 Aperture macros list*
%AMRoundRect*
0 Rectangle with rounded corners*
0 $1 Rounding radius*
0 $2 $3 $4 $5 $6 $7 $8 $9 X,Y pos of 4 corners*
0 Add a 4 corners polygon primitive as box body*
4,1,4,$2,$3,$4,$5,$6,$7,$8,$9,$2,$3,0*
0 Add four circle primitives for the rounded corners*
1,1,$1+$1,$2,$3*
1,1,$1+$1,$4,$5*
1,1,$1+$1,$6,$7*
1,1,$1+$1,$8,$9*
0 Add four rect primitives between the rounded corners*
20,1,$1+$1,$2,$3,$4,$5,0*
20,1,$1+$1,$4,$5,$6,$7,0*
20,1,$1+$1,$6,$7,$8,$9,0*
20,1,$1+$1,$8,$9,$2,$3,0*%
G04 Aperture macros list end*
%TA.AperFunction,ComponentPad*%
%ADD10R,1.500000X1.600000*%
%TD*%
%TA.AperFunction,ComponentPad*%
%ADD11C,1.600000*%
%TD*%
%TA.AperFunction,ComponentPad*%
%ADD12C,3.000000*%
%TD*%
%TA.AperFunction,ComponentPad*%
%ADD13RoundRect,0.350000X-0.950000X0.350000X-0.950000X-0.350000X0.950000X-0.350000X0.950000X0.350000X0*%
%TD*%
%TA.AperFunction,ComponentPad*%
%ADD14C,1.400000*%
%TD*%
%TA.AperFunction,SMDPad,CuDef*%
%ADD15RoundRect,0.162500X0.750000X0.162500X-0.750000X0.162500X-0.750000X-0.162500X0.750000X-0.162500X0*%
%TD*%
%TA.AperFunction,SMDPad,CuDef*%
%ADD16RoundRect,0.237500X0.250000X0.237500X-0.250000X0.237500X-0.250000X-0.237500X0.250000X-0.237500X0*%
%TD*%
%TA.AperFunction,SMDPad,CuDef*%
%ADD17RoundRect,0.237500X-0.250000X-0.237500X0.250000X-0.237500X0.250000X0.237500X-0.250000X0.237500X0*%
%TD*%
%TA.AperFunction,SMDPad,CuDef*%
%ADD18RoundRect,0.250000X0.375000X0.625000X-0.375000X0.625000X-0.375000X-0.625000X0.375000X-0.625000X0*%
%TD*%
%TA.AperFunction,SMDPad,CuDef*%
%ADD19RoundRect,0.237500X0.300000X0.237500X-0.300000X0.237500X-0.300000X-0.237500X0.300000X-0.237500X0*%
%TD*%
%TA.AperFunction,ViaPad*%
%ADD20C,0.800000*%
%TD*%
%TA.AperFunction,Conductor*%
%ADD21C,0.600000*%
%TD*%
%TA.AperFunction,Conductor*%
%ADD22C,0.250000*%
%TD*%
G04 APERTURE END LIST*
D10*
%TO.P,J4,1,VBUS*%
%TO.N,VCC*%
X145840000Y-76300000D03*
D11*
%TO.P,J4,2,D-*%
%TO.N,Net-(J4-D-)*%
X145840000Y-78800000D03*
%TO.P,J4,3,D+*%
%TO.N,Net-(J4-D+)*%
X145840000Y-80800000D03*
%TO.P,J4,4,GND*%
%TO.N,GND*%
X145840000Y-83300000D03*
D12*
%TO.P,J4,5,Shield*%
X148550000Y-86370000D03*
X148550000Y-73230000D03*
%TD*%
D13*
%TO.P,Jr1,5,Shield*%
%TO.N,GND*%
X136800000Y-144850000D03*
X136800000Y-133150000D03*
D14*
%TO.P,Jr1,4,GND*%
X138800000Y-135500000D03*
%TO.P,Jr1,3,D+*%
%TO.N,Net-(Jr1-D+)*%
X138800000Y-138000000D03*
%TO.P,Jr1,2,D-*%
%TO.N,Net-(Jr1-D-)*%
X138800000Y-140000000D03*
%TO.P,Jr1,1,VBUS*%
%TO.N,VCC*%
X138800000Y-142500000D03*
%TD*%
D15*
%TO.P,U1,1,DM1*%
%TO.N,Net-(J5-D-)*%
X155887500Y-142245000D03*
%TO.P,U1,2,DP1*%
%TO.N,Net-(J5-D+)*%
X155887500Y-140975000D03*
%TO.P,U1,3,DM2*%
%TO.N,Net-(J4-D-)*%
X155887500Y-139705000D03*
%TO.P,U1,4,DP2*%
%TO.N,Net-(J4-D+)*%
X155887500Y-138435000D03*
%TO.P,U1,5,DM3*%
%TO.N,Net-(J3-D-)*%
X155887500Y-137165000D03*
%TO.P,U1,6,DP3*%
%TO.N,Net-(J3-D+)*%
X155887500Y-135895000D03*
%TO.P,U1,7,DM4*%
%TO.N,Net-(J2-D-)*%
X155887500Y-134625000D03*
%TO.P,U1,8,DP4*%
%TO.N,Net-(J2-D+)*%
X155887500Y-133355000D03*
%TO.P,U1,9,REF*%
%TO.N,Net-(U1-REF)*%
X149712500Y-133355000D03*
%TO.P,U1,10,UM*%
%TO.N,Net-(Jr1-D-)*%
X149712500Y-134625000D03*
%TO.P,U1,11,UP*%
%TO.N,Net-(Jr1-D+)*%
X149712500Y-135895000D03*
%TO.P,U1,12,DCP*%
%TO.N,Net-(U1-DCP)*%
X149712500Y-137165000D03*
%TO.P,U1,13,VCC*%
%TO.N,Net-(U1-VCC)*%
X149712500Y-138435000D03*
%TO.P,U1,14,V33*%
%TO.N,Net-(U1-DCP)*%
X149712500Y-139705000D03*
%TO.P,U1,15,NC*%
%TO.N,unconnected-(U1-NC-Pad15)*%
X149712500Y-140975000D03*
%TO.P,U1,16,GND*%
%TO.N,GND*%
X149712500Y-142245000D03*
%TD*%
D16*
%TO.P,R3,1*%
%TO.N,GND*%
X150000000Y-145700000D03*
%TO.P,R3,2*%
%TO.N,Net-(D1-K)*%
X148175000Y-145700000D03*
%TD*%
D17*
%TO.P,R2,1*%
%TO.N,GND*%
X144650000Y-133075000D03*
%TO.P,R2,2*%
%TO.N,Net-(U1-REF)*%
X146475000Y-133075000D03*
%TD*%
%TO.P,R1,1*%
%TO.N,VCC*%
X144650000Y-137825000D03*
%TO.P,R1,2*%
%TO.N,Net-(U1-VCC)*%
X146475000Y-137825000D03*
%TD*%
D12*
%TO.P,J5,5,Shield*%
%TO.N,GND*%
X148550000Y-52230000D03*
X148550000Y-65370000D03*
D11*
%TO.P,J5,4,GND*%
X145840000Y-62300000D03*
%TO.P,J5,3,D+*%
%TO.N,Net-(J5-D+)*%
X145840000Y-59800000D03*
%TO.P,J5,2,D-*%
%TO.N,Net-(J5-D-)*%
X145840000Y-57800000D03*
D10*
%TO.P,J5,1,VBUS*%
%TO.N,VCC*%
X145840000Y-55300000D03*
%TD*%
%TO.P,J3,1,VBUS*%
%TO.N,VCC*%
X145840000Y-97300000D03*
D11*
%TO.P,J3,2,D-*%
%TO.N,Net-(J3-D-)*%
X145840000Y-99800000D03*
%TO.P,J3,3,D+*%
%TO.N,Net-(J3-D+)*%
X145840000Y-101800000D03*
%TO.P,J3,4,GND*%
%TO.N,GND*%
X145840000Y-104300000D03*
D12*
%TO.P,J3,5,Shield*%
X148550000Y-107370000D03*
X148550000Y-94230000D03*
%TD*%
%TO.P,J2,5,Shield*%
%TO.N,GND*%
X148550000Y-115230000D03*
X148550000Y-128370000D03*
D11*
%TO.P,J2,4,GND*%
X145840000Y-125300000D03*
%TO.P,J2,3,D+*%
%TO.N,Net-(J2-D+)*%
X145840000Y-122800000D03*
%TO.P,J2,2,D-*%
%TO.N,Net-(J2-D-)*%
X145840000Y-120800000D03*
D10*
%TO.P,J2,1,VBUS*%
%TO.N,VCC*%
X145840000Y-118300000D03*
%TD*%
D18*
%TO.P,D1,1,K*%
%TO.N,Net-(D1-K)*%
X145900000Y-145700000D03*
%TO.P,D1,2,A*%
%TO.N,VCC*%
X143100000Y-145700000D03*
%TD*%
D19*
%TO.P,C3,1*%
%TO.N,Net-(U1-DCP)*%
X146425000Y-135450000D03*
%TO.P,C3,2*%
%TO.N,GND*%
X144700000Y-135450000D03*
%TD*%
%TO.P,C2,1*%
%TO.N,Net-(U1-VCC)*%
X146425000Y-140200000D03*
%TO.P,C2,2*%
%TO.N,GND*%
X144700000Y-140200000D03*
%TD*%
%TO.P,C1,1*%
%TO.N,Net-(U1-DCP)*%
X146425000Y-142575000D03*
%TO.P,C1,2*%
%TO.N,GND*%
X144700000Y-142575000D03*
%TD*%
D20*
%TO.N,GND*%
X156100000Y-145700000D03*
X152600000Y-145700000D03*
%TO.N,VCC*%
X143000000Y-138400000D03*
%TO.N,Net-(Jr1-D-)*%
X142000000Y-140000000D03*
X148000000Y-133900000D03*
%TO.N,Net-(U1-DCP)*%
X147900000Y-135100000D03*
X148000000Y-137400000D03*
%TD*%
D21*
%TO.N,VCC*%
X141900000Y-142500000D02*
X138800000Y-142500000D01*
X141000000Y-145700000D02*
X143100000Y-145700000D01*
X138800000Y-143500000D02*
X141000000Y-145700000D01*
X138800000Y-142500000D02*
X138800000Y-143500000D01*
D22*
%TO.N,Net-(Jr1-D-)*%
X138800000Y-140000000D02*
X142000000Y-140000000D01*
%TO.N,Net-(Jr1-D+)*%
X141500000Y-138000000D02*
X138800000Y-138000000D01*
X147400000Y-136600000D02*
X142900000Y-136600000D01*
X148105000Y-135895000D02*
X147400000Y-136600000D01*
X142900000Y-136600000D02*
X141500000Y-138000000D01*
X149712500Y-135895000D02*
X148105000Y-135895000D01*
%TO.N,Net-(J5-D+)*%
X155000000Y-63300000D02*
X151500000Y-59800000D01*
X158400000Y-129490812D02*
X155000000Y-126090812D01*
X158400000Y-139700000D02*
X158400000Y-129490812D01*
X151500000Y-59800000D02*
X145840000Y-59800000D01*
X157100000Y-141000000D02*
X158400000Y-139700000D01*
X155000000Y-126090812D02*
X155000000Y-63300000D01*
X157075000Y-140975000D02*
X157100000Y-141000000D01*
X155887500Y-140975000D02*
X157075000Y-140975000D01*
%TO.N,Net-(J4-D+)*%
X150300000Y-80800000D02*
X145840000Y-80800000D01*
X154550000Y-126277208D02*
X154550000Y-85050000D01*
X157950000Y-129677208D02*
X154550000Y-126277208D01*
X157065000Y-138435000D02*
X157950000Y-137550000D01*
X155887500Y-138435000D02*
X157065000Y-138435000D01*
X157950000Y-137550000D02*
X157950000Y-129677208D01*
X154550000Y-85050000D02*
X150300000Y-80800000D01*
%TO.N,Net-(J3-D+)*%
X157500000Y-129863604D02*
X157500000Y-130100000D01*
X154100000Y-104800000D02*
X154100000Y-126463604D01*
X145840000Y-101800000D02*
X151100000Y-101800000D01*
X157500000Y-130100000D02*
X157500000Y-135500000D01*
X154100000Y-126463604D02*
X157500000Y-129863604D01*
X151100000Y-101800000D02*
X154100000Y-104800000D01*
%TO.N,Net-(J2-D+)*%
X149800000Y-122800000D02*
X155100000Y-128100000D01*
X145840000Y-122800000D02*
X149800000Y-122800000D01*
X155100000Y-132567500D02*
X155100000Y-128100000D01*
%TO.N,Net-(J5-D-)*%
X143500000Y-57800000D02*
X145840000Y-57800000D01*
X141850000Y-59450000D02*
X143500000Y-57800000D01*
X141850000Y-129422792D02*
X141850000Y-59450000D01*
X144627208Y-132200000D02*
X141850000Y-129422792D01*
X152290812Y-132200000D02*
X144627208Y-132200000D01*
X152950000Y-132859188D02*
X152290812Y-132200000D01*
X152950000Y-140840000D02*
X152950000Y-132859188D01*
X154355000Y-142245000D02*
X152950000Y-140840000D01*
X155887500Y-142245000D02*
X154355000Y-142245000D01*
%TO.N,Net-(J4-D-)*%
X143700000Y-78800000D02*
X145840000Y-78800000D01*
X142300000Y-129236396D02*
X142300000Y-80200000D01*
X144813604Y-131750000D02*
X142300000Y-129236396D01*
X142300000Y-80200000D02*
X143700000Y-78800000D01*
X153400000Y-132672792D02*
X152477208Y-131750000D01*
X153400000Y-138400000D02*
X153400000Y-132672792D01*
X154705000Y-139705000D02*
X153400000Y-138400000D01*
X152477208Y-131750000D02*
X144813604Y-131750000D01*
X155887500Y-139705000D02*
X154705000Y-139705000D01*
%TO.N,Net-(J3-D-)*%
X144000000Y-99800000D02*
X145840000Y-99800000D01*
X142750000Y-101050000D02*
X144000000Y-99800000D01*
X142750000Y-129050000D02*
X142750000Y-101050000D01*
X153850000Y-132486396D02*
X152663604Y-131300000D01*
X153850000Y-136350000D02*
X153850000Y-132486396D01*
X145000000Y-131300000D02*
X142750000Y-129050000D01*
X152663604Y-131300000D02*
X145000000Y-131300000D01*
X154665000Y-137165000D02*
X153850000Y-136350000D01*
X155887500Y-137165000D02*
X154665000Y-137165000D01*
%TO.N,Net-(J2-D-)*%
X144100000Y-120800000D02*
X145840000Y-120800000D01*
X154300000Y-132300000D02*
X152800000Y-130800000D01*
X154300000Y-134000000D02*
X154300000Y-132300000D01*
X145200000Y-130800000D02*
X143200000Y-128800000D01*
X143200000Y-128800000D02*
X143200000Y-121700000D01*
X154925000Y-134625000D02*
X154300000Y-134000000D01*
X152800000Y-130800000D02*
X145200000Y-130800000D01*
X155887500Y-134625000D02*
X154925000Y-134625000D01*
X143200000Y-121700000D02*
X144100000Y-120800000D01*
%TO.N,Net-(J3-D+)*%
X157500000Y-135500000D02*
X157105000Y-135895000D01*
X157105000Y-135895000D02*
X155887500Y-135895000D01*
%TO.N,Net-(U1-DCP)*%
X148595000Y-139705000D02*
X149712500Y-139705000D01*
X147800000Y-140500000D02*
X148595000Y-139705000D01*
X147800000Y-141900000D02*
X147800000Y-140500000D01*
X147125000Y-142575000D02*
X147800000Y-141900000D01*
X146425000Y-142575000D02*
X147125000Y-142575000D01*
%TO.N,Net-(D1-K)*%
X145900000Y-145700000D02*
X148175000Y-145700000D01*
%TO.N,Net-(J2-D+)*%
X155887500Y-133355000D02*
X155100000Y-132567500D01*
D21*
%TO.N,VCC*%
X143000000Y-141400000D02*
X141900000Y-142500000D01*
X143000000Y-138400000D02*
X143000000Y-141400000D01*
X143575000Y-137825000D02*
X143000000Y-138400000D01*
X144650000Y-137825000D02*
X143575000Y-137825000D01*
D22*
%TO.N,Net-(Jr1-D-)*%
X149100000Y-134600000D02*
X148700000Y-134600000D01*
X148700000Y-134600000D02*
X148000000Y-133900000D01*
X149687500Y-134600000D02*
X149100000Y-134600000D01*
%TO.N,Net-(U1-DCP)*%
X147550000Y-135450000D02*
X147900000Y-135100000D01*
X146425000Y-135450000D02*
X147550000Y-135450000D01*
X148235000Y-137165000D02*
X148000000Y-137400000D01*
X149712500Y-137165000D02*
X148235000Y-137165000D01*
%TO.N,Net-(Jr1-D-)*%
X149687500Y-134600000D02*
X149712500Y-134625000D01*
%TO.N,Net-(U1-REF)*%
X149432500Y-133075000D02*
X149712500Y-133355000D01*
X146475000Y-133075000D02*
X149432500Y-133075000D01*
%TO.N,Net-(U1-DCP)*%
X151200000Y-139400000D02*
X150895000Y-139705000D01*
X150895000Y-139705000D02*
X149712500Y-139705000D01*
X150865000Y-137165000D02*
X151200000Y-137500000D01*
X149712500Y-137165000D02*
X150865000Y-137165000D01*
X151200000Y-137500000D02*
X151200000Y-139400000D01*
%TO.N,Net-(U1-VCC)*%
X149712500Y-138435000D02*
X146690000Y-138435000D01*
X146425000Y-138700000D02*
X146425000Y-137875000D01*
X146690000Y-138435000D02*
X146425000Y-138700000D01*
X146425000Y-140200000D02*
X146425000Y-138700000D01*
X146425000Y-137875000D02*
X146475000Y-137825000D01*
%TD*%
%TA.AperFunction,Conductor*%
%TO.N,GND*%
G36*
X158642539Y-48820185D02*
G01*
X158688294Y-48872989D01*
X158699500Y-48924500D01*
X158699499Y-128606358D01*
X158679814Y-128673397D01*
X158627010Y-128719152D01*
X158557852Y-128729096D01*
X158494296Y-128700071D01*
X158487818Y-128694039D01*
X155661819Y-125868040D01*
X155628334Y-125806717D01*
X155625500Y-125780359D01*
X155625500Y-63382737D01*
X155627224Y-63367123D01*
X155626938Y-63367096D01*
X155627672Y-63359333D01*
X155625500Y-63290202D01*
X155625500Y-63260651D01*
X155625500Y-63260650D01*
X155624629Y-63253759D01*
X155624172Y-63247945D01*
X155622709Y-63201374D01*
X155622709Y-63201372D01*
X155617120Y-63182137D01*
X155613174Y-63163084D01*
X155610664Y-63143208D01*
X155593501Y-63099859D01*
X155591614Y-63094346D01*
X155578617Y-63049610D01*
X155578616Y-63049608D01*
X155568421Y-63032369D01*
X155559860Y-63014893D01*
X155552486Y-62996269D01*
X155552486Y-62996267D01*
X155542474Y-62982488D01*
X155525083Y-62958550D01*
X155521900Y-62953705D01*
X155498170Y-62913579D01*
X155498165Y-62913573D01*
X155484005Y-62899413D01*
X155471370Y-62884620D01*
X155459593Y-62868412D01*
X155423693Y-62838713D01*
X155419381Y-62834790D01*
X152000803Y-59416211D01*
X151990980Y-59403950D01*
X151990759Y-59404134D01*
X151985786Y-59398123D01*
X151956884Y-59370982D01*
X151935364Y-59350773D01*
X151924919Y-59340328D01*
X151914475Y-59329883D01*
X151908986Y-59325625D01*
X151904561Y-59321847D01*
X151870582Y-59289938D01*
X151870580Y-59289936D01*
X151870577Y-59289935D01*
X151853029Y-59280288D01*
X151836763Y-59269604D01*
X151820933Y-59257325D01*
X151778168Y-59238818D01*
X151772922Y-59236248D01*
X151732093Y-59213803D01*
X151732092Y-59213802D01*
X151712693Y-59208822D01*
X151694281Y-59202518D01*
X151675898Y-59194562D01*
X151675892Y-59194560D01*
X151629874Y-59187272D01*
X151624152Y-59186087D01*
X151579021Y-59174500D01*
X151579019Y-59174500D01*
X151558984Y-59174500D01*
X151539586Y-59172973D01*
X151532162Y-59171797D01*
X151519805Y-59169840D01*
X151519804Y-59169840D01*
X151473416Y-59174225D01*
X151467578Y-59174500D01*
X147054188Y-59174500D01*
X146987149Y-59154815D01*
X146952613Y-59121623D01*
X146840048Y-58960862D01*
X146828385Y-58949199D01*
X146766865Y-58887679D01*
X146733382Y-58826359D01*
X146738366Y-58756667D01*
X146766865Y-58712320D01*
X146840047Y-58639139D01*
X146970568Y-58452734D01*
X147066739Y-58246496D01*
X147125635Y-58026692D01*
X147145468Y-57800000D01*
X147125635Y-57573308D01*
X147066739Y-57353504D01*
X146970568Y-57147266D01*
X146840047Y-56960861D01*
X146840045Y-56960858D01*
X146679147Y-56799960D01*
X146677980Y-56798981D01*
X146677606Y-56798419D01*
X146675311Y-56796124D01*
X146675772Y-56795662D01*
X146639272Y-56740813D01*
X146638158Y-56670952D01*
X146674989Y-56611579D01*
X146714345Y-56587802D01*
X146832326Y-56543798D01*
X146832326Y-56543797D01*
X146832331Y-56543796D01*
X146947546Y-56457546D01*
X147033796Y-56342331D01*
X147084091Y-56207483D01*
X147090500Y-56147873D01*
X147090499Y-54452128D01*
X147084091Y-54392517D01*
X147033796Y-54257669D01*
X147033795Y-54257668D01*
X147033793Y-54257664D01*
X146947547Y-54142455D01*
X146947544Y-54142452D01*
X146832335Y-54056206D01*
X146832328Y-54056202D01*
X146697482Y-54005908D01*
X146697483Y-54005908D01*
X146637883Y-53999501D01*
X146637881Y-53999500D01*
X146637873Y-53999500D01*
X146637864Y-53999500D01*
X145042129Y-53999500D01*
X145042123Y-53999501D01*
X144982516Y-54005908D01*
X144847671Y-54056202D01*
X144847664Y-54056206D01*
X144732455Y-54142452D01*
X144732452Y-54142455D01*
X144646206Y-54257664D01*
X144646202Y-54257671D01*
X144595908Y-54392517D01*
X144589501Y-54452116D01*
X144589501Y-54452123D01*
X144589500Y-54452135D01*
X144589500Y-56147870D01*
X144589501Y-56147876D01*
X144595908Y-56207483D01*
X144646202Y-56342328D01*
X144646206Y-56342335D01*
X144732452Y-56457544D01*
X144732455Y-56457547D01*
X144847664Y-56543793D01*
X144847671Y-56543797D01*
X144965655Y-56587802D01*
X145021589Y-56629673D01*
X145046006Y-56695137D01*
X145031155Y-56763410D01*
X145004508Y-56795943D01*
X145004689Y-56796124D01*
X145002878Y-56797934D01*
X145002028Y-56798973D01*
X145000859Y-56799953D01*
X144839954Y-56960858D01*
X144727387Y-57121623D01*
X144672811Y-57165248D01*
X144625812Y-57174500D01*
X143582737Y-57174500D01*
X143567120Y-57172776D01*
X143567093Y-57173062D01*
X143559331Y-57172327D01*
X143490203Y-57174500D01*
X143460650Y-57174500D01*
X143459929Y-57174590D01*
X143453757Y-57175369D01*
X143447945Y-57175826D01*
X143401372Y-57177290D01*
X143401369Y-57177291D01*
X143382126Y-57182881D01*
X143363083Y-57186825D01*
X143343204Y-57189336D01*
X143343203Y-57189337D01*
X143299878Y-57206490D01*
X143294352Y-57208382D01*
X143249608Y-57221383D01*
X143249604Y-57221385D01*
X143232365Y-57231580D01*
X143214898Y-57240137D01*
X143196269Y-57247512D01*
X143196267Y-57247513D01*
X143158564Y-57274906D01*
X143153682Y-57278112D01*
X143113580Y-57301828D01*
X143099408Y-57316000D01*
X143084623Y-57328628D01*
X143068412Y-57340407D01*
X143038709Y-57376310D01*
X143034777Y-57380631D01*
X141466208Y-58949199D01*
X141453951Y-58959020D01*
X141454134Y-58959241D01*
X141448123Y-58964213D01*
X141400772Y-59014636D01*
X141379889Y-59035519D01*
X141379877Y-59035532D01*
X141375621Y-59041017D01*
X141371837Y-59045447D01*
X141339937Y-59079418D01*
X141339936Y-59079420D01*
X141330284Y-59096976D01*
X141319610Y-59113226D01*
X141307329Y-59129061D01*
X141307324Y-59129068D01*
X141288815Y-59171838D01*
X141286245Y-59177084D01*
X141263803Y-59217906D01*
X141258822Y-59237307D01*
X141252521Y-59255710D01*
X141244562Y-59274102D01*
X141244561Y-59274105D01*
X141237271Y-59320127D01*
X141236087Y-59325846D01*
X141224501Y-59370972D01*
X141224500Y-59370982D01*
X141224500Y-59391016D01*
X141222973Y-59410415D01*
X141219840Y-59430194D01*
X141219840Y-59430195D01*
X141224225Y-59476583D01*
X141224500Y-59482421D01*
X141224500Y-129340047D01*
X141222775Y-129355664D01*
X141223061Y-129355691D01*
X141222326Y-129363457D01*
X141224500Y-129432606D01*
X141224500Y-129462135D01*
X141224501Y-129462152D01*
X141225368Y-129469023D01*
X141225826Y-129474842D01*
X141227290Y-129521416D01*
X141227291Y-129521419D01*
X141232880Y-129540659D01*
X141236824Y-129559703D01*
X141239336Y-129579584D01*
X141246058Y-129596562D01*
X141256490Y-129622911D01*
X141258382Y-129628439D01*
X141271381Y-129673180D01*
X141281580Y-129690426D01*
X141290138Y-129707895D01*
X141297514Y-129726524D01*
X141324898Y-129764215D01*
X141328106Y-129769099D01*
X141351827Y-129809208D01*
X141351833Y-129809216D01*
X141365990Y-129823372D01*
X141378628Y-129838168D01*
X141390405Y-129854378D01*
X141390406Y-129854379D01*
X141426309Y-129884080D01*
X141430620Y-129888002D01*
X143787148Y-132244530D01*
X143820632Y-132305852D01*
X143815648Y-132375544D01*
X143805005Y-132397306D01*
X143727050Y-132523690D01*
X143727046Y-132523699D01*
X143672819Y-132687347D01*
X143662500Y-132788345D01*
X143662500Y-132825000D01*
X144540325Y-132825000D01*
X144548103Y-132825489D01*
X144548188Y-132825499D01*
X144548189Y-132825500D01*
X144568224Y-132825500D01*
X144587622Y-132827026D01*
X144607402Y-132830159D01*
X144607403Y-132830160D01*
X144607403Y-132830159D01*
X144607404Y-132830160D01*
X144653791Y-132825775D01*
X144659630Y-132825500D01*
X144776000Y-132825500D01*
X144843039Y-132845185D01*
X144888794Y-132897989D01*
X144900000Y-132949500D01*
X144900000Y-134049999D01*
X144949140Y-134049999D01*
X144949154Y-134049998D01*
X145050152Y-134039680D01*
X145213800Y-133985453D01*
X145213811Y-133985448D01*
X145360533Y-133894948D01*
X145474464Y-133781017D01*
X145535787Y-133747532D01*
X145605479Y-133752516D01*
X145649827Y-133781016D01*
X145764150Y-133895340D01*
X145910984Y-133985908D01*
X146074747Y-134040174D01*
X146175823Y-134050500D01*
X146774176Y-134050499D01*
X146774184Y-134050498D01*
X146774187Y-134050498D01*
X146829530Y-134044844D01*
X146875253Y-134040174D01*
X146958592Y-134012557D01*
X147028417Y-134010156D01*
X147088459Y-134045887D01*
X147115525Y-134091946D01*
X147172818Y-134268277D01*
X147172821Y-134268284D01*
X147231042Y-134369126D01*
X147247515Y-134437027D01*
X147224662Y-134503053D01*
X147215804Y-134514099D01*
X147207421Y-134523409D01*
X147147934Y-134560057D01*
X147078077Y-134558726D01*
X147050177Y-134545976D01*
X147047648Y-134544416D01*
X147039016Y-134539092D01*
X146875253Y-134484826D01*
X146875251Y-134484825D01*
X146774178Y-134474500D01*
X146075830Y-134474500D01*
X146075812Y-134474501D01*
X145974747Y-134484825D01*
X145810984Y-134539092D01*
X145810981Y-134539093D01*
X145664148Y-134629661D01*
X145649825Y-134643984D01*
X145588501Y-134677468D01*
X145518809Y-134672482D01*
X145474465Y-134643982D01*
X145460538Y-134630055D01*
X145460534Y-134630052D01*
X145313811Y-134539551D01*
X145313800Y-134539546D01*
X145150152Y-134485319D01*
X145049154Y-134475000D01*
X144950000Y-134475000D01*
X144950000Y-135576000D01*
X144930315Y-135643039D01*
X144877511Y-135688794D01*
X144826000Y-135700000D01*
X143662501Y-135700000D01*
X143662501Y-135736656D01*
X143672844Y-135837899D01*
X143660074Y-135906591D01*
X143612193Y-135957476D01*
X143549486Y-135974500D01*
X142982743Y-135974500D01*
X142967122Y-135972775D01*
X142967096Y-135973061D01*
X142959334Y-135972327D01*
X142959333Y-135972327D01*
X142890186Y-135974500D01*
X142860649Y-135974500D01*
X142853766Y-135975369D01*
X142847949Y-135975826D01*
X142801373Y-135977290D01*
X142782129Y-135982881D01*
X142763079Y-135986825D01*
X142743211Y-135989334D01*
X142699884Y-136006488D01*
X142694358Y-136008379D01*
X142649614Y-136021379D01*
X142649610Y-136021381D01*
X142632366Y-136031579D01*
X142614905Y-136040133D01*
X142596274Y-136047510D01*
X142596262Y-136047517D01*
X142558570Y-136074902D01*
X142553687Y-136078109D01*
X142513580Y-136101829D01*
X142499414Y-136115995D01*
X142484624Y-136128627D01*
X142468414Y-136140404D01*
X142468411Y-136140407D01*
X142438710Y-136176309D01*
X142434777Y-136180631D01*
X141277228Y-137338181D01*
X141215905Y-137371666D01*
X141189547Y-137374500D01*
X139893742Y-137374500D01*
X139826703Y-137354815D01*
X139794788Y-137325227D01*
X139690979Y-137187761D01*
X139526562Y-137037876D01*
X139526560Y-137037874D01*
X139337404Y-136920754D01*
X139337398Y-136920751D01*
X139235316Y-136881205D01*
X139194411Y-136865358D01*
X139139011Y-136822786D01*
X139115420Y-136757019D01*
X139131131Y-136688939D01*
X139181155Y-136640160D01*
X139194412Y-136634105D01*
X139337177Y-136578797D01*
X139337181Y-136578795D01*
X139453326Y-136506879D01*
X139022057Y-136075610D01*
X138988572Y-136014287D01*
X138993556Y-135944595D01*
X139035428Y-135888662D01*
X139055930Y-135876212D01*
X139056357Y-135876007D01*
X139155798Y-135783740D01*
X139178033Y-135745226D01*
X139228596Y-135697014D01*
X139297203Y-135683789D01*
X139362068Y-135709756D01*
X139373100Y-135719547D01*
X139808861Y-136155308D01*
X139824631Y-136134425D01*
X139824633Y-136134422D01*
X139923759Y-135935350D01*
X139984621Y-135721439D01*
X140005141Y-135500000D01*
X140005141Y-135499999D01*
X139984621Y-135278560D01*
X139962269Y-135200000D01*
X143662500Y-135200000D01*
X144450000Y-135200000D01*
X144450000Y-134474999D01*
X144350860Y-134475000D01*
X144350844Y-134475001D01*
X144249847Y-134485319D01*
X144086199Y-134539546D01*
X144086188Y-134539551D01*
X143939465Y-134630052D01*
X143939461Y-134630055D01*
X143817555Y-134751961D01*
X143817552Y-134751965D01*
X143727051Y-134898688D01*
X143727046Y-134898699D01*
X143672819Y-135062347D01*
X143662500Y-135163345D01*
X143662500Y-135200000D01*
X139962269Y-135200000D01*
X139923759Y-135064649D01*
X139824635Y-134865580D01*
X139824630Y-134865572D01*
X139808860Y-134844690D01*
X139375184Y-135278367D01*
X139313861Y-135311852D01*
X139244169Y-135306868D01*
X139190555Y-135267998D01*
X139109535Y-135166400D01*
X139109533Y-135166399D01*
X139037275Y-135117134D01*
X138992973Y-135063106D01*
X138984915Y-134993702D01*
X139015657Y-134930959D01*
X139019446Y-134927000D01*
X139453327Y-134493119D01*
X139337178Y-134421202D01*
X139337177Y-134421201D01*
X139129804Y-134340865D01*
X138911193Y-134300000D01*
X138688807Y-134300000D01*
X138470196Y-134340864D01*
X138470188Y-134340867D01*
X138425807Y-134358060D01*
X138356184Y-134363921D01*
X138294444Y-134331211D01*
X138282455Y-134309898D01*
X138286917Y-134359973D01*
X138254507Y-134421872D01*
X138230587Y-134441161D01*
X138146671Y-134493119D01*
X138577942Y-134924389D01*
X138611427Y-134985712D01*
X138606443Y-135055403D01*
X138564572Y-135111337D01*
X138544073Y-135123785D01*
X138543646Y-135123990D01*
X138543645Y-135123990D01*
X138444202Y-135216260D01*
X138444199Y-135216264D01*
X138421967Y-135254771D01*
X138371400Y-135302987D01*
X138302793Y-135316209D01*
X138237928Y-135290241D01*
X138226899Y-135280452D01*
X137791138Y-134844691D01*
X137791137Y-134844691D01*
X137775368Y-134865574D01*
X137676240Y-135064649D01*
X137615378Y-135278560D01*
X137594859Y-135499999D01*
X137594859Y-135500000D01*
X137615378Y-135721439D01*
X137676240Y-135935350D01*
X137775369Y-136134428D01*
X137791137Y-136155308D01*
X137791138Y-136155308D01*
X138224814Y-135721631D01*
X138286137Y-135688146D01*
X138355828Y-135693130D01*
X138409443Y-135732000D01*
X138490464Y-135833599D01*
X138490466Y-135833600D01*
X138562723Y-135882865D01*
X138607025Y-135936894D01*
X138615083Y-136006297D01*
X138584340Y-136069040D01*
X138580552Y-136072999D01*
X138146671Y-136506879D01*
X138146672Y-136506880D01*
X138262821Y-136578797D01*
X138262822Y-136578798D01*
X138405587Y-136634105D01*
X138460988Y-136676678D01*
X138484579Y-136742445D01*
X138468868Y-136810525D01*
X138418844Y-136859304D01*
X138405587Y-136865359D01*
X138262601Y-136920751D01*
X138262595Y-136920754D01*
X138073439Y-137037874D01*
X138073437Y-137037876D01*
X137909020Y-137187761D01*
X137774943Y-137365308D01*
X137774938Y-137365316D01*
X137675775Y-137564461D01*
X137675769Y-137564476D01*
X137614885Y-137778462D01*
X137614884Y-137778464D01*
X137594357Y-137999999D01*
X137594357Y-138000000D01*
X137614884Y-138221535D01*
X137614885Y-138221537D01*
X137675769Y-138435523D01*
X137675775Y-138435538D01*
X137774938Y-138634683D01*
X137774943Y-138634691D01*
X137909018Y-138812235D01*
X138014465Y-138908363D01*
X138050746Y-138968075D01*
X138048985Y-139037922D01*
X138014465Y-139091637D01*
X137909018Y-139187764D01*
X137774943Y-139365308D01*
X137774938Y-139365316D01*
X137675775Y-139564461D01*
X137675769Y-139564476D01*
X137614885Y-139778462D01*
X137614884Y-139778464D01*
X137594357Y-139999999D01*
X137594357Y-140000000D01*
X137614884Y-140221535D01*
X137614885Y-140221537D01*
X137675769Y-140435523D01*
X137675775Y-140435538D01*
X137774938Y-140634683D01*
X137774943Y-140634691D01*
X137909020Y-140812238D01*
X138073437Y-140962123D01*
X138073439Y-140962125D01*
X138262595Y-141079245D01*
X138262596Y-141079245D01*
X138262599Y-141079247D01*
X138404898Y-141134374D01*
X138460298Y-141176946D01*
X138483889Y-141242713D01*
X138468178Y-141310793D01*
X138418154Y-141359572D01*
X138404906Y-141365622D01*
X138298693Y-141406769D01*
X138262601Y-141420752D01*
X138262595Y-141420754D01*
X138073439Y-141537874D01*
X138073437Y-141537876D01*
X137909020Y-141687761D01*
X137774943Y-141865308D01*
X137774938Y-141865316D01*
X137675775Y-142064461D01*
X137675769Y-142064476D01*
X137614885Y-142278462D01*
X137614884Y-142278464D01*
X137594357Y-142499999D01*
X137594357Y-142500000D01*
X137614884Y-142721535D01*
X137614885Y-142721537D01*
X137675769Y-142935523D01*
X137675775Y-142935538D01*
X137774938Y-143134683D01*
X137774943Y-143134691D01*
X137826961Y-143203574D01*
X137900156Y-143300500D01*
X137909020Y-143312237D01*
X137959037Y-143357833D01*
X137995319Y-143417544D01*
X137999500Y-143449471D01*
X137999500Y-143529213D01*
X137979815Y-143596252D01*
X137927011Y-143642007D01*
X137867112Y-143652929D01*
X137823915Y-143650000D01*
X135953554Y-143650000D01*
X136491872Y-144188319D01*
X136525357Y-144249642D01*
X136520373Y-144319334D01*
X136478501Y-144375267D01*
X136413037Y-144399684D01*
X136404191Y-144400000D01*
X136116265Y-144400000D01*
X136074039Y-144406365D01*
X136004814Y-144396891D01*
X135967878Y-144371431D01*
X135382039Y-143785592D01*
X135382038Y-143785592D01*
X135245417Y-143895412D01*
X135245412Y-143895417D01*
X135129581Y-144039518D01*
X135047435Y-144205150D01*
X135002815Y-144384568D01*
X135000000Y-144426086D01*
X135000001Y-145273911D01*
X135000001Y-145273912D01*
X135002814Y-145315423D01*
X135002814Y-145315425D01*
X135047435Y-145494849D01*
X135129581Y-145660481D01*
X135245413Y-145804582D01*
X135382039Y-145914406D01*
X135963822Y-145332623D01*
X136025145Y-145299138D01*
X136072599Y-145301162D01*
X136072983Y-145298615D01*
X136082172Y-145300000D01*
X136404191Y-145300000D01*
X136471230Y-145319685D01*
X136516985Y-145372489D01*
X136526929Y-145441647D01*
X136497904Y-145505203D01*
X136491872Y-145511681D01*
X135953553Y-146049998D01*
X135953554Y-146049999D01*
X137646445Y-146049999D01*
X137646445Y-146049998D01*
X137108128Y-145511681D01*
X137074643Y-145450358D01*
X137079627Y-145380666D01*
X137121499Y-145324733D01*
X137186963Y-145300316D01*
X137195809Y-145300000D01*
X137483723Y-145300000D01*
X137483724Y-145300000D01*
X137525958Y-145293634D01*
X137595182Y-145303106D01*
X137632121Y-145328568D01*
X138217960Y-145914407D01*
X138354584Y-145804585D01*
X138354585Y-145804584D01*
X138470418Y-145660481D01*
X138552564Y-145494849D01*
X138597184Y-145315431D01*
X138599999Y-145273914D01*
X138599999Y-144731439D01*
X138619683Y-144664400D01*
X138672487Y-144618645D01*
X138741646Y-144608701D01*
X138805202Y-144637726D01*
X138811680Y-144643758D01*
X140497739Y-146329817D01*
X140497742Y-146329819D01*
X140533089Y-146352029D01*
X140538763Y-146356055D01*
X140559018Y-146372207D01*
X140571414Y-146382092D01*
X140588435Y-146390289D01*
X140609033Y-146400209D01*
X140615122Y-146403574D01*
X140650471Y-146425785D01*
X140650474Y-146425786D01*
X140650478Y-146425789D01*
X140689899Y-146439583D01*
X140696307Y-146442238D01*
X140733939Y-146460360D01*
X140774641Y-146469650D01*
X140781328Y-146471576D01*
X140820742Y-146485367D01*
X140820745Y-146485368D01*
X140862241Y-146490043D01*
X140869093Y-146491207D01*
X140909806Y-146500500D01*
X140955046Y-146500500D01*
X141902983Y-146500500D01*
X141970022Y-146520185D01*
X142015777Y-146572989D01*
X142020686Y-146585489D01*
X142029110Y-146610908D01*
X142040186Y-146644333D01*
X142040187Y-146644336D01*
X142059100Y-146674999D01*
X142132288Y-146793656D01*
X142256344Y-146917712D01*
X142341054Y-146969961D01*
X142387778Y-147021909D01*
X142399001Y-147090872D01*
X142371157Y-147154954D01*
X142313089Y-147193810D01*
X142275957Y-147199500D01*
X134574500Y-147199500D01*
X134507461Y-147179815D01*
X134461706Y-147127011D01*
X134450500Y-147075500D01*
X134450500Y-141293933D01*
X136045668Y-141293933D01*
X136069637Y-141429862D01*
X136076135Y-141466711D01*
X136145623Y-141627804D01*
X136145624Y-141627806D01*
X136145626Y-141627809D01*
X136204533Y-141706934D01*
X136250390Y-141768530D01*
X136384786Y-141881302D01*
X136426521Y-141902262D01*
X136541562Y-141960038D01*
X136541563Y-141960038D01*
X136541567Y-141960040D01*
X136712279Y-142000500D01*
X136712282Y-142000500D01*
X136843701Y-142000500D01*
X136843709Y-142000500D01*
X136974255Y-141985241D01*
X137139117Y-141925237D01*
X137285696Y-141828830D01*
X137406092Y-141701218D01*
X137493812Y-141549281D01*
X137544130Y-141381210D01*
X137554331Y-141206065D01*
X137523865Y-141033289D01*
X137454377Y-140872196D01*
X137437714Y-140849814D01*
X137349609Y-140731469D01*
X137215214Y-140618698D01*
X137215212Y-140618697D01*
X137058437Y-140539961D01*
X137051830Y-140538395D01*
X136887721Y-140499500D01*
X136756291Y-140499500D01*
X136651854Y-140511707D01*
X136625743Y-140514759D01*
X136625740Y-140514760D01*
X136460884Y-140574762D01*
X136460880Y-140574764D01*
X136314306Y-140671167D01*
X136314305Y-140671168D01*
X136193910Y-140798778D01*
X136106188Y-140950718D01*
X136055870Y-141118789D01*
X136055869Y-141118794D01*
X136045668Y-141293933D01*
X134450500Y-141293933D01*
X134450500Y-136793933D01*
X136045668Y-136793933D01*
X136068031Y-136920751D01*
X136076135Y-136966711D01*
X136145623Y-137127804D01*
X136145624Y-137127806D01*
X136145626Y-137127809D01*
X136240912Y-137255799D01*
X136250390Y-137268530D01*
X136384786Y-137381302D01*
X136424749Y-137401372D01*
X136541562Y-137460038D01*
X136541563Y-137460038D01*
X136541567Y-137460040D01*
X136712279Y-137500500D01*
X136712282Y-137500500D01*
X136843701Y-137500500D01*
X136843709Y-137500500D01*
X136974255Y-137485241D01*
X137139117Y-137425237D01*
X137285696Y-137328830D01*
X137406092Y-137201218D01*
X137493812Y-137049281D01*
X137544130Y-136881210D01*
X137554331Y-136706065D01*
X137523865Y-136533289D01*
X137454377Y-136372196D01*
X137349610Y-136231470D01*
X137285752Y-136177887D01*
X137215214Y-136118698D01*
X137215212Y-136118697D01*
X137058437Y-136039961D01*
X137044028Y-136036546D01*
X136887721Y-135999500D01*
X136756291Y-135999500D01*
X136651854Y-136011707D01*
X136625743Y-136014759D01*
X136625740Y-136014760D01*
X136460884Y-136074762D01*
X136460880Y-136074764D01*
X136314306Y-136171167D01*
X136314305Y-136171168D01*
X136193910Y-136298778D01*
X136106188Y-136450718D01*
X136055870Y-136618789D01*
X136055869Y-136618794D01*
X136045668Y-136793933D01*
X134450500Y-136793933D01*
X134450500Y-132726086D01*
X135000000Y-132726086D01*
X135000001Y-133573911D01*
X135000001Y-133573912D01*
X135002814Y-133615423D01*
X135002814Y-133615425D01*
X135047435Y-133794849D01*
X135129581Y-133960481D01*
X135245413Y-134104582D01*
X135382039Y-134214406D01*
X135963822Y-133632623D01*
X136025145Y-133599138D01*
X136072599Y-133601162D01*
X136072983Y-133598615D01*
X136082172Y-133600000D01*
X136404191Y-133600000D01*
X136471230Y-133619685D01*
X136516985Y-133672489D01*
X136526929Y-133741647D01*
X136497904Y-133805203D01*
X136491872Y-133811681D01*
X135953553Y-134349998D01*
X135953554Y-134349999D01*
X137646445Y-134349999D01*
X137646445Y-134349998D01*
X137108128Y-133811681D01*
X137074643Y-133750358D01*
X137079627Y-133680666D01*
X137121499Y-133624733D01*
X137186963Y-133600316D01*
X137195809Y-133600000D01*
X137483723Y-133600000D01*
X137483724Y-133600000D01*
X137525958Y-133593634D01*
X137595182Y-133603106D01*
X137632121Y-133628568D01*
X138251527Y-134247974D01*
X138249430Y-134250070D01*
X138260539Y-134264383D01*
X138264297Y-134200565D01*
X138303328Y-134145785D01*
X138354587Y-134104582D01*
X138470418Y-133960481D01*
X138552564Y-133794849D01*
X138597184Y-133615431D01*
X138600000Y-133573914D01*
X138600000Y-133325000D01*
X143662501Y-133325000D01*
X143662501Y-133361654D01*
X143672819Y-133462652D01*
X143727046Y-133626300D01*
X143727051Y-133626311D01*
X143817552Y-133773034D01*
X143817555Y-133773038D01*
X143939461Y-133894944D01*
X143939465Y-133894947D01*
X144086188Y-133985448D01*
X144086199Y-133985453D01*
X144249847Y-134039680D01*
X144350851Y-134049999D01*
X144399999Y-134049998D01*
X144400000Y-134049998D01*
X144400000Y-133325000D01*
X143662501Y-133325000D01*
X138600000Y-133325000D01*
X138599999Y-132726089D01*
X138599999Y-132726088D01*
X138597185Y-132684576D01*
X138597185Y-132684574D01*
X138552564Y-132505150D01*
X138470418Y-132339518D01*
X138354587Y-132195417D01*
X138354578Y-132195408D01*
X138217960Y-132085591D01*
X137636176Y-132667375D01*
X137574853Y-132700860D01*
X137527397Y-132698847D01*
X137527015Y-132701385D01*
X137517827Y-132700000D01*
X137195808Y-132700000D01*
X137128769Y-132680315D01*
X137083014Y-132627511D01*
X137073070Y-132558353D01*
X137102095Y-132494797D01*
X137108127Y-132488319D01*
X137646445Y-131950000D01*
X135953554Y-131950000D01*
X136491872Y-132488319D01*
X136525357Y-132549642D01*
X136520373Y-132619334D01*
X136478501Y-132675267D01*
X136413037Y-132699684D01*
X136404191Y-132700000D01*
X136116265Y-132700000D01*
X136074039Y-132706365D01*
X136004814Y-132696891D01*
X135967878Y-132671431D01*
X135382039Y-132085592D01*
X135382038Y-132085592D01*
X135245417Y-132195412D01*
X135245412Y-132195417D01*
X135129581Y-132339518D01*
X135047435Y-132505150D01*
X135002815Y-132684568D01*
X135000000Y-132726086D01*
X134450500Y-132726086D01*
X134450500Y-52230001D01*
X146544891Y-52230001D01*
X146565300Y-52515362D01*
X146626109Y-52794895D01*
X146726091Y-53062958D01*
X146863191Y-53314038D01*
X146863196Y-53314046D01*
X146969882Y-53456561D01*
X146969883Y-53456562D01*
X147475525Y-52950920D01*
X147536848Y-52917435D01*
X147606539Y-52922419D01*
X147654841Y-52955061D01*
X147771930Y-53083500D01*
X147771933Y-53083503D01*
X147816673Y-53117289D01*
X147858310Y-53173397D01*
X147863002Y-53243109D01*
X147829628Y-53303924D01*
X147323436Y-53810115D01*
X147465960Y-53916807D01*
X147465961Y-53916808D01*
X147717042Y-54053908D01*
X147717041Y-54053908D01*
X147985104Y-54153890D01*
X148264637Y-54214699D01*
X148549999Y-54235109D01*
X148550001Y-54235109D01*
X148835362Y-54214699D01*
X149114895Y-54153890D01*
X149382958Y-54053908D01*
X149634047Y-53916803D01*
X149776561Y-53810116D01*
X149776562Y-53810115D01*
X149270371Y-53303924D01*
X149236886Y-53242601D01*
X149241870Y-53172909D01*
X149283325Y-53117289D01*
X149328069Y-53083501D01*
X149445157Y-52955062D01*
X149504867Y-52918781D01*
X149574715Y-52920542D01*
X149624474Y-52950920D01*
X150130115Y-53456562D01*
X150130116Y-53456561D01*
X150236803Y-53314047D01*
X150373908Y-53062958D01*
X150473890Y-52794895D01*
X150534699Y-52515362D01*
X150555109Y-52230001D01*
X150555109Y-52229998D01*
X150534699Y-51944637D01*
X150473890Y-51665104D01*
X150373908Y-51397041D01*
X150236808Y-51145961D01*
X150236807Y-51145960D01*
X150130115Y-51003436D01*
X150130114Y-51003436D01*
X149624473Y-51509078D01*
X149563150Y-51542563D01*
X149493458Y-51537579D01*
X149445155Y-51504935D01*
X149328071Y-51376500D01*
X149283324Y-51342709D01*
X149241688Y-51286600D01*
X149236997Y-51216888D01*
X149270370Y-51156074D01*
X149776562Y-50649883D01*
X149776561Y-50649882D01*
X149634046Y-50543196D01*
X149634038Y-50543191D01*
X149382957Y-50406091D01*
X149382958Y-50406091D01*
X149114895Y-50306109D01*
X148835362Y-50245300D01*
X148550001Y-50224891D01*
X148549999Y-50224891D01*
X148264637Y-50245300D01*
X147985104Y-50306109D01*
X147717041Y-50406091D01*
X147465961Y-50543191D01*
X147465953Y-50543196D01*
X147323437Y-50649882D01*
X147323436Y-50649883D01*
X147829628Y-51156074D01*
X147863113Y-51217397D01*
X147858129Y-51287088D01*
X147816676Y-51342707D01*
X147771933Y-51376496D01*
X147654843Y-51504937D01*
X147595131Y-51541218D01*
X147525284Y-51539457D01*
X147475525Y-51509079D01*
X146969883Y-51003436D01*
X146969882Y-51003437D01*
X146863196Y-51145953D01*
X146863191Y-51145961D01*
X146726091Y-51397041D01*
X146626109Y-51665104D01*
X146565300Y-51944637D01*
X146544891Y-52229998D01*
X146544891Y-52230001D01*
X134450500Y-52230001D01*
X134450500Y-48924500D01*
X134470185Y-48857461D01*
X134522989Y-48811706D01*
X134574500Y-48800500D01*
X158575500Y-48800500D01*
X158642539Y-48820185D01*
G37*
%TD.AperFunction*%
%TA.AperFunction,Conductor*%
G36*
X152047399Y-132845185D02*
G01*
X152068041Y-132861819D01*
X152288181Y-133081959D01*
X152321666Y-133143282D01*
X152324500Y-133169640D01*
X152324500Y-140757255D01*
X152322775Y-140772872D01*
X152323061Y-140772899D01*
X152322326Y-140780665D01*
X152324500Y-140849814D01*
X152324500Y-140879343D01*
X152324501Y-140879360D01*
X152325368Y-140886231D01*
X152325826Y-140892050D01*
X152327290Y-140938624D01*
X152327291Y-140938627D01*
X152332880Y-140957867D01*
X152336824Y-140976911D01*
X152339336Y-140996792D01*
X152353936Y-141033669D01*
X152356490Y-141040119D01*
X152358382Y-141045647D01*
X152371381Y-141090388D01*
X152381580Y-141107634D01*
X152390138Y-141125103D01*
X152397514Y-141143732D01*
X152424898Y-141181423D01*
X152428106Y-141186307D01*
X152451827Y-141226416D01*
X152451833Y-141226424D01*
X152465990Y-141240580D01*
X152478627Y-141255375D01*
X152490406Y-141271587D01*
X152524147Y-141299500D01*
X152526309Y-141301288D01*
X152530620Y-141305210D01*
X153532089Y-142306680D01*
X153854197Y-142628788D01*
X153864022Y-142641051D01*
X153864243Y-142640869D01*
X153869214Y-142646878D01*
X153895217Y-142671295D01*
X153919635Y-142694226D01*
X153940529Y-142715120D01*
X153946011Y-142719373D01*
X153950443Y-142723157D01*
X153984418Y-142755062D01*
X154001976Y-142764714D01*
X154018233Y-142775393D01*
X154034064Y-142787673D01*
X154053737Y-142796186D01*
X154076833Y-142806182D01*
X154082077Y-142808750D01*
X154122908Y-142831197D01*
X154135523Y-142834435D01*
X154142305Y-142836177D01*
X154160719Y-142842481D01*
X154179104Y-142850438D01*
X154225157Y-142857732D01*
X154230826Y-142858906D01*
X154275981Y-142870500D01*
X154296016Y-142870500D01*
X154315413Y-142872026D01*
X154335196Y-142875160D01*
X154381583Y-142870775D01*
X154387422Y-142870500D01*
X154611513Y-142870500D01*
X154678552Y-142890185D01*
X154699194Y-142906819D01*
X154725608Y-142933233D01*
X154725610Y-142933234D01*
X154725612Y-142933236D01*
X154863398Y-143016531D01*
X155017113Y-143064430D01*
X155083909Y-143070500D01*
X156691090Y-143070499D01*
X156691097Y-143070499D01*
X156757882Y-143064431D01*
X156757885Y-143064430D01*
X156757887Y-143064430D01*
X156911602Y-143016531D01*
X157049388Y-142933236D01*
X157163236Y-142819388D01*
X157246531Y-142681602D01*
X157294430Y-142527887D01*
X157300500Y-142461091D01*
X157300499Y-142028910D01*
X157300499Y-142028909D01*
X157300499Y-142028901D01*
X157294431Y-141962117D01*
X157294428Y-141962106D01*
X157246532Y-141808400D01*
X157227423Y-141776790D01*
X157209587Y-141709235D01*
X157231105Y-141642761D01*
X157285145Y-141598474D01*
X157298943Y-141593564D01*
X157350390Y-141578618D01*
X157357427Y-141574455D01*
X157378532Y-141564524D01*
X157386228Y-141561754D01*
X157433719Y-141529477D01*
X157436998Y-141527397D01*
X157486418Y-141498171D01*
X157486417Y-141498171D01*
X157486420Y-141498170D01*
X157492194Y-141492395D01*
X157510191Y-141477507D01*
X157516937Y-141472923D01*
X157554929Y-141429827D01*
X157557550Y-141427038D01*
X158487820Y-140496769D01*
X158549142Y-140463285D01*
X158618834Y-140468269D01*
X158674767Y-140510141D01*
X158699184Y-140575605D01*
X158699500Y-140584451D01*
X158699500Y-147075500D01*
X158679815Y-147142539D01*
X158627011Y-147188294D01*
X158575500Y-147199500D01*
X146724043Y-147199500D01*
X146657004Y-147179815D01*
X146611249Y-147127011D01*
X146601305Y-147057853D01*
X146630330Y-146994297D01*
X146658946Y-146969961D01*
X146743656Y-146917712D01*
X146867712Y-146793656D01*
X146959814Y-146644334D01*
X147014999Y-146477797D01*
X147019177Y-146436896D01*
X147045573Y-146372207D01*
X147102753Y-146332055D01*
X147142535Y-146325500D01*
X147228019Y-146325500D01*
X147295058Y-146345185D01*
X147333558Y-146384404D01*
X147342160Y-146398350D01*
X147464150Y-146520340D01*
X147610984Y-146610908D01*
X147774747Y-146665174D01*
X147875823Y-146675500D01*
X148474176Y-146675499D01*
X148474184Y-146675498D01*
X148474187Y-146675498D01*
X148529530Y-146669844D01*
X148575253Y-146665174D01*
X148739016Y-146610908D01*
X148885850Y-146520340D01*
X149000175Y-146406014D01*
X149061494Y-146372532D01*
X149131186Y-146377516D01*
X149175534Y-146406017D01*
X149289461Y-146519944D01*
X149289465Y-146519947D01*
X149436188Y-146610448D01*
X149436199Y-146610453D01*
X149599847Y-146664680D01*
X149700851Y-146674999D01*
X149749999Y-146674998D01*
X149750000Y-146674998D01*
X149750000Y-145950000D01*
X150250000Y-145950000D01*
X150250000Y-146674999D01*
X150299140Y-146674999D01*
X150299154Y-146674998D01*
X150400152Y-146664680D01*
X150563800Y-146610453D01*
X150563811Y-146610448D01*
X150710534Y-146519947D01*
X150710538Y-146519944D01*
X150832444Y-146398038D01*
X150832447Y-146398034D01*
X150922948Y-146251311D01*
X150922953Y-146251300D01*
X150977180Y-146087652D01*
X150987499Y-145986654D01*
X150987500Y-145986641D01*
X150987500Y-145950000D01*
X150250000Y-145950000D01*
X149750000Y-145950000D01*
X149750000Y-144725000D01*
X150250000Y-144725000D01*
X150250000Y-145450000D01*
X150987499Y-145450000D01*
X150987499Y-145413360D01*
X150987498Y-145413345D01*
X150977180Y-145312347D01*
X150922953Y-145148699D01*
X150922948Y-145148688D01*
X150832447Y-145001965D01*
X150832444Y-145001961D01*
X150710538Y-144880055D01*
X150710534Y-144880052D01*
X150563811Y-144789551D01*
X150563800Y-144789546D01*
X150400152Y-144735319D01*
X150299154Y-144725000D01*
X150250000Y-144725000D01*
X149750000Y-144725000D01*
X149749999Y-144724999D01*
X149700861Y-144725000D01*
X149700843Y-144725001D01*
X149599847Y-144735319D01*
X149436199Y-144789546D01*
X149436188Y-144789551D01*
X149289465Y-144880052D01*
X149175534Y-144993983D01*
X149114211Y-145027467D01*
X149044519Y-145022483D01*
X149000172Y-144993982D01*
X148885851Y-144879661D01*
X148885850Y-144879660D01*
X148780217Y-144814505D01*
X148739018Y-144789093D01*
X148739013Y-144789091D01*
X148737569Y-144788612D01*
X148575253Y-144734826D01*
X148575251Y-144734825D01*
X148474178Y-144724500D01*
X147875830Y-144724500D01*
X147875812Y-144724501D01*
X147774747Y-144734825D01*
X147610984Y-144789092D01*
X147610981Y-144789093D01*
X147464148Y-144879661D01*
X147342160Y-145001649D01*
X147342159Y-145001651D01*
X147333558Y-145015596D01*
X147281610Y-145062321D01*
X147228019Y-145074500D01*
X147142535Y-145074500D01*
X147075496Y-145054815D01*
X147029741Y-145002011D01*
X147019177Y-144963102D01*
X147017968Y-144951265D01*
X147014999Y-144922203D01*
X146959814Y-144755666D01*
X146867712Y-144606344D01*
X146743656Y-144482288D01*
X146634783Y-144415135D01*
X146594336Y-144390187D01*
X146594331Y-144390185D01*
X146577380Y-144384568D01*
X146427797Y-144335001D01*
X146427795Y-144335000D01*
X146325010Y-144324500D01*
X145474998Y-144324500D01*
X145474980Y-144324501D01*
X145372203Y-144335000D01*
X145372200Y-144335001D01*
X145205668Y-144390185D01*
X145205663Y-144390187D01*
X145056342Y-144482289D01*
X144932289Y-144606342D01*
X144840187Y-144755663D01*
X144840185Y-144755668D01*
X144820689Y-144814505D01*
X144785001Y-144922203D01*
X144785001Y-144922204D01*
X144785000Y-144922204D01*
X144774500Y-145024983D01*
X144774500Y-146375001D01*
X144774501Y-146375018D01*
X144785000Y-146477796D01*
X144785001Y-146477799D01*
X144840185Y-146644331D01*
X144840187Y-146644336D01*
X144859100Y-146674999D01*
X144932288Y-146793656D01*
X145056344Y-146917712D01*
X145141054Y-146969961D01*
X145187778Y-147021909D01*
X145199001Y-147090872D01*
X145171157Y-147154954D01*
X145113089Y-147193810D01*
X145075957Y-147199500D01*
X143924043Y-147199500D01*
X143857004Y-147179815D01*
X143811249Y-147127011D01*
X143801305Y-147057853D01*
X143830330Y-146994297D01*
X143858946Y-146969961D01*
X143943656Y-146917712D01*
X144067712Y-146793656D01*
X144159814Y-146644334D01*
X144214999Y-146477797D01*
X144225500Y-146375009D01*
X144225499Y-145024992D01*
X144223151Y-145002011D01*
X144214999Y-144922203D01*
X144214998Y-144922200D01*
X144202342Y-144884008D01*
X144159814Y-144755666D01*
X144067712Y-144606344D01*
X143943656Y-144482288D01*
X143834783Y-144415135D01*
X143794336Y-144390187D01*
X143794331Y-144390185D01*
X143777380Y-144384568D01*
X143627797Y-144335001D01*
X143627795Y-144335000D01*
X143525010Y-144324500D01*
X142674998Y-144324500D01*
X142674980Y-144324501D01*
X142572203Y-144335000D01*
X142572200Y-144335001D01*
X142405668Y-144390185D01*
X142405663Y-144390187D01*
X142256342Y-144482289D01*
X142132289Y-144606342D01*
X142040187Y-144755663D01*
X142040186Y-144755666D01*
X142029110Y-144789093D01*
X142020689Y-144814505D01*
X141980916Y-144871949D01*
X141916400Y-144898772D01*
X141902983Y-144899500D01*
X141382940Y-144899500D01*
X141315901Y-144879815D01*
X141295259Y-144863181D01*
X139944259Y-143512181D01*
X139910774Y-143450858D01*
X139915758Y-143381166D01*
X139957630Y-143325233D01*
X140023094Y-143300816D01*
X140031940Y-143300500D01*
X141990194Y-143300500D01*
X142030903Y-143291208D01*
X142037760Y-143290043D01*
X142079255Y-143285368D01*
X142118680Y-143271571D01*
X142125321Y-143269658D01*
X142166061Y-143260360D01*
X142203693Y-143242236D01*
X142210105Y-143239580D01*
X142249522Y-143225789D01*
X142284889Y-143203565D01*
X142290961Y-143200209D01*
X142328587Y-143182091D01*
X142361236Y-143156052D01*
X142366895Y-143152037D01*
X142402262Y-143129816D01*
X142529816Y-143002262D01*
X142707078Y-142825000D01*
X143662501Y-142825000D01*
X143662501Y-142861654D01*
X143672819Y-142962652D01*
X143727046Y-143126300D01*
X143727051Y-143126311D01*
X143817552Y-143273034D01*
X143817555Y-143273038D01*
X143939461Y-143394944D01*
X143939465Y-143394947D01*
X144086188Y-143485448D01*
X144086199Y-143485453D01*
X144249847Y-143539680D01*
X144350851Y-143549999D01*
X144450000Y-143549998D01*
X144450000Y-142825000D01*
X143662501Y-142825000D01*
X142707078Y-142825000D01*
X143465460Y-142066617D01*
X143526781Y-142033134D01*
X143596472Y-142038118D01*
X143652406Y-142079990D01*
X143676823Y-142145454D01*
X143672476Y-142180351D01*
X143674236Y-142180728D01*
X143672819Y-142187346D01*
X143662500Y-142288345D01*
X143662500Y-142325000D01*
X144450000Y-142325000D01*
X144450000Y-141599999D01*
X144350860Y-141600000D01*
X144350844Y-141600001D01*
X144249847Y-141610319D01*
X144086199Y-141664546D01*
X144086194Y-141664548D01*
X143962147Y-141741062D01*
X143894754Y-141759502D01*
X143828091Y-141738579D01*
X143783321Y-141684937D01*
X143774660Y-141615607D01*
X143780008Y-141594572D01*
X143785368Y-141579255D01*
X143790043Y-141537760D01*
X143791208Y-141530905D01*
X143798679Y-141498171D01*
X143800500Y-141490194D01*
X143800500Y-141309806D01*
X143800500Y-141156407D01*
X143820185Y-141089368D01*
X143872989Y-141043613D01*
X143942147Y-141033669D01*
X143989598Y-141050869D01*
X144086192Y-141110450D01*
X144086199Y-141110453D01*
X144249847Y-141164680D01*
X144350851Y-141174999D01*
X144450000Y-141174998D01*
X144450000Y-139224999D01*
X144350860Y-139225000D01*
X144350844Y-139225001D01*
X144249847Y-139235319D01*
X144086199Y-139289546D01*
X144086194Y-139289548D01*
X143989597Y-139349131D01*
X143922205Y-139367571D01*
X143855541Y-139346649D01*
X143810771Y-139293007D01*
X143800500Y-139243592D01*
X143800500Y-138847718D01*
X143817112Y-138785720D01*
X143827179Y-138768284D01*
X143830397Y-138758377D01*
X143869830Y-138700703D01*
X143934187Y-138673501D01*
X144003034Y-138685412D01*
X144013426Y-138691154D01*
X144085975Y-138735903D01*
X144085978Y-138735904D01*
X144085984Y-138735908D01*
X144249747Y-138790174D01*
X144350823Y-138800500D01*
X144949176Y-138800499D01*
X144949184Y-138800498D01*
X144949187Y-138800498D01*
X145004530Y-138794844D01*
X145050253Y-138790174D01*
X145214016Y-138735908D01*
X145360850Y-138645340D01*
X145474821Y-138531368D01*
X145536140Y-138497886D01*
X145605832Y-138502870D01*
X145650180Y-138531371D01*
X145762837Y-138644028D01*
X145796322Y-138705351D01*
X145798604Y-138720023D01*
X145799224Y-138726571D01*
X145799500Y-138732417D01*
X145799500Y-139226968D01*
X145779815Y-139294007D01*
X145740597Y-139332506D01*
X145664153Y-139379657D01*
X145664148Y-139379661D01*
X145649825Y-139393984D01*
X145588501Y-139427468D01*
X145518809Y-139422482D01*
X145474465Y-139393982D01*
X145460538Y-139380055D01*
X145460534Y-139380052D01*
X145313811Y-139289551D01*
X145313800Y-139289546D01*
X145150152Y-139235319D01*
X145049154Y-139225000D01*
X144950000Y-139225000D01*
X144950000Y-141174999D01*
X145049140Y-141174999D01*
X145049154Y-141174998D01*
X145150152Y-141164680D01*
X145313800Y-141110453D01*
X145313811Y-141110448D01*
X145460535Y-141019947D01*
X145474460Y-141006021D01*
X145535782Y-140972533D01*
X145605473Y-140977514D01*
X145649827Y-141006017D01*
X145664150Y-141020340D01*
X145810984Y-141110908D01*
X145974747Y-141165174D01*
X146075823Y-141175500D01*
X146774176Y-141175499D01*
X146774184Y-141175498D01*
X146774187Y-141175498D01*
X146829530Y-141169844D01*
X146875253Y-141165174D01*
X147011497Y-141120026D01*
X147081324Y-141117625D01*
X147141366Y-141153356D01*
X147172559Y-141215877D01*
X147174500Y-141237733D01*
X147174500Y-141537267D01*
X147154815Y-141604306D01*
X147102011Y-141650061D01*
X147032853Y-141660005D01*
X147011498Y-141654973D01*
X146875253Y-141609826D01*
X146875251Y-141609825D01*
X146774178Y-141599500D01*
X146075830Y-141599500D01*
X146075812Y-141599501D01*
X145974747Y-141609825D01*
X145810984Y-141664092D01*
X145810981Y-141664093D01*
X145664148Y-141754661D01*
X145649825Y-141768984D01*
X145588501Y-141802468D01*
X145518809Y-141797482D01*
X145474465Y-141768982D01*
X145460538Y-141755055D01*
X145460534Y-141755052D01*
X145313811Y-141664551D01*
X145313800Y-141664546D01*
X145150152Y-141610319D01*
X145049154Y-141600000D01*
X144950000Y-141600000D01*
X144950000Y-143549999D01*
X145049140Y-143549999D01*
X145049154Y-143549998D01*
X145150152Y-143539680D01*
X145313800Y-143485453D01*
X145313811Y-143485448D01*
X145460535Y-143394947D01*
X145474460Y-143381021D01*
X145535782Y-143347533D01*
X145605473Y-143352514D01*
X145649827Y-143381017D01*
X145664150Y-143395340D01*
X145810984Y-143485908D01*
X145974747Y-143540174D01*
X146075823Y-143550500D01*
X146774176Y-143550499D01*
X146774184Y-143550498D01*
X146774187Y-143550498D01*
X146829530Y-143544844D01*
X146875253Y-143540174D01*
X147039016Y-143485908D01*
X147185850Y-143395340D01*
X147307840Y-143273350D01*
X147366204Y-143178724D01*
X147418150Y-143132001D01*
X147426089Y-143128532D01*
X147428732Y-143127486D01*
X147466449Y-143100082D01*
X147471305Y-143096892D01*
X147511420Y-143073170D01*
X147525589Y-143058999D01*
X147540379Y-143046368D01*
X147556587Y-143034594D01*
X147586299Y-142998676D01*
X147590212Y-142994376D01*
X148101805Y-142482784D01*
X148163124Y-142449302D01*
X148232816Y-142454286D01*
X148288749Y-142496158D01*
X148307867Y-142533578D01*
X148353927Y-142681392D01*
X148437163Y-142819080D01*
X148550919Y-142932836D01*
X148688603Y-143016070D01*
X148842207Y-143063934D01*
X148908957Y-143070000D01*
X149462500Y-143070000D01*
X149462500Y-142495000D01*
X149962500Y-142495000D01*
X149962500Y-143070000D01*
X150516043Y-143070000D01*
X150582792Y-143063934D01*
X150736396Y-143016070D01*
X150874080Y-142932836D01*
X150987836Y-142819080D01*
X151071072Y-142681392D01*
X151118932Y-142527802D01*
X151118935Y-142527792D01*
X151121914Y-142495000D01*
X149962500Y-142495000D01*
X149462500Y-142495000D01*
X149462500Y-142119000D01*
X149482185Y-142051961D01*
X149534989Y-142006206D01*
X149586500Y-141995000D01*
X151121915Y-141995000D01*
X151121914Y-141994999D01*
X151118935Y-141962207D01*
X151118932Y-141962197D01*
X151071072Y-141808606D01*
X151071071Y-141808604D01*
X150990082Y-141674634D01*
X150972245Y-141607079D01*
X150990080Y-141546336D01*
X151071531Y-141411602D01*
X151119430Y-141257887D01*
X151125500Y-141191091D01*
X151125499Y-140758910D01*
X151125499Y-140758909D01*
X151125499Y-140758901D01*
X151119431Y-140692117D01*
X151119428Y-140692106D01*
X151071532Y-140538400D01*
X151071531Y-140538398D01*
X151057241Y-140514760D01*
X151035085Y-140478110D01*
X151017249Y-140410557D01*
X151038766Y-140344083D01*
X151092806Y-140299795D01*
X151106600Y-140294887D01*
X151145390Y-140283618D01*
X151162629Y-140273422D01*
X151180103Y-140264862D01*
X151198727Y-140257488D01*
X151198727Y-140257487D01*
X151198732Y-140257486D01*
X151236449Y-140230082D01*
X151241305Y-140226892D01*
X151281420Y-140203170D01*
X151295589Y-140188999D01*
X151310379Y-140176368D01*
X151326587Y-140164594D01*
X151356289Y-140128688D01*
X151360211Y-140124377D01*
X151583788Y-139900801D01*
X151596050Y-139890979D01*
X151595867Y-139890758D01*
X151601876Y-139885787D01*
X151649227Y-139835363D01*
X151670115Y-139814476D01*
X151670115Y-139814475D01*
X151670120Y-139814471D01*
X151674379Y-139808978D01*
X151678152Y-139804561D01*
X151710062Y-139770582D01*
X151719713Y-139753024D01*
X151730396Y-139736761D01*
X151742673Y-139720936D01*
X151761185Y-139678153D01*
X151763738Y-139672941D01*
X151786197Y-139632092D01*
X151791180Y-139612680D01*
X151797481Y-139594280D01*
X151805437Y-139575896D01*
X151812729Y-139529852D01*
X151813906Y-139524171D01*
X151825500Y-139479019D01*
X151825500Y-139458982D01*
X151827027Y-139439582D01*
X151830160Y-139419804D01*
X151826207Y-139377990D01*
X151825775Y-139373415D01*
X151825500Y-139367577D01*
X151825500Y-137582742D01*
X151827224Y-137567122D01*
X151826939Y-137567095D01*
X151827673Y-137559333D01*
X151827646Y-137558469D01*
X151825500Y-137490171D01*
X151825500Y-137460650D01*
X151824631Y-137453779D01*
X151824173Y-137447952D01*
X151822710Y-137401373D01*
X151817119Y-137382130D01*
X151813173Y-137363078D01*
X151810664Y-137343208D01*
X151793504Y-137299867D01*
X151791624Y-137294379D01*
X151778618Y-137249610D01*
X151768422Y-137232370D01*
X151759861Y-137214894D01*
X151752487Y-137196270D01*
X151746305Y-137187761D01*
X151725079Y-137158545D01*
X151721888Y-137153686D01*
X151698172Y-137113583D01*
X151698166Y-137113575D01*
X151684007Y-137099417D01*
X151671370Y-137084622D01*
X151659594Y-137068413D01*
X151623690Y-137038710D01*
X151619368Y-137034777D01*
X151365806Y-136781216D01*
X151355981Y-136768952D01*
X151355760Y-136769136D01*
X151350785Y-136763121D01*
X151313808Y-136728398D01*
X151300363Y-136715772D01*
X151289918Y-136705327D01*
X151279475Y-136694883D01*
X151273986Y-136690625D01*
X151269561Y-136686847D01*
X151235582Y-136654938D01*
X151235580Y-136654936D01*
X151235577Y-136654935D01*
X151218029Y-136645288D01*
X151201763Y-136634604D01*
X151185933Y-136622325D01*
X151143168Y-136603818D01*
X151137922Y-136601248D01*
X151097095Y-136578804D01*
X151092205Y-136576868D01*
X151037120Y-136533886D01*
X151014018Y-136467946D01*
X151030233Y-136399984D01*
X151031667Y-136397543D01*
X151071531Y-136331602D01*
X151119430Y-136177887D01*
X151125500Y-136111091D01*
X151125499Y-135678910D01*
X151125499Y-135678909D01*
X151125499Y-135678901D01*
X151119431Y-135612117D01*
X151119428Y-135612106D01*
X151071532Y-135458401D01*
X151071531Y-135458400D01*
X151071531Y-135458398D01*
X150990373Y-135324148D01*
X150972538Y-135256594D01*
X150990374Y-135195851D01*
X151071531Y-135061602D01*
X151119430Y-134907887D01*
X151125500Y-134841091D01*
X151125499Y-134408910D01*
X151125499Y-134408909D01*
X151125499Y-134408901D01*
X151119431Y-134342117D01*
X151119428Y-134342106D01*
X151071532Y-134188401D01*
X151071531Y-134188400D01*
X151071531Y-134188398D01*
X150990373Y-134054148D01*
X150972538Y-133986594D01*
X150990374Y-133925851D01*
X151071531Y-133791602D01*
X151119430Y-133637887D01*
X151125500Y-133571091D01*
X151125499Y-133138910D01*
X151125499Y-133138909D01*
X151125499Y-133138901D01*
X151119431Y-133072117D01*
X151119430Y-133072114D01*
X151092718Y-132986390D01*
X151091568Y-132916530D01*
X151128369Y-132857137D01*
X151191437Y-132827069D01*
X151211104Y-132825500D01*
X151980360Y-132825500D01*
X152047399Y-132845185D01*
G37*
%TD.AperFunction*%
%TA.AperFunction,Conductor*%
G36*
X144692851Y-121445185D02*
G01*
X144727387Y-121478377D01*
X144839951Y-121639137D01*
X144913132Y-121712319D01*
X144946616Y-121773643D01*
X144941631Y-121843334D01*
X144913132Y-121887681D01*
X144839951Y-121960862D01*
X144709432Y-122147265D01*
X144709431Y-122147267D01*
X144613261Y-122353502D01*
X144613258Y-122353511D01*
X144554366Y-122573302D01*
X144554364Y-122573313D01*
X144534532Y-122799998D01*
X144534532Y-122800001D01*
X144554364Y-123026686D01*
X144554366Y-123026697D01*
X144613258Y-123246488D01*
X144613261Y-123246497D01*
X144709431Y-123452732D01*
X144709432Y-123452734D01*
X144839954Y-123639141D01*
X145000858Y-123800045D01*
X145000861Y-123800047D01*
X145187266Y-123930568D01*
X145202975Y-123937893D01*
X145255414Y-123984064D01*
X145274567Y-124051257D01*
X145254352Y-124118138D01*
X145202979Y-124162656D01*
X145187512Y-124169868D01*
X145114527Y-124220972D01*
X145114526Y-124220973D01*
X145599160Y-124705606D01*
X145632645Y-124766929D01*
X145627661Y-124836620D01*
X145585790Y-124892554D01*
X145581170Y-124895761D01*
X145477325Y-124985744D01*
X145441137Y-125042053D01*
X145388332Y-125087808D01*
X145319174Y-125097751D01*
X145255618Y-125068725D01*
X145249141Y-125062694D01*
X144760973Y-124574526D01*
X144709868Y-124647513D01*
X144613734Y-124853673D01*
X144613730Y-124853682D01*
X144554860Y-125073389D01*
X144554858Y-125073400D01*
X144535034Y-125299997D01*
X144535034Y-125300002D01*
X144554858Y-125526599D01*
X144554860Y-125526610D01*
X144613730Y-125746317D01*
X144613734Y-125746326D01*
X144709865Y-125952481D01*
X144709866Y-125952483D01*
X144760973Y-126025471D01*
X144760973Y-126025472D01*
X145249141Y-125537304D01*
X145310464Y-125503819D01*
X145380155Y-125508803D01*
X145436089Y-125550674D01*
X145441132Y-125557938D01*
X145477327Y-125614258D01*
X145580555Y-125703705D01*
X145587258Y-125709513D01*
X145585970Y-125710999D01*
X145624268Y-125755188D01*
X145634219Y-125824345D01*
X145605200Y-125887904D01*
X145599160Y-125894392D01*
X145114526Y-126379025D01*
X145114526Y-126379026D01*
X145187512Y-126430131D01*
X145187516Y-126430133D01*
X145393673Y-126526265D01*
X145393682Y-126526269D01*
X145613389Y-126585139D01*
X145613400Y-126585141D01*
X145839998Y-126604966D01*
X145840002Y-126604966D01*
X146066599Y-126585141D01*
X146066610Y-126585139D01*
X146286317Y-126526269D01*
X146286331Y-126526264D01*
X146492478Y-126430136D01*
X146565472Y-126379025D01*
X146080839Y-125894393D01*
X146047354Y-125833070D01*
X146052338Y-125763379D01*
X146094209Y-125707445D01*
X146098834Y-125704233D01*
X146099441Y-125703706D01*
X146099445Y-125703705D01*
X146202673Y-125614258D01*
X146238862Y-125557945D01*
X146291665Y-125512192D01*
X146360823Y-125502248D01*
X146424379Y-125531272D01*
X146430858Y-125537305D01*
X146919025Y-126025472D01*
X146970136Y-125952478D01*
X147066264Y-125746331D01*
X147066269Y-125746317D01*
X147125139Y-125526610D01*
X147125141Y-125526599D01*
X147144966Y-125300002D01*
X147144966Y-125299997D01*
X147125141Y-125073400D01*
X147125139Y-125073389D01*
X147066269Y-124853682D01*
X147066265Y-124853673D01*
X146970133Y-124647516D01*
X146970131Y-124647512D01*
X146919026Y-124574526D01*
X146919025Y-124574526D01*
X146430857Y-125062694D01*
X146369534Y-125096179D01*
X146299842Y-125091195D01*
X146243909Y-125049323D01*
X146238866Y-125042060D01*
X146202673Y-124985742D01*
X146099445Y-124896295D01*
X146099444Y-124896294D01*
X146092742Y-124890487D01*
X146094028Y-124889002D01*
X146055725Y-124844800D01*
X146045781Y-124775641D01*
X146074805Y-124712085D01*
X146080838Y-124705606D01*
X146565472Y-124220973D01*
X146492483Y-124169866D01*
X146492481Y-124169865D01*
X146477023Y-124162657D01*
X146424584Y-124116484D01*
X146405432Y-124049290D01*
X146425648Y-123982409D01*
X146477023Y-123937893D01*
X146492734Y-123930568D01*
X146679139Y-123800047D01*
X146840047Y-123639139D01*
X146952612Y-123478377D01*
X147007189Y-123434752D01*
X147054188Y-123425500D01*
X149489548Y-123425500D01*
X149556587Y-123445185D01*
X149577229Y-123461819D01*
X154438181Y-128322771D01*
X154471666Y-128384094D01*
X154474500Y-128410452D01*
X154474500Y-131290547D01*
X154454815Y-131357586D01*
X154402011Y-131403341D01*
X154332853Y-131413285D01*
X154269297Y-131384260D01*
X154262819Y-131378228D01*
X153300803Y-130416212D01*
X153290980Y-130403950D01*
X153290759Y-130404134D01*
X153285786Y-130398123D01*
X153235364Y-130350773D01*
X153224919Y-130340328D01*
X153214475Y-130329883D01*
X153208986Y-130325625D01*
X153204561Y-130321847D01*
X153170582Y-130289938D01*
X153170580Y-130289936D01*
X153170577Y-130289935D01*
X153153029Y-130280288D01*
X153136763Y-130269604D01*
X153120933Y-130257325D01*
X153078168Y-130238818D01*
X153072922Y-130236248D01*
X153032093Y-130213803D01*
X153032092Y-130213802D01*
X153012693Y-130208822D01*
X152994281Y-130202518D01*
X152975898Y-130194562D01*
X152975892Y-130194560D01*
X152929874Y-130187272D01*
X152924152Y-130186087D01*
X152879021Y-130174500D01*
X152879019Y-130174500D01*
X152858984Y-130174500D01*
X152839586Y-130172973D01*
X152831333Y-130171666D01*
X152819805Y-130169840D01*
X152819804Y-130169840D01*
X152773416Y-130174225D01*
X152767578Y-130174500D01*
X149849380Y-130174500D01*
X149782341Y-130154815D01*
X149736586Y-130102011D01*
X149726642Y-130032853D01*
X149755667Y-129969297D01*
X149775069Y-129951233D01*
X149776562Y-129950115D01*
X149270371Y-129443924D01*
X149236886Y-129382601D01*
X149241870Y-129312909D01*
X149283325Y-129257289D01*
X149328069Y-129223501D01*
X149445157Y-129095062D01*
X149504867Y-129058781D01*
X149574715Y-129060542D01*
X149624474Y-129090920D01*
X150130115Y-129596562D01*
X150130116Y-129596561D01*
X150236803Y-129454047D01*
X150373908Y-129202958D01*
X150473890Y-128934895D01*
X150534699Y-128655362D01*
X150555109Y-128370001D01*
X150555109Y-128369998D01*
X150534699Y-128084637D01*
X150473890Y-127805104D01*
X150373908Y-127537041D01*
X150236808Y-127285961D01*
X150236807Y-127285960D01*
X150130115Y-127143436D01*
X150130114Y-127143436D01*
X149624473Y-127649078D01*
X149563150Y-127682563D01*
X149493458Y-127677579D01*
X149445155Y-127644935D01*
X149328071Y-127516500D01*
X149283324Y-127482709D01*
X149241688Y-127426600D01*
X149236997Y-127356888D01*
X149270370Y-127296074D01*
X149776562Y-126789883D01*
X149776561Y-126789882D01*
X149634046Y-126683196D01*
X149634038Y-126683191D01*
X149382957Y-126546091D01*
X149382958Y-126546091D01*
X149114895Y-126446109D01*
X148835362Y-126385300D01*
X148550001Y-126364891D01*
X148549999Y-126364891D01*
X148264637Y-126385300D01*
X147985104Y-126446109D01*
X147717041Y-126546091D01*
X147465961Y-126683191D01*
X147465953Y-126683196D01*
X147323437Y-126789882D01*
X147323436Y-126789883D01*
X147829628Y-127296074D01*
X147863113Y-127357397D01*
X147858129Y-127427088D01*
X147816676Y-127482707D01*
X147771933Y-127516496D01*
X147654843Y-127644937D01*
X147595131Y-127681218D01*
X147525284Y-127679457D01*
X147475525Y-127649079D01*
X146969883Y-127143436D01*
X146969882Y-127143437D01*
X146863196Y-127285953D01*
X146863191Y-127285961D01*
X146726091Y-127537041D01*
X146626109Y-127805104D01*
X146565300Y-128084637D01*
X146544891Y-128369998D01*
X146544891Y-128370001D01*
X146565300Y-128655362D01*
X146626109Y-128934895D01*
X146726091Y-129202958D01*
X146863191Y-129454038D01*
X146863196Y-129454046D01*
X146969882Y-129596561D01*
X146969883Y-129596562D01*
X147475525Y-129090920D01*
X147536848Y-129057435D01*
X147606539Y-129062419D01*
X147654841Y-129095061D01*
X147755992Y-129206017D01*
X147771933Y-129223503D01*
X147816673Y-129257289D01*
X147858310Y-129313397D01*
X147863002Y-129383109D01*
X147829628Y-129443924D01*
X147323436Y-129950115D01*
X147324930Y-129951233D01*
X147366801Y-130007167D01*
X147371785Y-130076859D01*
X147338300Y-130138182D01*
X147276976Y-130171666D01*
X147250619Y-130174500D01*
X145510453Y-130174500D01*
X145443414Y-130154815D01*
X145422772Y-130138181D01*
X143861819Y-128577227D01*
X143828334Y-128515904D01*
X143825500Y-128489546D01*
X143825500Y-122010452D01*
X143845185Y-121943413D01*
X143861819Y-121922771D01*
X144322772Y-121461819D01*
X144384095Y-121428334D01*
X144410453Y-121425500D01*
X144625812Y-121425500D01*
X144692851Y-121445185D01*
G37*
%TD.AperFunction*%
%TA.AperFunction,Conductor*%
G36*
X144692851Y-100445185D02*
G01*
X144727387Y-100478377D01*
X144839951Y-100639137D01*
X144913132Y-100712319D01*
X144946616Y-100773643D01*
X144941631Y-100843334D01*
X144913132Y-100887681D01*
X144839951Y-100960862D01*
X144709432Y-101147265D01*
X144709431Y-101147267D01*
X144613261Y-101353502D01*
X144613258Y-101353511D01*
X144554366Y-101573302D01*
X144554364Y-101573313D01*
X144534532Y-101799998D01*
X144534532Y-101800001D01*
X144554364Y-102026686D01*
X144554366Y-102026697D01*
X144613258Y-102246488D01*
X144613261Y-102246497D01*
X144709431Y-102452732D01*
X144709432Y-102452734D01*
X144839954Y-102639141D01*
X145000858Y-102800045D01*
X145000861Y-102800047D01*
X145187266Y-102930568D01*
X145202975Y-102937893D01*
X145255414Y-102984064D01*
X145274567Y-103051257D01*
X145254352Y-103118138D01*
X145202979Y-103162656D01*
X145187512Y-103169868D01*
X145114527Y-103220972D01*
X145114526Y-103220973D01*
X145599160Y-103705606D01*
X145632645Y-103766929D01*
X145627661Y-103836620D01*
X145585790Y-103892554D01*
X145581170Y-103895761D01*
X145477325Y-103985744D01*
X145441137Y-104042053D01*
X145388332Y-104087808D01*
X145319174Y-104097751D01*
X145255618Y-104068725D01*
X145249141Y-104062694D01*
X144760973Y-103574526D01*
X144709868Y-103647513D01*
X144613734Y-103853673D01*
X144613730Y-103853682D01*
X144554860Y-104073389D01*
X144554858Y-104073400D01*
X144535034Y-104299997D01*
X144535034Y-104300002D01*
X144554858Y-104526599D01*
X144554860Y-104526610D01*
X144613730Y-104746317D01*
X144613734Y-104746326D01*
X144709865Y-104952481D01*
X144709866Y-104952483D01*
X144760973Y-105025471D01*
X144760973Y-105025472D01*
X145249141Y-104537304D01*
X145310464Y-104503819D01*
X145380155Y-104508803D01*
X145436089Y-104550674D01*
X145441132Y-104557938D01*
X145477327Y-104614258D01*
X145580555Y-104703705D01*
X145587258Y-104709513D01*
X145585970Y-104710999D01*
X145624268Y-104755188D01*
X145634219Y-104824345D01*
X145605200Y-104887904D01*
X145599160Y-104894392D01*
X145114526Y-105379025D01*
X145114526Y-105379026D01*
X145187512Y-105430131D01*
X145187516Y-105430133D01*
X145393673Y-105526265D01*
X145393682Y-105526269D01*
X145613389Y-105585139D01*
X145613400Y-105585141D01*
X145839998Y-105604966D01*
X145840002Y-105604966D01*
X146066599Y-105585141D01*
X146066610Y-105585139D01*
X146286317Y-105526269D01*
X146286331Y-105526264D01*
X146492478Y-105430136D01*
X146565472Y-105379025D01*
X146080839Y-104894393D01*
X146047354Y-104833070D01*
X146052338Y-104763379D01*
X146094209Y-104707445D01*
X146098834Y-104704233D01*
X146099441Y-104703706D01*
X146099445Y-104703705D01*
X146202673Y-104614258D01*
X146238862Y-104557945D01*
X146291665Y-104512192D01*
X146360823Y-104502248D01*
X146424379Y-104531272D01*
X146430858Y-104537305D01*
X146919025Y-105025472D01*
X146970136Y-104952478D01*
X147066264Y-104746331D01*
X147066269Y-104746317D01*
X147125139Y-104526610D01*
X147125141Y-104526599D01*
X147144966Y-104300002D01*
X147144966Y-104299997D01*
X147125141Y-104073400D01*
X147125139Y-104073389D01*
X147066269Y-103853682D01*
X147066265Y-103853673D01*
X146970133Y-103647516D01*
X146970131Y-103647512D01*
X146919026Y-103574526D01*
X146919025Y-103574526D01*
X146430857Y-104062694D01*
X146369534Y-104096179D01*
X146299842Y-104091195D01*
X146243909Y-104049323D01*
X146238866Y-104042060D01*
X146202673Y-103985742D01*
X146099445Y-103896295D01*
X146099444Y-103896294D01*
X146092742Y-103890487D01*
X146094028Y-103889002D01*
X146055725Y-103844800D01*
X146045781Y-103775641D01*
X146074805Y-103712085D01*
X146080838Y-103705606D01*
X146565472Y-103220973D01*
X146492483Y-103169866D01*
X146492481Y-103169865D01*
X146477023Y-103162657D01*
X146424584Y-103116484D01*
X146405432Y-103049290D01*
X146425648Y-102982409D01*
X146477023Y-102937893D01*
X146492734Y-102930568D01*
X146679139Y-102800047D01*
X146840047Y-102639139D01*
X146952612Y-102478377D01*
X147007189Y-102434752D01*
X147054188Y-102425500D01*
X150789548Y-102425500D01*
X150856587Y-102445185D01*
X150877229Y-102461819D01*
X153438181Y-105022771D01*
X153471666Y-105084094D01*
X153474500Y-105110452D01*
X153474500Y-125290546D01*
X153454815Y-125357585D01*
X153402011Y-125403340D01*
X153332853Y-125413284D01*
X153269297Y-125384259D01*
X153262819Y-125378227D01*
X150300803Y-122416212D01*
X150290980Y-122403950D01*
X150290759Y-122404134D01*
X150285786Y-122398123D01*
X150235364Y-122350773D01*
X150224919Y-122340328D01*
X150214475Y-122329883D01*
X150208986Y-122325625D01*
X150204561Y-122321847D01*
X150170582Y-122289938D01*
X150170580Y-122289936D01*
X150170577Y-122289935D01*
X150153029Y-122280288D01*
X150136763Y-122269604D01*
X150120933Y-122257325D01*
X150078168Y-122238818D01*
X150072922Y-122236248D01*
X150032093Y-122213803D01*
X150032092Y-122213802D01*
X150012693Y-122208822D01*
X149994281Y-122202518D01*
X149975898Y-122194562D01*
X149975892Y-122194560D01*
X149929874Y-122187272D01*
X149924152Y-122186087D01*
X149879021Y-122174500D01*
X149879019Y-122174500D01*
X149858984Y-122174500D01*
X149839586Y-122172973D01*
X149832162Y-122171797D01*
X149819805Y-122169840D01*
X149819804Y-122169840D01*
X149773416Y-122174225D01*
X149767578Y-122174500D01*
X147054188Y-122174500D01*
X146987149Y-122154815D01*
X146952613Y-122121623D01*
X146840048Y-121960862D01*
X146822599Y-121943413D01*
X146766865Y-121887679D01*
X146733382Y-121826359D01*
X146738366Y-121756667D01*
X146766865Y-121712320D01*
X146840047Y-121639139D01*
X146970568Y-121452734D01*
X147066739Y-121246496D01*
X147125635Y-121026692D01*
X147145468Y-120800000D01*
X147125635Y-120573308D01*
X147066739Y-120353504D01*
X146970568Y-120147266D01*
X146840047Y-119960861D01*
X146840045Y-119960858D01*
X146679147Y-119799960D01*
X146677980Y-119798981D01*
X146677606Y-119798419D01*
X146675311Y-119796124D01*
X146675772Y-119795662D01*
X146639272Y-119740813D01*
X146638158Y-119670952D01*
X146674989Y-119611579D01*
X146714345Y-119587802D01*
X146832326Y-119543798D01*
X146832326Y-119543797D01*
X146832331Y-119543796D01*
X146947546Y-119457546D01*
X147033796Y-119342331D01*
X147084091Y-119207483D01*
X147090500Y-119147873D01*
X147090499Y-117452128D01*
X147084091Y-117392517D01*
X147033796Y-117257669D01*
X147033795Y-117257668D01*
X147033793Y-117257664D01*
X146947547Y-117142455D01*
X146947544Y-117142452D01*
X146832335Y-117056206D01*
X146832328Y-117056202D01*
X146697482Y-117005908D01*
X146697483Y-117005908D01*
X146637883Y-116999501D01*
X146637881Y-116999500D01*
X146637873Y-116999500D01*
X146637864Y-116999500D01*
X145042129Y-116999500D01*
X145042123Y-116999501D01*
X144982516Y-117005908D01*
X144847671Y-117056202D01*
X144847664Y-117056206D01*
X144732455Y-117142452D01*
X144732452Y-117142455D01*
X144646206Y-117257664D01*
X144646202Y-117257671D01*
X144595908Y-117392517D01*
X144589501Y-117452116D01*
X144589501Y-117452123D01*
X144589500Y-117452135D01*
X144589500Y-119147870D01*
X144589501Y-119147876D01*
X144595908Y-119207483D01*
X144646202Y-119342328D01*
X144646206Y-119342335D01*
X144732452Y-119457544D01*
X144732455Y-119457547D01*
X144847664Y-119543793D01*
X144847671Y-119543797D01*
X144965655Y-119587802D01*
X145021589Y-119629673D01*
X145046006Y-119695137D01*
X145031155Y-119763410D01*
X145004508Y-119795943D01*
X145004689Y-119796124D01*
X145002878Y-119797934D01*
X145002028Y-119798973D01*
X145000859Y-119799953D01*
X144839954Y-119960858D01*
X144727387Y-120121623D01*
X144672811Y-120165248D01*
X144625812Y-120174500D01*
X144182737Y-120174500D01*
X144167120Y-120172776D01*
X144167093Y-120173062D01*
X144159331Y-120172327D01*
X144090203Y-120174500D01*
X144060650Y-120174500D01*
X144059929Y-120174590D01*
X144053757Y-120175369D01*
X144047945Y-120175826D01*
X144001373Y-120177290D01*
X144001372Y-120177290D01*
X143982129Y-120182881D01*
X143963079Y-120186825D01*
X143943211Y-120189334D01*
X143943209Y-120189335D01*
X143899884Y-120206488D01*
X143894357Y-120208380D01*
X143849610Y-120221381D01*
X143849609Y-120221382D01*
X143832367Y-120231579D01*
X143814899Y-120240137D01*
X143796269Y-120247513D01*
X143796267Y-120247514D01*
X143758576Y-120274898D01*
X143753694Y-120278105D01*
X143713579Y-120301830D01*
X143699408Y-120316000D01*
X143684623Y-120328628D01*
X143668412Y-120340407D01*
X143638709Y-120376310D01*
X143634777Y-120380630D01*
X143587182Y-120428226D01*
X143525859Y-120461712D01*
X143456168Y-120456728D01*
X143400234Y-120414858D01*
X143375816Y-120349393D01*
X143375500Y-120340546D01*
X143375500Y-115230001D01*
X146544891Y-115230001D01*
X146565300Y-115515362D01*
X146626109Y-115794895D01*
X146726091Y-116062958D01*
X146863191Y-116314038D01*
X146863196Y-116314046D01*
X146969882Y-116456561D01*
X146969883Y-116456562D01*
X147475525Y-115950920D01*
X147536848Y-115917435D01*
X147606539Y-115922419D01*
X147654841Y-115955061D01*
X147771930Y-116083500D01*
X147771933Y-116083503D01*
X147816673Y-116117289D01*
X147858310Y-116173397D01*
X147863002Y-116243109D01*
X147829628Y-116303924D01*
X147323436Y-116810115D01*
X147465960Y-116916807D01*
X147465961Y-116916808D01*
X147717042Y-117053908D01*
X147717041Y-117053908D01*
X147985104Y-117153890D01*
X148264637Y-117214699D01*
X148549999Y-117235109D01*
X148550001Y-117235109D01*
X148835362Y-117214699D01*
X149114895Y-117153890D01*
X149382958Y-117053908D01*
X149634047Y-116916803D01*
X149776561Y-116810116D01*
X149776562Y-116810115D01*
X149270371Y-116303924D01*
X149236886Y-116242601D01*
X149241870Y-116172909D01*
X149283325Y-116117289D01*
X149328069Y-116083501D01*
X149445157Y-115955062D01*
X149504867Y-115918781D01*
X149574715Y-115920542D01*
X149624474Y-115950920D01*
X150130115Y-116456562D01*
X150130116Y-116456561D01*
X150236803Y-116314047D01*
X150373908Y-116062958D01*
X150473890Y-115794895D01*
X150534699Y-115515362D01*
X150555109Y-115230001D01*
X150555109Y-115229998D01*
X150534699Y-114944637D01*
X150473890Y-114665104D01*
X150373908Y-114397041D01*
X150236808Y-114145961D01*
X150236807Y-114145960D01*
X150130115Y-114003436D01*
X150130114Y-114003436D01*
X149624473Y-114509078D01*
X149563150Y-114542563D01*
X149493458Y-114537579D01*
X149445155Y-114504935D01*
X149328071Y-114376500D01*
X149283324Y-114342709D01*
X149241688Y-114286600D01*
X149236997Y-114216888D01*
X149270370Y-114156074D01*
X149776562Y-113649883D01*
X149776561Y-113649882D01*
X149634046Y-113543196D01*
X149634038Y-113543191D01*
X149382957Y-113406091D01*
X149382958Y-113406091D01*
X149114895Y-113306109D01*
X148835362Y-113245300D01*
X148550001Y-113224891D01*
X148549999Y-113224891D01*
X148264637Y-113245300D01*
X147985104Y-113306109D01*
X147717041Y-113406091D01*
X147465961Y-113543191D01*
X147465953Y-113543196D01*
X147323437Y-113649882D01*
X147323436Y-113649883D01*
X147829628Y-114156074D01*
X147863113Y-114217397D01*
X147858129Y-114287088D01*
X147816676Y-114342707D01*
X147771933Y-114376496D01*
X147654843Y-114504937D01*
X147595131Y-114541218D01*
X147525284Y-114539457D01*
X147475525Y-114509079D01*
X146969883Y-114003436D01*
X146969882Y-114003437D01*
X146863196Y-114145953D01*
X146863191Y-114145961D01*
X146726091Y-114397041D01*
X146626109Y-114665104D01*
X146565300Y-114944637D01*
X146544891Y-115229998D01*
X146544891Y-115230001D01*
X143375500Y-115230001D01*
X143375500Y-107370001D01*
X146544891Y-107370001D01*
X146565300Y-107655362D01*
X146626109Y-107934895D01*
X146726091Y-108202958D01*
X146863191Y-108454038D01*
X146863196Y-108454046D01*
X146969882Y-108596561D01*
X146969883Y-108596562D01*
X147475525Y-108090920D01*
X147536848Y-108057435D01*
X147606539Y-108062419D01*
X147654841Y-108095061D01*
X147771930Y-108223500D01*
X147771933Y-108223503D01*
X147816673Y-108257289D01*
X147858310Y-108313397D01*
X147863002Y-108383109D01*
X147829628Y-108443924D01*
X147323436Y-108950115D01*
X147465960Y-109056807D01*
X147465961Y-109056808D01*
X147717042Y-109193908D01*
X147717041Y-109193908D01*
X147985104Y-109293890D01*
X148264637Y-109354699D01*
X148549999Y-109375109D01*
X148550001Y-109375109D01*
X148835362Y-109354699D01*
X149114895Y-109293890D01*
X149382958Y-109193908D01*
X149634047Y-109056803D01*
X149776561Y-108950116D01*
X149776562Y-108950115D01*
X149270371Y-108443924D01*
X149236886Y-108382601D01*
X149241870Y-108312909D01*
X149283325Y-108257289D01*
X149328069Y-108223501D01*
X149445157Y-108095062D01*
X149504867Y-108058781D01*
X149574715Y-108060542D01*
X149624474Y-108090920D01*
X150130115Y-108596562D01*
X150130116Y-108596561D01*
X150236803Y-108454047D01*
X150373908Y-108202958D01*
X150473890Y-107934895D01*
X150534699Y-107655362D01*
X150555109Y-107370001D01*
X150555109Y-107369998D01*
X150534699Y-107084637D01*
X150473890Y-106805104D01*
X150373908Y-106537041D01*
X150236808Y-106285961D01*
X150236807Y-106285960D01*
X150130115Y-106143436D01*
X150130114Y-106143436D01*
X149624473Y-106649078D01*
X149563150Y-106682563D01*
X149493458Y-106677579D01*
X149445155Y-106644935D01*
X149328071Y-106516500D01*
X149283324Y-106482709D01*
X149241688Y-106426600D01*
X149236997Y-106356888D01*
X149270370Y-106296074D01*
X149776562Y-105789883D01*
X149776561Y-105789882D01*
X149634046Y-105683196D01*
X149634038Y-105683191D01*
X149382957Y-105546091D01*
X149382958Y-105546091D01*
X149114895Y-105446109D01*
X148835362Y-105385300D01*
X148550001Y-105364891D01*
X148549999Y-105364891D01*
X148264637Y-105385300D01*
X147985104Y-105446109D01*
X147717041Y-105546091D01*
X147465961Y-105683191D01*
X147465953Y-105683196D01*
X147323437Y-105789882D01*
X147323436Y-105789883D01*
X147829628Y-106296074D01*
X147863113Y-106357397D01*
X147858129Y-106427088D01*
X147816676Y-106482707D01*
X147771933Y-106516496D01*
X147654843Y-106644937D01*
X147595131Y-106681218D01*
X147525284Y-106679457D01*
X147475525Y-106649079D01*
X146969883Y-106143436D01*
X146969882Y-106143437D01*
X146863196Y-106285953D01*
X146863191Y-106285961D01*
X146726091Y-106537041D01*
X146626109Y-106805104D01*
X146565300Y-107084637D01*
X146544891Y-107369998D01*
X146544891Y-107370001D01*
X143375500Y-107370001D01*
X143375500Y-101360452D01*
X143395185Y-101293413D01*
X143411819Y-101272771D01*
X144222772Y-100461819D01*
X144284095Y-100428334D01*
X144310453Y-100425500D01*
X144625812Y-100425500D01*
X144692851Y-100445185D01*
G37*
%TD.AperFunction*%
%TA.AperFunction,Conductor*%
G36*
X144692851Y-79445185D02*
G01*
X144727387Y-79478377D01*
X144839951Y-79639137D01*
X144839952Y-79639138D01*
X144839953Y-79639139D01*
X144913133Y-79712319D01*
X144946617Y-79773640D01*
X144941633Y-79843332D01*
X144913133Y-79887679D01*
X144839955Y-79960858D01*
X144839948Y-79960866D01*
X144709432Y-80147265D01*
X144709431Y-80147267D01*
X144613261Y-80353502D01*
X144613258Y-80353511D01*
X144554366Y-80573302D01*
X144554364Y-80573313D01*
X144534532Y-80799998D01*
X144534532Y-80800001D01*
X144554364Y-81026686D01*
X144554366Y-81026697D01*
X144613258Y-81246488D01*
X144613261Y-81246497D01*
X144709431Y-81452732D01*
X144709432Y-81452734D01*
X144839954Y-81639141D01*
X145000858Y-81800045D01*
X145000861Y-81800047D01*
X145187266Y-81930568D01*
X145202975Y-81937893D01*
X145255414Y-81984064D01*
X145274567Y-82051257D01*
X145254352Y-82118138D01*
X145202979Y-82162656D01*
X145187512Y-82169868D01*
X145114527Y-82220972D01*
X145114526Y-82220973D01*
X145599160Y-82705606D01*
X145632645Y-82766929D01*
X145627661Y-82836620D01*
X145585790Y-82892554D01*
X145581170Y-82895761D01*
X145477325Y-82985744D01*
X145441137Y-83042053D01*
X145388332Y-83087808D01*
X145319174Y-83097751D01*
X145255618Y-83068725D01*
X145249141Y-83062694D01*
X144760973Y-82574526D01*
X144709868Y-82647513D01*
X144613734Y-82853673D01*
X144613730Y-82853682D01*
X144554860Y-83073389D01*
X144554858Y-83073400D01*
X144535034Y-83299997D01*
X144535034Y-83300002D01*
X144554858Y-83526599D01*
X144554860Y-83526610D01*
X144613730Y-83746317D01*
X144613734Y-83746326D01*
X144709865Y-83952481D01*
X144709866Y-83952483D01*
X144760973Y-84025471D01*
X144760973Y-84025472D01*
X145249141Y-83537304D01*
X145310464Y-83503819D01*
X145380155Y-83508803D01*
X145436089Y-83550674D01*
X145441132Y-83557938D01*
X145477327Y-83614258D01*
X145565369Y-83690546D01*
X145587258Y-83709513D01*
X145585970Y-83710999D01*
X145624268Y-83755188D01*
X145634219Y-83824345D01*
X145605200Y-83887904D01*
X145599160Y-83894392D01*
X145114526Y-84379025D01*
X145114526Y-84379026D01*
X145187512Y-84430131D01*
X145187516Y-84430133D01*
X145393673Y-84526265D01*
X145393682Y-84526269D01*
X145613389Y-84585139D01*
X145613400Y-84585141D01*
X145839998Y-84604966D01*
X145840002Y-84604966D01*
X146066599Y-84585141D01*
X146066610Y-84585139D01*
X146286317Y-84526269D01*
X146286331Y-84526264D01*
X146492478Y-84430136D01*
X146565472Y-84379025D01*
X146080839Y-83894393D01*
X146047354Y-83833070D01*
X146052338Y-83763379D01*
X146094209Y-83707445D01*
X146098834Y-83704233D01*
X146099441Y-83703706D01*
X146099445Y-83703705D01*
X146202673Y-83614258D01*
X146238862Y-83557945D01*
X146291665Y-83512192D01*
X146360823Y-83502248D01*
X146424379Y-83531272D01*
X146430858Y-83537305D01*
X146919025Y-84025472D01*
X146970136Y-83952478D01*
X147066264Y-83746331D01*
X147066269Y-83746317D01*
X147125139Y-83526610D01*
X147125141Y-83526599D01*
X147144966Y-83300002D01*
X147144966Y-83299997D01*
X147125141Y-83073400D01*
X147125139Y-83073389D01*
X147066269Y-82853682D01*
X147066265Y-82853673D01*
X146970133Y-82647516D01*
X146970131Y-82647512D01*
X146919026Y-82574526D01*
X146919025Y-82574526D01*
X146430857Y-83062694D01*
X146369534Y-83096179D01*
X146299842Y-83091195D01*
X146243909Y-83049323D01*
X146238866Y-83042060D01*
X146202673Y-82985742D01*
X146099445Y-82896295D01*
X146099444Y-82896294D01*
X146092742Y-82890487D01*
X146094028Y-82889002D01*
X146055725Y-82844800D01*
X146045781Y-82775641D01*
X146074805Y-82712085D01*
X146080838Y-82705606D01*
X146565472Y-82220973D01*
X146492483Y-82169866D01*
X146492481Y-82169865D01*
X146477023Y-82162657D01*
X146424584Y-82116484D01*
X146405432Y-82049290D01*
X146425648Y-81982409D01*
X146477023Y-81937893D01*
X146492734Y-81930568D01*
X146679139Y-81800047D01*
X146840047Y-81639139D01*
X146952612Y-81478377D01*
X147007189Y-81434752D01*
X147054188Y-81425500D01*
X149989548Y-81425500D01*
X150056587Y-81445185D01*
X150077229Y-81461819D01*
X153888181Y-85272770D01*
X153921666Y-85334093D01*
X153924500Y-85360451D01*
X153924500Y-103440547D01*
X153904815Y-103507586D01*
X153852011Y-103553341D01*
X153782853Y-103563285D01*
X153719297Y-103534260D01*
X153712819Y-103528228D01*
X151600803Y-101416212D01*
X151590980Y-101403950D01*
X151590759Y-101404134D01*
X151585786Y-101398123D01*
X151585785Y-101398122D01*
X151535364Y-101350773D01*
X151524919Y-101340328D01*
X151514475Y-101329883D01*
X151508986Y-101325625D01*
X151504561Y-101321847D01*
X151470582Y-101289938D01*
X151470580Y-101289936D01*
X151470577Y-101289935D01*
X151453029Y-101280288D01*
X151436763Y-101269604D01*
X151420933Y-101257325D01*
X151378168Y-101238818D01*
X151372922Y-101236248D01*
X151332093Y-101213803D01*
X151332092Y-101213802D01*
X151312693Y-101208822D01*
X151294281Y-101202518D01*
X151275898Y-101194562D01*
X151275892Y-101194560D01*
X151229874Y-101187272D01*
X151224152Y-101186087D01*
X151179021Y-101174500D01*
X151179019Y-101174500D01*
X151158984Y-101174500D01*
X151139586Y-101172973D01*
X151132162Y-101171797D01*
X151119805Y-101169840D01*
X151119804Y-101169840D01*
X151073416Y-101174225D01*
X151067578Y-101174500D01*
X147054188Y-101174500D01*
X146987149Y-101154815D01*
X146952613Y-101121623D01*
X146840048Y-100960862D01*
X146840048Y-100960861D01*
X146766865Y-100887679D01*
X146733382Y-100826359D01*
X146738366Y-100756667D01*
X146766865Y-100712320D01*
X146840047Y-100639139D01*
X146970568Y-100452734D01*
X147066739Y-100246496D01*
X147125635Y-100026692D01*
X147145468Y-99800000D01*
X147142393Y-99764858D01*
X147125635Y-99573313D01*
X147125635Y-99573308D01*
X147066739Y-99353504D01*
X146970568Y-99147266D01*
X146840047Y-98960861D01*
X146840045Y-98960858D01*
X146679147Y-98799960D01*
X146677980Y-98798981D01*
X146677606Y-98798419D01*
X146675311Y-98796124D01*
X146675772Y-98795662D01*
X146639272Y-98740813D01*
X146638158Y-98670952D01*
X146674989Y-98611579D01*
X146714345Y-98587802D01*
X146832326Y-98543798D01*
X146832326Y-98543797D01*
X146832331Y-98543796D01*
X146947546Y-98457546D01*
X147033796Y-98342331D01*
X147084091Y-98207483D01*
X147090500Y-98147873D01*
X147090499Y-96452128D01*
X147084091Y-96392517D01*
X147033796Y-96257669D01*
X147033795Y-96257668D01*
X147033793Y-96257664D01*
X146947547Y-96142455D01*
X146947544Y-96142452D01*
X146832335Y-96056206D01*
X146832328Y-96056202D01*
X146697482Y-96005908D01*
X146697483Y-96005908D01*
X146637883Y-95999501D01*
X146637881Y-95999500D01*
X146637873Y-95999500D01*
X146637864Y-95999500D01*
X145042129Y-95999500D01*
X145042123Y-95999501D01*
X144982516Y-96005908D01*
X144847671Y-96056202D01*
X144847664Y-96056206D01*
X144732455Y-96142452D01*
X144732452Y-96142455D01*
X144646206Y-96257664D01*
X144646202Y-96257671D01*
X144595908Y-96392517D01*
X144589501Y-96452116D01*
X144589501Y-96452123D01*
X144589500Y-96452135D01*
X144589500Y-98147870D01*
X144589501Y-98147876D01*
X144595908Y-98207483D01*
X144646202Y-98342328D01*
X144646206Y-98342335D01*
X144732452Y-98457544D01*
X144732455Y-98457547D01*
X144847664Y-98543793D01*
X144847671Y-98543797D01*
X144965655Y-98587802D01*
X145021589Y-98629673D01*
X145046006Y-98695137D01*
X145031155Y-98763410D01*
X145004508Y-98795943D01*
X145004689Y-98796124D01*
X145002878Y-98797934D01*
X145002028Y-98798973D01*
X145000859Y-98799953D01*
X144839954Y-98960858D01*
X144727387Y-99121623D01*
X144672811Y-99165248D01*
X144625812Y-99174500D01*
X144082743Y-99174500D01*
X144067122Y-99172775D01*
X144067096Y-99173061D01*
X144059334Y-99172327D01*
X144059333Y-99172327D01*
X143990186Y-99174500D01*
X143960649Y-99174500D01*
X143953766Y-99175369D01*
X143947949Y-99175826D01*
X143901373Y-99177290D01*
X143882129Y-99182881D01*
X143863079Y-99186825D01*
X143843211Y-99189334D01*
X143799884Y-99206488D01*
X143794358Y-99208379D01*
X143749614Y-99221379D01*
X143749610Y-99221381D01*
X143732366Y-99231579D01*
X143714905Y-99240133D01*
X143696274Y-99247510D01*
X143696262Y-99247517D01*
X143658570Y-99274902D01*
X143653687Y-99278109D01*
X143613580Y-99301829D01*
X143599414Y-99315995D01*
X143584624Y-99328627D01*
X143568414Y-99340404D01*
X143568411Y-99340407D01*
X143538710Y-99376309D01*
X143534777Y-99380631D01*
X143137181Y-99778228D01*
X143075858Y-99811713D01*
X143006167Y-99806729D01*
X142950233Y-99764858D01*
X142925816Y-99699393D01*
X142925500Y-99690547D01*
X142925500Y-94230001D01*
X146544891Y-94230001D01*
X146565300Y-94515362D01*
X146626109Y-94794895D01*
X146726091Y-95062958D01*
X146863191Y-95314038D01*
X146863196Y-95314046D01*
X146969882Y-95456561D01*
X146969883Y-95456562D01*
X147475525Y-94950920D01*
X147536848Y-94917435D01*
X147606539Y-94922419D01*
X147654841Y-94955061D01*
X147771930Y-95083500D01*
X147771933Y-95083503D01*
X147816673Y-95117289D01*
X147858310Y-95173397D01*
X147863002Y-95243109D01*
X147829628Y-95303924D01*
X147323436Y-95810115D01*
X147465960Y-95916807D01*
X147465961Y-95916808D01*
X147717042Y-96053908D01*
X147717041Y-96053908D01*
X147985104Y-96153890D01*
X148264637Y-96214699D01*
X148549999Y-96235109D01*
X148550001Y-96235109D01*
X148835362Y-96214699D01*
X149114895Y-96153890D01*
X149382958Y-96053908D01*
X149634047Y-95916803D01*
X149776561Y-95810116D01*
X149776562Y-95810115D01*
X149270371Y-95303924D01*
X149236886Y-95242601D01*
X149241870Y-95172909D01*
X149283325Y-95117289D01*
X149328069Y-95083501D01*
X149445157Y-94955062D01*
X149504867Y-94918781D01*
X149574715Y-94920542D01*
X149624474Y-94950920D01*
X150130115Y-95456562D01*
X150130116Y-95456561D01*
X150236803Y-95314047D01*
X150373908Y-95062958D01*
X150473890Y-94794895D01*
X150534699Y-94515362D01*
X150555109Y-94230001D01*
X150555109Y-94229998D01*
X150534699Y-93944637D01*
X150473890Y-93665104D01*
X150373908Y-93397041D01*
X150236808Y-93145961D01*
X150236807Y-93145960D01*
X150130115Y-93003436D01*
X150130114Y-93003436D01*
X149624473Y-93509078D01*
X149563150Y-93542563D01*
X149493458Y-93537579D01*
X149445155Y-93504935D01*
X149328071Y-93376500D01*
X149283324Y-93342709D01*
X149241688Y-93286600D01*
X149236997Y-93216888D01*
X149270370Y-93156074D01*
X149776562Y-92649883D01*
X149776561Y-92649882D01*
X149634046Y-92543196D01*
X149634038Y-92543191D01*
X149382957Y-92406091D01*
X149382958Y-92406091D01*
X149114895Y-92306109D01*
X148835362Y-92245300D01*
X148550001Y-92224891D01*
X148549999Y-92224891D01*
X148264637Y-92245300D01*
X147985104Y-92306109D01*
X147717041Y-92406091D01*
X147465961Y-92543191D01*
X147465953Y-92543196D01*
X147323437Y-92649882D01*
X147323436Y-92649883D01*
X147829628Y-93156074D01*
X147863113Y-93217397D01*
X147858129Y-93287088D01*
X147816676Y-93342707D01*
X147771933Y-93376496D01*
X147654843Y-93504937D01*
X147595131Y-93541218D01*
X147525284Y-93539457D01*
X147475525Y-93509079D01*
X146969883Y-93003436D01*
X146969882Y-93003437D01*
X146863196Y-93145953D01*
X146863191Y-93145961D01*
X146726091Y-93397041D01*
X146626109Y-93665104D01*
X146565300Y-93944637D01*
X146544891Y-94229998D01*
X146544891Y-94230001D01*
X142925500Y-94230001D01*
X142925500Y-86370001D01*
X146544891Y-86370001D01*
X146565300Y-86655362D01*
X146626109Y-86934895D01*
X146726091Y-87202958D01*
X146863191Y-87454038D01*
X146863196Y-87454046D01*
X146969882Y-87596561D01*
X146969883Y-87596562D01*
X147475525Y-87090920D01*
X147536848Y-87057435D01*
X147606539Y-87062419D01*
X147654841Y-87095061D01*
X147771930Y-87223500D01*
X147771933Y-87223503D01*
X147816673Y-87257289D01*
X147858310Y-87313397D01*
X147863002Y-87383109D01*
X147829628Y-87443924D01*
X147323436Y-87950115D01*
X147465960Y-88056807D01*
X147465961Y-88056808D01*
X147717042Y-88193908D01*
X147717041Y-88193908D01*
X147985104Y-88293890D01*
X148264637Y-88354699D01*
X148549999Y-88375109D01*
X148550001Y-88375109D01*
X148835362Y-88354699D01*
X149114895Y-88293890D01*
X149382958Y-88193908D01*
X149634047Y-88056803D01*
X149776561Y-87950116D01*
X149776562Y-87950115D01*
X149270371Y-87443924D01*
X149236886Y-87382601D01*
X149241870Y-87312909D01*
X149283325Y-87257289D01*
X149328069Y-87223501D01*
X149445157Y-87095062D01*
X149504867Y-87058781D01*
X149574715Y-87060542D01*
X149624474Y-87090920D01*
X150130115Y-87596562D01*
X150130116Y-87596561D01*
X150236803Y-87454047D01*
X150373908Y-87202958D01*
X150473890Y-86934895D01*
X150534699Y-86655362D01*
X150555109Y-86370001D01*
X150555109Y-86369998D01*
X150534699Y-86084637D01*
X150473890Y-85805104D01*
X150373908Y-85537041D01*
X150236808Y-85285961D01*
X150236807Y-85285960D01*
X150130115Y-85143436D01*
X150130114Y-85143436D01*
X149624473Y-85649078D01*
X149563150Y-85682563D01*
X149493458Y-85677579D01*
X149445155Y-85644935D01*
X149328071Y-85516500D01*
X149283324Y-85482709D01*
X149241688Y-85426600D01*
X149236997Y-85356888D01*
X149270370Y-85296074D01*
X149776562Y-84789883D01*
X149776561Y-84789882D01*
X149634046Y-84683196D01*
X149634038Y-84683191D01*
X149382957Y-84546091D01*
X149382958Y-84546091D01*
X149114895Y-84446109D01*
X148835362Y-84385300D01*
X148550001Y-84364891D01*
X148549999Y-84364891D01*
X148264637Y-84385300D01*
X147985104Y-84446109D01*
X147717041Y-84546091D01*
X147465961Y-84683191D01*
X147465953Y-84683196D01*
X147323437Y-84789882D01*
X147323436Y-84789883D01*
X147829628Y-85296074D01*
X147863113Y-85357397D01*
X147858129Y-85427088D01*
X147816676Y-85482707D01*
X147771933Y-85516496D01*
X147654843Y-85644937D01*
X147595131Y-85681218D01*
X147525284Y-85679457D01*
X147475525Y-85649079D01*
X146969883Y-85143436D01*
X146969882Y-85143437D01*
X146863196Y-85285953D01*
X146863191Y-85285961D01*
X146726091Y-85537041D01*
X146626109Y-85805104D01*
X146565300Y-86084637D01*
X146544891Y-86369998D01*
X146544891Y-86370001D01*
X142925500Y-86370001D01*
X142925500Y-80510452D01*
X142945185Y-80443413D01*
X142961819Y-80422771D01*
X143922772Y-79461819D01*
X143984095Y-79428334D01*
X144010453Y-79425500D01*
X144625812Y-79425500D01*
X144692851Y-79445185D01*
G37*
%TD.AperFunction*%
%TA.AperFunction,Conductor*%
G36*
X144692851Y-58445185D02*
G01*
X144727387Y-58478377D01*
X144839951Y-58639137D01*
X144839952Y-58639138D01*
X144839953Y-58639139D01*
X144913133Y-58712319D01*
X144946617Y-58773640D01*
X144941633Y-58843332D01*
X144913133Y-58887679D01*
X144839955Y-58960858D01*
X144839948Y-58960866D01*
X144709432Y-59147265D01*
X144709431Y-59147267D01*
X144613261Y-59353502D01*
X144613258Y-59353511D01*
X144554366Y-59573302D01*
X144554364Y-59573313D01*
X144534532Y-59799998D01*
X144534532Y-59800001D01*
X144554364Y-60026686D01*
X144554366Y-60026697D01*
X144613258Y-60246488D01*
X144613261Y-60246497D01*
X144709431Y-60452732D01*
X144709432Y-60452734D01*
X144839954Y-60639141D01*
X145000858Y-60800045D01*
X145000861Y-60800047D01*
X145187266Y-60930568D01*
X145202975Y-60937893D01*
X145255414Y-60984064D01*
X145274567Y-61051257D01*
X145254352Y-61118138D01*
X145202979Y-61162656D01*
X145187512Y-61169868D01*
X145114527Y-61220972D01*
X145114526Y-61220973D01*
X145599160Y-61705606D01*
X145632645Y-61766929D01*
X145627661Y-61836620D01*
X145585790Y-61892554D01*
X145581170Y-61895761D01*
X145477325Y-61985744D01*
X145441137Y-62042053D01*
X145388332Y-62087808D01*
X145319174Y-62097751D01*
X145255618Y-62068725D01*
X145249141Y-62062694D01*
X144760973Y-61574526D01*
X144709868Y-61647513D01*
X144613734Y-61853673D01*
X144613730Y-61853682D01*
X144554860Y-62073389D01*
X144554858Y-62073400D01*
X144535034Y-62299997D01*
X144535034Y-62300002D01*
X144554858Y-62526599D01*
X144554860Y-62526610D01*
X144613730Y-62746317D01*
X144613734Y-62746326D01*
X144709865Y-62952481D01*
X144709866Y-62952483D01*
X144760973Y-63025471D01*
X144760973Y-63025472D01*
X145249141Y-62537304D01*
X145310464Y-62503819D01*
X145380155Y-62508803D01*
X145436089Y-62550674D01*
X145441132Y-62557938D01*
X145477327Y-62614258D01*
X145580555Y-62703705D01*
X145587258Y-62709513D01*
X145585970Y-62710999D01*
X145624268Y-62755188D01*
X145634219Y-62824345D01*
X145605200Y-62887904D01*
X145599160Y-62894392D01*
X145114526Y-63379025D01*
X145114526Y-63379026D01*
X145187512Y-63430131D01*
X145187516Y-63430133D01*
X145393673Y-63526265D01*
X145393682Y-63526269D01*
X145613389Y-63585139D01*
X145613400Y-63585141D01*
X145839998Y-63604966D01*
X145840002Y-63604966D01*
X146066599Y-63585141D01*
X146066610Y-63585139D01*
X146286317Y-63526269D01*
X146286331Y-63526264D01*
X146492478Y-63430136D01*
X146565472Y-63379025D01*
X146080839Y-62894393D01*
X146047354Y-62833070D01*
X146052338Y-62763379D01*
X146094209Y-62707445D01*
X146098834Y-62704233D01*
X146099441Y-62703706D01*
X146099445Y-62703705D01*
X146202673Y-62614258D01*
X146238862Y-62557945D01*
X146291665Y-62512192D01*
X146360823Y-62502248D01*
X146424379Y-62531272D01*
X146430858Y-62537305D01*
X146919025Y-63025472D01*
X146970136Y-62952478D01*
X147066264Y-62746331D01*
X147066269Y-62746317D01*
X147125139Y-62526610D01*
X147125141Y-62526599D01*
X147144966Y-62300002D01*
X147144966Y-62299997D01*
X147125141Y-62073400D01*
X147125139Y-62073389D01*
X147066269Y-61853682D01*
X147066265Y-61853673D01*
X146970133Y-61647516D01*
X146970131Y-61647512D01*
X146919026Y-61574526D01*
X146919025Y-61574526D01*
X146430857Y-62062694D01*
X146369534Y-62096179D01*
X146299842Y-62091195D01*
X146243909Y-62049323D01*
X146238866Y-62042060D01*
X146202673Y-61985742D01*
X146099445Y-61896295D01*
X146099444Y-61896294D01*
X146092742Y-61890487D01*
X146094028Y-61889002D01*
X146055725Y-61844800D01*
X146045781Y-61775641D01*
X146074805Y-61712085D01*
X146080838Y-61705606D01*
X146565472Y-61220973D01*
X146492483Y-61169866D01*
X146492481Y-61169865D01*
X146477023Y-61162657D01*
X146424584Y-61116484D01*
X146405432Y-61049290D01*
X146425648Y-60982409D01*
X146477023Y-60937893D01*
X146492734Y-60930568D01*
X146679139Y-60800047D01*
X146840047Y-60639139D01*
X146952612Y-60478377D01*
X147007189Y-60434752D01*
X147054188Y-60425500D01*
X151189548Y-60425500D01*
X151256587Y-60445185D01*
X151277229Y-60461819D01*
X154338181Y-63522771D01*
X154371666Y-63584094D01*
X154374500Y-63610452D01*
X154374500Y-83690546D01*
X154354815Y-83757585D01*
X154302011Y-83803340D01*
X154232853Y-83813284D01*
X154169297Y-83784259D01*
X154162819Y-83778227D01*
X150800803Y-80416212D01*
X150790980Y-80403950D01*
X150790759Y-80404134D01*
X150785786Y-80398123D01*
X150735364Y-80350773D01*
X150724919Y-80340328D01*
X150714475Y-80329883D01*
X150708986Y-80325625D01*
X150704561Y-80321847D01*
X150670582Y-80289938D01*
X150670580Y-80289936D01*
X150670577Y-80289935D01*
X150653029Y-80280288D01*
X150636763Y-80269604D01*
X150620933Y-80257325D01*
X150578168Y-80238818D01*
X150572922Y-80236248D01*
X150532093Y-80213803D01*
X150532092Y-80213802D01*
X150512693Y-80208822D01*
X150494281Y-80202518D01*
X150475898Y-80194562D01*
X150475892Y-80194560D01*
X150429874Y-80187272D01*
X150424152Y-80186087D01*
X150379021Y-80174500D01*
X150379019Y-80174500D01*
X150358984Y-80174500D01*
X150339586Y-80172973D01*
X150332162Y-80171797D01*
X150319805Y-80169840D01*
X150319804Y-80169840D01*
X150273416Y-80174225D01*
X150267578Y-80174500D01*
X147054188Y-80174500D01*
X146987149Y-80154815D01*
X146952613Y-80121623D01*
X146840048Y-79960862D01*
X146840044Y-79960858D01*
X146766865Y-79887679D01*
X146733382Y-79826359D01*
X146738366Y-79756667D01*
X146766865Y-79712320D01*
X146840047Y-79639139D01*
X146970568Y-79452734D01*
X147066739Y-79246496D01*
X147125635Y-79026692D01*
X147145468Y-78800000D01*
X147125635Y-78573308D01*
X147066739Y-78353504D01*
X146970568Y-78147266D01*
X146840047Y-77960861D01*
X146840045Y-77960858D01*
X146679147Y-77799960D01*
X146677980Y-77798981D01*
X146677606Y-77798419D01*
X146675311Y-77796124D01*
X146675772Y-77795662D01*
X146639272Y-77740813D01*
X146638158Y-77670952D01*
X146674989Y-77611579D01*
X146714345Y-77587802D01*
X146832326Y-77543798D01*
X146832326Y-77543797D01*
X146832331Y-77543796D01*
X146947546Y-77457546D01*
X147033796Y-77342331D01*
X147084091Y-77207483D01*
X147090500Y-77147873D01*
X147090499Y-75452128D01*
X147084091Y-75392517D01*
X147033796Y-75257669D01*
X147033795Y-75257668D01*
X147033793Y-75257664D01*
X146947547Y-75142455D01*
X146947544Y-75142452D01*
X146832335Y-75056206D01*
X146832328Y-75056202D01*
X146697482Y-75005908D01*
X146697483Y-75005908D01*
X146637883Y-74999501D01*
X146637881Y-74999500D01*
X146637873Y-74999500D01*
X146637864Y-74999500D01*
X145042129Y-74999500D01*
X145042123Y-74999501D01*
X144982516Y-75005908D01*
X144847671Y-75056202D01*
X144847664Y-75056206D01*
X144732455Y-75142452D01*
X144732452Y-75142455D01*
X144646206Y-75257664D01*
X144646202Y-75257671D01*
X144595908Y-75392517D01*
X144589501Y-75452116D01*
X144589501Y-75452123D01*
X144589500Y-75452135D01*
X144589500Y-77147870D01*
X144589501Y-77147876D01*
X144595908Y-77207483D01*
X144646202Y-77342328D01*
X144646206Y-77342335D01*
X144732452Y-77457544D01*
X144732455Y-77457547D01*
X144847664Y-77543793D01*
X144847671Y-77543797D01*
X144965655Y-77587802D01*
X145021589Y-77629673D01*
X145046006Y-77695137D01*
X145031155Y-77763410D01*
X145004508Y-77795943D01*
X145004689Y-77796124D01*
X145002878Y-77797934D01*
X145002028Y-77798973D01*
X145000859Y-77799953D01*
X144839954Y-77960858D01*
X144727387Y-78121623D01*
X144672811Y-78165248D01*
X144625812Y-78174500D01*
X143782743Y-78174500D01*
X143767122Y-78172775D01*
X143767096Y-78173061D01*
X143759334Y-78172327D01*
X143759333Y-78172327D01*
X143690186Y-78174500D01*
X143660649Y-78174500D01*
X143653766Y-78175369D01*
X143647949Y-78175826D01*
X143601373Y-78177290D01*
X143582129Y-78182881D01*
X143563079Y-78186825D01*
X143543211Y-78189334D01*
X143499884Y-78206488D01*
X143494358Y-78208379D01*
X143449614Y-78221379D01*
X143449610Y-78221381D01*
X143432366Y-78231579D01*
X143414905Y-78240133D01*
X143396274Y-78247510D01*
X143396262Y-78247517D01*
X143358570Y-78274902D01*
X143353687Y-78278109D01*
X143313580Y-78301829D01*
X143299414Y-78315995D01*
X143284624Y-78328627D01*
X143268414Y-78340404D01*
X143268411Y-78340407D01*
X143238710Y-78376309D01*
X143234777Y-78380631D01*
X142687181Y-78928227D01*
X142625858Y-78961712D01*
X142556166Y-78956728D01*
X142500233Y-78914856D01*
X142475816Y-78849392D01*
X142475500Y-78840546D01*
X142475500Y-73230001D01*
X146544891Y-73230001D01*
X146565300Y-73515362D01*
X146626109Y-73794895D01*
X146726091Y-74062958D01*
X146863191Y-74314038D01*
X146863196Y-74314046D01*
X146969882Y-74456561D01*
X146969883Y-74456562D01*
X147475525Y-73950920D01*
X147536848Y-73917435D01*
X147606539Y-73922419D01*
X147654841Y-73955061D01*
X147771930Y-74083500D01*
X147771933Y-74083503D01*
X147816673Y-74117289D01*
X147858310Y-74173397D01*
X147863002Y-74243109D01*
X147829628Y-74303924D01*
X147323436Y-74810115D01*
X147465960Y-74916807D01*
X147465961Y-74916808D01*
X147717042Y-75053908D01*
X147717041Y-75053908D01*
X147985104Y-75153890D01*
X148264637Y-75214699D01*
X148549999Y-75235109D01*
X148550001Y-75235109D01*
X148835362Y-75214699D01*
X149114895Y-75153890D01*
X149382958Y-75053908D01*
X149634047Y-74916803D01*
X149776561Y-74810116D01*
X149776562Y-74810115D01*
X149270371Y-74303924D01*
X149236886Y-74242601D01*
X149241870Y-74172909D01*
X149283325Y-74117289D01*
X149328069Y-74083501D01*
X149445157Y-73955062D01*
X149504867Y-73918781D01*
X149574715Y-73920542D01*
X149624474Y-73950920D01*
X150130115Y-74456562D01*
X150130116Y-74456561D01*
X150236803Y-74314047D01*
X150373908Y-74062958D01*
X150473890Y-73794895D01*
X150534699Y-73515362D01*
X150555109Y-73230001D01*
X150555109Y-73229998D01*
X150534699Y-72944637D01*
X150473890Y-72665104D01*
X150373908Y-72397041D01*
X150236808Y-72145961D01*
X150236807Y-72145960D01*
X150130115Y-72003436D01*
X150130114Y-72003436D01*
X149624473Y-72509078D01*
X149563150Y-72542563D01*
X149493458Y-72537579D01*
X149445155Y-72504935D01*
X149328071Y-72376500D01*
X149283324Y-72342709D01*
X149241688Y-72286600D01*
X149236997Y-72216888D01*
X149270370Y-72156074D01*
X149776562Y-71649883D01*
X149776561Y-71649882D01*
X149634046Y-71543196D01*
X149634038Y-71543191D01*
X149382957Y-71406091D01*
X149382958Y-71406091D01*
X149114895Y-71306109D01*
X148835362Y-71245300D01*
X148550001Y-71224891D01*
X148549999Y-71224891D01*
X148264637Y-71245300D01*
X147985104Y-71306109D01*
X147717041Y-71406091D01*
X147465961Y-71543191D01*
X147465953Y-71543196D01*
X147323437Y-71649882D01*
X147323436Y-71649883D01*
X147829628Y-72156074D01*
X147863113Y-72217397D01*
X147858129Y-72287088D01*
X147816676Y-72342707D01*
X147771933Y-72376496D01*
X147654843Y-72504937D01*
X147595131Y-72541218D01*
X147525284Y-72539457D01*
X147475525Y-72509079D01*
X146969883Y-72003436D01*
X146969882Y-72003437D01*
X146863196Y-72145953D01*
X146863191Y-72145961D01*
X146726091Y-72397041D01*
X146626109Y-72665104D01*
X146565300Y-72944637D01*
X146544891Y-73229998D01*
X146544891Y-73230001D01*
X142475500Y-73230001D01*
X142475500Y-65370001D01*
X146544891Y-65370001D01*
X146565300Y-65655362D01*
X146626109Y-65934895D01*
X146726091Y-66202958D01*
X146863191Y-66454038D01*
X146863196Y-66454046D01*
X146969882Y-66596561D01*
X146969883Y-66596562D01*
X147475525Y-66090920D01*
X147536848Y-66057435D01*
X147606539Y-66062419D01*
X147654841Y-66095061D01*
X147771930Y-66223500D01*
X147771933Y-66223503D01*
X147816673Y-66257289D01*
X147858310Y-66313397D01*
X147863002Y-66383109D01*
X147829628Y-66443924D01*
X147323436Y-66950115D01*
X147465960Y-67056807D01*
X147465961Y-67056808D01*
X147717042Y-67193908D01*
X147717041Y-67193908D01*
X147985104Y-67293890D01*
X148264637Y-67354699D01*
X148549999Y-67375109D01*
X148550001Y-67375109D01*
X148835362Y-67354699D01*
X149114895Y-67293890D01*
X149382958Y-67193908D01*
X149634047Y-67056803D01*
X149776561Y-66950116D01*
X149776562Y-66950115D01*
X149270371Y-66443924D01*
X149236886Y-66382601D01*
X149241870Y-66312909D01*
X149283325Y-66257289D01*
X149328069Y-66223501D01*
X149445157Y-66095062D01*
X149504867Y-66058781D01*
X149574715Y-66060542D01*
X149624474Y-66090920D01*
X150130115Y-66596562D01*
X150130116Y-66596561D01*
X150236803Y-66454047D01*
X150373908Y-66202958D01*
X150473890Y-65934895D01*
X150534699Y-65655362D01*
X150555109Y-65370001D01*
X150555109Y-65369998D01*
X150534699Y-65084637D01*
X150473890Y-64805104D01*
X150373908Y-64537041D01*
X150236808Y-64285961D01*
X150236807Y-64285960D01*
X150130115Y-64143436D01*
X150130114Y-64143436D01*
X149624473Y-64649078D01*
X149563150Y-64682563D01*
X149493458Y-64677579D01*
X149445155Y-64644935D01*
X149328071Y-64516500D01*
X149283324Y-64482709D01*
X149241688Y-64426600D01*
X149236997Y-64356888D01*
X149270370Y-64296074D01*
X149776562Y-63789883D01*
X149776561Y-63789882D01*
X149634046Y-63683196D01*
X149634038Y-63683191D01*
X149382957Y-63546091D01*
X149382958Y-63546091D01*
X149114895Y-63446109D01*
X148835362Y-63385300D01*
X148550001Y-63364891D01*
X148549999Y-63364891D01*
X148264637Y-63385300D01*
X147985104Y-63446109D01*
X147717041Y-63546091D01*
X147465961Y-63683191D01*
X147465953Y-63683196D01*
X147323437Y-63789882D01*
X147323436Y-63789883D01*
X147829628Y-64296074D01*
X147863113Y-64357397D01*
X147858129Y-64427088D01*
X147816676Y-64482707D01*
X147771933Y-64516496D01*
X147654843Y-64644937D01*
X147595131Y-64681218D01*
X147525284Y-64679457D01*
X147475525Y-64649079D01*
X146969883Y-64143436D01*
X146969882Y-64143437D01*
X146863196Y-64285953D01*
X146863191Y-64285961D01*
X146726091Y-64537041D01*
X146626109Y-64805104D01*
X146565300Y-65084637D01*
X146544891Y-65369998D01*
X146544891Y-65370001D01*
X142475500Y-65370001D01*
X142475500Y-59760452D01*
X142495185Y-59693413D01*
X142511819Y-59672771D01*
X143722772Y-58461819D01*
X143784095Y-58428334D01*
X143810453Y-58425500D01*
X144625812Y-58425500D01*
X144692851Y-58445185D01*
G37*
%TD.AperFunction*%
%TD*%
M02*
