%TF.GenerationSoftware,KiCad,Pcbnew,7.0.7*%
%TF.CreationDate,2024-02-11T16:58:00-05:00*%
%TF.ProjectId,HS8836A_USB_hub,48533838-3336-4415-9f55-53425f687562,rev?*%
%TF.SameCoordinates,Original*%
%TF.FileFunction,Legend,Bot*%
%TF.FilePolarity,Positive*%
%FSLAX46Y46*%
G04 Gerber Fmt 4.6, Leading zero omitted, Abs format (unit mm)*
G04 Created by KiCad (PCBNEW 7.0.7) date 2024-02-11 16:58:00*
%MOMM*%
%LPD*%
G01*
G04 APERTURE LIST*
%ADD10C,0.150000*%
%ADD11C,0.120000*%
G04 APERTURE END LIST*
D10*
X142104819Y-79466666D02*
X142819104Y-79466666D01*
X142819104Y-79466666D02*
X142961961Y-79419047D01*
X142961961Y-79419047D02*
X143057200Y-79323809D01*
X143057200Y-79323809D02*
X143104819Y-79180952D01*
X143104819Y-79180952D02*
X143104819Y-79085714D01*
X142438152Y-80371428D02*
X143104819Y-80371428D01*
X142057200Y-80133333D02*
X142771485Y-79895238D01*
X142771485Y-79895238D02*
X142771485Y-80514285D01*
X142104819Y-58466666D02*
X142819104Y-58466666D01*
X142819104Y-58466666D02*
X142961961Y-58419047D01*
X142961961Y-58419047D02*
X143057200Y-58323809D01*
X143057200Y-58323809D02*
X143104819Y-58180952D01*
X143104819Y-58180952D02*
X143104819Y-58085714D01*
X142104819Y-59419047D02*
X142104819Y-58942857D01*
X142104819Y-58942857D02*
X142581009Y-58895238D01*
X142581009Y-58895238D02*
X142533390Y-58942857D01*
X142533390Y-58942857D02*
X142485771Y-59038095D01*
X142485771Y-59038095D02*
X142485771Y-59276190D01*
X142485771Y-59276190D02*
X142533390Y-59371428D01*
X142533390Y-59371428D02*
X142581009Y-59419047D01*
X142581009Y-59419047D02*
X142676247Y-59466666D01*
X142676247Y-59466666D02*
X142914342Y-59466666D01*
X142914342Y-59466666D02*
X143009580Y-59419047D01*
X143009580Y-59419047D02*
X143057200Y-59371428D01*
X143057200Y-59371428D02*
X143104819Y-59276190D01*
X143104819Y-59276190D02*
X143104819Y-59038095D01*
X143104819Y-59038095D02*
X143057200Y-58942857D01*
X143057200Y-58942857D02*
X143009580Y-58895238D01*
X142104819Y-100466666D02*
X142819104Y-100466666D01*
X142819104Y-100466666D02*
X142961961Y-100419047D01*
X142961961Y-100419047D02*
X143057200Y-100323809D01*
X143057200Y-100323809D02*
X143104819Y-100180952D01*
X143104819Y-100180952D02*
X143104819Y-100085714D01*
X142104819Y-100847619D02*
X142104819Y-101466666D01*
X142104819Y-101466666D02*
X142485771Y-101133333D01*
X142485771Y-101133333D02*
X142485771Y-101276190D01*
X142485771Y-101276190D02*
X142533390Y-101371428D01*
X142533390Y-101371428D02*
X142581009Y-101419047D01*
X142581009Y-101419047D02*
X142676247Y-101466666D01*
X142676247Y-101466666D02*
X142914342Y-101466666D01*
X142914342Y-101466666D02*
X143009580Y-101419047D01*
X143009580Y-101419047D02*
X143057200Y-101371428D01*
X143057200Y-101371428D02*
X143104819Y-101276190D01*
X143104819Y-101276190D02*
X143104819Y-100990476D01*
X143104819Y-100990476D02*
X143057200Y-100895238D01*
X143057200Y-100895238D02*
X143009580Y-100847619D01*
X142104819Y-121466666D02*
X142819104Y-121466666D01*
X142819104Y-121466666D02*
X142961961Y-121419047D01*
X142961961Y-121419047D02*
X143057200Y-121323809D01*
X143057200Y-121323809D02*
X143104819Y-121180952D01*
X143104819Y-121180952D02*
X143104819Y-121085714D01*
X142200057Y-121895238D02*
X142152438Y-121942857D01*
X142152438Y-121942857D02*
X142104819Y-122038095D01*
X142104819Y-122038095D02*
X142104819Y-122276190D01*
X142104819Y-122276190D02*
X142152438Y-122371428D01*
X142152438Y-122371428D02*
X142200057Y-122419047D01*
X142200057Y-122419047D02*
X142295295Y-122466666D01*
X142295295Y-122466666D02*
X142390533Y-122466666D01*
X142390533Y-122466666D02*
X142533390Y-122419047D01*
X142533390Y-122419047D02*
X143104819Y-121847619D01*
X143104819Y-121847619D02*
X143104819Y-122466666D01*
D11*
%TO.C,J4*%
X143460000Y-86460000D02*
X146790000Y-86460000D01*
X158420000Y-73140000D02*
X150310000Y-73140000D01*
X143240000Y-75400000D02*
X143240000Y-77200000D01*
X158420000Y-73140000D02*
X158420000Y-72490000D01*
X143460000Y-73140000D02*
X143460000Y-86460000D01*
X158940000Y-87110000D02*
X158420000Y-87110000D01*
X158420000Y-87110000D02*
X158420000Y-86460000D01*
X158420000Y-72490000D02*
X158940000Y-72490000D01*
X150310000Y-86460000D02*
X158420000Y-86460000D01*
X158940000Y-72490000D02*
X158940000Y-87110000D01*
X143460000Y-73140000D02*
X146790000Y-73140000D01*
%TO.C,J5*%
X143460000Y-52140000D02*
X146790000Y-52140000D01*
X158940000Y-51490000D02*
X158940000Y-66110000D01*
X150310000Y-65460000D02*
X158420000Y-65460000D01*
X158420000Y-51490000D02*
X158940000Y-51490000D01*
X158420000Y-66110000D02*
X158420000Y-65460000D01*
X158940000Y-66110000D02*
X158420000Y-66110000D01*
X143460000Y-52140000D02*
X143460000Y-65460000D01*
X158420000Y-52140000D02*
X158420000Y-51490000D01*
X143240000Y-54400000D02*
X143240000Y-56200000D01*
X158420000Y-52140000D02*
X150310000Y-52140000D01*
X143460000Y-65460000D02*
X146790000Y-65460000D01*
%TO.C,J3*%
X143460000Y-107460000D02*
X146790000Y-107460000D01*
X158420000Y-94140000D02*
X150310000Y-94140000D01*
X143240000Y-96400000D02*
X143240000Y-98200000D01*
X158420000Y-94140000D02*
X158420000Y-93490000D01*
X143460000Y-94140000D02*
X143460000Y-107460000D01*
X158940000Y-108110000D02*
X158420000Y-108110000D01*
X158420000Y-108110000D02*
X158420000Y-107460000D01*
X158420000Y-93490000D02*
X158940000Y-93490000D01*
X150310000Y-107460000D02*
X158420000Y-107460000D01*
X158940000Y-93490000D02*
X158940000Y-108110000D01*
X143460000Y-94140000D02*
X146790000Y-94140000D01*
%TO.C,J2*%
X143460000Y-115140000D02*
X146790000Y-115140000D01*
X158940000Y-114490000D02*
X158940000Y-129110000D01*
X150310000Y-128460000D02*
X158420000Y-128460000D01*
X158420000Y-114490000D02*
X158940000Y-114490000D01*
X158420000Y-129110000D02*
X158420000Y-128460000D01*
X158940000Y-129110000D02*
X158420000Y-129110000D01*
X143460000Y-115140000D02*
X143460000Y-128460000D01*
X158420000Y-115140000D02*
X158420000Y-114490000D01*
X143240000Y-117400000D02*
X143240000Y-119200000D01*
X158420000Y-115140000D02*
X150310000Y-115140000D01*
X143460000Y-128460000D02*
X146790000Y-128460000D01*
%TD*%
M02*
