M48
; DRILL file {KiCad 7.0.7} date Sun Feb 11 16:57:56 2024
; FORMAT={-:-/ absolute / inch / decimal}
; #@! TF.CreationDate,2024-02-11T16:57:56-05:00
; #@! TF.GenerationSoftware,Kicad,Pcbnew,7.0.7
; #@! TF.FileFunction,Plated,1,2,PTH
FMAT,2
INCH
; #@! TA.AperFunction,Plated,PTH,ViaDrill
T1C0.0157
; #@! TA.AperFunction,Plated,PTH,ComponentDrill
T2C0.0354
; #@! TA.AperFunction,Plated,PTH,ComponentDrill
T3C0.0374
; #@! TA.AperFunction,Plated,PTH,ComponentDrill
T4C0.0906
%
G90
G05
T1
X5.5906Y-5.5118
X5.6299Y-5.4488
X5.8228Y-5.3189
X5.8268Y-5.2717
X5.8268Y-5.4094
X6.0079Y-5.7362
X6.1457Y-5.7362
T2
X5.4646Y-5.3346
X5.4646Y-5.4331
X5.4646Y-5.5118
X5.4646Y-5.6102
T3
X5.7417Y-2.1772
X5.7417Y-2.2756
X5.7417Y-2.3543
X5.7417Y-2.4528
X5.7417Y-3.0039
X5.7417Y-3.1024
X5.7417Y-3.1811
X5.7417Y-3.2795
X5.7417Y-3.8307
X5.7417Y-3.9291
X5.7417Y-4.0079
X5.7417Y-4.1063
X5.7417Y-4.6575
X5.7417Y-4.7559
X5.7417Y-4.8346
X5.7417Y-4.9331
T4
X5.8484Y-2.0563
X5.8484Y-2.5736
X5.8484Y-2.8831
X5.8484Y-3.4004
X5.8484Y-3.7098
X5.8484Y-4.2272
X5.8484Y-4.5366
X5.8484Y-5.0539
T2
G00X5.4114Y-5.2421
M15
G01X5.3602Y-5.2421
M16
G05
G00X5.4114Y-5.7028
M15
G01X5.3602Y-5.7028
M16
G05
T0
M30
