%TF.GenerationSoftware,KiCad,Pcbnew,7.0.7*%
%TF.CreationDate,2024-02-11T16:58:00-05:00*%
%TF.ProjectId,HS8836A_USB_hub,48533838-3336-4415-9f55-53425f687562,rev?*%
%TF.SameCoordinates,Original*%
%TF.FileFunction,Copper,L2,Bot*%
%TF.FilePolarity,Positive*%
%FSLAX46Y46*%
G04 Gerber Fmt 4.6, Leading zero omitted, Abs format (unit mm)*
G04 Created by KiCad (PCBNEW 7.0.7) date 2024-02-11 16:58:00*
%MOMM*%
%LPD*%
G01*
G04 APERTURE LIST*
G04 Aperture macros list*
%AMRoundRect*
0 Rectangle with rounded corners*
0 $1 Rounding radius*
0 $2 $3 $4 $5 $6 $7 $8 $9 X,Y pos of 4 corners*
0 Add a 4 corners polygon primitive as box body*
4,1,4,$2,$3,$4,$5,$6,$7,$8,$9,$2,$3,0*
0 Add four circle primitives for the rounded corners*
1,1,$1+$1,$2,$3*
1,1,$1+$1,$4,$5*
1,1,$1+$1,$6,$7*
1,1,$1+$1,$8,$9*
0 Add four rect primitives between the rounded corners*
20,1,$1+$1,$2,$3,$4,$5,0*
20,1,$1+$1,$4,$5,$6,$7,0*
20,1,$1+$1,$6,$7,$8,$9,0*
20,1,$1+$1,$8,$9,$2,$3,0*%
G04 Aperture macros list end*
%TA.AperFunction,ComponentPad*%
%ADD10R,1.500000X1.600000*%
%TD*%
%TA.AperFunction,ComponentPad*%
%ADD11C,1.600000*%
%TD*%
%TA.AperFunction,ComponentPad*%
%ADD12C,3.000000*%
%TD*%
%TA.AperFunction,ComponentPad*%
%ADD13RoundRect,0.350000X-0.950000X0.350000X-0.950000X-0.350000X0.950000X-0.350000X0.950000X0.350000X0*%
%TD*%
%TA.AperFunction,ComponentPad*%
%ADD14C,1.400000*%
%TD*%
%TA.AperFunction,ViaPad*%
%ADD15C,0.800000*%
%TD*%
%TA.AperFunction,Conductor*%
%ADD16C,0.600000*%
%TD*%
%TA.AperFunction,Conductor*%
%ADD17C,0.250000*%
%TD*%
G04 APERTURE END LIST*
D10*
%TO.P,J4,1,VBUS*%
%TO.N,VCC*%
X145840000Y-76300000D03*
D11*
%TO.P,J4,2,D-*%
%TO.N,Net-(J4-D-)*%
X145840000Y-78800000D03*
%TO.P,J4,3,D+*%
%TO.N,Net-(J4-D+)*%
X145840000Y-80800000D03*
%TO.P,J4,4,GND*%
%TO.N,GND*%
X145840000Y-83300000D03*
D12*
%TO.P,J4,5,Shield*%
X148550000Y-86370000D03*
X148550000Y-73230000D03*
%TD*%
D13*
%TO.P,Jr1,5,Shield*%
%TO.N,GND*%
X136800000Y-144850000D03*
X136800000Y-133150000D03*
D14*
%TO.P,Jr1,4,GND*%
X138800000Y-135500000D03*
%TO.P,Jr1,3,D+*%
%TO.N,Net-(Jr1-D+)*%
X138800000Y-138000000D03*
%TO.P,Jr1,2,D-*%
%TO.N,Net-(Jr1-D-)*%
X138800000Y-140000000D03*
%TO.P,Jr1,1,VBUS*%
%TO.N,VCC*%
X138800000Y-142500000D03*
%TD*%
D12*
%TO.P,J5,5,Shield*%
%TO.N,GND*%
X148550000Y-52230000D03*
X148550000Y-65370000D03*
D11*
%TO.P,J5,4,GND*%
X145840000Y-62300000D03*
%TO.P,J5,3,D+*%
%TO.N,Net-(J5-D+)*%
X145840000Y-59800000D03*
%TO.P,J5,2,D-*%
%TO.N,Net-(J5-D-)*%
X145840000Y-57800000D03*
D10*
%TO.P,J5,1,VBUS*%
%TO.N,VCC*%
X145840000Y-55300000D03*
%TD*%
%TO.P,J3,1,VBUS*%
%TO.N,VCC*%
X145840000Y-97300000D03*
D11*
%TO.P,J3,2,D-*%
%TO.N,Net-(J3-D-)*%
X145840000Y-99800000D03*
%TO.P,J3,3,D+*%
%TO.N,Net-(J3-D+)*%
X145840000Y-101800000D03*
%TO.P,J3,4,GND*%
%TO.N,GND*%
X145840000Y-104300000D03*
D12*
%TO.P,J3,5,Shield*%
X148550000Y-107370000D03*
X148550000Y-94230000D03*
%TD*%
%TO.P,J2,5,Shield*%
%TO.N,GND*%
X148550000Y-115230000D03*
X148550000Y-128370000D03*
D11*
%TO.P,J2,4,GND*%
X145840000Y-125300000D03*
%TO.P,J2,3,D+*%
%TO.N,Net-(J2-D+)*%
X145840000Y-122800000D03*
%TO.P,J2,2,D-*%
%TO.N,Net-(J2-D-)*%
X145840000Y-120800000D03*
D10*
%TO.P,J2,1,VBUS*%
%TO.N,VCC*%
X145840000Y-118300000D03*
%TD*%
D15*
%TO.N,GND*%
X156100000Y-145700000D03*
X152600000Y-145700000D03*
%TO.N,VCC*%
X143000000Y-138400000D03*
%TO.N,Net-(Jr1-D-)*%
X142000000Y-140000000D03*
X148000000Y-133900000D03*
%TO.N,Net-(U1-DCP)*%
X147900000Y-135100000D03*
X148000000Y-137400000D03*
%TD*%
D16*
%TO.N,VCC*%
X145840000Y-118300000D02*
X143000000Y-118300000D01*
X143000000Y-118300000D02*
X143000000Y-97400000D01*
X143000000Y-138400000D02*
X143000000Y-118300000D01*
X145840000Y-97300000D02*
X143100000Y-97300000D01*
X143000000Y-97400000D02*
X143000000Y-76200000D01*
X143100000Y-97300000D02*
X143000000Y-97400000D01*
X143100000Y-76300000D02*
X143000000Y-76200000D01*
X145840000Y-76300000D02*
X143100000Y-76300000D01*
X143000000Y-76200000D02*
X143000000Y-56300000D01*
X144000000Y-55300000D02*
X145840000Y-55300000D01*
X143000000Y-56300000D02*
X144000000Y-55300000D01*
D17*
%TO.N,Net-(Jr1-D-)*%
X146400000Y-138800000D02*
X146400000Y-135500000D01*
X146400000Y-135500000D02*
X148000000Y-133900000D01*
X145200000Y-140000000D02*
X146400000Y-138800000D01*
X142000000Y-140000000D02*
X145200000Y-140000000D01*
%TO.N,Net-(U1-DCP)*%
X147900000Y-137300000D02*
X148000000Y-137400000D01*
X147900000Y-135100000D02*
X147900000Y-137300000D01*
%TD*%
%TA.AperFunction,Conductor*%
%TO.N,GND*%
G36*
X158642539Y-48820185D02*
G01*
X158688294Y-48872989D01*
X158699500Y-48924500D01*
X158699500Y-147075500D01*
X158679815Y-147142539D01*
X158627011Y-147188294D01*
X158575500Y-147199500D01*
X134574500Y-147199500D01*
X134507461Y-147179815D01*
X134461706Y-147127011D01*
X134450500Y-147075500D01*
X134450500Y-144426086D01*
X135000000Y-144426086D01*
X135000001Y-145273911D01*
X135000001Y-145273912D01*
X135002814Y-145315423D01*
X135002814Y-145315425D01*
X135047435Y-145494849D01*
X135129581Y-145660481D01*
X135245413Y-145804582D01*
X135382039Y-145914406D01*
X135963822Y-145332623D01*
X136025145Y-145299138D01*
X136072599Y-145301162D01*
X136072983Y-145298615D01*
X136082172Y-145300000D01*
X136404191Y-145300000D01*
X136471230Y-145319685D01*
X136516985Y-145372489D01*
X136526929Y-145441647D01*
X136497904Y-145505203D01*
X136491872Y-145511681D01*
X135953553Y-146049998D01*
X135953554Y-146049999D01*
X137646445Y-146049999D01*
X137646445Y-146049998D01*
X137108128Y-145511681D01*
X137074643Y-145450358D01*
X137079627Y-145380666D01*
X137121499Y-145324733D01*
X137186963Y-145300316D01*
X137195809Y-145300000D01*
X137483723Y-145300000D01*
X137483724Y-145300000D01*
X137525958Y-145293634D01*
X137595182Y-145303106D01*
X137632121Y-145328568D01*
X138217960Y-145914407D01*
X138354584Y-145804585D01*
X138354585Y-145804584D01*
X138470418Y-145660481D01*
X138552564Y-145494849D01*
X138597184Y-145315431D01*
X138600000Y-145273914D01*
X138599999Y-144426089D01*
X138599999Y-144426088D01*
X138597185Y-144384576D01*
X138597185Y-144384574D01*
X138552564Y-144205150D01*
X138470418Y-144039518D01*
X138354587Y-143895417D01*
X138354582Y-143895412D01*
X138304613Y-143855246D01*
X138264695Y-143797902D01*
X138262450Y-143737167D01*
X138259499Y-143743929D01*
X138249858Y-143750356D01*
X138251527Y-143752025D01*
X137636176Y-144367375D01*
X137574853Y-144400860D01*
X137527397Y-144398847D01*
X137527015Y-144401385D01*
X137517827Y-144400000D01*
X137195808Y-144400000D01*
X137128769Y-144380315D01*
X137083014Y-144327511D01*
X137073070Y-144258353D01*
X137102095Y-144194797D01*
X137108127Y-144188319D01*
X137646445Y-143650000D01*
X135953554Y-143650000D01*
X136491872Y-144188319D01*
X136525357Y-144249642D01*
X136520373Y-144319334D01*
X136478501Y-144375267D01*
X136413037Y-144399684D01*
X136404191Y-144400000D01*
X136116265Y-144400000D01*
X136074039Y-144406365D01*
X136004814Y-144396891D01*
X135967878Y-144371431D01*
X135382039Y-143785592D01*
X135382038Y-143785592D01*
X135245417Y-143895412D01*
X135245412Y-143895417D01*
X135129581Y-144039518D01*
X135047435Y-144205150D01*
X135002815Y-144384568D01*
X135000000Y-144426086D01*
X134450500Y-144426086D01*
X134450500Y-142500000D01*
X137594357Y-142500000D01*
X137614884Y-142721535D01*
X137614885Y-142721537D01*
X137675769Y-142935523D01*
X137675775Y-142935538D01*
X137774938Y-143134683D01*
X137774943Y-143134691D01*
X137909020Y-143312238D01*
X138073437Y-143462123D01*
X138073439Y-143462125D01*
X138229712Y-143558885D01*
X138276348Y-143610913D01*
X138287452Y-143679895D01*
X138278523Y-143700347D01*
X138297694Y-143667948D01*
X138360135Y-143636596D01*
X138427094Y-143642972D01*
X138470060Y-143659618D01*
X138688757Y-143700500D01*
X138688759Y-143700500D01*
X138911241Y-143700500D01*
X138911243Y-143700500D01*
X139129940Y-143659618D01*
X139337401Y-143579247D01*
X139526562Y-143462124D01*
X139690981Y-143312236D01*
X139825058Y-143134689D01*
X139924229Y-142935528D01*
X139985115Y-142721536D01*
X140005643Y-142500000D01*
X139985115Y-142278464D01*
X139924229Y-142064472D01*
X139892375Y-142000500D01*
X139825061Y-141865316D01*
X139825056Y-141865308D01*
X139690979Y-141687761D01*
X139526562Y-141537876D01*
X139526560Y-141537874D01*
X139337404Y-141420754D01*
X139337395Y-141420750D01*
X139265560Y-141392921D01*
X139195101Y-141365625D01*
X139139701Y-141323054D01*
X139116110Y-141257288D01*
X139131821Y-141189207D01*
X139181844Y-141140428D01*
X139195093Y-141134377D01*
X139337401Y-141079247D01*
X139526562Y-140962124D01*
X139690981Y-140812236D01*
X139825058Y-140634689D01*
X139924229Y-140435528D01*
X139985115Y-140221536D01*
X140005643Y-140000000D01*
X141094540Y-140000000D01*
X141114326Y-140188256D01*
X141114327Y-140188259D01*
X141172818Y-140368277D01*
X141172821Y-140368284D01*
X141267467Y-140532216D01*
X141359736Y-140634691D01*
X141394129Y-140672888D01*
X141547265Y-140784148D01*
X141547270Y-140784151D01*
X141720192Y-140861142D01*
X141720197Y-140861144D01*
X141905354Y-140900500D01*
X141905355Y-140900500D01*
X142094644Y-140900500D01*
X142094646Y-140900500D01*
X142279803Y-140861144D01*
X142452730Y-140784151D01*
X142605871Y-140672888D01*
X142608788Y-140669647D01*
X142611600Y-140666526D01*
X142671087Y-140629879D01*
X142703748Y-140625500D01*
X145117257Y-140625500D01*
X145132877Y-140627224D01*
X145132904Y-140626939D01*
X145140660Y-140627671D01*
X145140667Y-140627673D01*
X145209814Y-140625500D01*
X145239350Y-140625500D01*
X145246228Y-140624630D01*
X145252041Y-140624172D01*
X145298627Y-140622709D01*
X145317869Y-140617117D01*
X145336912Y-140613174D01*
X145356792Y-140610664D01*
X145400122Y-140593507D01*
X145405646Y-140591617D01*
X145409396Y-140590527D01*
X145450390Y-140578618D01*
X145467629Y-140568422D01*
X145485103Y-140559862D01*
X145503727Y-140552488D01*
X145503727Y-140552487D01*
X145503732Y-140552486D01*
X145541449Y-140525082D01*
X145546305Y-140521892D01*
X145586420Y-140498170D01*
X145600589Y-140483999D01*
X145615379Y-140471368D01*
X145631587Y-140459594D01*
X145661299Y-140423676D01*
X145665212Y-140419376D01*
X146783787Y-139300802D01*
X146796042Y-139290986D01*
X146795859Y-139290764D01*
X146801866Y-139285792D01*
X146801877Y-139285786D01*
X146832775Y-139252882D01*
X146849227Y-139235364D01*
X146859671Y-139224918D01*
X146870120Y-139214471D01*
X146874379Y-139208978D01*
X146878152Y-139204561D01*
X146910062Y-139170582D01*
X146919713Y-139153024D01*
X146930396Y-139136761D01*
X146942673Y-139120936D01*
X146961185Y-139078153D01*
X146963738Y-139072941D01*
X146986197Y-139032092D01*
X146991180Y-139012680D01*
X146997481Y-138994280D01*
X147005437Y-138975896D01*
X147012729Y-138929852D01*
X147013906Y-138924171D01*
X147025500Y-138879019D01*
X147025500Y-138858982D01*
X147027027Y-138839582D01*
X147030160Y-138819804D01*
X147025775Y-138773415D01*
X147025500Y-138767577D01*
X147025500Y-137975891D01*
X147045185Y-137908852D01*
X147097989Y-137863097D01*
X147167147Y-137853153D01*
X147230703Y-137882178D01*
X147256888Y-137913892D01*
X147267467Y-137932216D01*
X147394129Y-138072888D01*
X147547265Y-138184148D01*
X147547270Y-138184151D01*
X147720192Y-138261142D01*
X147720197Y-138261144D01*
X147905354Y-138300500D01*
X147905355Y-138300500D01*
X148094644Y-138300500D01*
X148094646Y-138300500D01*
X148279803Y-138261144D01*
X148452730Y-138184151D01*
X148605871Y-138072888D01*
X148732533Y-137932216D01*
X148827179Y-137768284D01*
X148885674Y-137588256D01*
X148905460Y-137400000D01*
X148885674Y-137211744D01*
X148827179Y-137031716D01*
X148732533Y-136867784D01*
X148605871Y-136727112D01*
X148576613Y-136705854D01*
X148533949Y-136650526D01*
X148525500Y-136605538D01*
X148525500Y-135798687D01*
X148545185Y-135731648D01*
X148557350Y-135715715D01*
X148601879Y-135666260D01*
X148632533Y-135632216D01*
X148727179Y-135468284D01*
X148785674Y-135288256D01*
X148805460Y-135100000D01*
X148785674Y-134911744D01*
X148727179Y-134731716D01*
X148668957Y-134630872D01*
X148652484Y-134562971D01*
X148675337Y-134496944D01*
X148684180Y-134485916D01*
X148732533Y-134432216D01*
X148827179Y-134268284D01*
X148885674Y-134088256D01*
X148905460Y-133900000D01*
X148885674Y-133711744D01*
X148827179Y-133531716D01*
X148732533Y-133367784D01*
X148605871Y-133227112D01*
X148605870Y-133227111D01*
X148452734Y-133115851D01*
X148452729Y-133115848D01*
X148279807Y-133038857D01*
X148279802Y-133038855D01*
X148134001Y-133007865D01*
X148094646Y-132999500D01*
X147905354Y-132999500D01*
X147872897Y-133006398D01*
X147720197Y-133038855D01*
X147720192Y-133038857D01*
X147547270Y-133115848D01*
X147547265Y-133115851D01*
X147394129Y-133227111D01*
X147267466Y-133367785D01*
X147172821Y-133531715D01*
X147172818Y-133531722D01*
X147114327Y-133711740D01*
X147114326Y-133711744D01*
X147096679Y-133879649D01*
X147070094Y-133944263D01*
X147061039Y-133954368D01*
X146016208Y-134999199D01*
X146003951Y-135009020D01*
X146004134Y-135009241D01*
X145998123Y-135014213D01*
X145950772Y-135064636D01*
X145929889Y-135085518D01*
X145929877Y-135085532D01*
X145925621Y-135091017D01*
X145921837Y-135095447D01*
X145889937Y-135129418D01*
X145889936Y-135129420D01*
X145880284Y-135146976D01*
X145869610Y-135163226D01*
X145857329Y-135179061D01*
X145857324Y-135179068D01*
X145838815Y-135221838D01*
X145836245Y-135227084D01*
X145813803Y-135267906D01*
X145808822Y-135287307D01*
X145802521Y-135305710D01*
X145794562Y-135324102D01*
X145794561Y-135324105D01*
X145787271Y-135370127D01*
X145786087Y-135375846D01*
X145774501Y-135420972D01*
X145774500Y-135420982D01*
X145774500Y-135441016D01*
X145772973Y-135460415D01*
X145769840Y-135480194D01*
X145769840Y-135480195D01*
X145774225Y-135526583D01*
X145774500Y-135532421D01*
X145774500Y-138489546D01*
X145754815Y-138556585D01*
X145738181Y-138577227D01*
X144977228Y-139338181D01*
X144915905Y-139371666D01*
X144889547Y-139374500D01*
X143572370Y-139374500D01*
X143505331Y-139354815D01*
X143459576Y-139302011D01*
X143449632Y-139232853D01*
X143478657Y-139169297D01*
X143499485Y-139150182D01*
X143539740Y-139120935D01*
X143605871Y-139072888D01*
X143732533Y-138932216D01*
X143827179Y-138768284D01*
X143885674Y-138588256D01*
X143905460Y-138400000D01*
X143885674Y-138211744D01*
X143827179Y-138031716D01*
X143827178Y-138031715D01*
X143827178Y-138031713D01*
X143817112Y-138014277D01*
X143800500Y-137952279D01*
X143800500Y-128370001D01*
X146544891Y-128370001D01*
X146565300Y-128655362D01*
X146626109Y-128934895D01*
X146726091Y-129202958D01*
X146863191Y-129454038D01*
X146863196Y-129454046D01*
X146969882Y-129596561D01*
X146969883Y-129596562D01*
X147475525Y-129090920D01*
X147536848Y-129057435D01*
X147606539Y-129062419D01*
X147654841Y-129095061D01*
X147771930Y-129223500D01*
X147771933Y-129223503D01*
X147816673Y-129257289D01*
X147858310Y-129313397D01*
X147863002Y-129383109D01*
X147829628Y-129443924D01*
X147323436Y-129950115D01*
X147465960Y-130056807D01*
X147465961Y-130056808D01*
X147717042Y-130193908D01*
X147717041Y-130193908D01*
X147985104Y-130293890D01*
X148264637Y-130354699D01*
X148549999Y-130375109D01*
X148550001Y-130375109D01*
X148835362Y-130354699D01*
X149114895Y-130293890D01*
X149382958Y-130193908D01*
X149634047Y-130056803D01*
X149776561Y-129950116D01*
X149776562Y-129950115D01*
X149270371Y-129443924D01*
X149236886Y-129382601D01*
X149241870Y-129312909D01*
X149283325Y-129257289D01*
X149328069Y-129223501D01*
X149445157Y-129095062D01*
X149504867Y-129058781D01*
X149574715Y-129060542D01*
X149624474Y-129090920D01*
X150130115Y-129596562D01*
X150130116Y-129596561D01*
X150236803Y-129454047D01*
X150373908Y-129202958D01*
X150473890Y-128934895D01*
X150534699Y-128655362D01*
X150555109Y-128370001D01*
X150555109Y-128369998D01*
X150534699Y-128084637D01*
X150473890Y-127805104D01*
X150373908Y-127537041D01*
X150236808Y-127285961D01*
X150236807Y-127285960D01*
X150130115Y-127143436D01*
X150130114Y-127143436D01*
X149624473Y-127649078D01*
X149563150Y-127682563D01*
X149493458Y-127677579D01*
X149445155Y-127644935D01*
X149328071Y-127516500D01*
X149283324Y-127482709D01*
X149241688Y-127426600D01*
X149236997Y-127356888D01*
X149270370Y-127296074D01*
X149776562Y-126789883D01*
X149776561Y-126789882D01*
X149634046Y-126683196D01*
X149634038Y-126683191D01*
X149382957Y-126546091D01*
X149382958Y-126546091D01*
X149114895Y-126446109D01*
X148835362Y-126385300D01*
X148550001Y-126364891D01*
X148549999Y-126364891D01*
X148264637Y-126385300D01*
X147985104Y-126446109D01*
X147717041Y-126546091D01*
X147465961Y-126683191D01*
X147465953Y-126683196D01*
X147323437Y-126789882D01*
X147323436Y-126789883D01*
X147829628Y-127296074D01*
X147863113Y-127357397D01*
X147858129Y-127427088D01*
X147816676Y-127482707D01*
X147771933Y-127516496D01*
X147654843Y-127644937D01*
X147595131Y-127681218D01*
X147525284Y-127679457D01*
X147475525Y-127649079D01*
X146969883Y-127143436D01*
X146969882Y-127143437D01*
X146863196Y-127285953D01*
X146863191Y-127285961D01*
X146726091Y-127537041D01*
X146626109Y-127805104D01*
X146565300Y-128084637D01*
X146544891Y-128369998D01*
X146544891Y-128370001D01*
X143800500Y-128370001D01*
X143800500Y-119224500D01*
X143820185Y-119157461D01*
X143872989Y-119111706D01*
X143924500Y-119100500D01*
X144473023Y-119100500D01*
X144540062Y-119120185D01*
X144585817Y-119172989D01*
X144593266Y-119200134D01*
X144594124Y-119199932D01*
X144595907Y-119207479D01*
X144646202Y-119342328D01*
X144646206Y-119342335D01*
X144732452Y-119457544D01*
X144732455Y-119457547D01*
X144847664Y-119543793D01*
X144847671Y-119543797D01*
X144965655Y-119587802D01*
X145021589Y-119629673D01*
X145046006Y-119695137D01*
X145031155Y-119763410D01*
X145004508Y-119795943D01*
X145004689Y-119796124D01*
X145002878Y-119797934D01*
X145002028Y-119798973D01*
X145000859Y-119799953D01*
X144839954Y-119960858D01*
X144709432Y-120147265D01*
X144709431Y-120147267D01*
X144613261Y-120353502D01*
X144613258Y-120353511D01*
X144554366Y-120573302D01*
X144554364Y-120573313D01*
X144534532Y-120799998D01*
X144534532Y-120800001D01*
X144554364Y-121026686D01*
X144554366Y-121026697D01*
X144613258Y-121246488D01*
X144613261Y-121246497D01*
X144709431Y-121452732D01*
X144709432Y-121452734D01*
X144839951Y-121639137D01*
X144913132Y-121712319D01*
X144946616Y-121773643D01*
X144941631Y-121843334D01*
X144913132Y-121887681D01*
X144839951Y-121960862D01*
X144709432Y-122147265D01*
X144709431Y-122147267D01*
X144613261Y-122353502D01*
X144613258Y-122353511D01*
X144554366Y-122573302D01*
X144554364Y-122573313D01*
X144534532Y-122799998D01*
X144534532Y-122800001D01*
X144554364Y-123026686D01*
X144554366Y-123026697D01*
X144613258Y-123246488D01*
X144613261Y-123246497D01*
X144709431Y-123452732D01*
X144709432Y-123452734D01*
X144839954Y-123639141D01*
X145000858Y-123800045D01*
X145000861Y-123800047D01*
X145187266Y-123930568D01*
X145202975Y-123937893D01*
X145255414Y-123984064D01*
X145274567Y-124051257D01*
X145254352Y-124118138D01*
X145202979Y-124162656D01*
X145187512Y-124169868D01*
X145114527Y-124220972D01*
X145114526Y-124220973D01*
X145599160Y-124705606D01*
X145632645Y-124766929D01*
X145627661Y-124836620D01*
X145585790Y-124892554D01*
X145581170Y-124895761D01*
X145477325Y-124985744D01*
X145441137Y-125042053D01*
X145388332Y-125087808D01*
X145319174Y-125097751D01*
X145255618Y-125068725D01*
X145249141Y-125062694D01*
X144760973Y-124574526D01*
X144709868Y-124647513D01*
X144613734Y-124853673D01*
X144613730Y-124853682D01*
X144554860Y-125073389D01*
X144554858Y-125073400D01*
X144535034Y-125299997D01*
X144535034Y-125300002D01*
X144554858Y-125526599D01*
X144554860Y-125526610D01*
X144613730Y-125746317D01*
X144613734Y-125746326D01*
X144709865Y-125952481D01*
X144709866Y-125952483D01*
X144760973Y-126025471D01*
X144760973Y-126025472D01*
X145249141Y-125537304D01*
X145310464Y-125503819D01*
X145380155Y-125508803D01*
X145436089Y-125550674D01*
X145441132Y-125557938D01*
X145477327Y-125614258D01*
X145580555Y-125703705D01*
X145587258Y-125709513D01*
X145585970Y-125710999D01*
X145624268Y-125755188D01*
X145634219Y-125824345D01*
X145605200Y-125887904D01*
X145599160Y-125894392D01*
X145114526Y-126379025D01*
X145114526Y-126379026D01*
X145187512Y-126430131D01*
X145187516Y-126430133D01*
X145393673Y-126526265D01*
X145393682Y-126526269D01*
X145613389Y-126585139D01*
X145613400Y-126585141D01*
X145839998Y-126604966D01*
X145840002Y-126604966D01*
X146066599Y-126585141D01*
X146066610Y-126585139D01*
X146286317Y-126526269D01*
X146286331Y-126526264D01*
X146492478Y-126430136D01*
X146565472Y-126379025D01*
X146080839Y-125894393D01*
X146047354Y-125833070D01*
X146052338Y-125763379D01*
X146094209Y-125707445D01*
X146098834Y-125704233D01*
X146099441Y-125703706D01*
X146099445Y-125703705D01*
X146202673Y-125614258D01*
X146238862Y-125557945D01*
X146291665Y-125512192D01*
X146360823Y-125502248D01*
X146424379Y-125531272D01*
X146430858Y-125537305D01*
X146919025Y-126025472D01*
X146970136Y-125952478D01*
X147066264Y-125746331D01*
X147066269Y-125746317D01*
X147125139Y-125526610D01*
X147125141Y-125526599D01*
X147144966Y-125300002D01*
X147144966Y-125299997D01*
X147125141Y-125073400D01*
X147125139Y-125073389D01*
X147066269Y-124853682D01*
X147066265Y-124853673D01*
X146970133Y-124647516D01*
X146970131Y-124647512D01*
X146919026Y-124574526D01*
X146919025Y-124574526D01*
X146430857Y-125062694D01*
X146369534Y-125096179D01*
X146299842Y-125091195D01*
X146243909Y-125049323D01*
X146238866Y-125042060D01*
X146202673Y-124985742D01*
X146099445Y-124896295D01*
X146099444Y-124896294D01*
X146092742Y-124890487D01*
X146094028Y-124889002D01*
X146055725Y-124844800D01*
X146045781Y-124775641D01*
X146074805Y-124712085D01*
X146080838Y-124705606D01*
X146565472Y-124220973D01*
X146492483Y-124169866D01*
X146492481Y-124169865D01*
X146477023Y-124162657D01*
X146424584Y-124116484D01*
X146405432Y-124049290D01*
X146425648Y-123982409D01*
X146477023Y-123937893D01*
X146492734Y-123930568D01*
X146679139Y-123800047D01*
X146840047Y-123639139D01*
X146970568Y-123452734D01*
X147066739Y-123246496D01*
X147125635Y-123026692D01*
X147145468Y-122800000D01*
X147125635Y-122573308D01*
X147066739Y-122353504D01*
X146970568Y-122147266D01*
X146840047Y-121960861D01*
X146766865Y-121887679D01*
X146733382Y-121826359D01*
X146738366Y-121756667D01*
X146766865Y-121712320D01*
X146840047Y-121639139D01*
X146970568Y-121452734D01*
X147066739Y-121246496D01*
X147125635Y-121026692D01*
X147145468Y-120800000D01*
X147125635Y-120573308D01*
X147066739Y-120353504D01*
X146970568Y-120147266D01*
X146840047Y-119960861D01*
X146840045Y-119960858D01*
X146679147Y-119799960D01*
X146677980Y-119798981D01*
X146677606Y-119798419D01*
X146675311Y-119796124D01*
X146675772Y-119795662D01*
X146639272Y-119740813D01*
X146638158Y-119670952D01*
X146674989Y-119611579D01*
X146714345Y-119587802D01*
X146832326Y-119543798D01*
X146832326Y-119543797D01*
X146832331Y-119543796D01*
X146947546Y-119457546D01*
X147033796Y-119342331D01*
X147084091Y-119207483D01*
X147090500Y-119147873D01*
X147090499Y-117452128D01*
X147084091Y-117392517D01*
X147033796Y-117257669D01*
X147033795Y-117257668D01*
X147033793Y-117257664D01*
X146947547Y-117142455D01*
X146947544Y-117142452D01*
X146832335Y-117056206D01*
X146832328Y-117056202D01*
X146697482Y-117005908D01*
X146697483Y-117005908D01*
X146637883Y-116999501D01*
X146637881Y-116999500D01*
X146637873Y-116999500D01*
X146637864Y-116999500D01*
X145042129Y-116999500D01*
X145042123Y-116999501D01*
X144982516Y-117005908D01*
X144847671Y-117056202D01*
X144847664Y-117056206D01*
X144732455Y-117142452D01*
X144732452Y-117142455D01*
X144646206Y-117257664D01*
X144646202Y-117257671D01*
X144595908Y-117392517D01*
X144594126Y-117400062D01*
X144591853Y-117399525D01*
X144569571Y-117453312D01*
X144512177Y-117493157D01*
X144473024Y-117499500D01*
X143924500Y-117499500D01*
X143857461Y-117479815D01*
X143811706Y-117427011D01*
X143800500Y-117375500D01*
X143800500Y-115230001D01*
X146544891Y-115230001D01*
X146565300Y-115515362D01*
X146626109Y-115794895D01*
X146726091Y-116062958D01*
X146863191Y-116314038D01*
X146863196Y-116314046D01*
X146969882Y-116456561D01*
X146969883Y-116456562D01*
X147475525Y-115950920D01*
X147536848Y-115917435D01*
X147606539Y-115922419D01*
X147654841Y-115955061D01*
X147771930Y-116083500D01*
X147771933Y-116083503D01*
X147816673Y-116117289D01*
X147858310Y-116173397D01*
X147863002Y-116243109D01*
X147829628Y-116303924D01*
X147323436Y-116810115D01*
X147465960Y-116916807D01*
X147465961Y-116916808D01*
X147717042Y-117053908D01*
X147717041Y-117053908D01*
X147985104Y-117153890D01*
X148264637Y-117214699D01*
X148549999Y-117235109D01*
X148550001Y-117235109D01*
X148835362Y-117214699D01*
X149114895Y-117153890D01*
X149382958Y-117053908D01*
X149634047Y-116916803D01*
X149776561Y-116810116D01*
X149776562Y-116810115D01*
X149270371Y-116303924D01*
X149236886Y-116242601D01*
X149241870Y-116172909D01*
X149283325Y-116117289D01*
X149328069Y-116083501D01*
X149445157Y-115955062D01*
X149504867Y-115918781D01*
X149574715Y-115920542D01*
X149624474Y-115950920D01*
X150130115Y-116456562D01*
X150130116Y-116456561D01*
X150236803Y-116314047D01*
X150373908Y-116062958D01*
X150473890Y-115794895D01*
X150534699Y-115515362D01*
X150555109Y-115230001D01*
X150555109Y-115229998D01*
X150534699Y-114944637D01*
X150473890Y-114665104D01*
X150373908Y-114397041D01*
X150236808Y-114145961D01*
X150236807Y-114145960D01*
X150130115Y-114003436D01*
X150130114Y-114003436D01*
X149624473Y-114509078D01*
X149563150Y-114542563D01*
X149493458Y-114537579D01*
X149445155Y-114504935D01*
X149328071Y-114376500D01*
X149283324Y-114342709D01*
X149241688Y-114286600D01*
X149236997Y-114216888D01*
X149270370Y-114156074D01*
X149776562Y-113649883D01*
X149776561Y-113649882D01*
X149634046Y-113543196D01*
X149634038Y-113543191D01*
X149382957Y-113406091D01*
X149382958Y-113406091D01*
X149114895Y-113306109D01*
X148835362Y-113245300D01*
X148550001Y-113224891D01*
X148549999Y-113224891D01*
X148264637Y-113245300D01*
X147985104Y-113306109D01*
X147717041Y-113406091D01*
X147465961Y-113543191D01*
X147465953Y-113543196D01*
X147323437Y-113649882D01*
X147323436Y-113649883D01*
X147829628Y-114156074D01*
X147863113Y-114217397D01*
X147858129Y-114287088D01*
X147816676Y-114342707D01*
X147771933Y-114376496D01*
X147654843Y-114504937D01*
X147595131Y-114541218D01*
X147525284Y-114539457D01*
X147475525Y-114509079D01*
X146969883Y-114003436D01*
X146969882Y-114003437D01*
X146863196Y-114145953D01*
X146863191Y-114145961D01*
X146726091Y-114397041D01*
X146626109Y-114665104D01*
X146565300Y-114944637D01*
X146544891Y-115229998D01*
X146544891Y-115230001D01*
X143800500Y-115230001D01*
X143800500Y-107370001D01*
X146544891Y-107370001D01*
X146565300Y-107655362D01*
X146626109Y-107934895D01*
X146726091Y-108202958D01*
X146863191Y-108454038D01*
X146863196Y-108454046D01*
X146969882Y-108596561D01*
X146969883Y-108596562D01*
X147475525Y-108090920D01*
X147536848Y-108057435D01*
X147606539Y-108062419D01*
X147654841Y-108095061D01*
X147771930Y-108223500D01*
X147771933Y-108223503D01*
X147816673Y-108257289D01*
X147858310Y-108313397D01*
X147863002Y-108383109D01*
X147829628Y-108443924D01*
X147323436Y-108950115D01*
X147465960Y-109056807D01*
X147465961Y-109056808D01*
X147717042Y-109193908D01*
X147717041Y-109193908D01*
X147985104Y-109293890D01*
X148264637Y-109354699D01*
X148549999Y-109375109D01*
X148550001Y-109375109D01*
X148835362Y-109354699D01*
X149114895Y-109293890D01*
X149382958Y-109193908D01*
X149634047Y-109056803D01*
X149776561Y-108950116D01*
X149776562Y-108950115D01*
X149270371Y-108443924D01*
X149236886Y-108382601D01*
X149241870Y-108312909D01*
X149283325Y-108257289D01*
X149328069Y-108223501D01*
X149445157Y-108095062D01*
X149504867Y-108058781D01*
X149574715Y-108060542D01*
X149624474Y-108090920D01*
X150130115Y-108596562D01*
X150130116Y-108596561D01*
X150236803Y-108454047D01*
X150373908Y-108202958D01*
X150473890Y-107934895D01*
X150534699Y-107655362D01*
X150555109Y-107370001D01*
X150555109Y-107369998D01*
X150534699Y-107084637D01*
X150473890Y-106805104D01*
X150373908Y-106537041D01*
X150236808Y-106285961D01*
X150236807Y-106285960D01*
X150130115Y-106143436D01*
X150130114Y-106143436D01*
X149624473Y-106649078D01*
X149563150Y-106682563D01*
X149493458Y-106677579D01*
X149445155Y-106644935D01*
X149328071Y-106516500D01*
X149283324Y-106482709D01*
X149241688Y-106426600D01*
X149236997Y-106356888D01*
X149270370Y-106296074D01*
X149776562Y-105789883D01*
X149776561Y-105789882D01*
X149634046Y-105683196D01*
X149634038Y-105683191D01*
X149382957Y-105546091D01*
X149382958Y-105546091D01*
X149114895Y-105446109D01*
X148835362Y-105385300D01*
X148550001Y-105364891D01*
X148549999Y-105364891D01*
X148264637Y-105385300D01*
X147985104Y-105446109D01*
X147717041Y-105546091D01*
X147465961Y-105683191D01*
X147465953Y-105683196D01*
X147323437Y-105789882D01*
X147323436Y-105789883D01*
X147829628Y-106296074D01*
X147863113Y-106357397D01*
X147858129Y-106427088D01*
X147816676Y-106482707D01*
X147771933Y-106516496D01*
X147654843Y-106644937D01*
X147595131Y-106681218D01*
X147525284Y-106679457D01*
X147475525Y-106649079D01*
X146969883Y-106143436D01*
X146969882Y-106143437D01*
X146863196Y-106285953D01*
X146863191Y-106285961D01*
X146726091Y-106537041D01*
X146626109Y-106805104D01*
X146565300Y-107084637D01*
X146544891Y-107369998D01*
X146544891Y-107370001D01*
X143800500Y-107370001D01*
X143800500Y-98224500D01*
X143820185Y-98157461D01*
X143872989Y-98111706D01*
X143924500Y-98100500D01*
X144473023Y-98100500D01*
X144540062Y-98120185D01*
X144585817Y-98172989D01*
X144593266Y-98200134D01*
X144594124Y-98199932D01*
X144595907Y-98207479D01*
X144646202Y-98342328D01*
X144646206Y-98342335D01*
X144732452Y-98457544D01*
X144732455Y-98457547D01*
X144847664Y-98543793D01*
X144847671Y-98543797D01*
X144965655Y-98587802D01*
X145021589Y-98629673D01*
X145046006Y-98695137D01*
X145031155Y-98763410D01*
X145004508Y-98795943D01*
X145004689Y-98796124D01*
X145002878Y-98797934D01*
X145002028Y-98798973D01*
X145000859Y-98799953D01*
X144839954Y-98960858D01*
X144709432Y-99147265D01*
X144709431Y-99147267D01*
X144613261Y-99353502D01*
X144613258Y-99353511D01*
X144554366Y-99573302D01*
X144554364Y-99573313D01*
X144534532Y-99799998D01*
X144534532Y-99800001D01*
X144554364Y-100026686D01*
X144554366Y-100026697D01*
X144613258Y-100246488D01*
X144613261Y-100246497D01*
X144709431Y-100452732D01*
X144709432Y-100452734D01*
X144839951Y-100639137D01*
X144913132Y-100712319D01*
X144946616Y-100773643D01*
X144941631Y-100843334D01*
X144913132Y-100887681D01*
X144839951Y-100960862D01*
X144709432Y-101147265D01*
X144709431Y-101147267D01*
X144613261Y-101353502D01*
X144613258Y-101353511D01*
X144554366Y-101573302D01*
X144554364Y-101573313D01*
X144534532Y-101799998D01*
X144534532Y-101800001D01*
X144554364Y-102026686D01*
X144554366Y-102026697D01*
X144613258Y-102246488D01*
X144613261Y-102246497D01*
X144709431Y-102452732D01*
X144709432Y-102452734D01*
X144839954Y-102639141D01*
X145000858Y-102800045D01*
X145000861Y-102800047D01*
X145187266Y-102930568D01*
X145202975Y-102937893D01*
X145255414Y-102984064D01*
X145274567Y-103051257D01*
X145254352Y-103118138D01*
X145202979Y-103162656D01*
X145187512Y-103169868D01*
X145114527Y-103220972D01*
X145114526Y-103220973D01*
X145599160Y-103705606D01*
X145632645Y-103766929D01*
X145627661Y-103836620D01*
X145585790Y-103892554D01*
X145581170Y-103895761D01*
X145477325Y-103985744D01*
X145441137Y-104042053D01*
X145388332Y-104087808D01*
X145319174Y-104097751D01*
X145255618Y-104068725D01*
X145249141Y-104062694D01*
X144760973Y-103574526D01*
X144709868Y-103647513D01*
X144613734Y-103853673D01*
X144613730Y-103853682D01*
X144554860Y-104073389D01*
X144554858Y-104073400D01*
X144535034Y-104299997D01*
X144535034Y-104300002D01*
X144554858Y-104526599D01*
X144554860Y-104526610D01*
X144613730Y-104746317D01*
X144613734Y-104746326D01*
X144709865Y-104952481D01*
X144709866Y-104952483D01*
X144760973Y-105025471D01*
X144760973Y-105025472D01*
X145249141Y-104537304D01*
X145310464Y-104503819D01*
X145380155Y-104508803D01*
X145436089Y-104550674D01*
X145441132Y-104557938D01*
X145477327Y-104614258D01*
X145580555Y-104703705D01*
X145587258Y-104709513D01*
X145585970Y-104710999D01*
X145624268Y-104755188D01*
X145634219Y-104824345D01*
X145605200Y-104887904D01*
X145599160Y-104894392D01*
X145114526Y-105379025D01*
X145114526Y-105379026D01*
X145187512Y-105430131D01*
X145187516Y-105430133D01*
X145393673Y-105526265D01*
X145393682Y-105526269D01*
X145613389Y-105585139D01*
X145613400Y-105585141D01*
X145839998Y-105604966D01*
X145840002Y-105604966D01*
X146066599Y-105585141D01*
X146066610Y-105585139D01*
X146286317Y-105526269D01*
X146286331Y-105526264D01*
X146492478Y-105430136D01*
X146565472Y-105379025D01*
X146080839Y-104894393D01*
X146047354Y-104833070D01*
X146052338Y-104763379D01*
X146094209Y-104707445D01*
X146098834Y-104704233D01*
X146099441Y-104703706D01*
X146099445Y-104703705D01*
X146202673Y-104614258D01*
X146238862Y-104557945D01*
X146291665Y-104512192D01*
X146360823Y-104502248D01*
X146424379Y-104531272D01*
X146430858Y-104537305D01*
X146919025Y-105025472D01*
X146970136Y-104952478D01*
X147066264Y-104746331D01*
X147066269Y-104746317D01*
X147125139Y-104526610D01*
X147125141Y-104526599D01*
X147144966Y-104300002D01*
X147144966Y-104299997D01*
X147125141Y-104073400D01*
X147125139Y-104073389D01*
X147066269Y-103853682D01*
X147066265Y-103853673D01*
X146970133Y-103647516D01*
X146970131Y-103647512D01*
X146919026Y-103574526D01*
X146919025Y-103574526D01*
X146430857Y-104062694D01*
X146369534Y-104096179D01*
X146299842Y-104091195D01*
X146243909Y-104049323D01*
X146238866Y-104042060D01*
X146202673Y-103985742D01*
X146099445Y-103896295D01*
X146099444Y-103896294D01*
X146092742Y-103890487D01*
X146094028Y-103889002D01*
X146055725Y-103844800D01*
X146045781Y-103775641D01*
X146074805Y-103712085D01*
X146080838Y-103705606D01*
X146565472Y-103220973D01*
X146492483Y-103169866D01*
X146492481Y-103169865D01*
X146477023Y-103162657D01*
X146424584Y-103116484D01*
X146405432Y-103049290D01*
X146425648Y-102982409D01*
X146477023Y-102937893D01*
X146492734Y-102930568D01*
X146679139Y-102800047D01*
X146840047Y-102639139D01*
X146970568Y-102452734D01*
X147066739Y-102246496D01*
X147125635Y-102026692D01*
X147145468Y-101800000D01*
X147125635Y-101573308D01*
X147066739Y-101353504D01*
X146970568Y-101147266D01*
X146840047Y-100960861D01*
X146766865Y-100887679D01*
X146733382Y-100826359D01*
X146738366Y-100756667D01*
X146766865Y-100712320D01*
X146840047Y-100639139D01*
X146970568Y-100452734D01*
X147066739Y-100246496D01*
X147125635Y-100026692D01*
X147145468Y-99800000D01*
X147125635Y-99573308D01*
X147066739Y-99353504D01*
X146970568Y-99147266D01*
X146840047Y-98960861D01*
X146840045Y-98960858D01*
X146679147Y-98799960D01*
X146677980Y-98798981D01*
X146677606Y-98798419D01*
X146675311Y-98796124D01*
X146675772Y-98795662D01*
X146639272Y-98740813D01*
X146638158Y-98670952D01*
X146674989Y-98611579D01*
X146714345Y-98587802D01*
X146832326Y-98543798D01*
X146832326Y-98543797D01*
X146832331Y-98543796D01*
X146947546Y-98457546D01*
X147033796Y-98342331D01*
X147084091Y-98207483D01*
X147090500Y-98147873D01*
X147090499Y-96452128D01*
X147084091Y-96392517D01*
X147033796Y-96257669D01*
X147033795Y-96257668D01*
X147033793Y-96257664D01*
X146947547Y-96142455D01*
X146947544Y-96142452D01*
X146832335Y-96056206D01*
X146832328Y-96056202D01*
X146697482Y-96005908D01*
X146697483Y-96005908D01*
X146637883Y-95999501D01*
X146637881Y-95999500D01*
X146637873Y-95999500D01*
X146637864Y-95999500D01*
X145042129Y-95999500D01*
X145042123Y-95999501D01*
X144982516Y-96005908D01*
X144847671Y-96056202D01*
X144847664Y-96056206D01*
X144732455Y-96142452D01*
X144732452Y-96142455D01*
X144646206Y-96257664D01*
X144646202Y-96257671D01*
X144595908Y-96392517D01*
X144594126Y-96400062D01*
X144591853Y-96399525D01*
X144569571Y-96453312D01*
X144512177Y-96493157D01*
X144473024Y-96499500D01*
X143924500Y-96499500D01*
X143857461Y-96479815D01*
X143811706Y-96427011D01*
X143800500Y-96375500D01*
X143800500Y-94230001D01*
X146544891Y-94230001D01*
X146565300Y-94515362D01*
X146626109Y-94794895D01*
X146726091Y-95062958D01*
X146863191Y-95314038D01*
X146863196Y-95314046D01*
X146969882Y-95456561D01*
X146969883Y-95456562D01*
X147475525Y-94950920D01*
X147536848Y-94917435D01*
X147606539Y-94922419D01*
X147654841Y-94955061D01*
X147771930Y-95083500D01*
X147771933Y-95083503D01*
X147816673Y-95117289D01*
X147858310Y-95173397D01*
X147863002Y-95243109D01*
X147829628Y-95303924D01*
X147323436Y-95810115D01*
X147465960Y-95916807D01*
X147465961Y-95916808D01*
X147717042Y-96053908D01*
X147717041Y-96053908D01*
X147985104Y-96153890D01*
X148264637Y-96214699D01*
X148549999Y-96235109D01*
X148550001Y-96235109D01*
X148835362Y-96214699D01*
X149114895Y-96153890D01*
X149382958Y-96053908D01*
X149634047Y-95916803D01*
X149776561Y-95810116D01*
X149776562Y-95810115D01*
X149270371Y-95303924D01*
X149236886Y-95242601D01*
X149241870Y-95172909D01*
X149283325Y-95117289D01*
X149328069Y-95083501D01*
X149445157Y-94955062D01*
X149504867Y-94918781D01*
X149574715Y-94920542D01*
X149624474Y-94950920D01*
X150130115Y-95456562D01*
X150130116Y-95456561D01*
X150236803Y-95314047D01*
X150373908Y-95062958D01*
X150473890Y-94794895D01*
X150534699Y-94515362D01*
X150555109Y-94230001D01*
X150555109Y-94229998D01*
X150534699Y-93944637D01*
X150473890Y-93665104D01*
X150373908Y-93397041D01*
X150236808Y-93145961D01*
X150236807Y-93145960D01*
X150130115Y-93003436D01*
X150130114Y-93003436D01*
X149624473Y-93509078D01*
X149563150Y-93542563D01*
X149493458Y-93537579D01*
X149445155Y-93504935D01*
X149328071Y-93376500D01*
X149283324Y-93342709D01*
X149241688Y-93286600D01*
X149236997Y-93216888D01*
X149270370Y-93156074D01*
X149776562Y-92649883D01*
X149776561Y-92649882D01*
X149634046Y-92543196D01*
X149634038Y-92543191D01*
X149382957Y-92406091D01*
X149382958Y-92406091D01*
X149114895Y-92306109D01*
X148835362Y-92245300D01*
X148550001Y-92224891D01*
X148549999Y-92224891D01*
X148264637Y-92245300D01*
X147985104Y-92306109D01*
X147717041Y-92406091D01*
X147465961Y-92543191D01*
X147465953Y-92543196D01*
X147323437Y-92649882D01*
X147323436Y-92649883D01*
X147829628Y-93156074D01*
X147863113Y-93217397D01*
X147858129Y-93287088D01*
X147816676Y-93342707D01*
X147771933Y-93376496D01*
X147654843Y-93504937D01*
X147595131Y-93541218D01*
X147525284Y-93539457D01*
X147475525Y-93509079D01*
X146969883Y-93003436D01*
X146969882Y-93003437D01*
X146863196Y-93145953D01*
X146863191Y-93145961D01*
X146726091Y-93397041D01*
X146626109Y-93665104D01*
X146565300Y-93944637D01*
X146544891Y-94229998D01*
X146544891Y-94230001D01*
X143800500Y-94230001D01*
X143800500Y-86370001D01*
X146544891Y-86370001D01*
X146565300Y-86655362D01*
X146626109Y-86934895D01*
X146726091Y-87202958D01*
X146863191Y-87454038D01*
X146863196Y-87454046D01*
X146969882Y-87596561D01*
X146969883Y-87596562D01*
X147475525Y-87090920D01*
X147536848Y-87057435D01*
X147606539Y-87062419D01*
X147654841Y-87095061D01*
X147771930Y-87223500D01*
X147771933Y-87223503D01*
X147816673Y-87257289D01*
X147858310Y-87313397D01*
X147863002Y-87383109D01*
X147829628Y-87443924D01*
X147323436Y-87950115D01*
X147465960Y-88056807D01*
X147465961Y-88056808D01*
X147717042Y-88193908D01*
X147717041Y-88193908D01*
X147985104Y-88293890D01*
X148264637Y-88354699D01*
X148549999Y-88375109D01*
X148550001Y-88375109D01*
X148835362Y-88354699D01*
X149114895Y-88293890D01*
X149382958Y-88193908D01*
X149634047Y-88056803D01*
X149776561Y-87950116D01*
X149776562Y-87950115D01*
X149270371Y-87443924D01*
X149236886Y-87382601D01*
X149241870Y-87312909D01*
X149283325Y-87257289D01*
X149328069Y-87223501D01*
X149445157Y-87095062D01*
X149504867Y-87058781D01*
X149574715Y-87060542D01*
X149624474Y-87090920D01*
X150130115Y-87596562D01*
X150130116Y-87596561D01*
X150236803Y-87454047D01*
X150373908Y-87202958D01*
X150473890Y-86934895D01*
X150534699Y-86655362D01*
X150555109Y-86370001D01*
X150555109Y-86369998D01*
X150534699Y-86084637D01*
X150473890Y-85805104D01*
X150373908Y-85537041D01*
X150236808Y-85285961D01*
X150236807Y-85285960D01*
X150130115Y-85143436D01*
X150130114Y-85143436D01*
X149624473Y-85649078D01*
X149563150Y-85682563D01*
X149493458Y-85677579D01*
X149445155Y-85644935D01*
X149328071Y-85516500D01*
X149283324Y-85482709D01*
X149241688Y-85426600D01*
X149236997Y-85356888D01*
X149270370Y-85296074D01*
X149776562Y-84789883D01*
X149776561Y-84789882D01*
X149634046Y-84683196D01*
X149634038Y-84683191D01*
X149382957Y-84546091D01*
X149382958Y-84546091D01*
X149114895Y-84446109D01*
X148835362Y-84385300D01*
X148550001Y-84364891D01*
X148549999Y-84364891D01*
X148264637Y-84385300D01*
X147985104Y-84446109D01*
X147717041Y-84546091D01*
X147465961Y-84683191D01*
X147465953Y-84683196D01*
X147323437Y-84789882D01*
X147323436Y-84789883D01*
X147829628Y-85296074D01*
X147863113Y-85357397D01*
X147858129Y-85427088D01*
X147816676Y-85482707D01*
X147771933Y-85516496D01*
X147654843Y-85644937D01*
X147595131Y-85681218D01*
X147525284Y-85679457D01*
X147475525Y-85649079D01*
X146969883Y-85143436D01*
X146969882Y-85143437D01*
X146863196Y-85285953D01*
X146863191Y-85285961D01*
X146726091Y-85537041D01*
X146626109Y-85805104D01*
X146565300Y-86084637D01*
X146544891Y-86369998D01*
X146544891Y-86370001D01*
X143800500Y-86370001D01*
X143800500Y-77224500D01*
X143820185Y-77157461D01*
X143872989Y-77111706D01*
X143924500Y-77100500D01*
X144473023Y-77100500D01*
X144540062Y-77120185D01*
X144585817Y-77172989D01*
X144593266Y-77200134D01*
X144594124Y-77199932D01*
X144595907Y-77207479D01*
X144646202Y-77342328D01*
X144646206Y-77342335D01*
X144732452Y-77457544D01*
X144732455Y-77457547D01*
X144847664Y-77543793D01*
X144847671Y-77543797D01*
X144965655Y-77587802D01*
X145021589Y-77629673D01*
X145046006Y-77695137D01*
X145031155Y-77763410D01*
X145004508Y-77795943D01*
X145004689Y-77796124D01*
X145002878Y-77797934D01*
X145002028Y-77798973D01*
X145000859Y-77799953D01*
X144839954Y-77960858D01*
X144709432Y-78147265D01*
X144709431Y-78147267D01*
X144613261Y-78353502D01*
X144613258Y-78353511D01*
X144554366Y-78573302D01*
X144554364Y-78573313D01*
X144534532Y-78799998D01*
X144534532Y-78800001D01*
X144554364Y-79026686D01*
X144554366Y-79026697D01*
X144613258Y-79246488D01*
X144613261Y-79246497D01*
X144709431Y-79452732D01*
X144709432Y-79452734D01*
X144839951Y-79639137D01*
X144839952Y-79639138D01*
X144839953Y-79639139D01*
X144913133Y-79712319D01*
X144946617Y-79773640D01*
X144941633Y-79843332D01*
X144913133Y-79887679D01*
X144839955Y-79960858D01*
X144839948Y-79960866D01*
X144709432Y-80147265D01*
X144709431Y-80147267D01*
X144613261Y-80353502D01*
X144613258Y-80353511D01*
X144554366Y-80573302D01*
X144554364Y-80573313D01*
X144534532Y-80799998D01*
X144534532Y-80800001D01*
X144554364Y-81026686D01*
X144554366Y-81026697D01*
X144613258Y-81246488D01*
X144613261Y-81246497D01*
X144709431Y-81452732D01*
X144709432Y-81452734D01*
X144839954Y-81639141D01*
X145000858Y-81800045D01*
X145000861Y-81800047D01*
X145187266Y-81930568D01*
X145202975Y-81937893D01*
X145255414Y-81984064D01*
X145274567Y-82051257D01*
X145254352Y-82118138D01*
X145202979Y-82162656D01*
X145187512Y-82169868D01*
X145114527Y-82220972D01*
X145114526Y-82220973D01*
X145599160Y-82705606D01*
X145632645Y-82766929D01*
X145627661Y-82836620D01*
X145585790Y-82892554D01*
X145581170Y-82895761D01*
X145477325Y-82985744D01*
X145441137Y-83042053D01*
X145388332Y-83087808D01*
X145319174Y-83097751D01*
X145255618Y-83068725D01*
X145249141Y-83062694D01*
X144760973Y-82574526D01*
X144709868Y-82647513D01*
X144613734Y-82853673D01*
X144613730Y-82853682D01*
X144554860Y-83073389D01*
X144554858Y-83073400D01*
X144535034Y-83299997D01*
X144535034Y-83300002D01*
X144554858Y-83526599D01*
X144554860Y-83526610D01*
X144613730Y-83746317D01*
X144613734Y-83746326D01*
X144709865Y-83952481D01*
X144709866Y-83952483D01*
X144760973Y-84025471D01*
X144760973Y-84025472D01*
X145249141Y-83537304D01*
X145310464Y-83503819D01*
X145380155Y-83508803D01*
X145436089Y-83550674D01*
X145441132Y-83557938D01*
X145477327Y-83614258D01*
X145580555Y-83703705D01*
X145587258Y-83709513D01*
X145585970Y-83710999D01*
X145624268Y-83755188D01*
X145634219Y-83824345D01*
X145605200Y-83887904D01*
X145599160Y-83894392D01*
X145114526Y-84379025D01*
X145114526Y-84379026D01*
X145187512Y-84430131D01*
X145187516Y-84430133D01*
X145393673Y-84526265D01*
X145393682Y-84526269D01*
X145613389Y-84585139D01*
X145613400Y-84585141D01*
X145839998Y-84604966D01*
X145840002Y-84604966D01*
X146066599Y-84585141D01*
X146066610Y-84585139D01*
X146286317Y-84526269D01*
X146286331Y-84526264D01*
X146492478Y-84430136D01*
X146565472Y-84379025D01*
X146080839Y-83894393D01*
X146047354Y-83833070D01*
X146052338Y-83763379D01*
X146094209Y-83707445D01*
X146098834Y-83704233D01*
X146099441Y-83703706D01*
X146099445Y-83703705D01*
X146202673Y-83614258D01*
X146238862Y-83557945D01*
X146291665Y-83512192D01*
X146360823Y-83502248D01*
X146424379Y-83531272D01*
X146430858Y-83537305D01*
X146919025Y-84025472D01*
X146970136Y-83952478D01*
X147066264Y-83746331D01*
X147066269Y-83746317D01*
X147125139Y-83526610D01*
X147125141Y-83526599D01*
X147144966Y-83300002D01*
X147144966Y-83299997D01*
X147125141Y-83073400D01*
X147125139Y-83073389D01*
X147066269Y-82853682D01*
X147066265Y-82853673D01*
X146970133Y-82647516D01*
X146970131Y-82647512D01*
X146919026Y-82574526D01*
X146919025Y-82574526D01*
X146430857Y-83062694D01*
X146369534Y-83096179D01*
X146299842Y-83091195D01*
X146243909Y-83049323D01*
X146238866Y-83042060D01*
X146202673Y-82985742D01*
X146099445Y-82896295D01*
X146099444Y-82896294D01*
X146092742Y-82890487D01*
X146094028Y-82889002D01*
X146055725Y-82844800D01*
X146045781Y-82775641D01*
X146074805Y-82712085D01*
X146080838Y-82705606D01*
X146565472Y-82220973D01*
X146492483Y-82169866D01*
X146492481Y-82169865D01*
X146477023Y-82162657D01*
X146424584Y-82116484D01*
X146405432Y-82049290D01*
X146425648Y-81982409D01*
X146477023Y-81937893D01*
X146492734Y-81930568D01*
X146679139Y-81800047D01*
X146840047Y-81639139D01*
X146970568Y-81452734D01*
X147066739Y-81246496D01*
X147125635Y-81026692D01*
X147145468Y-80800000D01*
X147125635Y-80573308D01*
X147066739Y-80353504D01*
X146970568Y-80147266D01*
X146840047Y-79960861D01*
X146766865Y-79887679D01*
X146733382Y-79826359D01*
X146738366Y-79756667D01*
X146766865Y-79712320D01*
X146840047Y-79639139D01*
X146970568Y-79452734D01*
X147066739Y-79246496D01*
X147125635Y-79026692D01*
X147145468Y-78800000D01*
X147125635Y-78573308D01*
X147066739Y-78353504D01*
X146970568Y-78147266D01*
X146840047Y-77960861D01*
X146840045Y-77960858D01*
X146679147Y-77799960D01*
X146677980Y-77798981D01*
X146677606Y-77798419D01*
X146675311Y-77796124D01*
X146675772Y-77795662D01*
X146639272Y-77740813D01*
X146638158Y-77670952D01*
X146674989Y-77611579D01*
X146714345Y-77587802D01*
X146832326Y-77543798D01*
X146832326Y-77543797D01*
X146832331Y-77543796D01*
X146947546Y-77457546D01*
X147033796Y-77342331D01*
X147084091Y-77207483D01*
X147090500Y-77147873D01*
X147090499Y-75452128D01*
X147084091Y-75392517D01*
X147033796Y-75257669D01*
X147033795Y-75257668D01*
X147033793Y-75257664D01*
X146947547Y-75142455D01*
X146947544Y-75142452D01*
X146832335Y-75056206D01*
X146832328Y-75056202D01*
X146697482Y-75005908D01*
X146697483Y-75005908D01*
X146637883Y-74999501D01*
X146637881Y-74999500D01*
X146637873Y-74999500D01*
X146637864Y-74999500D01*
X145042129Y-74999500D01*
X145042123Y-74999501D01*
X144982516Y-75005908D01*
X144847671Y-75056202D01*
X144847664Y-75056206D01*
X144732455Y-75142452D01*
X144732452Y-75142455D01*
X144646206Y-75257664D01*
X144646202Y-75257671D01*
X144595908Y-75392517D01*
X144594126Y-75400062D01*
X144591853Y-75399525D01*
X144569571Y-75453312D01*
X144512177Y-75493157D01*
X144473024Y-75499500D01*
X143924500Y-75499500D01*
X143857461Y-75479815D01*
X143811706Y-75427011D01*
X143800500Y-75375500D01*
X143800500Y-73230001D01*
X146544891Y-73230001D01*
X146565300Y-73515362D01*
X146626109Y-73794895D01*
X146726091Y-74062958D01*
X146863191Y-74314038D01*
X146863196Y-74314046D01*
X146969882Y-74456561D01*
X146969883Y-74456562D01*
X147475525Y-73950920D01*
X147536848Y-73917435D01*
X147606539Y-73922419D01*
X147654841Y-73955061D01*
X147771930Y-74083500D01*
X147771933Y-74083503D01*
X147816673Y-74117289D01*
X147858310Y-74173397D01*
X147863002Y-74243109D01*
X147829628Y-74303924D01*
X147323436Y-74810115D01*
X147465960Y-74916807D01*
X147465961Y-74916808D01*
X147717042Y-75053908D01*
X147717041Y-75053908D01*
X147985104Y-75153890D01*
X148264637Y-75214699D01*
X148549999Y-75235109D01*
X148550001Y-75235109D01*
X148835362Y-75214699D01*
X149114895Y-75153890D01*
X149382958Y-75053908D01*
X149634047Y-74916803D01*
X149776561Y-74810116D01*
X149776562Y-74810115D01*
X149270371Y-74303924D01*
X149236886Y-74242601D01*
X149241870Y-74172909D01*
X149283325Y-74117289D01*
X149328069Y-74083501D01*
X149445157Y-73955062D01*
X149504867Y-73918781D01*
X149574715Y-73920542D01*
X149624474Y-73950920D01*
X150130115Y-74456562D01*
X150130116Y-74456561D01*
X150236803Y-74314047D01*
X150373908Y-74062958D01*
X150473890Y-73794895D01*
X150534699Y-73515362D01*
X150555109Y-73230001D01*
X150555109Y-73229998D01*
X150534699Y-72944637D01*
X150473890Y-72665104D01*
X150373908Y-72397041D01*
X150236808Y-72145961D01*
X150236807Y-72145960D01*
X150130115Y-72003436D01*
X150130114Y-72003436D01*
X149624473Y-72509078D01*
X149563150Y-72542563D01*
X149493458Y-72537579D01*
X149445155Y-72504935D01*
X149328071Y-72376500D01*
X149283324Y-72342709D01*
X149241688Y-72286600D01*
X149236997Y-72216888D01*
X149270370Y-72156074D01*
X149776562Y-71649883D01*
X149776561Y-71649882D01*
X149634046Y-71543196D01*
X149634038Y-71543191D01*
X149382957Y-71406091D01*
X149382958Y-71406091D01*
X149114895Y-71306109D01*
X148835362Y-71245300D01*
X148550001Y-71224891D01*
X148549999Y-71224891D01*
X148264637Y-71245300D01*
X147985104Y-71306109D01*
X147717041Y-71406091D01*
X147465961Y-71543191D01*
X147465953Y-71543196D01*
X147323437Y-71649882D01*
X147323436Y-71649883D01*
X147829628Y-72156074D01*
X147863113Y-72217397D01*
X147858129Y-72287088D01*
X147816676Y-72342707D01*
X147771933Y-72376496D01*
X147654843Y-72504937D01*
X147595131Y-72541218D01*
X147525284Y-72539457D01*
X147475525Y-72509079D01*
X146969883Y-72003436D01*
X146969882Y-72003437D01*
X146863196Y-72145953D01*
X146863191Y-72145961D01*
X146726091Y-72397041D01*
X146626109Y-72665104D01*
X146565300Y-72944637D01*
X146544891Y-73229998D01*
X146544891Y-73230001D01*
X143800500Y-73230001D01*
X143800500Y-65370001D01*
X146544891Y-65370001D01*
X146565300Y-65655362D01*
X146626109Y-65934895D01*
X146726091Y-66202958D01*
X146863191Y-66454038D01*
X146863196Y-66454046D01*
X146969882Y-66596561D01*
X146969883Y-66596562D01*
X147475525Y-66090920D01*
X147536848Y-66057435D01*
X147606539Y-66062419D01*
X147654841Y-66095061D01*
X147771930Y-66223500D01*
X147771933Y-66223503D01*
X147816673Y-66257289D01*
X147858310Y-66313397D01*
X147863002Y-66383109D01*
X147829628Y-66443924D01*
X147323436Y-66950115D01*
X147465960Y-67056807D01*
X147465961Y-67056808D01*
X147717042Y-67193908D01*
X147717041Y-67193908D01*
X147985104Y-67293890D01*
X148264637Y-67354699D01*
X148549999Y-67375109D01*
X148550001Y-67375109D01*
X148835362Y-67354699D01*
X149114895Y-67293890D01*
X149382958Y-67193908D01*
X149634047Y-67056803D01*
X149776561Y-66950116D01*
X149776562Y-66950115D01*
X149270371Y-66443924D01*
X149236886Y-66382601D01*
X149241870Y-66312909D01*
X149283325Y-66257289D01*
X149328069Y-66223501D01*
X149445157Y-66095062D01*
X149504867Y-66058781D01*
X149574715Y-66060542D01*
X149624474Y-66090920D01*
X150130115Y-66596562D01*
X150130116Y-66596561D01*
X150236803Y-66454047D01*
X150373908Y-66202958D01*
X150473890Y-65934895D01*
X150534699Y-65655362D01*
X150555109Y-65370001D01*
X150555109Y-65369998D01*
X150534699Y-65084637D01*
X150473890Y-64805104D01*
X150373908Y-64537041D01*
X150236808Y-64285961D01*
X150236807Y-64285960D01*
X150130115Y-64143436D01*
X150130114Y-64143436D01*
X149624473Y-64649078D01*
X149563150Y-64682563D01*
X149493458Y-64677579D01*
X149445155Y-64644935D01*
X149328071Y-64516500D01*
X149283324Y-64482709D01*
X149241688Y-64426600D01*
X149236997Y-64356888D01*
X149270370Y-64296074D01*
X149776562Y-63789883D01*
X149776561Y-63789882D01*
X149634046Y-63683196D01*
X149634038Y-63683191D01*
X149382957Y-63546091D01*
X149382958Y-63546091D01*
X149114895Y-63446109D01*
X148835362Y-63385300D01*
X148550001Y-63364891D01*
X148549999Y-63364891D01*
X148264637Y-63385300D01*
X147985104Y-63446109D01*
X147717041Y-63546091D01*
X147465961Y-63683191D01*
X147465953Y-63683196D01*
X147323437Y-63789882D01*
X147323436Y-63789883D01*
X147829628Y-64296074D01*
X147863113Y-64357397D01*
X147858129Y-64427088D01*
X147816676Y-64482707D01*
X147771933Y-64516496D01*
X147654843Y-64644937D01*
X147595131Y-64681218D01*
X147525284Y-64679457D01*
X147475525Y-64649079D01*
X146969883Y-64143436D01*
X146969882Y-64143437D01*
X146863196Y-64285953D01*
X146863191Y-64285961D01*
X146726091Y-64537041D01*
X146626109Y-64805104D01*
X146565300Y-65084637D01*
X146544891Y-65369998D01*
X146544891Y-65370001D01*
X143800500Y-65370001D01*
X143800500Y-56682939D01*
X143820185Y-56615900D01*
X143836819Y-56595258D01*
X144295259Y-56136819D01*
X144356582Y-56103334D01*
X144382940Y-56100500D01*
X144473023Y-56100500D01*
X144540062Y-56120185D01*
X144585817Y-56172989D01*
X144593266Y-56200134D01*
X144594124Y-56199932D01*
X144595907Y-56207479D01*
X144646202Y-56342328D01*
X144646206Y-56342335D01*
X144732452Y-56457544D01*
X144732455Y-56457547D01*
X144847664Y-56543793D01*
X144847671Y-56543797D01*
X144965655Y-56587802D01*
X145021589Y-56629673D01*
X145046006Y-56695137D01*
X145031155Y-56763410D01*
X145004508Y-56795943D01*
X145004689Y-56796124D01*
X145002878Y-56797934D01*
X145002028Y-56798973D01*
X145000859Y-56799953D01*
X144839954Y-56960858D01*
X144709432Y-57147265D01*
X144709431Y-57147267D01*
X144613261Y-57353502D01*
X144613258Y-57353511D01*
X144554366Y-57573302D01*
X144554364Y-57573313D01*
X144534532Y-57799998D01*
X144534532Y-57800001D01*
X144554364Y-58026686D01*
X144554366Y-58026697D01*
X144613258Y-58246488D01*
X144613261Y-58246497D01*
X144709431Y-58452732D01*
X144709432Y-58452734D01*
X144839951Y-58639137D01*
X144839952Y-58639138D01*
X144839953Y-58639139D01*
X144913133Y-58712319D01*
X144946617Y-58773640D01*
X144941633Y-58843332D01*
X144913133Y-58887679D01*
X144839955Y-58960858D01*
X144839948Y-58960866D01*
X144709432Y-59147265D01*
X144709431Y-59147267D01*
X144613261Y-59353502D01*
X144613258Y-59353511D01*
X144554366Y-59573302D01*
X144554364Y-59573313D01*
X144534532Y-59799998D01*
X144534532Y-59800001D01*
X144554364Y-60026686D01*
X144554366Y-60026697D01*
X144613258Y-60246488D01*
X144613261Y-60246497D01*
X144709431Y-60452732D01*
X144709432Y-60452734D01*
X144839954Y-60639141D01*
X145000858Y-60800045D01*
X145000861Y-60800047D01*
X145187266Y-60930568D01*
X145202975Y-60937893D01*
X145255414Y-60984064D01*
X145274567Y-61051257D01*
X145254352Y-61118138D01*
X145202979Y-61162656D01*
X145187512Y-61169868D01*
X145114527Y-61220972D01*
X145114526Y-61220973D01*
X145599160Y-61705606D01*
X145632645Y-61766929D01*
X145627661Y-61836620D01*
X145585790Y-61892554D01*
X145581170Y-61895761D01*
X145477325Y-61985744D01*
X145441137Y-62042053D01*
X145388332Y-62087808D01*
X145319174Y-62097751D01*
X145255618Y-62068725D01*
X145249141Y-62062694D01*
X144760973Y-61574526D01*
X144709868Y-61647513D01*
X144613734Y-61853673D01*
X144613730Y-61853682D01*
X144554860Y-62073389D01*
X144554858Y-62073400D01*
X144535034Y-62299997D01*
X144535034Y-62300002D01*
X144554858Y-62526599D01*
X144554860Y-62526610D01*
X144613730Y-62746317D01*
X144613734Y-62746326D01*
X144709865Y-62952481D01*
X144709866Y-62952483D01*
X144760973Y-63025471D01*
X144760973Y-63025472D01*
X145249141Y-62537304D01*
X145310464Y-62503819D01*
X145380155Y-62508803D01*
X145436089Y-62550674D01*
X145441132Y-62557938D01*
X145477327Y-62614258D01*
X145580555Y-62703705D01*
X145587258Y-62709513D01*
X145585970Y-62710999D01*
X145624268Y-62755188D01*
X145634219Y-62824345D01*
X145605200Y-62887904D01*
X145599160Y-62894392D01*
X145114526Y-63379025D01*
X145114526Y-63379026D01*
X145187512Y-63430131D01*
X145187516Y-63430133D01*
X145393673Y-63526265D01*
X145393682Y-63526269D01*
X145613389Y-63585139D01*
X145613400Y-63585141D01*
X145839998Y-63604966D01*
X145840002Y-63604966D01*
X146066599Y-63585141D01*
X146066610Y-63585139D01*
X146286317Y-63526269D01*
X146286331Y-63526264D01*
X146492478Y-63430136D01*
X146565472Y-63379025D01*
X146080839Y-62894393D01*
X146047354Y-62833070D01*
X146052338Y-62763379D01*
X146094209Y-62707445D01*
X146098834Y-62704233D01*
X146099441Y-62703706D01*
X146099445Y-62703705D01*
X146202673Y-62614258D01*
X146238862Y-62557945D01*
X146291665Y-62512192D01*
X146360823Y-62502248D01*
X146424379Y-62531272D01*
X146430858Y-62537305D01*
X146919025Y-63025472D01*
X146970136Y-62952478D01*
X147066264Y-62746331D01*
X147066269Y-62746317D01*
X147125139Y-62526610D01*
X147125141Y-62526599D01*
X147144966Y-62300002D01*
X147144966Y-62299997D01*
X147125141Y-62073400D01*
X147125139Y-62073389D01*
X147066269Y-61853682D01*
X147066265Y-61853673D01*
X146970133Y-61647516D01*
X146970131Y-61647512D01*
X146919026Y-61574526D01*
X146919025Y-61574526D01*
X146430857Y-62062694D01*
X146369534Y-62096179D01*
X146299842Y-62091195D01*
X146243909Y-62049323D01*
X146238866Y-62042060D01*
X146202673Y-61985742D01*
X146099445Y-61896295D01*
X146099444Y-61896294D01*
X146092742Y-61890487D01*
X146094028Y-61889002D01*
X146055725Y-61844800D01*
X146045781Y-61775641D01*
X146074805Y-61712085D01*
X146080838Y-61705606D01*
X146565472Y-61220973D01*
X146492483Y-61169866D01*
X146492481Y-61169865D01*
X146477023Y-61162657D01*
X146424584Y-61116484D01*
X146405432Y-61049290D01*
X146425648Y-60982409D01*
X146477023Y-60937893D01*
X146492734Y-60930568D01*
X146679139Y-60800047D01*
X146840047Y-60639139D01*
X146970568Y-60452734D01*
X147066739Y-60246496D01*
X147125635Y-60026692D01*
X147145468Y-59800000D01*
X147125635Y-59573308D01*
X147066739Y-59353504D01*
X146970568Y-59147266D01*
X146840047Y-58960861D01*
X146766865Y-58887679D01*
X146733382Y-58826359D01*
X146738366Y-58756667D01*
X146766865Y-58712320D01*
X146840047Y-58639139D01*
X146970568Y-58452734D01*
X147066739Y-58246496D01*
X147125635Y-58026692D01*
X147145468Y-57800000D01*
X147125635Y-57573308D01*
X147066739Y-57353504D01*
X146970568Y-57147266D01*
X146840047Y-56960861D01*
X146840045Y-56960858D01*
X146679147Y-56799960D01*
X146677980Y-56798981D01*
X146677606Y-56798419D01*
X146675311Y-56796124D01*
X146675772Y-56795662D01*
X146639272Y-56740813D01*
X146638158Y-56670952D01*
X146674989Y-56611579D01*
X146714345Y-56587802D01*
X146832326Y-56543798D01*
X146832326Y-56543797D01*
X146832331Y-56543796D01*
X146947546Y-56457546D01*
X147033796Y-56342331D01*
X147084091Y-56207483D01*
X147090500Y-56147873D01*
X147090499Y-54452128D01*
X147084091Y-54392517D01*
X147033796Y-54257669D01*
X147033795Y-54257668D01*
X147033793Y-54257664D01*
X146947547Y-54142455D01*
X146947544Y-54142452D01*
X146832335Y-54056206D01*
X146832328Y-54056202D01*
X146697482Y-54005908D01*
X146697483Y-54005908D01*
X146637883Y-53999501D01*
X146637881Y-53999500D01*
X146637873Y-53999500D01*
X146637864Y-53999500D01*
X145042129Y-53999500D01*
X145042123Y-53999501D01*
X144982516Y-54005908D01*
X144847671Y-54056202D01*
X144847664Y-54056206D01*
X144732455Y-54142452D01*
X144732452Y-54142455D01*
X144646206Y-54257664D01*
X144646202Y-54257671D01*
X144595908Y-54392517D01*
X144594126Y-54400062D01*
X144591853Y-54399525D01*
X144569571Y-54453312D01*
X144512177Y-54493157D01*
X144473024Y-54499500D01*
X144090195Y-54499500D01*
X143909806Y-54499500D01*
X143903888Y-54500850D01*
X143869089Y-54508791D01*
X143862235Y-54509955D01*
X143820743Y-54514632D01*
X143781339Y-54528419D01*
X143774658Y-54530344D01*
X143733935Y-54539641D01*
X143696308Y-54557759D01*
X143689885Y-54560420D01*
X143650481Y-54574210D01*
X143650475Y-54574212D01*
X143615122Y-54596425D01*
X143609036Y-54599789D01*
X143571417Y-54617905D01*
X143538763Y-54643945D01*
X143533091Y-54647969D01*
X143497743Y-54670180D01*
X143497740Y-54670182D01*
X143448308Y-54719613D01*
X143448307Y-54719614D01*
X142439159Y-55728760D01*
X142439151Y-55728771D01*
X142370183Y-55797739D01*
X142347966Y-55833096D01*
X142343941Y-55838769D01*
X142317910Y-55871410D01*
X142299791Y-55909033D01*
X142296427Y-55915120D01*
X142274212Y-55950476D01*
X142274208Y-55950483D01*
X142260416Y-55989895D01*
X142257755Y-55996320D01*
X142239639Y-56033939D01*
X142230344Y-56074659D01*
X142228419Y-56081341D01*
X142214632Y-56120744D01*
X142209955Y-56162235D01*
X142208791Y-56169089D01*
X142199500Y-56209806D01*
X142199500Y-118251564D01*
X142199110Y-118258502D01*
X142194435Y-118300000D01*
X142199110Y-118341496D01*
X142199500Y-118348435D01*
X142199500Y-137952279D01*
X142182888Y-138014277D01*
X142172821Y-138031713D01*
X142114327Y-138211740D01*
X142114326Y-138211744D01*
X142094540Y-138400000D01*
X142114326Y-138588256D01*
X142114327Y-138588259D01*
X142172818Y-138768277D01*
X142172820Y-138768281D01*
X142172821Y-138768284D01*
X142198196Y-138812235D01*
X142262480Y-138923579D01*
X142278952Y-138991479D01*
X142256099Y-139057506D01*
X142201177Y-139100696D01*
X142131624Y-139107337D01*
X142129368Y-139106880D01*
X142094646Y-139099500D01*
X141905354Y-139099500D01*
X141872897Y-139106398D01*
X141720197Y-139138855D01*
X141720192Y-139138857D01*
X141547270Y-139215848D01*
X141547265Y-139215851D01*
X141394129Y-139327111D01*
X141267466Y-139467785D01*
X141172821Y-139631715D01*
X141172818Y-139631722D01*
X141125140Y-139778462D01*
X141114326Y-139811744D01*
X141094540Y-140000000D01*
X140005643Y-140000000D01*
X139985115Y-139778464D01*
X139924229Y-139564472D01*
X139924224Y-139564461D01*
X139825061Y-139365316D01*
X139825056Y-139365308D01*
X139768763Y-139290764D01*
X139690981Y-139187764D01*
X139585531Y-139091633D01*
X139549253Y-139031927D01*
X139551013Y-138962079D01*
X139585531Y-138908366D01*
X139690981Y-138812236D01*
X139825058Y-138634689D01*
X139924229Y-138435528D01*
X139985115Y-138221536D01*
X140005643Y-138000000D01*
X139985115Y-137778464D01*
X139924229Y-137564472D01*
X139892375Y-137500500D01*
X139825061Y-137365316D01*
X139825056Y-137365308D01*
X139690979Y-137187761D01*
X139526562Y-137037876D01*
X139526560Y-137037874D01*
X139337404Y-136920754D01*
X139337398Y-136920751D01*
X139235316Y-136881205D01*
X139194411Y-136865358D01*
X139139011Y-136822786D01*
X139115420Y-136757019D01*
X139131131Y-136688939D01*
X139181155Y-136640160D01*
X139194412Y-136634105D01*
X139337177Y-136578797D01*
X139337181Y-136578795D01*
X139453326Y-136506879D01*
X139022057Y-136075610D01*
X138988572Y-136014287D01*
X138993556Y-135944595D01*
X139035428Y-135888662D01*
X139055930Y-135876212D01*
X139056357Y-135876007D01*
X139155798Y-135783740D01*
X139178033Y-135745226D01*
X139228596Y-135697014D01*
X139297203Y-135683789D01*
X139362068Y-135709756D01*
X139373100Y-135719547D01*
X139808861Y-136155308D01*
X139824631Y-136134425D01*
X139824633Y-136134422D01*
X139923759Y-135935350D01*
X139984621Y-135721439D01*
X140005141Y-135500000D01*
X140005141Y-135499999D01*
X139984621Y-135278560D01*
X139923759Y-135064649D01*
X139824635Y-134865580D01*
X139824630Y-134865572D01*
X139808860Y-134844690D01*
X139375184Y-135278367D01*
X139313861Y-135311852D01*
X139244169Y-135306868D01*
X139190555Y-135267998D01*
X139190483Y-135267908D01*
X139119637Y-135179068D01*
X139109535Y-135166400D01*
X139109533Y-135166399D01*
X139037275Y-135117134D01*
X138992973Y-135063106D01*
X138984915Y-134993702D01*
X139015657Y-134930959D01*
X139019446Y-134927000D01*
X139453327Y-134493119D01*
X139337178Y-134421202D01*
X139337177Y-134421201D01*
X139129804Y-134340865D01*
X138911193Y-134300000D01*
X138688807Y-134300000D01*
X138470196Y-134340864D01*
X138470188Y-134340867D01*
X138425807Y-134358060D01*
X138356184Y-134363921D01*
X138294444Y-134331211D01*
X138282455Y-134309898D01*
X138286917Y-134359973D01*
X138254507Y-134421872D01*
X138230587Y-134441161D01*
X138146671Y-134493119D01*
X138577942Y-134924389D01*
X138611427Y-134985712D01*
X138606443Y-135055403D01*
X138564572Y-135111337D01*
X138544073Y-135123785D01*
X138543646Y-135123990D01*
X138543645Y-135123990D01*
X138444202Y-135216260D01*
X138444199Y-135216264D01*
X138421967Y-135254771D01*
X138371400Y-135302987D01*
X138302793Y-135316209D01*
X138237928Y-135290241D01*
X138226899Y-135280452D01*
X137791138Y-134844691D01*
X137791137Y-134844691D01*
X137775368Y-134865574D01*
X137676240Y-135064649D01*
X137615378Y-135278560D01*
X137594859Y-135499999D01*
X137594859Y-135500000D01*
X137615378Y-135721439D01*
X137676240Y-135935350D01*
X137775369Y-136134428D01*
X137791137Y-136155308D01*
X137791138Y-136155308D01*
X138224814Y-135721631D01*
X138286137Y-135688146D01*
X138355828Y-135693130D01*
X138409443Y-135732000D01*
X138490464Y-135833599D01*
X138490466Y-135833600D01*
X138562723Y-135882865D01*
X138607025Y-135936894D01*
X138615083Y-136006297D01*
X138584340Y-136069040D01*
X138580552Y-136072999D01*
X138146671Y-136506879D01*
X138146672Y-136506880D01*
X138262821Y-136578797D01*
X138262822Y-136578798D01*
X138405587Y-136634105D01*
X138460988Y-136676678D01*
X138484579Y-136742445D01*
X138468868Y-136810525D01*
X138418844Y-136859304D01*
X138405587Y-136865359D01*
X138262601Y-136920751D01*
X138262595Y-136920754D01*
X138073439Y-137037874D01*
X138073437Y-137037876D01*
X137909020Y-137187761D01*
X137774943Y-137365308D01*
X137774938Y-137365316D01*
X137675775Y-137564461D01*
X137675769Y-137564476D01*
X137614885Y-137778462D01*
X137614884Y-137778464D01*
X137594357Y-137999999D01*
X137594357Y-138000000D01*
X137614884Y-138221535D01*
X137614885Y-138221537D01*
X137675769Y-138435523D01*
X137675775Y-138435538D01*
X137774938Y-138634683D01*
X137774943Y-138634691D01*
X137909018Y-138812235D01*
X138014465Y-138908363D01*
X138050746Y-138968075D01*
X138048985Y-139037922D01*
X138014465Y-139091637D01*
X137909018Y-139187764D01*
X137774943Y-139365308D01*
X137774938Y-139365316D01*
X137675775Y-139564461D01*
X137675769Y-139564476D01*
X137614885Y-139778462D01*
X137614884Y-139778464D01*
X137594357Y-139999999D01*
X137594357Y-140000000D01*
X137614884Y-140221535D01*
X137614885Y-140221537D01*
X137675769Y-140435523D01*
X137675775Y-140435538D01*
X137774938Y-140634683D01*
X137774943Y-140634691D01*
X137909020Y-140812238D01*
X138073437Y-140962123D01*
X138073439Y-140962125D01*
X138262595Y-141079245D01*
X138262596Y-141079245D01*
X138262599Y-141079247D01*
X138404898Y-141134374D01*
X138460298Y-141176946D01*
X138483889Y-141242713D01*
X138468178Y-141310793D01*
X138418154Y-141359572D01*
X138404906Y-141365622D01*
X138298693Y-141406769D01*
X138262601Y-141420752D01*
X138262595Y-141420754D01*
X138073439Y-141537874D01*
X138073437Y-141537876D01*
X137909020Y-141687761D01*
X137774943Y-141865308D01*
X137774938Y-141865316D01*
X137675775Y-142064461D01*
X137675769Y-142064476D01*
X137614885Y-142278462D01*
X137614884Y-142278464D01*
X137594357Y-142499999D01*
X137594357Y-142500000D01*
X134450500Y-142500000D01*
X134450500Y-141293933D01*
X136045668Y-141293933D01*
X136068031Y-141420752D01*
X136076135Y-141466711D01*
X136145623Y-141627804D01*
X136145624Y-141627806D01*
X136145626Y-141627809D01*
X136200278Y-141701218D01*
X136250390Y-141768530D01*
X136384786Y-141881302D01*
X136462488Y-141920325D01*
X136541562Y-141960038D01*
X136541563Y-141960038D01*
X136541567Y-141960040D01*
X136712279Y-142000500D01*
X136712282Y-142000500D01*
X136843701Y-142000500D01*
X136843709Y-142000500D01*
X136974255Y-141985241D01*
X137139117Y-141925237D01*
X137285696Y-141828830D01*
X137406092Y-141701218D01*
X137493812Y-141549281D01*
X137544130Y-141381210D01*
X137554331Y-141206065D01*
X137523865Y-141033289D01*
X137454377Y-140872196D01*
X137349610Y-140731470D01*
X137277747Y-140671170D01*
X137215214Y-140618698D01*
X137215212Y-140618697D01*
X137058437Y-140539961D01*
X137058433Y-140539960D01*
X136887721Y-140499500D01*
X136756291Y-140499500D01*
X136651854Y-140511707D01*
X136625743Y-140514759D01*
X136625740Y-140514760D01*
X136460884Y-140574762D01*
X136460880Y-140574764D01*
X136314306Y-140671167D01*
X136314305Y-140671168D01*
X136193910Y-140798778D01*
X136106188Y-140950718D01*
X136055870Y-141118789D01*
X136055869Y-141118794D01*
X136045668Y-141293933D01*
X134450500Y-141293933D01*
X134450500Y-136793933D01*
X136045668Y-136793933D01*
X136076134Y-136966706D01*
X136076135Y-136966711D01*
X136145623Y-137127804D01*
X136145624Y-137127806D01*
X136145626Y-137127809D01*
X136200278Y-137201218D01*
X136250390Y-137268530D01*
X136384786Y-137381302D01*
X136422017Y-137400000D01*
X136541562Y-137460038D01*
X136541563Y-137460038D01*
X136541567Y-137460040D01*
X136712279Y-137500500D01*
X136712282Y-137500500D01*
X136843701Y-137500500D01*
X136843709Y-137500500D01*
X136974255Y-137485241D01*
X137139117Y-137425237D01*
X137285696Y-137328830D01*
X137406092Y-137201218D01*
X137493812Y-137049281D01*
X137544130Y-136881210D01*
X137554331Y-136706065D01*
X137523865Y-136533289D01*
X137454377Y-136372196D01*
X137349610Y-136231470D01*
X137277747Y-136171170D01*
X137215214Y-136118698D01*
X137215212Y-136118697D01*
X137058437Y-136039961D01*
X137058433Y-136039960D01*
X136887721Y-135999500D01*
X136756291Y-135999500D01*
X136651854Y-136011707D01*
X136625743Y-136014759D01*
X136625740Y-136014760D01*
X136460884Y-136074762D01*
X136460880Y-136074764D01*
X136314306Y-136171167D01*
X136314305Y-136171168D01*
X136193910Y-136298778D01*
X136106188Y-136450718D01*
X136055870Y-136618789D01*
X136055869Y-136618794D01*
X136045668Y-136793933D01*
X134450500Y-136793933D01*
X134450500Y-132726086D01*
X135000000Y-132726086D01*
X135000001Y-133573911D01*
X135000001Y-133573912D01*
X135002814Y-133615423D01*
X135002814Y-133615425D01*
X135047435Y-133794849D01*
X135129581Y-133960481D01*
X135245413Y-134104582D01*
X135382039Y-134214406D01*
X135963822Y-133632623D01*
X136025145Y-133599138D01*
X136072599Y-133601162D01*
X136072983Y-133598615D01*
X136082172Y-133600000D01*
X136404191Y-133600000D01*
X136471230Y-133619685D01*
X136516985Y-133672489D01*
X136526929Y-133741647D01*
X136497904Y-133805203D01*
X136491872Y-133811681D01*
X135953553Y-134349998D01*
X135953554Y-134349999D01*
X137646445Y-134349999D01*
X137646445Y-134349998D01*
X137108128Y-133811681D01*
X137074643Y-133750358D01*
X137079627Y-133680666D01*
X137121499Y-133624733D01*
X137186963Y-133600316D01*
X137195809Y-133600000D01*
X137483723Y-133600000D01*
X137483724Y-133600000D01*
X137525958Y-133593634D01*
X137595182Y-133603106D01*
X137632121Y-133628568D01*
X138251527Y-134247974D01*
X138249430Y-134250070D01*
X138260539Y-134264383D01*
X138264297Y-134200565D01*
X138303328Y-134145785D01*
X138354587Y-134104582D01*
X138470418Y-133960481D01*
X138552564Y-133794849D01*
X138597184Y-133615431D01*
X138600000Y-133573914D01*
X138599999Y-132726089D01*
X138599999Y-132726088D01*
X138597185Y-132684576D01*
X138597185Y-132684574D01*
X138552564Y-132505150D01*
X138470418Y-132339518D01*
X138354587Y-132195417D01*
X138354578Y-132195408D01*
X138217960Y-132085591D01*
X137636176Y-132667375D01*
X137574853Y-132700860D01*
X137527397Y-132698847D01*
X137527015Y-132701385D01*
X137517827Y-132700000D01*
X137195808Y-132700000D01*
X137128769Y-132680315D01*
X137083014Y-132627511D01*
X137073070Y-132558353D01*
X137102095Y-132494797D01*
X137108127Y-132488319D01*
X137646445Y-131950000D01*
X135953554Y-131950000D01*
X136491872Y-132488319D01*
X136525357Y-132549642D01*
X136520373Y-132619334D01*
X136478501Y-132675267D01*
X136413037Y-132699684D01*
X136404191Y-132700000D01*
X136116265Y-132700000D01*
X136074039Y-132706365D01*
X136004814Y-132696891D01*
X135967878Y-132671431D01*
X135382039Y-132085592D01*
X135382038Y-132085592D01*
X135245417Y-132195412D01*
X135245412Y-132195417D01*
X135129581Y-132339518D01*
X135047435Y-132505150D01*
X135002815Y-132684568D01*
X135000000Y-132726086D01*
X134450500Y-132726086D01*
X134450500Y-52230001D01*
X146544891Y-52230001D01*
X146565300Y-52515362D01*
X146626109Y-52794895D01*
X146726091Y-53062958D01*
X146863191Y-53314038D01*
X146863196Y-53314046D01*
X146969882Y-53456561D01*
X146969883Y-53456562D01*
X147475525Y-52950920D01*
X147536848Y-52917435D01*
X147606539Y-52922419D01*
X147654841Y-52955061D01*
X147771930Y-53083500D01*
X147771933Y-53083503D01*
X147816673Y-53117289D01*
X147858310Y-53173397D01*
X147863002Y-53243109D01*
X147829628Y-53303924D01*
X147323436Y-53810115D01*
X147465960Y-53916807D01*
X147465961Y-53916808D01*
X147717042Y-54053908D01*
X147717041Y-54053908D01*
X147985104Y-54153890D01*
X148264637Y-54214699D01*
X148549999Y-54235109D01*
X148550001Y-54235109D01*
X148835362Y-54214699D01*
X149114895Y-54153890D01*
X149382958Y-54053908D01*
X149634047Y-53916803D01*
X149776561Y-53810116D01*
X149776562Y-53810115D01*
X149270371Y-53303924D01*
X149236886Y-53242601D01*
X149241870Y-53172909D01*
X149283325Y-53117289D01*
X149328069Y-53083501D01*
X149445157Y-52955062D01*
X149504867Y-52918781D01*
X149574715Y-52920542D01*
X149624474Y-52950920D01*
X150130115Y-53456562D01*
X150130116Y-53456561D01*
X150236803Y-53314047D01*
X150373908Y-53062958D01*
X150473890Y-52794895D01*
X150534699Y-52515362D01*
X150555109Y-52230001D01*
X150555109Y-52229998D01*
X150534699Y-51944637D01*
X150473890Y-51665104D01*
X150373908Y-51397041D01*
X150236808Y-51145961D01*
X150236807Y-51145960D01*
X150130115Y-51003436D01*
X150130114Y-51003436D01*
X149624473Y-51509078D01*
X149563150Y-51542563D01*
X149493458Y-51537579D01*
X149445155Y-51504935D01*
X149328071Y-51376500D01*
X149283324Y-51342709D01*
X149241688Y-51286600D01*
X149236997Y-51216888D01*
X149270370Y-51156074D01*
X149776562Y-50649883D01*
X149776561Y-50649882D01*
X149634046Y-50543196D01*
X149634038Y-50543191D01*
X149382957Y-50406091D01*
X149382958Y-50406091D01*
X149114895Y-50306109D01*
X148835362Y-50245300D01*
X148550001Y-50224891D01*
X148549999Y-50224891D01*
X148264637Y-50245300D01*
X147985104Y-50306109D01*
X147717041Y-50406091D01*
X147465961Y-50543191D01*
X147465953Y-50543196D01*
X147323437Y-50649882D01*
X147323436Y-50649883D01*
X147829628Y-51156074D01*
X147863113Y-51217397D01*
X147858129Y-51287088D01*
X147816676Y-51342707D01*
X147771933Y-51376496D01*
X147654843Y-51504937D01*
X147595131Y-51541218D01*
X147525284Y-51539457D01*
X147475525Y-51509079D01*
X146969883Y-51003436D01*
X146969882Y-51003437D01*
X146863196Y-51145953D01*
X146863191Y-51145961D01*
X146726091Y-51397041D01*
X146626109Y-51665104D01*
X146565300Y-51944637D01*
X146544891Y-52229998D01*
X146544891Y-52230001D01*
X134450500Y-52230001D01*
X134450500Y-48924500D01*
X134470185Y-48857461D01*
X134522989Y-48811706D01*
X134574500Y-48800500D01*
X158575500Y-48800500D01*
X158642539Y-48820185D01*
G37*
%TD.AperFunction*%
%TD*%
M02*
